v 1.451087 -4.202878 1.86056
v 1.727416 -4.202878 2.102215
v 1.451087 4.202878 1.86056
newmtl 1
Ka 1.0 1.0 0.0
Kd 1.0 1.0 0.0
Ks 0.5019607843137255 0.5019607843137255 0.0
d 0.0
endmtl
v 1.823236 -4.194313 2.19334
v 1.913911 -4.16503 2.284293
v 1.954939 -4.151781 2.325447
v 1.954939 4.151781 2.325447
v 1.915024 4.168805 2.284534
v 1.822966 4.194362 2.193077
v 1.727416 4.202878 2.102215
v 2.186068 -3.67733 2.57877
v 2.273602 -3.812074 2.68278
v 2.319647 -3.702879 2.739472
v 2.35562 -3.58561 2.784768
v 2.381507 -3.461698 2.817927
v 2.397102 -3.333341 2.838138
v 2.081652 -4.068904 2.460705
v 2.154097 -3.996393 2.541951
v 2.218508 -3.909986 2.616759
v 2.273899 3.811464 2.683141
v 2.218508 3.909986 2.616759
v 2.186068 3.67733 2.57877
v 2.154479 3.99595 2.542386
v 2.081652 4.068904 2.460705
v 2.381507 3.461698 2.817927
v 2.355515 3.586019 2.784634
v 2.319647 3.702879 2.739472
v 2.402304 -3.202879 2.844919
v 2.402304 3.202879 2.844919
v 2.397071 3.333725 2.838098
v -2.347533 -4.202878 0.5
v -1.663103 -4.202878 0.539276
v -1.663103 -2.767616 0.539276
v -1.810447 -2.704939 0.524155
v -1.964014 -2.655266 0.512305
v -2.347533 -2.655266 0.5
v -0.987659 -4.202878 0.65659
v -0.987686 -3.321635 0.656702
v -1.010655 -3.297825 0.651271
v -1.137684 -3.149142 0.6236
v -1.27914 -3.015922 0.596164
v -1.43426 -2.898643 0.570113
v -1.603806 -2.801567 0.547267
v -0.727183 -3.481057 0.723592
v -0.834976 -3.442405 0.694349
v -0.931148 -3.38024 0.670069
v 1.214049 3.385086 1.67555
v 1.29322 3.305916 1.735225
v 1.119246 3.444655 1.606744
v 1.013564 3.481635 1.533309
v 0.897361 4.202878 1.456364
v 0.902304 3.494171 1.459558
v 1.352788 3.211112 1.781503
v 1.374128 3.159647 1.798377
v 1.389768 3.105431 1.810845
v 1.402304 -2.994171 1.8209
v 1.402304 2.994171 1.8209
v 1.399127 3.050442 1.818347
v 1.397971 -3.059856 1.817418
v 1.385267 -3.12358 1.807248
v 1.363875 -3.1864 1.79025
v 1.335317 -3.244171 1.767805
v 1.298352 -3.299369 1.739166
v 1.255857 -3.347724 1.706807
v 1.152304 -3.427183 1.630416
v 1.031713 -3.477134 1.545681
v 0.897361 -4.202878 1.456364
v 0.902304 -3.494171 1.459558
v 0.897361 -3.494171 1.456364
v 0.301033 -4.202878 1.118164
v 0.301033 -3.494171 1.118164
v -0.330069 -4.202878 0.850401
v -0.330069 -3.494171 0.850401
v -0.613422 -3.494171 0.756816
v -0.987659 4.202878 0.65659
v -0.931148 3.38024 0.670069
v -0.834976 3.442405 0.694349
v -0.727183 3.481057 0.723592
v -0.613422 3.494171 0.756816
v -0.330069 4.202878 0.850401
v -0.330069 3.494171 0.850401
v 0.301033 4.202878 1.118164
v 0.301033 3.494171 1.118164
v 0.897361 3.494171 1.456364
v -1.601961 2.798343 0.546636
v -1.434744 2.898316 0.570038
v -1.663103 4.202878 0.539276
v -1.27914 3.015922 0.596164
v -1.1376 3.14923 0.623617
v -1.010655 3.297825 0.651271
v -0.987686 3.321635 0.656702
v -2.347533 2.655266 0.5
v -1.964014 2.655266 0.512305
v -2.347533 4.202878 0.5
v -1.810365 2.70497 0.524163
v -1.663185 2.770912 0.540034
v 2.56108 3.202879 2.723305
v 2.56108 -3.202879 2.723305
v 0.389568 -3.494171 0.938828
v 0.389568 -4.202878 0.938828
v -0.26263 -4.202878 0.662114
v 0.389568 4.202878 0.938828
v 0.389568 3.494171 0.938828
v -0.26263 3.494171 0.662114
v -0.931148 3.38024 0.464415
v -0.942216 3.368767 0.461887
v -0.942202 4.202878 0.461825
v -1.27914 3.015922 0.393005
v -1.434755 2.898309 0.367746
v -1.640224 4.202878 0.340589
v -1.137601 3.149229 0.419538
v -1.010655 3.297825 0.446257
v -1.964014 2.655266 0.311906
v -2.347533 2.655266 0.3
v -1.798416 2.709485 0.324432
v -2.347533 4.202878 0.3
v -1.640276 2.781013 0.341082
v -1.601961 2.798343 0.345116
v -0.613422 3.494171 0.548156
v -0.727183 3.481057 0.516093
v -0.834976 3.442405 0.487862
v -0.26263 4.202878 0.662114
v 0.902304 3.494171 1.222946
v 1.00583 4.202878 1.288333
v 1.005782 3.482512 1.28841
v 1.00583 -4.202878 1.288333
v 1.005667 -3.480563 1.288591
v 1.031713 -3.477134 1.305133
v 1.578066 -4.202878 1.706041
v 1.152304 -3.427183 1.385867
v 1.255857 -3.347724 1.458539
v 1.298381 -3.299331 1.489309
v 1.335317 -3.244171 1.516486
v 1.363896 -3.18635 1.537806
v 1.385267 -3.12358 1.553918
v 1.397974 -3.059831 1.563567
v 1.402304 -2.994171 1.566866
v 1.402304 2.994171 1.566866
v 1.399095 3.050729 1.56442
v 1.578066 4.202878 1.706041
v 1.389768 3.105431 1.55733
v 1.374183 3.159488 1.545544
v 1.352788 3.211112 1.52949
v 1.29322 3.305916 1.485545
v 1.214049 3.385086 1.428817
v 1.119246 3.444655 1.363325
v 1.013564 3.481635 1.293334
v 0.902304 -3.494171 1.222946
v -0.930226 -3.378861 0.464733
v -0.834976 -3.442405 0.487862
v -0.942202 -4.202878 0.461825
v -0.727183 -3.481057 0.516093
v -0.613422 -3.494171 0.548156
v -0.26263 -3.494171 0.662114
v -1.27914 -3.015922 0.393005
v -1.640224 -4.202878 0.340589
v -1.434269 -2.898637 0.367818
v -1.603134 -2.800359 0.345493
v -1.137685 -3.149141 0.419522
v -1.010655 -3.297825 0.446257
v -0.942202 -3.370872 0.461825
v -2.347533 -2.655266 0.3
v -1.964014 -2.655266 0.311906
v -2.347533 -4.202878 0.3
v -1.798511 -2.709449 0.324423
v -1.640224 -2.778773 0.340589
v 1.888383 4.202878 1.978922
v 1.98367 4.194311 2.070474
v 2.074359 4.166554 2.161874
v 1.888383 -4.202878 1.978922
v 1.983402 -4.19436 2.07021
v 2.074993 -4.168805 2.162006
v 2.098761 4.159086 2.186467
v 2.098548 -4.156966 2.186671
v 2.337616 3.680982 2.448259
v 2.432471 3.812073 2.561095
v 2.478461 3.702879 2.617827
v 2.51441 3.585606 2.663145
v 2.540286 3.461698 2.696311
v 2.555878 3.333341 2.716523
v 2.172559 4.119719 2.264173
v 2.240967 4.068904 2.338678
v 2.313204 3.996392 2.420084
v 2.377469 3.909986 2.495003
v 2.432768 -3.811463 2.561457
v 2.377469 -3.909986 2.495003
v 2.337616 -3.679922 2.448259
v 2.313586 -3.995948 2.420522
v 2.240967 -4.068904 2.338678
v 2.172181 -4.119959 2.263768
v 2.540286 -3.461698 2.696311
v 2.514304 -3.586019 2.66301
v 2.478461 -3.702879 2.617827
v 2.555847 -3.333725 2.716483
v -2.400121 -3.803503 0.3
v -2.420101 -3.755266 0.3
v -2.451885 -3.713845 0.3
v -2.493306 -3.682061 0.3
v -4.01261 -3.655266 0.3
v -5.463462 -2.362373 0.3
v -5.256356 -2.521291 0.3
v -6.057834 -3.038024 0.3
v -6.161388 -2.958564 0.3
v -5.622381 -2.155266 0.3
v -2.393306 4.202878 0.3
v -2.393306 3.855266 0.3
v -2.400121 3.803503 0.3
v -2.420101 3.755266 0.3
v -2.393306 -3.855266 0.3
v -2.393306 -4.202878 0.3
v -4.662272 -3.4504 0.3
v -4.693429 -3.375181 0.3
v -4.742992 -3.310589 0.3
v -4.01261 -4.202878 0.3
v -4.651646 -4.202878 0.3
v -4.651646 -3.53112 0.3
v -5.911388 -3.391577 0.3
v -5.184053 -3.310589 0.3
v -5.233616 -3.375181 0.3
v -2.541543 3.662081 0.3
v -2.493306 3.682061 0.3
v -2.451885 3.713845 0.3
v -5.978375 -3.141577 0.3
v -4.963523 -3.219243 0.3
v -5.928425 -3.262167 0.3
v -5.044243 -3.22987 0.3
v -5.119462 -3.261026 0.3
v -5.2754 -4.202878 0.3
v -5.911388 -4.202878 0.3
v -5.2754 -3.53112 0.3
v -5.264773 -3.4504 0.3
v -4.756356 2.655266 0.3
v -4.01261 3.655266 0.3
v -2.593306 3.655266 0.3
v -2.541543 -3.662081 0.3
v -2.593306 -3.655266 0.3
v -4.756356 -2.655266 0.3
v -5.015175 -2.621192 0.3
v -4.882803 -3.22987 0.3
v -4.807584 -3.261026 0.3
v -6.057834 3.038024 0.3
v -5.463462 2.362373 0.3
v -6.161388 2.958564 0.3
v -5.622381 2.155266 0.3
v -6.281979 2.908614 0.3
v -5.722281 1.914085 0.3
v -6.281979 -2.908614 0.3
v -6.411388 -2.891577 0.3
v -7.779428 1.138417 0.3
v -7.974583 -1.008445 0.3
v -7.974583 1.008445 0.3
v -8.194638 -0.927489 0.3
v -7.619903 -1.31026 0.3
v -7.779428 -1.138417 0.3
v -6.411388 2.891577 0.3
v -6.596503 2.891577 0.3
v -5.756356 1.655266 0.3
v -5.756356 -1.655266 0.3
v -5.722281 -1.914085 0.3
v -5.044243 3.22987 0.3
v -5.256356 2.521291 0.3
v -5.119462 3.261026 0.3
v -5.184053 3.310589 0.3
v -5.233616 3.375181 0.3
v -4.963523 3.219243 0.3
v -4.882803 3.22987 0.3
v -4.807584 3.261026 0.3
v -4.742992 3.310589 0.3
v -4.693429 3.375181 0.3
v -5.015175 2.621192 0.3
v -7.057862 -2.584314 0.3
v -7.504777 -1.514525 0.3
v -8.60727 -0.9 0.3
v -8.60727 0.9 0.3
v -8.427496 -0.9 0.3
v -8.427496 0.9 0.3
v -8.194638 0.927489 0.3
v -7.619903 1.31026 0.3
v -7.504777 1.514525 0.3
v -7.057862 2.584314 0.3
v -7.000299 2.686447 0.3
v -5.911388 3.391577 0.3
v -5.911388 4.202878 0.3
v -5.2754 4.202878 0.3
v -4.651646 4.202878 0.3
v -4.01261 4.202878 0.3
v -4.651646 3.53112 0.3
v -4.662272 3.4504 0.3
v -6.712932 -2.877832 0.3
v -6.822959 -2.837354 0.3
v -6.920537 -2.772368 0.3
v -5.978375 3.141577 0.3
v -5.928425 3.262167 0.3
v -5.264773 3.4504 0.3
v -5.2754 3.53112 0.3
v -6.596503 -2.891577 0.3
v -7.000299 -2.686447 0.3
v -6.920537 2.772368 0.3
v -6.822959 2.837354 0.3
v -6.712932 2.877832 0.3
v -9.049995 -0.9 -0.01
v -9.049995 0.9 -0.01
v -11.095243 0.208196 -0.01
v -11.142035 0.147217 -0.01
v -13.049995 0.9 -0.01
v -10.632061 -0.147217 -0.01
v -10.678852 -0.208196 -0.01
v -10.739831 -0.254987 -0.01
v -11.034265 0.254987 -0.01
v -11.171449 0.076205 -0.01
v -11.181481 0.0 -0.01
v -13.049995 -0.9 -0.01
v -11.171449 -0.076205 -0.01
v -11.142035 -0.147217 -0.01
v -11.095243 -0.208196 -0.01
v -11.034265 -0.254987 -0.01
v -10.632061 0.147217 -0.01
v -10.678852 0.208196 -0.01
v -10.739831 0.254987 -0.01
v -10.602648 -0.076205 -0.01
v -10.592614 0.0 -0.01
v -10.602648 0.076205 -0.01
v -10.963253 -0.284401 -0.01
v -10.887048 -0.294433 -0.01
v -10.810843 -0.284401 -0.01
v -10.810843 0.284401 -0.01
v -10.887048 0.294433 -0.01
v -10.963253 0.284401 -0.01
v -13.049995 -0.9 0.19
v -13.049995 0.9 0.19
v -10.602648 -0.076205 0.19
v -10.632061 -0.147217 0.19
v -9.113055 -0.9 0.19
v -10.678852 -0.208196 0.19
v -10.739831 -0.254987 0.19
v -11.034265 -0.254987 0.19
v -11.095243 -0.208196 0.19
v -10.739831 0.254987 0.19
v -10.678852 0.208196 0.19
v -9.113055 0.9 0.19
v -10.632061 0.147217 0.19
v -10.602648 0.076205 0.19
v -10.592614 0.0 0.19
v -10.810843 -0.284401 0.19
v -10.887048 -0.294433 0.19
v -10.963253 -0.284401 0.19
v -11.171449 0.076205 0.19
v -11.142035 0.147217 0.19
v -11.095243 0.208196 0.19
v -11.034265 0.254987 0.19
v -11.142035 -0.147217 0.19
v -11.171449 -0.076205 0.19
v -11.181481 0.0 0.19
v -10.963253 0.284401 0.19
v -10.887048 0.294433 0.19
v -10.810843 0.284401 0.19
v -8.67033 0.9 0.5
v -8.67033 -0.9 0.5
v -2.400121 3.803503 0.5
v -2.393306 3.855266 0.5
v -2.393306 4.202878 0.5
v -4.01261 3.655266 0.5
v -5.463462 2.362373 0.5
v -5.256356 2.521291 0.5
v -2.541543 -3.662081 0.5
v -2.493306 -3.682061 0.5
v -2.451885 -3.713845 0.5
v -2.420101 -3.755266 0.5
v -2.420101 3.755266 0.5
v -2.451885 3.713845 0.5
v -2.493306 3.682061 0.5
v -2.393306 -4.202878 0.5
v -2.393306 -3.855266 0.5
v -2.400121 -3.803503 0.5
v -4.756356 -2.655266 0.5
v -4.01261 -3.655266 0.5
v -2.593306 -3.655266 0.5
v -5.015175 2.621192 0.5
v -4.756356 2.655266 0.5
v -2.593306 3.655266 0.5
v -2.541543 3.662081 0.5
v -4.963523 3.219243 0.5
v -5.044243 3.22987 0.5
v -5.928425 3.262167 0.5
v -5.119462 3.261026 0.5
v -5.184053 3.310589 0.5
v -4.882803 -3.22987 0.5
v -4.807584 -3.261026 0.5
v -4.742992 -3.310589 0.5
v -4.693429 -3.375181 0.5
v -4.651646 -4.402879 0.5
v -4.01261 -4.402879 0.5
v -4.651646 -3.53112 0.5
v -4.662272 -3.4504 0.5
v -5.184053 -3.310589 0.5
v -7.619903 -1.31026 0.5
v -6.161388 -2.958564 0.5
v -5.911388 -3.391577 0.5
v -5.911388 -4.402879 0.5
v -5.2754 -4.402879 0.5
v -6.057834 -3.038024 0.5
v -5.978375 -3.141577 0.5
v -5.233616 -3.375181 0.5
v -5.264773 -3.4504 0.5
v -4.963523 -3.219243 0.5
v -5.015175 -2.621192 0.5
v -5.044243 -3.22987 0.5
v -5.256356 -2.521291 0.5
v -5.119462 -3.261026 0.5
v -5.463462 -2.362373 0.5
v -7.779428 -1.138417 0.5
v -7.057862 -2.584314 0.5
v -6.596503 -2.891577 0.5
v -7.504777 -1.514525 0.5
v -6.411388 -2.891577 0.5
v -6.281979 -2.908614 0.5
v -5.928425 -3.262167 0.5
v -5.2754 -3.53112 0.5
v -5.622381 -2.155266 0.5
v -5.722281 -1.914085 0.5
v -7.974583 -1.008445 0.5
v -5.2754 4.402879 0.5
v -5.911388 4.402879 0.5
v -5.2754 3.53112 0.5
v -5.911388 3.391577 0.5
v -5.264773 3.4504 0.5
v -5.233616 3.375181 0.5
v -7.000299 -2.686447 0.5
v -6.920537 -2.772368 0.5
v -6.712932 -2.877832 0.5
v -6.822959 -2.837354 0.5
v -5.722281 1.914085 0.5
v -7.057862 2.584314 0.5
v -5.756356 1.655266 0.5
v -7.504777 1.514525 0.5
v -5.756356 -1.655266 0.5
v -7.619903 1.31026 0.5
v -7.779428 1.138417 0.5
v -7.974583 1.008445 0.5
v -8.194638 0.927489 0.5
v -4.662272 3.4504 0.5
v -4.693429 3.375181 0.5
v -4.742992 3.310589 0.5
v -4.807584 3.261026 0.5
v -4.882803 3.22987 0.5
v -5.622381 2.155266 0.5
v -6.411388 2.891577 0.5
v -6.596503 2.891577 0.5
v -6.712932 2.877832 0.5
v -6.822959 2.837354 0.5
v -5.978375 3.141577 0.5
v -6.057834 3.038024 0.5
v -6.161388 2.958564 0.5
v -6.281979 2.908614 0.5
v -6.920537 2.772368 0.5
v -7.000299 2.686447 0.5
v -8.427496 0.9 0.5
v -8.427496 -0.9 0.5
v -8.194638 -0.927489 0.5
v -4.01261 4.402879 0.5
v -4.651646 4.402879 0.5
v -4.651646 3.53112 0.5
v -4.01261 -4.202878 0.0
v -4.01261 -4.402879 0.0
v -5.911388 -4.202878 0.0
v -5.911388 -4.402879 0.0
v -4.01261 4.202878 0.0
v -4.01261 4.402879 0.0
v -5.911388 4.202878 0.0
v -5.911388 4.402879 0.0
v -4.651646 4.202878 0.0
v -4.651646 4.402879 0.0
v -5.2754 4.202878 0.0
v -5.2754 4.402879 0.0
v -4.651646 -4.202878 0.0
v -4.651646 -4.402879 0.0
v -5.2754 -4.202878 0.0
v -5.2754 -4.402879 0.0
v -2.580809 0.420554 0.0
v -3.666222 0.420554 0.0
v -3.666222 3.519621 0.0
newmtl 2
Ka 0.5019607843137255 0.5019607843137255 0.5019607843137255
Kd 0.5019607843137255 0.5019607843137255 0.5019607843137255
Ks 0.25098039215686274 0.25098039215686274 0.25098039215686274
d 0.0
endmtl
v -0.910077 -7.85 0.0
v -1.641784 -7.85 0.0
v -1.641784 -4.930743 0.0
v -12.07351 -2.467647 0.0
v -12.183685 -1.817051 0.0
v -11.582453 -1.817051 0.0
v -6.7 -1.25 0.0
v -6.7 -0.591641 0.0
v -3.666222 -0.591641 0.0
v -6.7 0.420554 0.0
v 11.75 3.5 0.0
v 11.15 3.5 0.0
v 11.15 3.519621 0.0
v -0.478556 -0.591641 0.0
v 9.05 -0.591641 0.0
v 9.05 -1.817051 0.0
v -8.68796 -5.258607 0.0
v -8.896535 -4.930743 0.0
v -7.399674 -4.930743 0.0
v -9.831512 -3.036363 0.0
v -10.885195 -3.036363 0.0
v -10.744859 -3.452271 0.0
v -11.582453 -4.024185 0.0
v -7.399674 -1.817051 0.0
v -9.136361 -4.553754 0.0
v -9.518606 -3.810942 0.0
v -11.257751 -4.812912 0.0
v -10.282581 -4.530917 0.0
v -11.193057 -4.930743 0.0
v -10.062244 -4.930743 0.0
v -10.659292 -5.902906 0.0
v -9.881563 -5.258607 0.0
v -9.943184 -6.919483 0.0
v -9.118334 -7.85 0.0
v -9.831512 3.036363 0.0
v -9.636292 3.519621 0.0
v -7.399674 3.519621 0.0
v -9.518606 3.810942 0.0
v -9.136361 4.553754 0.0
v -8.68796 5.258607 0.0
v -7.399674 7.85 0.0
v -9.118334 7.85 0.0
v -9.943184 6.919483 0.0
v -10.659292 5.902906 0.0
v -9.881563 5.258607 0.0
v -11.257751 4.812912 0.0
v -10.282581 4.530917 0.0
v -11.582453 4.024185 0.0
v -10.715994 3.519621 0.0
v -10.744859 3.452271 0.0
v -11.582453 3.519621 0.0
v -10.885195 3.036363 0.0
v -11.582453 1.25 0.0
v -7.399674 1.25 0.0
v -0.910077 -4.930743 0.0
v 10.75 -4.930743 0.0
v 10.75 -5.5 0.0
v 11.75 -4.930743 0.0
v 11.75 -6.5 0.0
v 11.15 -5.5 0.0
v 7.859387 -6.5 0.0
v 7.315655 -7.197648 0.0
v 6.718333 -7.85 0.0
v 11.15 -4.930743 0.0
v 11.15 -3.5 0.0
v 11.75 -3.5 0.0
v -0.537364 -0.597739 0.0
v -0.910077 -1.817051 0.0
v 9.05 -4.45 0.0
v 9.95 -4.45 0.0
v 10.75 -4.1 0.0
v 9.95 -4.1 0.0
v 9.05 0.420554 0.0
v 0.528947 -0.585544 0.0
v 0.016752 -0.585544 0.0
v -0.414128 -0.584961 0.0
v -0.317204 -0.551599 0.0
v -0.12139 0.15107 0.0
v -0.180002 0.244564 0.0
v 0.394801 0.414456 0.0
v -0.270284 0.331391 0.0
v -0.365268 0.386065 0.0
v -0.236765 -0.500233 0.0
v -0.161653 -0.421155 0.0
v 0.016752 -0.475788 0.0
v -0.10838 -0.32607 0.0
v 0.394801 -0.475788 0.0
v -0.476749 0.418452 0.0
v -0.502498 0.420554 0.0
v 0.528947 0.414456 0.0
v -0.078284 -0.220221 0.0
v -0.068614 -0.104408 0.0
v -0.082999 0.037762 0.0
v -0.577188 0.426651 0.0
v -0.910077 3.519621 0.0
v 10.75 5.5 0.0
v 10.75 4.1 0.0
v 9.95 4.1 0.0
v 7.315655 7.197648 0.0
v 7.859387 6.5 0.0
v 9.05 4.45 0.0
v -0.910077 7.85 0.0
v 6.718333 7.85 0.0
v 9.95 4.45 0.0
v 9.05 3.519621 0.0
v 11.15 5.5 0.0
v 11.75 6.5 0.0
v 11.75 3.519621 0.0
v -11.731121 3.663059 0.0
v -11.772204 3.519621 0.0
v -12.07351 2.467647 0.0
v -12.279711 1.25 0.0
v -11.582453 -1.25 0.0
v -12.279711 -1.25 0.0
v -11.731121 -3.663059 0.0
v -0.812516 -0.533714 0.0
v -0.910077 -0.591641 0.0
v -0.812516 -0.423958 0.0
v -0.910077 0.420554 0.0
v -0.705922 -0.577482 0.0
v -0.604874 -0.591641 0.0
v -0.564707 -0.59727 0.0
v -0.665555 0.420554 0.0
v -0.6969 0.418391 0.0
v -0.812516 0.387017 0.0
v -0.812516 0.252871 0.0
v -0.699877 0.301104 0.0
v -0.794594 -0.433886 0.0
v -0.578332 0.316895 0.0
v -0.479863 0.305837 0.0
v -0.405015 0.278825 0.0
v -0.3358 0.232521 0.0
v -0.275412 0.165854 0.0
v -0.20276 -0.096214 0.0
v -0.212886 -0.20447 0.0
v -0.240054 -0.290484 0.0
v -0.462575 -0.47752 0.0
v -0.555847 -0.487983 0.0
v -0.389711 -0.450696 0.0
v -0.328338 -0.409331 0.0
v -0.281412 -0.359825 0.0
v -0.688588 -0.47325 0.0
v -0.234186 0.088644 0.0
v -0.20753 -0.018409 0.0
v -7.399674 -7.85 0.0
v -3.666222 -7.85 0.0
v -3.666222 -4.930743 0.0
v -2.580809 -7.85 0.0
v -3.666222 -1.817051 0.0
v -2.580809 -1.817051 0.0
v -2.580809 -4.930743 0.0
v -3.81261 -4.002879 0.0
v -6.111388 -4.002879 0.0
v -6.111388 -4.602879 0.0
v -3.81261 -4.602879 0.0
v -7.399674 -1.25 0.0
v -2.580809 -0.591641 0.0
v -1.544223 -0.475788 0.0
v -1.544223 -0.585544 0.0
v -1.641784 -0.591641 0.0
v -1.007638 -0.585544 0.0
v -1.641784 -1.817051 0.0
v -1.007638 0.414456 0.0
v -1.519833 0.414456 0.0
v -1.641784 0.420554 0.0
v -1.519833 0.3047 0.0
v -1.141784 -0.134324 0.0
v -1.141784 -0.475788 0.0
v -1.495443 -0.134324 0.0
v -1.495443 -0.024568 0.0
v -1.141784 -0.024568 0.0
v -1.141784 0.3047 0.0
v -1.739345 -0.585544 0.0
v -1.739345 0.414456 0.0
v -2.354632 -0.47972 0.0
v -2.436942 -0.40091 0.0
v -2.494289 -0.311466 0.0
v -2.021548 0.414456 0.0
v -2.166021 0.399013 0.0
v -2.283022 0.357928 0.0
v -2.391863 0.284986 0.0
v -2.250218 -0.540398 0.0
v -2.134991 -0.574743 0.0
v -2.011259 -0.585544 0.0
v -2.392909 0.284068 0.0
v -2.463624 0.205655 0.0
v -2.510098 0.119654 0.0
v -2.536956 0.021128 0.0
v -2.544224 -0.072967 0.0
v -2.530191 -0.206797 0.0
v -3.129589 0.414456 0.0
v -3.27231 -0.305056 0.0
v -2.8592 -0.305056 0.0
v -3.373492 -0.585544 0.0
v -2.763736 -0.585544 0.0
v -3.519833 -0.585544 0.0
v -2.617394 -0.585544 0.0
v -2.995443 0.414456 0.0
v -6.7 1.25 0.0
v -1.641784 3.519621 0.0
v -2.580809 3.519621 0.0
v -1.641784 7.85 0.0
v -2.580809 7.85 0.0
v -3.666222 7.85 0.0
v -3.81261 4.602879 0.0
v -6.111388 4.602879 0.0
v -6.111388 4.002879 0.0
v -3.81261 4.002879 0.0
v -9.118334 7.85 5.3
v -12.279711 -1.25 0.2
v -12.07351 -2.467647 5.3
v -12.280662 -1.241544 0.2
v -12.280662 -1.241544 5.3
v -12.35 -0.0 5.3
v -12.35 -0.0 0.2
v -12.280662 1.241544 5.3
v -12.07351 2.467647 5.3
v -12.279711 1.25 0.2
v -12.280662 1.241544 0.2
v -9.943184 6.919483 5.3
v -10.659292 5.902906 5.3
v -11.257751 4.812912 5.3
v -11.731121 3.663059 5.3
v -11.731121 -3.663059 5.3
v -11.257751 -4.812912 5.3
v -10.659292 -5.902906 5.3
v -9.943184 -6.919483 5.3
v -9.118334 -7.85 5.3
v 6.718333 -7.85 4.7
v 7.315655 -7.197648 4.7
v 7.859387 -6.5 4.7
v 7.859387 6.5 4.7
v 7.315655 7.197648 4.7
v 6.718333 7.85 4.7
v 5.8 7.35 0.5
v 5.8 7.35 4.7
v 5.8 7.85 0.5
v 5.8 7.85 4.7
v 5.8 -7.35 4.7
v 5.8 -7.35 0.5
v 5.8 -7.85 4.7
v 5.8 -7.85 0.5
v -8.2 7.85 5.3
v -8.2 7.35 5.3
v -10.885195 3.036363 5.3
v -10.675389 3.036363 5.3
v -10.371093 3.859218 5.3
v -9.881563 5.258607 5.3
v -9.698891 5.548995 5.3
v -9.001591 6.492895 5.3
v -9.881563 -5.258607 5.3
v -9.698891 -5.548995 5.3
v -9.001591 -6.492895 5.3
v -8.2 -7.35 5.3
v -8.2 -7.85 5.3
v -9.646867 5.258607 5.3
v -9.988053 4.666113 5.3
v -10.675389 -3.036363 5.3
v -10.885195 -3.036363 5.3
v -10.371093 -3.859218 5.3
v -9.988053 -4.666113 5.3
v -9.646867 -5.258607 5.3
v -11.079542 2.327477 5.3
v -11.282159 1.171569 5.3
v -11.35 0.0 5.3
v -11.282159 -1.171569 5.3
v -11.079542 -2.327477 5.3
v -8.2 -7.35 0.5
v -8.2 -7.85 0.5
v -9.001591 -6.492895 0.5
v -8.2 7.85 0.5
v -8.2 7.35 0.5
v -8.68796 -5.258607 0.5
v -9.881563 -5.258607 0.5
v -9.698891 -5.548995 0.5
v -9.411453 1.4 0.5
v -10.885195 3.036363 0.5
v -11.079542 2.327477 0.5
v -9.001591 6.492895 0.5
v -8.68796 5.258607 0.5
v -9.698891 5.548995 0.5
v -9.881563 5.258607 0.5
v 6.59346 -6.502652 0.5
v 4.299883 -4.702878 0.5
v -2.893306 -4.702878 0.5
v -6.411388 4.702878 0.5
v -3.51261 4.702878 0.5
v 8.32746 -3.5 0.5
v 4.299883 4.702878 0.5
v 7.86551 -4.564979 0.5
v 7.284978 -5.570246 0.5
v 9.05 -3.5 0.5
v 9.05 3.5 0.5
v 8.32746 3.5 0.5
v 7.86551 4.564979 0.5
v 7.284978 5.570246 0.5
v 6.59346 6.502652 0.5
v -2.893306 4.702878 0.5
v -2.893306 4.155266 0.5
v -3.51261 4.155266 0.5
v -6.929501 -3.391577 0.5
v -7.045929 -3.377832 0.5
v -11.282159 -1.171569 0.5
v -9.411453 -1.4 0.5
v -11.35 0.0 0.5
v -11.282159 1.171569 0.5
v -7.253534 3.272368 0.5
v -7.333297 3.186447 0.5
v -9.136361 4.553754 0.5
v -7.39086 3.084314 0.5
v -9.518606 3.810942 0.5
v -7.966136 1.707263 0.5
v -9.831512 3.036363 0.5
v -8.023699 1.60513 0.5
v -8.427496 1.4 0.5
v -8.311067 1.413745 0.5
v -7.155957 3.337354 0.5
v -7.045929 3.377832 0.5
v -6.929501 3.391577 0.5
v -6.411388 3.391577 0.5
v -6.411388 -3.391577 0.5
v -6.411388 -4.702878 0.5
v -3.51261 -4.702878 0.5
v -3.51261 -4.155266 0.5
v -2.893306 -4.155266 0.5
v -7.966136 -1.707263 0.5
v -9.831512 -3.036363 0.5
v -7.39086 -3.084314 0.5
v -9.518606 -3.810942 0.5
v -7.333297 -3.186447 0.5
v -9.136361 -4.553754 0.5
v -7.253534 -3.272368 0.5
v -7.155957 -3.337354 0.5
v -8.023699 -1.60513 0.5
v -8.103462 -1.519209 0.5
v -8.201039 -1.454223 0.5
v -8.201039 1.454223 0.5
v -8.103462 1.519209 0.5
v -11.079542 -2.327477 0.5
v -10.885195 -3.036363 0.5
v -8.427496 -1.4 0.5
v -8.311067 -1.413745 0.5
v 11.75 -6.5 4.7
v 11.75 -3.5 4.7
v 11.15 -3.5 4.7
v 10.75 -5.5 4.7
v 10.75 -4.1 4.7
v 9.95 -4.1 4.7
v 9.95 -4.45 4.7
v 11.15 -5.5 4.7
v 11.15 -5.2 4.7
v 6.59346 -6.502652 4.7
v 9.05 -4.45 4.7
v 9.05 -3.5 4.7
v 8.32746 -3.5 4.7
v 9.05 -4.0 4.7
v 7.86551 -4.564979 4.7
v 7.284978 -5.570246 4.7
v 9.05 4.45 4.7
v 6.59346 6.502652 4.7
v 7.284978 5.570246 4.7
v 7.86551 4.564979 4.7
v 9.05 4.0 4.7
v 8.32746 3.5 4.7
v 9.05 3.5 4.7
v 11.75 6.5 4.7
v 10.75 5.5 4.7
v 11.15 3.5 4.7
v 11.75 3.5 4.7
v 11.15 5.2 4.7
v 11.15 5.5 4.7
v 9.95 4.1 4.7
v 10.75 4.1 4.7
v 9.95 4.45 4.7
v 6.55 -3.5 5.0
v 6.55 -2.695564 5.0
v 6.55 -3.5 4.8
v 6.55 -2.695564 4.8
v 10.95 1.5 2.0
v 11.15 1.5 2.0
v 10.95 1.4 2.0
v 11.15 1.4 2.0
v 11.15 3.5 1.55
v 11.15 3.3 1.55
v 11.114222 3.3 1.27824
v 11.15 4.0 1.55
v 9.085778 3.3 1.27824
v 9.05 3.3 1.55
v 9.05 3.5 1.55
v 11.114222 4.0 1.27824
v 11.009327 3.3 1.025
v 11.009327 4.0 1.025
v 10.842463 3.3 0.807538
v 10.842463 4.0 0.807538
v 10.625 3.3 0.640673
v 10.625 4.0 0.640673
v 10.371759 3.3 0.535778
v 10.371759 4.0 0.535778
v 10.099999 3.3 0.5
v 10.099999 4.0 0.5
v 9.828239 3.3 0.535778
v 9.828239 4.0 0.535778
v 9.575 3.3 0.640673
v 9.575 4.0 0.640673
v 9.357538 3.3 0.807538
v 9.357538 4.0 0.807538
v 9.190673 3.3 1.025
v 9.190673 4.0 1.025
v 9.085778 4.0 1.27824
v 9.05 4.0 1.55
v 11.15 -1.5 1.55
v 11.15 -2.5 1.55
v 11.114222 -2.5 1.27824
v 11.114222 -1.5 1.27824
v 11.009327 -2.5 1.025
v 11.009327 -1.5 1.025
v 10.842463 -2.5 0.807538
v 10.842463 -1.5 0.807538
v 10.625 -2.5 0.640673
v 10.625 -1.5 0.640673
v 10.371759 -2.5 0.535778
v 10.371759 -1.5 0.535778
v 10.099999 -2.5 0.5
v 10.099999 -1.5 0.5
v 9.828239 -2.5 0.535778
v 9.828239 -1.5 0.535778
v 9.575 -2.5 0.640673
v 9.575 -1.5 0.640673
v 9.357538 -2.5 0.807538
v 9.357538 -1.5 0.807538
v 9.190673 -2.5 1.025
v 9.190673 -1.5 1.025
v 9.085778 -2.5 1.27824
v 9.085778 -1.5 1.27824
v 9.05 -2.5 1.55
v 9.05 -1.5 1.55
v 11.15 2.5 1.55
v 11.15 1.5 1.55
v 11.114222 1.5 1.27824
v 11.114222 2.5 1.27824
v 11.009327 1.5 1.025
v 11.009327 2.5 1.025
v 10.842463 1.5 0.807538
v 10.842463 2.5 0.807538
v 10.625 1.5 0.640673
v 10.625 2.5 0.640673
v 10.371759 1.5 0.535778
v 10.371759 2.5 0.535778
v 10.099999 1.5 0.5
v 10.099999 2.5 0.5
v 9.828239 1.5 0.535778
v 9.828239 2.5 0.535778
v 9.575 1.5 0.640673
v 9.575 2.5 0.640673
v 9.357538 1.5 0.807538
v 9.357538 2.5 0.807538
v 9.190673 1.5 1.025
v 9.190673 2.5 1.025
v 9.085778 1.5 1.27824
v 9.085778 2.5 1.27824
v 9.05 1.5 1.55
v 9.05 2.5 1.55
v 9.25 4.0 1.55
v 9.25 3.3 1.55
v 9.278963 4.0 1.330004
v 9.278963 3.3 1.330004
v 9.363878 4.0 1.125
v 9.363878 3.3 1.125
v 9.49896 4.0 0.948959
v 9.49896 3.3 0.948959
v 9.675 4.0 0.813878
v 9.675 3.3 0.813878
v 9.880004 4.0 0.728963
v 9.880004 3.3 0.728963
v 10.099999 4.0 0.7
v 10.099999 3.3 0.7
v 10.319997 4.0 0.728963
v 10.319997 3.3 0.728963
v 10.525001 4.0 0.813878
v 10.525001 3.3 0.813878
v 10.70104 4.0 0.948959
v 10.70104 3.3 0.948959
v 10.836122 4.0 1.125
v 10.836122 3.3 1.125
v 10.921037 4.0 1.330004
v 10.921037 3.3 1.330004
v 10.95 4.0 1.55
v 10.95 3.3 1.55
v 9.25 -1.5 1.55
v 9.25 -2.5 1.55
v 9.278963 -1.5 1.330004
v 9.278963 -2.5 1.330004
v 9.363878 -1.5 1.125
v 9.363878 -2.5 1.125
v 9.49896 -1.5 0.948959
v 9.49896 -2.5 0.948959
v 9.675 -1.5 0.813878
v 9.675 -2.5 0.813878
v 9.880004 -1.5 0.728963
v 9.880004 -2.5 0.728963
v 10.099999 -1.5 0.7
v 10.099999 -2.5 0.7
v 10.319997 -1.5 0.728963
v 10.319997 -2.5 0.728963
v 10.525001 -1.5 0.813878
v 10.525001 -2.5 0.813878
v 10.70104 -1.5 0.948959
v 10.70104 -2.5 0.948959
v 10.836122 -1.5 1.125
v 10.836122 -2.5 1.125
v 10.921037 -1.5 1.330004
v 10.921037 -2.5 1.330004
v 10.95 -1.5 1.55
v 10.95 -2.5 1.55
v 9.25 2.5 1.55
v 9.25 1.5 1.55
v 9.278963 2.5 1.330004
v 9.278963 1.5 1.330004
v 9.363878 2.5 1.125
v 9.363878 1.5 1.125
v 9.49896 2.5 0.948959
v 9.49896 1.5 0.948959
v 9.675 2.5 0.813878
v 9.675 1.5 0.813878
v 9.880004 2.5 0.728963
v 9.880004 1.5 0.728963
v 10.099999 2.5 0.7
v 10.099999 1.5 0.7
v 10.319997 2.5 0.728963
v 10.319997 1.5 0.728963
v 10.525001 2.5 0.813878
v 10.525001 1.5 0.813878
v 10.70104 2.5 0.948959
v 10.70104 1.5 0.948959
v 10.836122 2.5 1.125
v 10.836122 1.5 1.125
v 10.921037 2.5 1.330004
v 10.921037 1.5 1.330004
v 10.95 2.5 1.55
v 10.95 1.5 1.55
v 11.15 5.2 2.8
v 11.15 4.0 2.8
v 11.15 -5.2 2.8
v 11.15 -4.0 1.55
v 11.15 -3.5 1.55
v 11.15 -4.0 2.8
v 9.05 -4.0 1.55
v 9.05 -3.5 1.55
v -9.881563 -5.258607 4.7
v -10.885195 -3.036363 4.7
v -10.744859 -3.452271 4.7
v -10.885195 3.036363 4.7
v -10.744859 3.452271 4.7
v -10.282581 4.530917 4.7
v -9.881563 5.258607 4.7
v -10.282581 -4.530917 4.7
v -9.411453 -1.4 0.3
v -9.411453 1.4 0.3
v -8.427496 1.4 0.3
v -7.966136 1.707263 0.3
v -8.023699 1.60513 0.3
v -8.103462 1.519209 0.3
v -8.201039 1.454223 0.3
v -8.311067 1.413745 0.3
v -7.39086 3.084314 0.3
v -6.929501 3.391577 0.3
v -7.045929 3.377832 0.3
v -7.155957 3.337354 0.3
v -7.253534 3.272368 0.3
v -7.333297 3.186447 0.3
v -6.411388 3.391577 0.3
v -6.411388 4.702878 0.3
v -3.51261 4.702878 0.3
v -3.51261 4.155266 0.3
v -2.893306 4.155266 0.3
v -2.893306 4.702878 0.3
v 4.299883 4.702878 0.3
v 4.299883 -4.702878 0.3
v -2.893306 -4.702878 0.3
v -2.893306 -4.155266 0.3
v -3.51261 -4.155266 0.3
v -3.51261 -4.702878 0.3
v -6.411388 -4.702878 0.3
v -6.411388 -3.391577 0.3
v -6.929501 -3.391577 0.3
v -7.39086 -3.084314 0.3
v -7.333297 -3.186447 0.3
v -7.253534 -3.272368 0.3
v -7.155957 -3.337354 0.3
v -7.045929 -3.377832 0.3
v -7.966136 -1.707263 0.3
v -8.427496 -1.4 0.3
v -8.311067 -1.413745 0.3
v -8.201039 -1.454223 0.3
v -8.103462 -1.519209 0.3
v -8.023699 -1.60513 0.3
v -6.011388 -4.502879 0.3
v -3.91261 -4.502879 0.3
v -6.011388 -4.102879 0.3
v -3.91261 -4.102879 0.3
v -3.91261 4.102879 0.3
v -3.91261 4.502879 0.3
v -6.011388 4.502879 0.3
v -6.011388 4.102879 0.3
v -6.7 -1.25 0.2
v -6.7 1.25 0.2
v 11.15 5.2 4.8
v 11.15 -5.2 4.8
v 11.15 -3.3 2.0
v 11.15 -3.3 1.55
v 11.15 -2.5 2.0
v 11.15 -1.4 2.0
v 11.15 -1.4 0.19
v 11.15 1.4 0.19
v 11.15 -1.5 2.0
v 11.15 3.3 2.0
v 11.15 2.5 2.0
v 9.05 -3.3 2.0
v 9.05 -3.3 1.55
v 9.05 3.3 2.0
v 9.05 4.0 4.8
v 9.05 3.2 4.8
v 9.05 3.2 3.5
v 9.05 2.5 2.0
v 9.05 1.5 2.0
v 9.05 -3.2 3.5
v 9.05 -1.5 2.0
v 9.05 -4.0 4.8
v 9.05 -3.2 4.8
v 9.05 -2.5 2.0
v 10.95 4.0 2.8
v 10.95 3.3 2.0
v 10.95 5.2 4.8
v 10.95 5.2 2.8
v 10.95 2.5 2.0
v 10.95 -5.2 4.8
v 10.95 1.4 0.19
v 10.95 -1.4 0.19
v 10.95 -1.4 2.0
v 10.95 -1.5 2.0
v 10.95 -2.5 2.0
v 10.95 -4.0 2.8
v 10.95 -5.2 2.8
v 10.95 -3.3 2.0
v 10.95 -4.0 1.55
v 10.95 -3.3 1.55
v 9.085778 -3.3 1.27824
v 11.114222 -4.0 1.27824
v 11.114222 -3.3 1.27824
v 11.009327 -4.0 1.025
v 11.009327 -3.3 1.025
v 10.842463 -4.0 0.807538
v 10.842463 -3.3 0.807538
v 10.625 -4.0 0.640673
v 10.625 -3.3 0.640673
v 10.371759 -4.0 0.535778
v 10.371759 -3.3 0.535778
v 10.099999 -4.0 0.5
v 10.099999 -3.3 0.5
v 9.828239 -4.0 0.535778
v 9.828239 -3.3 0.535778
v 9.575 -4.0 0.640673
v 9.575 -3.3 0.640673
v 9.357538 -4.0 0.807538
v 9.357538 -3.3 0.807538
v 9.190673 -4.0 1.025
v 9.190673 -3.3 1.025
v 9.085778 -4.0 1.27824
v 8.849999 -3.2 4.8
v 7.05 -4.0 4.8
v 6.8402 1.822043 4.8
v 6.55 2.695564 4.8
v 8.849999 3.2 4.8
v 6.55 3.5 4.8
v 6.567037 3.62941 4.8
v 6.8402 -1.822043 4.8
v 7.016251 -0.918571 4.8
v 7.075257 -0.0 4.8
v 7.016251 0.918571 4.8
v 6.616987 3.75 4.8
v 6.696447 3.853554 4.8
v 6.8 3.933012 4.8
v 7.05 4.0 4.8
v 6.92059 3.982963 4.8
v 6.92059 -3.982963 4.8
v 6.8 -3.933012 4.8
v 6.696447 -3.853554 4.8
v 6.616987 -3.75 4.8
v 6.567037 -3.62941 4.8
v 6.55 3.5 5.0
v 6.55 2.695564 5.0
v 9.25 3.2 5.0
v 9.25 4.0 5.0
v 8.849999 3.2 5.0
v 7.05 4.0 5.0
v 7.075257 -0.0 5.0
v 7.016251 -0.918571 5.0
v 8.849999 -3.2 5.0
v 6.8402 -1.822043 5.0
v 6.696447 3.853554 5.0
v 6.616987 3.75 5.0
v 6.567037 3.62941 5.0
v 7.016251 0.918571 5.0
v 6.8402 1.822043 5.0
v 6.92059 3.982963 5.0
v 6.8 3.933012 5.0
v 9.25 -4.0 5.0
v 9.25 -3.2 5.0
v 7.05 -4.0 5.0
v 6.92059 -3.982963 5.0
v 6.8 -3.933012 5.0
v 6.567037 -3.62941 5.0
v 6.616987 -3.75 5.0
v 6.696447 -3.853554 5.0
v 9.25 3.2 3.5
v 9.25 -3.2 3.5
v 9.25 -4.0 1.55
v 9.25 -3.3 1.55
v 9.25 -3.3 2.0
v 9.25 -2.5 2.0
v 9.25 -1.5 2.0
v 9.25 1.5 2.0
v 9.25 3.3 2.0
v 9.25 2.5 2.0
v 9.278963 -3.3 1.330004
v 9.278963 -4.0 1.330004
v 9.363878 -3.3 1.125
v 9.363878 -4.0 1.125
v 9.49896 -3.3 0.948959
v 9.49896 -4.0 0.948959
v 9.675 -3.3 0.813878
v 9.675 -4.0 0.813878
v 9.880004 -3.3 0.728963
v 9.880004 -4.0 0.728963
v 10.099999 -3.3 0.7
v 10.099999 -4.0 0.7
v 10.319997 -3.3 0.728963
v 10.319997 -4.0 0.728963
v 10.525001 -3.3 0.813878
v 10.525001 -4.0 0.813878
v 10.70104 -3.3 0.948959
v 10.70104 -4.0 0.948959
v 10.836122 -3.3 1.125
v 10.836122 -4.0 1.125
v 10.921037 -3.3 1.330004
v 10.921037 -4.0 1.330004
v 11.816148 0.0 0.19
v 12.438725 -0.081964 0.19
v 13.05 -0.9 0.19
v 12.449515 0.0 0.19
v 13.05 0.9 0.19
v 12.438725 0.081964 0.19
v 12.407087 0.158342 0.19
v 12.55 -1.4 0.19
v 12.679409 -1.382963 0.19
v 12.291173 -0.274256 0.19
v 12.799999 -1.333013 0.19
v 12.903553 -1.253553 0.19
v 11.826938 0.081964 0.19
v 11.858575 0.158342 0.19
v 11.908902 0.223929 0.19
v 12.407087 -0.158342 0.19
v 12.356761 -0.223929 0.19
v 13.032963 -1.029409 0.19
v 12.983013 -1.15 0.19
v 12.214795 -0.305893 0.19
v 12.132832 -0.316684 0.19
v 12.050868 -0.305893 0.19
v 11.974489 -0.274256 0.19
v 11.908902 -0.223929 0.19
v 12.679409 1.382963 0.19
v 12.55 1.4 0.19
v 12.214795 0.305893 0.19
v 11.858575 -0.158342 0.19
v 11.826938 -0.081964 0.19
v 11.974489 0.274256 0.19
v 12.050868 0.305893 0.19
v 12.132832 0.316684 0.19
v 13.032963 1.029409 0.19
v 12.291173 0.274256 0.19
v 12.356761 0.223929 0.19
v 12.983013 1.15 0.19
v 12.903553 1.253553 0.19
v 12.799999 1.333013 0.19
v 13.05 0.9 -0.01
v 13.05 -0.9 -0.01
v 11.15 -1.4 -0.01
v 11.15 1.4 -0.01
v 11.816148 0.0 -0.01
v 12.983013 -1.15 -0.01
v 12.903553 -1.253553 -0.01
v 12.291173 -0.274256 -0.01
v 12.356761 -0.223929 -0.01
v 12.407087 -0.158342 -0.01
v 12.438725 0.081964 -0.01
v 12.449515 0.0 -0.01
v 12.438725 -0.081964 -0.01
v 13.032963 -1.029409 -0.01
v 11.826938 -0.081964 -0.01
v 11.858575 -0.158342 -0.01
v 11.908902 -0.223929 -0.01
v 11.974489 -0.274256 -0.01
v 12.050868 -0.305893 -0.01
v 12.55 -1.4 -0.01
v 12.799999 -1.333013 -0.01
v 12.679409 -1.382963 -0.01
v 12.214795 -0.305893 -0.01
v 12.132832 -0.316684 -0.01
v 12.407087 0.158342 -0.01
v 12.356761 0.223929 -0.01
v 13.032963 1.029409 -0.01
v 12.291173 0.274256 -0.01
v 12.983013 1.15 -0.01
v 12.903553 1.253553 -0.01
v 12.799999 1.333013 -0.01
v 12.214795 0.305893 -0.01
v 12.679409 1.382963 -0.01
v 12.55 1.4 -0.01
v 12.132832 0.316684 -0.01
v 12.050868 0.305893 -0.01
v 11.974489 0.274256 -0.01
v 11.908902 0.223929 -0.01
v 11.858575 0.158342 -0.01
v 11.826938 0.081964 -0.01
v 11.098236 -1.4 -0.003185
v 11.098236 1.4 -0.003185
v 11.05 -1.4 0.016795
v 11.05 1.4 0.016795
v 11.008578 -1.4 0.048579
v 11.008578 1.4 0.048579
v 10.976795 -1.4 0.09
v 10.976795 1.4 0.09
v 10.956815 -1.4 0.138236
v 10.956815 1.4 0.138236
v -6.011388 -4.502879 0.1
v -3.91261 -4.502879 0.1
v -3.91261 -4.102879 0.1
v -6.011388 -4.102879 0.1
v -6.011388 4.502879 0.1
v -6.011388 4.102879 0.1
v -3.91261 4.102879 0.1
v -3.91261 4.502879 0.1
v -3.129589 0.414456 0.001
v -3.519833 -0.585544 0.001
newmtl 3
Ka 0.0 0.0 0.0
Kd 0.0 0.0 0.0
Ks 0.0 0.0 0.0
d 0.0
endmtl
v -3.373492 -0.585544 0.001
v -3.27231 -0.305056 0.001
v -2.8592 -0.305056 0.001
v -2.763736 -0.585544 0.001
v -2.617394 -0.585544 0.001
v -2.995443 0.414456 0.001
v -2.892928 -0.1953 0.001
v -3.227341 -0.1953 0.001
v -3.042127 0.222383 0.001
v -3.051751 0.257065 0.001
v -3.058133 0.292505 0.001
v -3.061373 0.292505 0.001
v -3.067898 0.257172 0.001
v -3.076807 0.222383 0.001
v -2.892928 -0.1953 0.0
v -3.227341 -0.1953 0.0
v -3.042127 0.222383 0.0
v -3.051751 0.257065 0.0
v -3.058133 0.292505 0.0
v -3.061373 0.292505 0.0
v -3.067898 0.257172 0.0
v -3.076807 0.222383 0.0
v -2.011259 -0.585544 0.001
v -1.739345 -0.585544 0.001
v -1.739345 0.414456 0.001
v -2.021548 0.414456 0.001
v -2.544224 -0.072967 0.001
v -2.536956 0.021128 0.001
v -2.510098 0.119654 0.001
v -2.463624 0.205655 0.001
v -2.392909 0.284068 0.001
v -2.391863 0.284986 0.001
v -2.283022 0.357928 0.001
v -2.166021 0.399013 0.001
v -2.134991 -0.574743 0.001
v -2.250218 -0.540398 0.001
v -2.354632 -0.47972 0.001
v -2.436942 -0.40091 0.001
v -2.494289 -0.311466 0.001
v -2.530191 -0.206797 0.001
v -2.343497 0.16447 0.001
v -2.294924 0.216044 0.001
v -2.221879 0.263233 0.001
v -2.139336 0.292118 0.001
v -2.020977 0.3047 0.001
v -1.873492 0.3047 0.001
v -1.873492 -0.475788 0.001
v -2.01545 -0.475788 0.001
v -2.120951 -0.465968 0.001
v -2.205103 -0.439701 0.001
v -2.273302 -0.399204 0.001
v -2.329388 -0.343805 0.001
v -2.371566 -0.274858 0.001
v -2.400896 -0.180858 0.001
v -2.410077 -0.075826 0.001
v -2.401581 0.023699 0.001
v -2.378237 0.102793 0.001
v -2.020977 0.3047 0.0
v -1.873492 0.3047 0.0
v -2.139336 0.292118 0.0
v -2.221879 0.263233 0.0
v -2.294924 0.216044 0.0
v -2.343497 0.16447 0.0
v -2.378237 0.102793 0.0
v -2.401581 0.023699 0.0
v -2.410077 -0.075826 0.0
v -2.400896 -0.180858 0.0
v -2.371566 -0.274858 0.0
v -2.329388 -0.343805 0.0
v -2.273302 -0.399204 0.0
v -2.205103 -0.439701 0.0
v -2.120951 -0.465968 0.0
v -2.01545 -0.475788 0.0
v -1.873492 -0.475788 0.0
v -1.544223 -0.475788 0.001
v -1.544223 -0.585544 0.001
v -1.007638 -0.585544 0.001
v -1.007638 0.414456 0.001
v -1.519833 0.414456 0.001
v -1.519833 0.3047 0.001
v -1.141784 0.3047 0.001
v -1.141784 -0.024568 0.001
v -1.495443 -0.024568 0.001
v -1.495443 -0.134324 0.001
v -1.141784 -0.134324 0.001
v -1.141784 -0.475788 0.001
v -0.812516 -0.423958 0.001
v -0.812516 -0.533714 0.001
v -0.705922 -0.577482 0.001
v -0.537364 -0.597739 0.001
v -0.564707 -0.59727 0.001
v -0.414128 -0.584961 0.001
v -0.317204 -0.551599 0.001
v -0.236765 -0.500233 0.001
v -0.161653 -0.421155 0.001
v -0.10838 -0.32607 0.001
v -0.078284 -0.220221 0.001
v -0.068614 -0.104408 0.001
v -0.476749 0.418452 0.001
v -0.577188 0.426651 0.001
v -0.365268 0.386065 0.001
v -0.270284 0.331391 0.001
v -0.180002 0.244564 0.001
v -0.12139 0.15107 0.001
v -0.082999 0.037762 0.001
v -0.6969 0.418391 0.001
v -0.812516 0.387017 0.001
v -0.812516 0.252871 0.001
v -0.578332 0.316895 0.001
v -0.699877 0.301104 0.001
v -0.20276 -0.096214 0.001
v -0.20753 -0.018409 0.001
v -0.234186 0.088644 0.001
v -0.275412 0.165854 0.001
v -0.3358 0.232521 0.001
v -0.405015 0.278825 0.001
v -0.479863 0.305837 0.001
v -0.555847 -0.487983 0.001
v -0.462575 -0.47752 0.001
v -0.389711 -0.450696 0.001
v -0.328338 -0.409331 0.001
v -0.281412 -0.359825 0.001
v -0.240054 -0.290484 0.001
v -0.212886 -0.20447 0.001
v -0.794594 -0.433886 0.001
v -0.688588 -0.47325 0.001
v 0.016752 -0.475788 0.001
v 0.016752 -0.585544 0.001
v 0.528947 -0.585544 0.001
v 0.528947 0.414456 0.001
v 0.394801 0.414456 0.001
v 0.394801 -0.475788 0.001
v -9.291326 5.258607 5.0
v -9.291326 5.258607 4.7
v -9.710411 4.549219 4.7
v -9.709419 4.548635 5.0
v -9.723087 4.525426 5.0
v -10.067456 3.806666 4.7
v -10.359859 3.036363 5.0
v -10.359859 3.036363 4.7
v -10.094577 3.74286 5.0
v -10.06487 3.805439 5.0
v -10.359859 -3.036363 5.0
v -10.094577 -3.74286 5.0
v -10.359859 -3.036363 4.7
v -10.067456 -3.806666 4.7
v -10.06487 -3.805439 5.0
v -9.723087 -4.525426 5.0
v -9.710411 -4.549219 4.7
v -9.709419 -4.548635 5.0
v -9.291326 -5.258607 4.7
v -9.291326 -5.258607 5.0
usemtl 1
f 1// 2// 3//
f 3// 2// 4//
f 3// 4// 5//
f 6// 7// 5//
f 5// 7// 8//
f 8// 9// 5//
f 5// 9// 10//
f 5// 10// 3//
f 11// 12// 13//
f 13// 14// 11//
f 11// 14// 15//
f 11// 15// 16//
f 17// 18// 11//
f 11// 18// 19//
f 11// 19// 12//
f 20// 21// 22//
f 22// 21// 23//
f 23// 24// 22//
f 22// 24// 7//
f 22// 7// 11//
f 11// 7// 6//
f 11// 6// 17//
f 25// 26// 22//
f 22// 26// 27//
f 22// 27// 20//
f 16// 28// 11//
f 11// 28// 29//
f 11// 29// 22//
f 22// 29// 30//
f 22// 30// 25//
f 31// 32// 33//
f 33// 34// 31//
f 31// 34// 35//
f 31// 35// 36//
f 32// 37// 38//
f 38// 39// 32//
f 32// 39// 40//
f 32// 40// 41//
f 41// 42// 32//
f 32// 42// 43//
f 32// 43// 33//
f 44// 45// 37//
f 37// 45// 46//
f 37// 46// 38//
f 47// 48// 3//
f 47// 3// 49//
f 49// 3// 50//
f 50// 3// 51//
f 50// 51// 52//
f 48// 53// 3//
f 3// 53// 54//
f 3// 54// 55//
f 56// 1// 57//
f 57// 1// 3//
f 57// 3// 58//
f 58// 3// 55//
f 56// 59// 1//
f 1// 59// 60//
f 1// 60// 61//
f 61// 62// 1//
f 1// 62// 63//
f 1// 63// 64//
f 64// 65// 1//
f 1// 65// 66//
f 1// 66// 67//
f 66// 68// 67//
f 67// 68// 69//
f 67// 69// 70//
f 70// 69// 71//
f 70// 71// 72//
f 72// 71// 73//
f 72// 73// 37//
f 37// 73// 74//
f 37// 74// 44//
f 75// 76// 77//
f 77// 78// 75//
f 75// 78// 79//
f 75// 79// 80//
f 80// 79// 81//
f 80// 81// 82//
f 82// 81// 83//
f 82// 83// 51//
f 51// 83// 84//
f 51// 84// 52//
f 85// 86// 87//
f 87// 86// 88//
f 88// 89// 87//
f 87// 89// 90//
f 87// 90// 75//
f 75// 90// 91//
f 75// 91// 76//
f 92// 93// 94//
f 94// 93// 95//
f 94// 95// 87//
f 87// 95// 96//
f 87// 96// 85//
f 29// 28// 97//
f 97// 28// 98//
f 99// 100// 101//
f 102// 103// 104//
f 105// 106// 107//
f 108// 109// 110//
f 108// 110// 111//
f 107// 106// 110//
f 110// 106// 112//
f 110// 112// 111//
f 113// 114// 115//
f 115// 114// 116//
f 115// 116// 117//
f 117// 116// 110//
f 117// 110// 118//
f 118// 110// 109//
f 119// 120// 107//
f 107// 120// 121//
f 107// 121// 105//
f 119// 107// 104//
f 104// 107// 122//
f 104// 122// 102//
f 103// 102// 123//
f 123// 102// 124//
f 123// 124// 125//
f 126// 127// 128//
f 126// 128// 129//
f 129// 128// 130//
f 129// 130// 131//
f 131// 132// 129//
f 129// 132// 133//
f 129// 133// 134//
f 134// 135// 129//
f 129// 135// 136//
f 129// 136// 137//
f 138// 139// 140//
f 140// 139// 141//
f 141// 142// 140//
f 140// 142// 143//
f 140// 143// 144//
f 144// 145// 140//
f 140// 145// 146//
f 140// 146// 124//
f 124// 146// 147//
f 124// 147// 125//
f 100// 99// 126//
f 126// 99// 148//
f 126// 148// 127//
f 149// 150// 151//
f 150// 152// 151//
f 151// 152// 153//
f 151// 153// 101//
f 101// 153// 154//
f 101// 154// 99//
f 155// 156// 157//
f 157// 156// 158//
f 155// 159// 156//
f 156// 159// 160//
f 156// 160// 151//
f 151// 160// 161//
f 151// 161// 149//
f 162// 163// 164//
f 164// 163// 165//
f 164// 165// 156//
f 156// 165// 166//
f 156// 166// 158//
f 167// 129// 140//
f 140// 129// 137//
f 140// 137// 138//
f 167// 168// 129//
f 129// 168// 169//
f 129// 169// 170//
f 170// 169// 171//
f 171// 169// 172//
f 172// 169// 173//
f 172// 173// 174//
f 175// 176// 177//
f 177// 178// 175//
f 175// 178// 179//
f 175// 179// 180//
f 175// 181// 182//
f 182// 183// 175//
f 175// 183// 184//
f 175// 184// 176//
f 185// 186// 187//
f 187// 186// 188//
f 187// 188// 189//
f 189// 190// 187//
f 187// 190// 174//
f 187// 174// 175//
f 175// 174// 173//
f 175// 173// 181//
f 191// 192// 187//
f 187// 192// 193//
f 187// 193// 185//
f 180// 97// 175//
f 175// 97// 98//
f 175// 98// 187//
f 187// 98// 194//
f 187// 194// 191//
f 195// 196// 162//
f 162// 196// 197//
f 162// 197// 198//
f 199// 200// 201//
f 202// 203// 204//
f 205// 116// 206//
f 206// 116// 114//
f 206// 114// 207//
f 207// 114// 208//
f 195// 162// 209//
f 209// 162// 164//
f 209// 164// 210//
f 211// 212// 199//
f 199// 212// 213//
f 199// 213// 200//
f 214// 215// 199//
f 199// 215// 216//
f 199// 216// 211//
f 217// 218// 219//
f 220// 221// 114//
f 114// 221// 222//
f 114// 222// 208//
f 223// 224// 225//
f 225// 224// 226//
f 225// 226// 217//
f 217// 226// 227//
f 217// 227// 218//
f 228// 229// 230//
f 230// 229// 217//
f 230// 217// 231//
f 231// 217// 219//
f 232// 233// 114//
f 114// 233// 234//
f 114// 234// 220//
f 198// 235// 162//
f 162// 235// 236//
f 162// 236// 237//
f 237// 236// 199//
f 237// 199// 238//
f 238// 199// 201//
f 223// 202// 224//
f 224// 202// 204//
f 224// 204// 239//
f 239// 204// 200//
f 239// 200// 240//
f 240// 200// 213//
f 241// 242// 243//
f 243// 242// 244//
f 243// 244// 245//
f 245// 244// 246//
f 203// 247// 245//
f 245// 247// 248//
f 249// 250// 251//
f 251// 250// 252//
f 253// 254// 245//
f 245// 254// 250//
f 245// 250// 255//
f 255// 250// 256//
f 246// 257// 245//
f 245// 257// 258//
f 245// 258// 203//
f 203// 258// 259//
f 203// 259// 204//
f 260// 261// 262//
f 262// 261// 242//
f 262// 242// 263//
f 263// 242// 241//
f 263// 241// 264//
f 260// 265// 261//
f 261// 265// 266//
f 261// 266// 267//
f 233// 268// 269//
f 232// 270// 233//
f 233// 270// 261//
f 233// 261// 268//
f 268// 261// 267//
f 248// 271// 245//
f 245// 271// 272//
f 245// 272// 253//
f 273// 274// 275//
f 275// 274// 276//
f 275// 276// 252//
f 252// 276// 277//
f 252// 277// 251//
f 249// 278// 250//
f 250// 278// 279//
f 250// 279// 256//
f 256// 279// 280//
f 256// 280// 281//
f 282// 283// 284//
f 285// 286// 287//
f 287// 286// 233//
f 287// 233// 288//
f 288// 233// 269//
f 289// 290// 291//
f 241// 292// 264//
f 264// 292// 293//
f 264// 293// 294//
f 294// 293// 282//
f 294// 282// 295//
f 295// 282// 284//
f 248// 296// 271//
f 271// 296// 289//
f 271// 289// 297//
f 297// 289// 291//
f 281// 298// 256//
f 256// 298// 299//
f 256// 299// 300//
f 273// 301// 274//
f 274// 301// 302//
f 303// 304// 305//
f 306// 301// 307//
f 307// 301// 308//
f 303// 305// 309//
f 304// 310// 305//
f 305// 310// 311//
f 305// 311// 312//
f 312// 311// 313//
f 313// 314// 312//
f 312// 314// 315//
f 312// 315// 316//
f 317// 318// 302//
f 302// 318// 319//
f 306// 320// 301//
f 301// 320// 321//
f 301// 321// 302//
f 302// 321// 322//
f 302// 322// 317//
f 316// 323// 312//
f 312// 323// 324//
f 312// 324// 301//
f 301// 324// 325//
f 301// 325// 308//
f 319// 326// 302//
f 302// 326// 327//
f 302// 327// 305//
f 305// 327// 328//
f 305// 328// 309//
f 312// 329// 305//
f 305// 329// 330//
f 331// 332// 333//
f 333// 332// 334//
f 333// 334// 335//
f 336// 337// 329//
f 338// 339// 340//
f 339// 341// 340//
f 340// 341// 342//
f 340// 342// 333//
f 333// 342// 343//
f 333// 343// 331//
f 335// 344// 333//
f 333// 344// 345//
f 333// 345// 329//
f 329// 345// 346//
f 329// 346// 336//
f 347// 348// 330//
f 330// 348// 349//
f 330// 349// 350//
f 337// 351// 329//
f 329// 351// 352//
f 329// 352// 330//
f 330// 352// 353//
f 330// 353// 347//
f 350// 354// 330//
f 330// 354// 355//
f 330// 355// 340//
f 340// 355// 356//
f 340// 356// 338//
f 340// 333// 357//
f 357// 333// 358//
f 359// 92// 360//
f 360// 92// 94//
f 360// 94// 361//
f 362// 363// 364//
f 365// 366// 36//
f 36// 366// 367//
f 36// 367// 368//
f 359// 369// 92//
f 92// 369// 370//
f 92// 370// 371//
f 372// 31// 373//
f 373// 31// 36//
f 373// 36// 374//
f 374// 36// 368//
f 375// 376// 36//
f 36// 376// 377//
f 36// 377// 365//
f 364// 378// 362//
f 362// 378// 379//
f 362// 379// 380//
f 380// 379// 92//
f 380// 92// 381//
f 381// 92// 371//
f 382// 383// 384//
f 384// 383// 385//
f 384// 385// 386//
f 387// 388// 375//
f 375// 388// 389//
f 375// 389// 376//
f 376// 389// 390//
f 391// 392// 393//
f 393// 392// 376//
f 393// 376// 394//
f 394// 376// 390//
f 395// 396// 397//
f 398// 399// 400//
f 397// 401// 395//
f 395// 401// 402//
f 395// 402// 403//
f 403// 402// 404//
f 387// 375// 405//
f 405// 375// 406//
f 405// 406// 407//
f 407// 406// 408//
f 407// 408// 409//
f 409// 408// 410//
f 409// 410// 395//
f 395// 410// 411//
f 395// 411// 396//
f 412// 413// 414//
f 414// 413// 415//
f 414// 415// 396//
f 396// 415// 416//
f 396// 416// 397//
f 402// 417// 404//
f 404// 417// 398//
f 404// 398// 418//
f 418// 398// 400//
f 410// 419// 411//
f 411// 419// 420//
f 411// 420// 421//
f 422// 423// 424//
f 424// 423// 425//
f 424// 425// 426//
f 426// 425// 384//
f 426// 384// 427//
f 427// 384// 386//
f 412// 428// 413//
f 413// 428// 429//
f 413// 429// 430//
f 430// 429// 431//
f 432// 433// 434//
f 434// 433// 435//
f 434// 435// 436//
f 435// 437// 436//
f 436// 437// 438//
f 436// 438// 420//
f 420// 438// 439//
f 420// 439// 421//
f 421// 439// 440//
f 441// 442// 362//
f 362// 442// 443//
f 362// 443// 363//
f 443// 444// 363//
f 363// 444// 445//
f 363// 445// 446//
f 446// 445// 382//
f 447// 448// 432//
f 432// 448// 449//
f 432// 449// 450//
f 384// 451// 382//
f 382// 451// 452//
f 382// 452// 446//
f 446// 452// 453//
f 446// 453// 432//
f 432// 453// 454//
f 432// 454// 447//
f 450// 455// 432//
f 432// 455// 456//
f 432// 456// 433//
f 357// 358// 457//
f 457// 358// 458//
f 457// 458// 440//
f 440// 458// 459//
f 440// 459// 421//
f 460// 461// 362//
f 362// 461// 462//
f 362// 462// 441//
f 372// 210// 31//
f 31// 210// 164//
f 31// 164// 32//
f 32// 164// 156//
f 32// 156// 37//
f 37// 156// 151//
f 37// 151// 72//
f 72// 151// 101//
f 72// 101// 70//
f 70// 101// 100//
f 70// 100// 67//
f 67// 100// 126//
f 67// 126// 1//
f 1// 126// 129//
f 1// 129// 2//
f 2// 129// 170//
f 209// 210// 373//
f 373// 210// 372//
f 377// 376// 236//
f 236// 376// 199//
f 199// 376// 214//
f 214// 376// 392//
f 214// 392// 463//
f 463// 392// 464//
f 465// 466// 229//
f 229// 466// 399//
f 229// 399// 217//
f 217// 399// 398//
f 415// 413// 248//
f 248// 413// 296//
f 412// 414// 271//
f 271// 414// 272//
f 458// 275// 459//
f 459// 275// 252//
f 459// 252// 421//
f 421// 252// 250//
f 421// 250// 411//
f 411// 250// 254//
f 411// 254// 396//
f 396// 254// 253//
f 396// 253// 414//
f 414// 253// 272//
f 275// 458// 273//
f 273// 458// 358//
f 273// 358// 301//
f 301// 358// 333//
f 301// 333// 312//
f 312// 333// 329//
f 360// 361// 206//
f 206// 361// 205//
f 234// 233// 380//
f 380// 233// 362//
f 467// 468// 286//
f 286// 468// 460//
f 286// 460// 233//
f 233// 460// 362//
f 282// 425// 283//
f 283// 425// 423//
f 283// 423// 469//
f 469// 423// 470//
f 255// 256// 447//
f 447// 256// 448//
f 280// 279// 433//
f 433// 279// 435//
f 435// 279// 437//
f 437// 279// 278//
f 437// 278// 438//
f 438// 278// 249//
f 438// 249// 439//
f 439// 249// 251//
f 439// 251// 440//
f 440// 251// 277//
f 440// 277// 457//
f 457// 277// 276//
f 457// 276// 357//
f 357// 276// 274//
f 357// 274// 340//
f 340// 274// 302//
f 340// 302// 330//
f 330// 302// 305//
f 10// 167// 3//
f 3// 167// 140//
f 3// 140// 51//
f 51// 140// 124//
f 51// 124// 82//
f 82// 124// 102//
f 82// 102// 80//
f 80// 102// 122//
f 80// 122// 75//
f 75// 122// 107//
f 75// 107// 87//
f 87// 107// 110//
f 87// 110// 94//
f 94// 110// 116//
f 94// 116// 361//
f 361// 116// 205//
f 287// 462// 285//
f 285// 462// 461//
f 285// 461// 471//
f 471// 461// 472//
f 295// 424// 294//
f 294// 424// 426//
f 294// 426// 264//
f 264// 426// 427//
f 264// 427// 263//
f 263// 427// 386//
f 263// 386// 262//
f 262// 386// 385//
f 262// 385// 260//
f 260// 385// 383//
f 260// 383// 265//
f 265// 383// 382//
f 265// 382// 266//
f 266// 382// 445//
f 266// 445// 267//
f 267// 445// 444//
f 267// 444// 268//
f 268// 444// 443//
f 268// 443// 269//
f 269// 443// 442//
f 269// 442// 288//
f 288// 442// 441//
f 288// 441// 287//
f 287// 441// 462//
f 473// 474// 284//
f 284// 474// 422//
f 284// 422// 295//
f 295// 422// 424//
f 216// 393// 211//
f 211// 393// 394//
f 211// 394// 212//
f 212// 394// 390//
f 212// 390// 213//
f 213// 390// 389//
f 213// 389// 240//
f 240// 389// 388//
f 240// 388// 239//
f 239// 388// 387//
f 239// 387// 224//
f 224// 387// 405//
f 224// 405// 226//
f 226// 405// 407//
f 226// 407// 227//
f 227// 407// 409//
f 227// 409// 218//
f 218// 409// 395//
f 218// 395// 219//
f 219// 395// 403//
f 219// 403// 231//
f 231// 403// 404//
f 231// 404// 230//
f 230// 404// 418//
f 475// 476// 215//
f 215// 476// 391//
f 215// 391// 216//
f 216// 391// 393//
f 230// 418// 228//
f 228// 418// 400//
f 228// 400// 477//
f 477// 400// 478//
f 209// 373// 195//
f 195// 373// 374//
f 195// 374// 196//
f 196// 374// 368//
f 196// 368// 197//
f 197// 368// 367//
f 197// 367// 198//
f 198// 367// 366//
f 198// 366// 235//
f 235// 366// 365//
f 235// 365// 236//
f 236// 365// 377//
f 234// 380// 220//
f 220// 380// 381//
f 220// 381// 221//
f 221// 381// 371//
f 221// 371// 222//
f 222// 371// 370//
f 222// 370// 208//
f 208// 370// 369//
f 208// 369// 207//
f 207// 369// 359//
f 207// 359// 206//
f 206// 359// 360//
f 255// 447// 245//
f 245// 447// 454//
f 245// 454// 243//
f 243// 454// 453//
f 243// 453// 241//
f 241// 453// 452//
f 241// 452// 292//
f 292// 452// 451//
f 292// 451// 293//
f 293// 451// 384//
f 293// 384// 282//
f 282// 384// 425//
f 217// 398// 225//
f 225// 398// 417//
f 225// 417// 223//
f 223// 417// 402//
f 223// 402// 202//
f 202// 402// 401//
f 202// 401// 203//
f 203// 401// 397//
f 203// 397// 247//
f 247// 397// 416//
f 247// 416// 248//
f 248// 416// 415//
f 412// 271// 297//
f 412// 297// 428//
f 428// 297// 291//
f 428// 291// 429//
f 429// 291// 290//
f 429// 290// 431//
f 431// 290// 289//
f 431// 289// 430//
f 430// 289// 296//
f 430// 296// 413//
f 448// 256// 300//
f 448// 300// 449//
f 449// 300// 299//
f 449// 299// 450//
f 450// 299// 298//
f 450// 298// 455//
f 455// 298// 281//
f 455// 281// 456//
f 456// 281// 280//
f 456// 280// 433//
f 167// 10// 168//
f 168// 10// 9//
f 168// 9// 169//
f 169// 9// 8//
f 169// 8// 173//
f 173// 8// 7//
f 173// 7// 181//
f 181// 7// 24//
f 29// 97// 30//
f 30// 97// 180//
f 30// 180// 25//
f 25// 180// 179//
f 25// 179// 26//
f 26// 179// 178//
f 26// 178// 27//
f 27// 178// 177//
f 27// 177// 20//
f 20// 177// 176//
f 20// 176// 21//
f 21// 176// 184//
f 21// 184// 23//
f 23// 184// 183//
f 23// 183// 24//
f 24// 183// 182//
f 24// 182// 181//
f 2// 170// 4//
f 4// 170// 171//
f 4// 171// 5//
f 5// 171// 172//
f 5// 172// 6//
f 172// 174// 6//
f 6// 174// 190//
f 6// 190// 17//
f 17// 190// 189//
f 17// 189// 18//
f 18// 189// 188//
f 18// 188// 19//
f 19// 188// 186//
f 19// 186// 12//
f 12// 186// 185//
f 12// 185// 13//
f 13// 185// 193//
f 13// 193// 14//
f 14// 193// 192//
f 14// 192// 15//
f 15// 192// 191//
f 15// 191// 16//
f 16// 191// 194//
f 16// 194// 28//
f 28// 194// 98//
f 56// 137// 59//
f 59// 137// 136//
f 59// 136// 60//
f 60// 136// 135//
f 60// 135// 61//
f 61// 135// 134//
f 61// 134// 62//
f 62// 134// 133//
f 62// 133// 63//
f 63// 133// 132//
f 63// 132// 64//
f 132// 131// 64//
f 64// 131// 130//
f 64// 130// 65//
f 65// 130// 128//
f 65// 128// 66//
f 66// 128// 68//
f 68// 128// 127//
f 68// 127// 148//
f 137// 56// 138//
f 138// 56// 57//
f 52// 123// 125//
f 52// 125// 50//
f 125// 147// 50//
f 50// 147// 146//
f 50// 146// 49//
f 49// 146// 145//
f 49// 145// 47//
f 47// 145// 144//
f 47// 144// 48//
f 48// 144// 143//
f 48// 143// 53//
f 53// 143// 142//
f 53// 142// 54//
f 54// 142// 141//
f 138// 57// 139//
f 139// 57// 58//
f 139// 58// 141//
f 141// 58// 55//
f 141// 55// 54//
f 79// 119// 81//
f 81// 119// 104//
f 81// 104// 83//
f 83// 104// 103//
f 83// 103// 84//
f 84// 103// 123//
f 84// 123// 52//
f 90// 112// 91//
f 91// 112// 106//
f 91// 106// 76//
f 106// 105// 76//
f 76// 105// 121//
f 76// 121// 77//
f 77// 121// 120//
f 77// 120// 78//
f 78// 120// 119//
f 78// 119// 79//
f 93// 113// 95//
f 95// 113// 115//
f 95// 115// 96//
f 96// 115// 117//
f 96// 117// 85//
f 85// 117// 118//
f 85// 118// 86//
f 86// 118// 109//
f 86// 109// 88//
f 88// 109// 108//
f 88// 108// 89//
f 89// 108// 111//
f 89// 111// 90//
f 90// 111// 112//
f 39// 160// 40//
f 40// 160// 159//
f 40// 159// 41//
f 41// 159// 155//
f 41// 155// 42//
f 42// 155// 157//
f 42// 157// 43//
f 43// 157// 158//
f 43// 158// 33//
f 33// 158// 166//
f 33// 166// 34//
f 34// 166// 165//
f 34// 165// 35//
f 35// 165// 163//
f 149// 45// 150//
f 150// 45// 44//
f 150// 44// 152//
f 152// 44// 74//
f 152// 74// 153//
f 160// 39// 161//
f 161// 39// 38//
f 161// 38// 149//
f 149// 38// 46//
f 149// 46// 45//
f 153// 74// 154//
f 154// 74// 73//
f 154// 73// 99//
f 99// 73// 71//
f 99// 71// 148//
f 148// 71// 69//
f 148// 69// 68//
f 379// 232// 92//
f 92// 232// 114//
f 92// 114// 93//
f 93// 114// 113//
f 434// 257// 432//
f 432// 257// 246//
f 432// 246// 446//
f 446// 246// 244//
f 446// 244// 363//
f 363// 244// 242//
f 363// 242// 364//
f 364// 242// 261//
f 364// 261// 378//
f 378// 261// 270//
f 378// 270// 379//
f 379// 270// 232//
f 257// 434// 258//
f 258// 434// 436//
f 375// 237// 406//
f 406// 237// 238//
f 406// 238// 408//
f 408// 238// 201//
f 408// 201// 410//
f 410// 201// 200//
f 410// 200// 419//
f 419// 200// 204//
f 419// 204// 420//
f 420// 204// 259//
f 420// 259// 436//
f 436// 259// 258//
f 35// 163// 36//
f 36// 163// 162//
f 36// 162// 375//
f 375// 162// 237//
f 464// 476// 463//
f 463// 476// 475//
f 464// 392// 476//
f 476// 392// 391//
f 463// 475// 214//
f 214// 475// 215//
f 478// 466// 477//
f 477// 466// 465//
f 478// 400// 466//
f 466// 400// 399//
f 477// 465// 228//
f 228// 465// 229//
f 472// 468// 471//
f 471// 468// 467//
f 460// 468// 461//
f 461// 468// 472//
f 471// 467// 285//
f 285// 467// 286//
f 470// 474// 469//
f 469// 474// 473//
f 422// 474// 423//
f 423// 474// 470//
f 469// 473// 283//
f 283// 473// 284//
f 353// 311// 347//
f 347// 311// 310//
f 347// 310// 348//
f 348// 310// 304//
f 348// 304// 349//
f 349// 304// 303//
f 349// 303// 350//
f 350// 303// 309//
f 350// 309// 354//
f 354// 309// 328//
f 354// 328// 355//
f 355// 328// 327//
f 355// 327// 356//
f 356// 327// 326//
f 356// 326// 338//
f 338// 326// 319//
f 338// 319// 339//
f 339// 319// 318//
f 339// 318// 341//
f 341// 318// 317//
f 341// 317// 342//
f 342// 317// 322//
f 342// 322// 343//
f 343// 322// 321//
f 343// 321// 331//
f 331// 321// 320//
f 331// 320// 332//
f 332// 320// 306//
f 332// 306// 334//
f 334// 306// 307//
f 334// 307// 335//
f 335// 307// 308//
f 335// 308// 344//
f 344// 308// 325//
f 344// 325// 345//
f 345// 325// 324//
f 345// 324// 346//
f 346// 324// 323//
f 346// 323// 336//
f 336// 323// 316//
f 336// 316// 337//
f 337// 316// 315//
f 337// 315// 351//
f 351// 315// 314//
f 351// 314// 352//
f 352// 314// 313//
f 352// 313// 353//
f 353// 313// 311//
usemtl 2
f 479// 480// 481//
f 482// 483// 484//
f 485// 486// 487//
f 488// 489// 490//
f 490// 489// 491//
f 492// 493// 494//
f 495// 496// 497//
f 498// 499// 500//
f 501// 502// 487//
f 502// 503// 504//
f 500// 499// 505//
f 505// 499// 506//
f 505// 506// 507//
f 504// 503// 508//
f 508// 503// 509//
f 508// 509// 510//
f 510// 509// 511//
f 510// 511// 512//
f 512// 511// 513//
f 512// 513// 514//
f 514// 513// 498//
f 514// 498// 515//
f 516// 517// 518//
f 518// 517// 519//
f 519// 520// 518//
f 518// 520// 521//
f 518// 521// 522//
f 523// 522// 524//
f 524// 522// 521//
f 524// 521// 525//
f 525// 521// 526//
f 525// 526// 527//
f 527// 526// 528//
f 527// 528// 529//
f 530// 531// 532//
f 532// 531// 533//
f 532// 533// 534//
f 534// 533// 535//
f 536// 537// 482//
f 482// 537// 538//
f 539// 540// 541//
f 541// 540// 538//
f 538// 540// 542//
f 538// 542// 482//
f 482// 542// 543//
f 482// 543// 544//
f 541// 545// 539//
f 539// 545// 546//
f 539// 546// 547//
f 548// 495// 549//
f 549// 495// 497//
f 549// 497// 536//
f 536// 497// 550//
f 536// 550// 537//
f 537// 550// 551//
f 537// 551// 552//
f 552// 551// 553//
f 554// 496// 555//
f 555// 496// 495//
f 555// 495// 556//
f 556// 495// 557//
f 556// 557// 558//
f 559// 560// 561//
f 561// 560// 562//
f 561// 562// 563//
f 558// 564// 556//
f 556// 564// 565//
f 556// 565// 566//
f 566// 565// 567//
f 566// 567// 568//
f 563// 569// 561//
f 561// 569// 570//
f 561// 570// 571//
f 567// 572// 568//
f 568// 572// 573//
f 568// 573// 561//
f 561// 573// 574//
f 561// 574// 559//
f 570// 575// 576//
f 577// 578// 579//
f 580// 581// 582//
f 576// 583// 584//
f 582// 581// 585//
f 555// 571// 554//
f 554// 571// 570//
f 554// 570// 586//
f 586// 570// 576//
f 586// 576// 582//
f 582// 576// 584//
f 582// 584// 580//
f 579// 585// 577//
f 577// 585// 581//
f 577// 581// 587//
f 587// 581// 588//
f 587// 588// 494//
f 494// 588// 589//
f 494// 589// 492//
f 528// 530// 529//
f 529// 530// 532//
f 529// 532// 590//
f 590// 532// 591//
f 591// 532// 592//
f 592// 532// 534//
f 592// 534// 593//
f 507// 501// 505//
f 505// 501// 487//
f 505// 487// 594//
f 594// 487// 486//
f 594// 486// 595//
f 502// 504// 487//
f 487// 504// 596//
f 487// 596// 485//
f 597// 598// 599//
f 599// 598// 600//
f 597// 601// 598//
f 598// 601// 602//
f 598// 602// 549//
f 549// 602// 603//
f 549// 603// 548//
f 600// 604// 605//
f 605// 606// 600//
f 600// 606// 607//
f 600// 607// 599//
f 599// 607// 608//
f 599// 608// 609//
f 609// 608// 610//
f 609// 610// 611//
f 611// 612// 609//
f 609// 612// 613//
f 609// 613// 614//
f 615// 616// 609//
f 609// 616// 617//
f 618// 619// 620//
f 620// 619// 621//
f 617// 622// 609//
f 609// 622// 621//
f 609// 621// 623//
f 623// 621// 619//
f 614// 624// 609//
f 609// 624// 625//
f 609// 625// 615//
f 515// 498// 626//
f 626// 498// 500//
f 626// 500// 627//
f 627// 500// 628//
f 627// 628// 629//
f 630// 631// 632//
f 483// 629// 632//
f 632// 629// 628//
f 632// 628// 630//
f 630// 628// 633//
f 630// 633// 505//
f 505// 633// 634//
f 505// 634// 500//
f 500// 634// 635//
f 500// 635// 628//
f 628// 635// 636//
f 628// 636// 633//
f 594// 637// 505//
f 505// 637// 488//
f 505// 488// 630//
f 630// 488// 490//
f 630// 490// 631//
f 631// 490// 638//
f 639// 640// 641//
f 641// 640// 642//
f 482// 484// 536//
f 536// 484// 643//
f 536// 643// 549//
f 549// 643// 641//
f 549// 641// 598//
f 598// 641// 642//
f 598// 642// 600//
f 642// 644// 600//
f 600// 644// 645//
f 600// 645// 646//
f 646// 645// 647//
f 646// 647// 639//
f 648// 649// 650//
f 650// 649// 639//
f 650// 639// 651//
f 651// 639// 647//
f 651// 647// 652//
f 652// 647// 653//
f 639// 641// 646//
f 646// 641// 654//
f 646// 654// 655//
f 656// 638// 657//
f 657// 638// 658//
f 659// 660// 479//
f 479// 660// 661//
f 479// 661// 662//
f 656// 663// 638//
f 638// 663// 664//
f 638// 664// 665//
f 662// 666// 479//
f 479// 666// 667//
f 479// 667// 668//
f 483// 632// 484//
f 484// 632// 631//
f 484// 631// 643//
f 643// 631// 638//
f 643// 638// 641//
f 641// 638// 665//
f 641// 665// 654//
f 668// 669// 479//
f 479// 669// 670//
f 479// 670// 638//
f 638// 670// 671//
f 638// 671// 658//
f 480// 479// 672//
f 673// 674// 675//
f 675// 674// 676//
f 677// 675// 490//
f 490// 675// 676//
f 490// 676// 638//
f 638// 676// 678//
f 638// 678// 479//
f 479// 678// 679//
f 479// 679// 672//
f 533// 516// 535//
f 535// 516// 518//
f 535// 518// 680//
f 680// 518// 481//
f 680// 481// 491//
f 491// 481// 480//
f 491// 480// 490//
f 490// 480// 672//
f 490// 672// 677//
f 575// 604// 576//
f 576// 604// 600//
f 576// 600// 681//
f 681// 600// 646//
f 681// 646// 682//
f 583// 576// 683//
f 683// 576// 681//
f 683// 681// 684//
f 684// 681// 682//
f 684// 682// 685//
f 655// 659// 646//
f 646// 659// 479//
f 646// 479// 682//
f 682// 479// 481//
f 682// 481// 685//
f 685// 481// 686//
f 685// 686// 522//
f 522// 686// 687//
f 522// 687// 518//
f 518// 687// 688//
f 518// 688// 481//
f 481// 688// 689//
f 481// 689// 686//
f 690// 523// 524//
f 595// 486// 691//
f 691// 486// 692//
f 691// 692// 693//
f 692// 694// 693//
f 693// 694// 695//
f 693// 695// 696//
f 696// 695// 697//
f 698// 699// 697//
f 697// 699// 700//
f 697// 700// 696//
f 690// 524// 701//
f 701// 524// 525//
f 701// 525// 702//
f 702// 525// 527//
f 702// 527// 703//
f 703// 527// 529//
f 703// 529// 704//
f 593// 699// 592//
f 592// 699// 698//
f 592// 698// 591//
f 591// 698// 704//
f 591// 704// 590//
f 590// 704// 529//
f 486// 485// 692//
f 692// 485// 596//
f 692// 596// 705//
f 705// 596// 504//
f 705// 504// 706//
f 504// 508// 706//
f 706// 508// 510//
f 706// 510// 707//
f 510// 512// 707//
f 707// 512// 514//
f 707// 514// 708//
f 708// 514// 515//
f 708// 515// 709//
f 710// 544// 543//
f 710// 543// 711//
f 711// 543// 542//
f 711// 542// 712//
f 713// 581// 580//
f 713// 580// 714//
f 714// 580// 584//
f 714// 584// 715//
f 716// 717// 718//
f 718// 717// 719//
f 720// 721// 722//
f 722// 721// 723//
f 724// 690// 725//
f 725// 690// 701//
f 726// 727// 728//
f 703// 729// 702//
f 702// 729// 730//
f 702// 730// 701//
f 701// 730// 731//
f 701// 731// 725//
f 732// 706// 733//
f 733// 706// 707//
f 733// 707// 734//
f 734// 707// 708//
f 734// 708// 735//
f 735// 708// 709//
f 735// 709// 736//
f 737// 729// 738//
f 738// 729// 703//
f 738// 703// 728//
f 739// 740// 741//
f 741// 740// 706//
f 741// 706// 742//
f 742// 706// 732//
f 742// 732// 743//
f 728// 703// 726//
f 726// 703// 704//
f 726// 704// 744//
f 744// 704// 698//
f 744// 698// 745//
f 745// 698// 697//
f 745// 697// 746//
f 746// 697// 695//
f 746// 695// 747//
f 747// 695// 694//
f 747// 694// 748//
f 748// 694// 692//
f 748// 692// 740//
f 740// 692// 705//
f 740// 705// 706//
f 749// 750// 723//
f 749// 723// 751//
f 718// 752// 753//
f 754// 755// 756//
f 757// 758// 759//
f 753// 760// 761//
f 761// 760// 762//
f 761// 762// 763//
f 764// 765// 721//
f 721// 765// 766//
f 721// 766// 723//
f 723// 766// 754//
f 723// 754// 751//
f 751// 754// 756//
f 753// 761// 718//
f 718// 761// 767//
f 718// 767// 768//
f 769// 770// 771//
f 771// 770// 765//
f 771// 765// 772//
f 772// 765// 764//
f 773// 774// 769//
f 769// 774// 775//
f 769// 775// 770//
f 770// 775// 776//
f 776// 777// 770//
f 770// 777// 778//
f 770// 778// 779//
f 779// 778// 716//
f 716// 718// 779//
f 779// 718// 768//
f 779// 768// 780//
f 780// 768// 781//
f 782// 783// 754//
f 784// 785// 786//
f 786// 785// 757//
f 786// 757// 787//
f 787// 757// 759//
f 788// 761// 789//
f 789// 761// 790//
f 789// 790// 791//
f 791// 790// 792//
f 791// 792// 793//
f 793// 792// 794//
f 793// 794// 795//
f 758// 757// 794//
f 794// 757// 796//
f 794// 796// 797//
f 788// 798// 761//
f 761// 798// 799//
f 761// 799// 767//
f 767// 799// 800//
f 767// 800// 801//
f 802// 782// 803//
f 803// 782// 754//
f 803// 754// 804//
f 804// 754// 766//
f 804// 766// 805//
f 805// 766// 806//
f 807// 808// 809//
f 809// 808// 810//
f 809// 810// 811//
f 811// 810// 812//
f 811// 812// 813//
f 813// 812// 754//
f 813// 754// 814//
f 814// 754// 783//
f 807// 815// 808//
f 808// 815// 816//
f 808// 816// 817//
f 797// 818// 794//
f 794// 818// 819//
f 794// 819// 795//
f 784// 820// 785//
f 785// 820// 821//
f 785// 821// 822//
f 822// 821// 808//
f 822// 808// 823//
f 823// 808// 817//
f 725// 753// 724//
f 724// 753// 752//
f 749// 735// 750//
f 750// 735// 736//
f 824// 825// 826//
f 827// 828// 829//
f 829// 830// 827//
f 827// 830// 712//
f 827// 712// 831//
f 831// 712// 824//
f 831// 824// 832//
f 832// 824// 826//
f 720// 722// 833//
f 833// 722// 834//
f 710// 711// 722//
f 722// 711// 712//
f 722// 712// 834//
f 834// 712// 830//
f 835// 836// 837//
f 837// 836// 838//
f 837// 838// 834//
f 834// 838// 839//
f 834// 839// 833//
f 840// 719// 841//
f 841// 719// 717//
f 841// 842// 840//
f 840// 842// 843//
f 840// 843// 844//
f 844// 843// 845//
f 844// 845// 846//
f 847// 713// 848//
f 849// 850// 851//
f 851// 850// 847//
f 851// 847// 852//
f 852// 847// 848//
f 853// 854// 855//
f 855// 854// 848//
f 855// 848// 840//
f 840// 848// 713//
f 840// 713// 719//
f 719// 713// 714//
f 719// 714// 715//
usemtl 1
f 856// 857// 858//
f 858// 857// 859//
f 860// 861// 862//
f 862// 861// 863//
f 864// 865// 866//
f 864// 866// 867//
f 868// 869// 870//
f 867// 866// 871//
f 871// 866// 872//
f 871// 872// 873//
f 873// 872// 874//
f 873// 874// 875//
f 875// 874// 876//
f 875// 876// 877//
f 877// 876// 878//
f 877// 878// 879//
f 879// 878// 880//
f 879// 880// 881//
f 881// 880// 882//
f 881// 882// 883//
f 883// 882// 884//
f 883// 884// 885//
f 885// 884// 886//
f 885// 886// 887//
f 887// 886// 888//
f 887// 888// 889//
f 889// 888// 868//
f 889// 868// 890//
f 890// 868// 870//
f 890// 870// 891//
f 892// 893// 894//
f 892// 894// 895//
f 895// 894// 896//
f 895// 896// 897//
f 897// 896// 898//
f 897// 898// 899//
f 899// 898// 900//
f 899// 900// 901//
f 901// 900// 902//
f 901// 902// 903//
f 903// 902// 904//
f 903// 904// 905//
f 905// 904// 906//
f 905// 906// 907//
f 907// 906// 908//
f 907// 908// 909//
f 909// 908// 910//
f 909// 910// 911//
f 911// 910// 912//
f 911// 912// 913//
f 913// 912// 914//
f 913// 914// 915//
f 915// 914// 916//
f 915// 916// 917//
f 918// 919// 920//
f 918// 920// 921//
f 921// 920// 922//
f 921// 922// 923//
f 923// 922// 924//
f 923// 924// 925//
f 925// 924// 926//
f 925// 926// 927//
f 927// 926// 928//
f 927// 928// 929//
f 929// 928// 930//
f 929// 930// 931//
f 931// 930// 932//
f 931// 932// 933//
f 933// 932// 934//
f 933// 934// 935//
f 935// 934// 936//
f 935// 936// 937//
f 937// 936// 938//
f 937// 938// 939//
f 939// 938// 940//
f 939// 940// 941//
f 941// 940// 942//
f 941// 942// 943//
f 944// 945// 946//
f 946// 945// 947//
f 946// 947// 948//
f 948// 947// 949//
f 948// 949// 950//
f 950// 949// 951//
f 950// 951// 952//
f 952// 951// 953//
f 952// 953// 954//
f 954// 953// 955//
f 954// 955// 956//
f 956// 955// 957//
f 956// 957// 958//
f 958// 957// 959//
f 958// 959// 960//
f 960// 959// 961//
f 960// 961// 962//
f 962// 961// 963//
f 962// 963// 964//
f 964// 963// 965//
f 964// 965// 966//
f 966// 965// 967//
f 966// 967// 968//
f 968// 967// 969//
f 970// 971// 972//
f 972// 971// 973//
f 972// 973// 974//
f 974// 973// 975//
f 974// 975// 976//
f 976// 975// 977//
f 976// 977// 978//
f 978// 977// 979//
f 978// 979// 980//
f 980// 979// 981//
f 980// 981// 982//
f 982// 981// 983//
f 982// 983// 984//
f 984// 983// 985//
f 984// 985// 986//
f 986// 985// 987//
f 986// 987// 988//
f 988// 987// 989//
f 988// 989// 990//
f 990// 989// 991//
f 990// 991// 992//
f 992// 991// 993//
f 992// 993// 994//
f 994// 993// 995//
f 996// 997// 998//
f 998// 997// 999//
f 998// 999// 1000//
f 1000// 999// 1001//
f 1000// 1001// 1002//
f 1002// 1001// 1003//
f 1002// 1003// 1004//
f 1004// 1003// 1005//
f 1004// 1005// 1006//
f 1006// 1005// 1007//
f 1006// 1007// 1008//
f 1008// 1007// 1009//
f 1008// 1009// 1010//
f 1010// 1009// 1011//
f 1010// 1011// 1012//
f 1012// 1011// 1013//
f 1012// 1013// 1014//
f 1014// 1013// 1015//
f 1014// 1015// 1016//
f 1016// 1015// 1017//
f 1016// 1017// 1018//
f 1018// 1017// 1019//
f 1018// 1019// 1020//
f 1020// 1019// 1021//
usemtl 2
f 851// 852// 1022//
f 1022// 852// 587//
f 1023// 1022// 867//
f 867// 1022// 587//
f 867// 587// 864//
f 864// 587// 494//
f 864// 494// 493//
f 541// 831// 1024//
f 1024// 831// 832//
f 1025// 1026// 546//
f 1024// 1027// 541//
f 541// 1027// 1025//
f 541// 1025// 545//
f 545// 1025// 546//
f 850// 492// 847//
f 847// 492// 589//
f 847// 589// 588//
f 721// 720// 764//
f 764// 720// 833//
f 764// 833// 772//
f 772// 833// 839//
f 772// 839// 771//
f 771// 839// 838//
f 771// 838// 769//
f 769// 838// 836//
f 775// 845// 776//
f 776// 845// 843//
f 776// 843// 777//
f 777// 843// 842//
f 777// 842// 778//
f 778// 842// 841//
f 778// 841// 716//
f 716// 841// 717//
f 547// 825// 539//
f 539// 825// 824//
f 539// 824// 540//
f 588// 581// 847//
f 847// 581// 713//
f 542// 540// 712//
f 712// 540// 824//
f 846// 845// 870//
f 870// 845// 775//
f 870// 775// 774//
f 582// 585// 840//
f 840// 585// 855//
f 585// 579// 855//
f 855// 579// 853//
f 579// 578// 853//
f 853// 578// 854//
f 578// 577// 854//
f 854// 577// 848//
f 577// 587// 848//
f 848// 587// 852//
f 850// 849// 492//
f 492// 849// 864//
f 492// 864// 493//
f 826// 825// 1026//
f 1026// 825// 547//
f 1026// 547// 546//
f 541// 538// 831//
f 831// 538// 827//
f 552// 828// 537//
f 537// 828// 827//
f 537// 827// 538//
f 552// 553// 828//
f 828// 553// 829//
f 553// 551// 829//
f 829// 551// 830//
f 551// 550// 830//
f 830// 550// 834//
f 840// 844// 891//
f 840// 891// 582//
f 582// 891// 870//
f 582// 870// 774//
f 773// 550// 497//
f 837// 834// 1028//
f 1028// 834// 550//
f 1028// 550// 1029//
f 1029// 550// 773//
f 497// 496// 773//
f 773// 496// 554//
f 773// 554// 774//
f 774// 554// 586//
f 774// 586// 582//
f 836// 835// 769//
f 769// 835// 1029//
f 769// 1029// 773//
f 1030// 732// 733//
f 758// 533// 531//
f 820// 1031// 821//
f 821// 1031// 1032//
f 1033// 726// 744//
f 759// 758// 1034//
f 758// 531// 1034//
f 1034// 531// 530//
f 1034// 530// 1035//
f 528// 526// 763//
f 530// 528// 1035//
f 1035// 528// 763//
f 1035// 763// 1036//
f 1036// 763// 762//
f 753// 725// 760//
f 760// 725// 731//
f 760// 731// 762//
f 762// 731// 730//
f 762// 730// 1036//
f 1036// 730// 729//
f 1034// 1033// 759//
f 759// 1033// 744//
f 759// 744// 787//
f 787// 744// 745//
f 787// 745// 786//
f 786// 745// 746//
f 786// 746// 784//
f 784// 746// 747//
f 784// 747// 820//
f 820// 747// 748//
f 820// 748// 1031//
f 1031// 748// 740//
f 756// 755// 1037//
f 1037// 1030// 756//
f 756// 1030// 733//
f 756// 733// 751//
f 751// 733// 734//
f 751// 734// 749//
f 749// 734// 735//
f 502// 821// 503//
f 503// 821// 1032//
f 503// 1032// 509//
f 509// 1032// 1037//
f 509// 1037// 511//
f 511// 1037// 755//
f 511// 755// 513//
f 1038// 1039// 785//
f 785// 1039// 757//
f 1039// 1040// 757//
f 757// 1040// 796//
f 1041// 793// 795//
f 1041// 795// 1042//
f 1042// 795// 819//
f 1042// 819// 1043//
f 1043// 819// 818//
f 1043// 818// 1044//
f 1044// 818// 797//
f 1044// 797// 1045//
f 1045// 797// 796//
f 1045// 796// 1040//
f 1041// 1046// 793//
f 793// 1046// 791//
f 1047// 800// 1048//
f 1048// 800// 799//
f 1048// 799// 1049//
f 1049// 799// 798//
f 1049// 798// 1050//
f 1050// 798// 788//
f 1050// 788// 1051//
f 1051// 788// 789//
f 1051// 789// 1046//
f 1046// 789// 791//
f 1047// 1052// 800//
f 800// 1052// 801//
f 1052// 1053// 801//
f 801// 1053// 767//
f 1053// 1054// 767//
f 767// 1054// 768//
f 1054// 1055// 768//
f 768// 1055// 781//
f 1055// 1056// 781//
f 781// 1056// 780//
f 1056// 1057// 780//
f 780// 1057// 779//
f 1057// 1058// 779//
f 779// 1058// 770//
f 1058// 1059// 770//
f 770// 1059// 765//
f 1059// 1060// 765//
f 765// 1060// 766//
f 1060// 1061// 766//
f 766// 1061// 806//
f 1061// 1062// 806//
f 806// 1062// 805//
f 1062// 1063// 805//
f 805// 1063// 804//
f 1063// 1064// 804//
f 804// 1064// 803//
f 1064// 1065// 803//
f 803// 1065// 802//
f 1065// 1066// 802//
f 802// 1066// 782//
f 1067// 809// 1068//
f 1068// 809// 811//
f 1068// 811// 1069//
f 1069// 811// 813//
f 1069// 813// 1070//
f 1070// 813// 814//
f 1070// 814// 1071//
f 1071// 814// 783//
f 1071// 783// 1066//
f 1066// 783// 782//
f 1067// 1072// 809//
f 809// 1072// 807//
f 1073// 822// 823//
f 1073// 823// 1074//
f 1074// 823// 817//
f 1074// 817// 1075//
f 1075// 817// 816//
f 1075// 816// 1076//
f 1076// 816// 815//
f 1076// 815// 1077//
f 1077// 815// 807//
f 1077// 807// 1072//
f 1073// 1038// 822//
f 822// 1038// 785//
f 1078// 1065// 1064//
f 1058// 1057// 1056//
f 1078// 1064// 1079//
f 1060// 1059// 1061//
f 1061// 1059// 1058//
f 1061// 1058// 1062//
f 1040// 1039// 1038//
f 1056// 1080// 1058//
f 1058// 1080// 1081//
f 1058// 1081// 1062//
f 1062// 1081// 1079//
f 1062// 1079// 1063//
f 1063// 1079// 1064//
f 1074// 1055// 1073//
f 1073// 1055// 1038//
f 1042// 1043// 1038//
f 1074// 1075// 1055//
f 1055// 1075// 1076//
f 1055// 1076// 1056//
f 1056// 1076// 1077//
f 1043// 1044// 1038//
f 1038// 1044// 1045//
f 1038// 1045// 1040//
f 1078// 1080// 1065//
f 1065// 1080// 1056//
f 1065// 1056// 1066//
f 1066// 1056// 1071//
f 1046// 1041// 1047//
f 1047// 1041// 1052//
f 1041// 1042// 1052//
f 1052// 1042// 1038//
f 1052// 1038// 1082//
f 1082// 1038// 1055//
f 1082// 1055// 1083//
f 1083// 1055// 1054//
f 1083// 1054// 1084//
f 1084// 1054// 1053//
f 1084// 1053// 1085//
f 1085// 1053// 1052//
f 1085// 1052// 1082//
f 1077// 1072// 1056//
f 1056// 1072// 1067//
f 1056// 1067// 1068//
f 1049// 1050// 1051//
f 1068// 1069// 1056//
f 1056// 1069// 1070//
f 1056// 1070// 1071//
f 1046// 1047// 1051//
f 1051// 1047// 1048//
f 1051// 1048// 1049//
f 691// 693// 1086//
f 1086// 693// 696//
f 1086// 696// 1087//
f 1087// 696// 700//
f 1087// 700// 699//
f 593// 534// 699//
f 699// 534// 535//
f 699// 535// 1087//
f 1087// 535// 680//
f 594// 595// 691//
f 594// 691// 637//
f 637// 691// 1086//
f 637// 1086// 488//
f 489// 488// 1086//
f 489// 1086// 491//
f 491// 1086// 1087//
f 491// 1087// 680//
usemtl 1
f 851// 1088// 849//
f 849// 1088// 1089//
f 1089// 832// 826//
f 826// 1026// 1090//
f 1090// 1026// 1091//
f 1089// 826// 849//
f 849// 826// 1090//
f 849// 1090// 1092//
f 1093// 1094// 1095//
f 863// 861// 849//
f 1095// 863// 1093//
f 1093// 863// 849//
f 1093// 849// 1096//
f 1096// 849// 1092//
f 1096// 1092// 892//
f 892// 1092// 893//
f 865// 864// 1097//
f 1097// 864// 849//
f 1097// 849// 1098//
f 1098// 849// 861//
f 1098// 861// 918//
f 918// 861// 919//
f 1099// 1100// 1029//
f 846// 870// 1101//
f 1101// 870// 869//
f 1102// 844// 1103//
f 1103// 844// 846//
f 1103// 846// 1104//
f 943// 942// 1105//
f 1105// 942// 1106//
f 846// 1101// 1104//
f 1104// 1101// 1105//
f 1104// 1105// 1107//
f 1107// 1105// 1106//
f 1107// 1106// 1108//
f 837// 1109// 835//
f 835// 1109// 1110//
f 835// 1110// 1107//
f 1029// 835// 1099//
f 1099// 835// 1107//
f 1099// 1107// 1111//
f 1111// 1107// 1108//
f 1111// 1108// 916//
f 916// 1108// 917//
f 968// 969// 1112//
f 1112// 969// 1113//
f 1114// 1115// 1112//
f 1113// 1116// 1112//
f 1112// 1116// 1117//
f 1112// 1117// 1114//
f 862// 1118// 1119//
f 1119// 1120// 862//
f 862// 1120// 1117//
f 862// 1117// 860//
f 860// 1117// 1116//
f 860// 1116// 1021//
f 1021// 1116// 1020//
f 994// 995// 1121//
f 1121// 995// 1122//
f 1123// 1124// 1117//
f 1120// 1121// 1117//
f 1117// 1121// 1122//
f 1117// 1122// 1123//
f 1123// 1122// 1125//
f 1123// 1125// 1126//
f 1126// 1125// 1127//
f 1089// 1088// 1117//
f 1117// 1088// 1114//
f 1029// 1100// 1128//
f 1026// 1025// 1129//
f 1130// 1091// 1026//
f 1026// 1129// 1130//
f 1130// 1129// 1131//
f 1130// 1131// 1132//
f 1132// 1131// 1133//
f 1132// 1133// 1134//
f 1134// 1133// 1135//
f 1134// 1135// 1136//
f 1136// 1135// 1137//
f 1136// 1137// 1138//
f 1138// 1137// 1139//
f 1138// 1139// 1140//
f 1140// 1139// 1141//
f 1140// 1141// 1142//
f 1142// 1141// 1143//
f 1142// 1143// 1144//
f 1144// 1143// 1145//
f 1144// 1145// 1146//
f 1146// 1145// 1147//
f 1146// 1147// 1148//
f 1148// 1147// 1149//
f 1148// 1149// 1128//
f 1128// 1149// 1028//
f 1128// 1028// 1029//
f 1110// 1109// 1150//
f 1150// 1109// 1151//
f 1152// 1153// 1154//
f 1154// 1153// 1155//
f 1154// 1155// 1156//
f 859// 1157// 858//
f 858// 1157// 1150//
f 1157// 1158// 1150//
f 1150// 1158// 1159//
f 1150// 1159// 1154//
f 1154// 1159// 1160//
f 1154// 1160// 1152//
f 1156// 1161// 1154//
f 1154// 1161// 1162//
f 1154// 1162// 1163//
f 1102// 1103// 1164//
f 1164// 1103// 1154//
f 1164// 1154// 1165//
f 1165// 1154// 1163//
f 1151// 1166// 1150//
f 1150// 1166// 1167//
f 1150// 1167// 1168//
f 1168// 1169// 1150//
f 1150// 1169// 1170//
f 1150// 1170// 858//
f 1155// 1153// 1171//
f 1171// 1153// 1172//
f 1173// 1174// 1175//
f 1175// 1174// 1176//
f 1177// 1178// 1179//
f 1179// 1178// 1180//
f 1181// 1182// 1175//
f 1175// 1182// 1183//
f 1175// 1183// 1171//
f 1177// 1179// 1184//
f 1184// 1179// 1175//
f 1184// 1175// 1185//
f 1185// 1175// 1171//
f 1185// 1171// 1172//
f 1176// 1186// 1175//
f 1175// 1186// 1187//
f 1175// 1187// 1181//
f 1188// 1189// 1190//
f 1190// 1189// 1179//
f 1190// 1179// 1191//
f 1191// 1179// 1192//
f 1180// 857// 1179//
f 1179// 857// 856//
f 1179// 856// 1193//
f 1193// 1194// 1179//
f 1179// 1194// 1195//
f 1179// 1195// 1192//
f 1174// 1173// 944//
f 944// 1173// 1196//
f 1189// 1188// 1197//
f 1197// 1188// 1198//
f 1198// 1199// 1200//
f 971// 970// 1201//
f 1201// 970// 1202//
f 1198// 1200// 1197//
f 1197// 1200// 1201//
f 1197// 1201// 1196//
f 1196// 1201// 1202//
f 1196// 1202// 1203//
f 945// 944// 1204//
f 1204// 944// 1196//
f 1204// 1196// 1205//
f 1205// 1196// 1203//
f 1205// 1203// 996//
f 996// 1203// 997//
f 1199// 1198// 1206//
f 1206// 1198// 1207//
f 1206// 1207// 1208//
f 1208// 1207// 1209//
f 1208// 1209// 1210//
f 1210// 1209// 1211//
f 1210// 1211// 1212//
f 1212// 1211// 1213//
f 1212// 1213// 1214//
f 1214// 1213// 1215//
f 1214// 1215// 1216//
f 1216// 1215// 1217//
f 1216// 1217// 1218//
f 1218// 1217// 1219//
f 1218// 1219// 1220//
f 1220// 1219// 1221//
f 1220// 1221// 1222//
f 1222// 1221// 1223//
f 1222// 1223// 1224//
f 1224// 1223// 1225//
f 1224// 1225// 1226//
f 1226// 1225// 1227//
f 1226// 1227// 1127//
f 1127// 1227// 1126//
f 1164// 1176// 1102//
f 1102// 1176// 1174//
f 1112// 1023// 968//
f 968// 1023// 867//
f 968// 867// 966//
f 966// 867// 871//
f 966// 871// 964//
f 964// 871// 873//
f 964// 873// 962//
f 962// 873// 875//
f 962// 875// 960//
f 960// 875// 877//
f 960// 877// 958//
f 958// 877// 879//
f 958// 879// 956//
f 956// 879// 881//
f 956// 881// 954//
f 954// 881// 883//
f 954// 883// 952//
f 952// 883// 885//
f 952// 885// 950//
f 950// 885// 887//
f 950// 887// 948//
f 948// 887// 889//
f 948// 889// 946//
f 946// 889// 890//
f 946// 890// 944//
f 944// 890// 891//
f 944// 891// 1174//
f 1174// 891// 844//
f 1174// 844// 1102//
f 1188// 1190// 1151//
f 1151// 1109// 1188//
f 1188// 1109// 837//
f 1188// 837// 1198//
f 1198// 837// 1028//
f 1198// 1028// 1207//
f 1207// 1028// 1149//
f 1207// 1149// 1209//
f 1209// 1149// 1147//
f 1209// 1147// 1211//
f 1211// 1147// 1145//
f 1211// 1145// 1213//
f 1213// 1145// 1143//
f 1213// 1143// 1215//
f 1215// 1143// 1141//
f 1215// 1141// 1217//
f 1217// 1141// 1139//
f 1217// 1139// 1219//
f 1219// 1139// 1137//
f 1219// 1137// 1221//
f 1221// 1137// 1135//
f 1221// 1135// 1223//
f 1223// 1135// 1133//
f 1223// 1133// 1225//
f 1225// 1133// 1131//
f 1225// 1131// 1227//
f 1227// 1131// 1129//
f 1227// 1129// 1126//
f 1126// 1129// 1025//
f 1126// 1025// 1123//
f 1123// 1025// 1027//
f 1093// 1096// 1120//
f 1120// 1096// 1121//
f 1106// 1203// 1108//
f 1108// 1203// 1202//
f 1203// 1106// 997//
f 997// 1106// 942//
f 997// 942// 999//
f 999// 942// 940//
f 999// 940// 1001//
f 1001// 940// 938//
f 1001// 938// 1003//
f 1003// 938// 936//
f 1003// 936// 1005//
f 1005// 936// 934//
f 1005// 934// 1007//
f 1007// 934// 932//
f 1007// 932// 1009//
f 1009// 932// 930//
f 1009// 930// 1011//
f 1011// 930// 928//
f 1011// 928// 1013//
f 1013// 928// 926//
f 1013// 926// 1015//
f 1015// 926// 924//
f 1015// 924// 1017//
f 1017// 924// 922//
f 1017// 922// 1019//
f 1019// 922// 920//
f 1019// 920// 1021//
f 1021// 920// 919//
f 1021// 919// 860//
f 860// 919// 861//
f 1121// 1096// 994//
f 994// 1096// 892//
f 994// 892// 992//
f 992// 892// 895//
f 992// 895// 990//
f 990// 895// 897//
f 990// 897// 988//
f 988// 897// 899//
f 988// 899// 986//
f 986// 899// 901//
f 986// 901// 984//
f 984// 901// 903//
f 984// 903// 982//
f 982// 903// 905//
f 982// 905// 980//
f 980// 905// 907//
f 980// 907// 978//
f 978// 907// 909//
f 978// 909// 976//
f 976// 909// 911//
f 976// 911// 974//
f 974// 911// 913//
f 974// 913// 972//
f 972// 913// 915//
f 972// 915// 970//
f 970// 915// 917//
f 970// 917// 1202//
f 1202// 917// 1108//
f 1090// 1125// 1092//
f 1092// 1125// 1122//
f 1111// 1201// 1099//
f 1099// 1201// 1200//
f 1201// 1111// 971//
f 971// 1111// 916//
f 971// 916// 973//
f 973// 916// 914//
f 973// 914// 975//
f 975// 914// 912//
f 975// 912// 977//
f 977// 912// 910//
f 977// 910// 979//
f 979// 910// 908//
f 979// 908// 981//
f 981// 908// 906//
f 981// 906// 983//
f 983// 906// 904//
f 983// 904// 985//
f 985// 904// 902//
f 985// 902// 987//
f 987// 902// 900//
f 987// 900// 989//
f 989// 900// 898//
f 989// 898// 991//
f 991// 898// 896//
f 991// 896// 993//
f 993// 896// 894//
f 993// 894// 995//
f 995// 894// 893//
f 995// 893// 1122//
f 1122// 893// 1092//
f 1125// 1090// 1127//
f 1127// 1090// 1091//
f 1127// 1091// 1226//
f 1226// 1091// 1130//
f 1226// 1130// 1224//
f 1224// 1130// 1132//
f 1224// 1132// 1222//
f 1222// 1132// 1134//
f 1222// 1134// 1220//
f 1220// 1134// 1136//
f 1220// 1136// 1218//
f 1218// 1136// 1138//
f 1218// 1138// 1216//
f 1216// 1138// 1140//
f 1216// 1140// 1214//
f 1214// 1140// 1142//
f 1214// 1142// 1212//
f 1212// 1142// 1144//
f 1212// 1144// 1210//
f 1210// 1144// 1146//
f 1210// 1146// 1208//
f 1208// 1146// 1148//
f 1208// 1148// 1206//
f 1206// 1148// 1128//
f 1206// 1128// 1199//
f 1199// 1128// 1100//
f 1199// 1100// 1200//
f 1200// 1100// 1099//
f 1097// 1098// 1113//
f 1113// 1098// 1116//
f 1105// 1101// 1205//
f 1205// 1101// 1204//
f 1204// 1101// 945//
f 945// 1101// 869//
f 945// 869// 947//
f 947// 869// 868//
f 947// 868// 949//
f 949// 868// 888//
f 949// 888// 951//
f 951// 888// 886//
f 951// 886// 953//
f 953// 886// 884//
f 953// 884// 955//
f 955// 884// 882//
f 955// 882// 957//
f 957// 882// 880//
f 957// 880// 959//
f 959// 880// 878//
f 959// 878// 961//
f 961// 878// 876//
f 961// 876// 963//
f 963// 876// 874//
f 963// 874// 965//
f 965// 874// 872//
f 965// 872// 967//
f 967// 872// 866//
f 967// 866// 969//
f 969// 866// 865//
f 969// 865// 1113//
f 1113// 865// 1097//
f 1116// 1098// 1020//
f 1020// 1098// 918//
f 1020// 918// 1018//
f 1018// 918// 921//
f 1018// 921// 1016//
f 1016// 921// 923//
f 1016// 923// 1014//
f 1014// 923// 925//
f 1014// 925// 1012//
f 1012// 925// 927//
f 1012// 927// 1010//
f 1010// 927// 929//
f 1010// 929// 1008//
f 1008// 929// 931//
f 1008// 931// 1006//
f 1006// 931// 933//
f 1006// 933// 1004//
f 1004// 933// 935//
f 1004// 935// 1002//
f 1002// 935// 937//
f 1002// 937// 1000//
f 1000// 937// 939//
f 1000// 939// 998//
f 998// 939// 941//
f 998// 941// 996//
f 996// 941// 943//
f 996// 943// 1205//
f 1205// 943// 1105//
f 1228// 1095// 1094//
f 1229// 1230// 1231//
f 1231// 1230// 1232//
f 1231// 1232// 1233//
f 1233// 1232// 1234//
f 1235// 1236// 1237//
f 1237// 1236// 1238//
f 1237// 1238// 1239//
f 1228// 1240// 1095//
f 1095// 1240// 1241//
f 1095// 1241// 1242//
f 1229// 1243// 1230//
f 1230// 1243// 1244//
f 1230// 1244// 1245//
f 1245// 1244// 1237//
f 1245// 1237// 1246//
f 1246// 1237// 1239//
f 1237// 1247// 1235//
f 1235// 1247// 1248//
f 1235// 1248// 1094//
f 1248// 1249// 1094//
f 1094// 1249// 1250//
f 1094// 1250// 1251//
f 1252// 1253// 1254//
f 1251// 1255// 1094//
f 1094// 1255// 1256//
f 1094// 1256// 1228//
f 1242// 1257// 1095//
f 1095// 1257// 1258//
f 1095// 1258// 1253//
f 1253// 1258// 1259//
f 1253// 1259// 1254//
f 1260// 1261// 1232//
f 1232// 1261// 1262//
f 1232// 1262// 1234//
f 1260// 1263// 1261//
f 1261// 1263// 1264//
f 1261// 1264// 1254//
f 1254// 1264// 1265//
f 1254// 1265// 1252//
f 1232// 1230// 1266//
f 1266// 1230// 1267//
f 1268// 1269// 1270//
f 1271// 1272// 1273//
f 1267// 1274// 1275//
f 1276// 1266// 1277//
f 1277// 1266// 1267//
f 1277// 1267// 1278//
f 1278// 1267// 1275//
f 1274// 1267// 1273//
f 1273// 1267// 1279//
f 1273// 1279// 1271//
f 1270// 1280// 1268//
f 1268// 1280// 1281//
f 1268// 1281// 1282//
f 1282// 1283// 1268//
f 1268// 1283// 1284//
f 1268// 1284// 1285//
f 1272// 1286// 1273//
f 1273// 1286// 1287//
f 1273// 1287// 1288//
f 1288// 1287// 1285//
f 1288// 1285// 1289//
f 1289// 1285// 1284//
f 1276// 1290// 1266//
f 1266// 1290// 1291//
f 1266// 1291// 1292//
f 1292// 1291// 1293//
f 1292// 1293// 1294//
f 1294// 1293// 1295//
f 1295// 1293// 1296//
f 1296// 1293// 1297//
f 1296// 1297// 1298//
f 1298// 1297// 1299//
f 1299// 1297// 1300//
f 1299// 1300// 1269//
f 1300// 1301// 1269//
f 1269// 1301// 1302//
f 1269// 1302// 1303//
f 1303// 1304// 1269//
f 1269// 1304// 1305//
f 1269// 1305// 1270//
f 1269// 1268// 1306//
f 1269// 1306// 1307//
f 1307// 1306// 1308//
f 1307// 1308// 1309//
f 1309// 1308// 1310//
f 1309// 1310// 1311//
f 1311// 1310// 1312//
f 1311// 1312// 1313//
f 1313// 1312// 1314//
f 1313// 1314// 1315//
f 1315// 1314// 1119//
f 1315// 1119// 1118//
f 862// 863// 1118//
f 1118// 863// 1095//
f 1253// 1299// 1095//
f 1095// 1299// 1269//
f 1311// 1313// 1095//
f 1095// 1313// 1315//
f 1095// 1315// 1118//
f 1269// 1307// 1095//
f 1095// 1307// 1309//
f 1095// 1309// 1311//
f 1094// 1310// 1308//
f 1093// 1120// 1094//
f 1094// 1120// 1119//
f 1285// 1235// 1268//
f 1268// 1235// 1094//
f 1268// 1094// 1306//
f 1306// 1094// 1308//
f 1119// 1314// 1094//
f 1094// 1314// 1312//
f 1094// 1312// 1310//
usemtl 2
f 1316// 1078// 1317//
f 1317// 1078// 1079//
f 1317// 1079// 1318//
f 1318// 1079// 1081//
f 1318// 1081// 1319//
f 1319// 1081// 1080//
f 1319// 1080// 1316//
f 1316// 1080// 1078//
f 1320// 1084// 1321//
f 1321// 1084// 1085//
f 1321// 1085// 1322//
f 1322// 1085// 1082//
f 1322// 1082// 1323//
f 1323// 1082// 1083//
f 1323// 1083// 1320//
f 1320// 1083// 1084//
usemtl 1
f 1232// 1266// 1292//
f 1232// 1292// 1260//
f 1260// 1292// 1294//
f 1260// 1294// 1263//
f 1263// 1294// 1295//
f 1263// 1295// 1264//
f 1264// 1295// 1296//
f 1264// 1296// 1265//
f 1265// 1296// 1298//
f 1265// 1298// 1252//
f 1252// 1298// 1299//
f 1252// 1299// 1253//
f 1267// 1230// 1245//
f 1267// 1245// 1279//
f 1279// 1245// 1246//
f 1279// 1246// 1271//
f 1271// 1246// 1239//
f 1271// 1239// 1272//
f 1272// 1239// 1238//
f 1272// 1238// 1286//
f 1286// 1238// 1236//
f 1286// 1236// 1287//
f 1287// 1236// 1235//
f 1287// 1235// 1285//
f 1175// 1179// 1154//
f 1154// 1179// 1150//
f 1104// 1196// 1103//
f 1103// 1196// 1173//
f 1103// 1173// 1154//
f 1154// 1173// 1175//
f 1150// 1179// 1110//
f 1110// 1179// 1189//
f 1110// 1189// 1107//
f 1107// 1189// 1197//
f 1196// 1104// 1197//
f 1197// 1104// 1107//
f 859// 857// 1157//
f 1157// 857// 1180//
f 1157// 1180// 1158//
f 1158// 1180// 1178//
f 1158// 1178// 1159//
f 1159// 1178// 1177//
f 1159// 1177// 1160//
f 1160// 1177// 1184//
f 1160// 1184// 1152//
f 1152// 1184// 1185//
f 1152// 1185// 1153//
f 1153// 1185// 1172//
f 1155// 1171// 1183//
f 1155// 1183// 1156//
f 1156// 1183// 1182//
f 1156// 1182// 1161//
f 1161// 1182// 1181//
f 1161// 1181// 1162//
f 1162// 1181// 1187//
f 1162// 1187// 1163//
f 1163// 1187// 1186//
f 1163// 1186// 1165//
f 1165// 1186// 1176//
f 1165// 1176// 1164//
f 856// 858// 1170//
f 856// 1170// 1193//
f 1193// 1170// 1169//
f 1193// 1169// 1194//
f 1194// 1169// 1168//
f 1194// 1168// 1195//
f 1195// 1168// 1167//
f 1195// 1167// 1192//
f 1192// 1167// 1166//
f 1192// 1166// 1191//
f 1191// 1166// 1151//
f 1191// 1151// 1190//
usemtl 2
f 718// 719// 715//
f 715// 584// 718//
f 718// 584// 583//
f 718// 583// 752//
f 583// 683// 752//
f 752// 683// 684//
f 752// 684// 685//
f 690// 724// 523//
f 523// 724// 752//
f 523// 752// 522//
f 522// 752// 685//
f 736// 709// 750//
f 750// 709// 515//
f 515// 626// 750//
f 750// 626// 627//
f 750// 627// 629//
f 629// 483// 750//
f 750// 483// 482//
f 750// 482// 723//
f 723// 482// 544//
f 723// 544// 722//
f 722// 544// 710//
f 516// 533// 794//
f 794// 533// 758//
f 516// 794// 517//
f 517// 794// 792//
f 517// 792// 519//
f 519// 792// 790//
f 519// 790// 520//
f 520// 790// 761//
f 520// 761// 521//
f 526// 521// 763//
f 763// 521// 761//
f 808// 501// 507//
f 808// 507// 810//
f 810// 507// 506//
f 810// 506// 812//
f 812// 506// 754//
f 754// 506// 499//
f 754// 499// 498//
f 502// 501// 821//
f 821// 501// 808//
f 498// 513// 754//
f 754// 513// 755//
usemtl 1
f 1022// 1115// 851//
f 851// 1115// 1114//
f 851// 1114// 1088//
f 1022// 1023// 1115//
f 1115// 1023// 1112//
f 1089// 1117// 832//
f 832// 1117// 1124//
f 832// 1124// 1024//
f 1024// 1124// 1027//
f 1027// 1124// 1123//
usemtl 2
f 636// 1317// 633//
f 633// 1317// 1318//
f 635// 1316// 636//
f 636// 1316// 1317//
f 1319// 634// 1318//
f 1318// 634// 633//
f 634// 1319// 635//
f 635// 1319// 1316//
f 689// 1322// 686//
f 686// 1322// 1323//
f 688// 1321// 689//
f 689// 1321// 1322//
f 1320// 687// 1323//
f 1323// 687// 686//
f 687// 1320// 688//
f 688// 1320// 1321//
usemtl 3
f 1324// 1325// 672//
f 672// 1325// 677//
f 1325// 1326// 677//
f 677// 1326// 675//
f 1326// 1327// 675//
f 675// 1327// 673//
f 1327// 1328// 673//
f 673// 1328// 674//
f 1328// 1329// 674//
f 674// 1329// 676//
f 1329// 1330// 676//
f 676// 1330// 678//
f 1330// 1331// 678//
f 678// 1331// 679//
f 1331// 1324// 679//
f 679// 1324// 672//
f 1332// 1328// 1333//
f 1333// 1328// 1327//
f 1334// 1331// 1332//
f 1332// 1331// 1330//
f 1332// 1330// 1328//
f 1328// 1330// 1329//
f 1334// 1335// 1331//
f 1331// 1335// 1336//
f 1331// 1336// 1324//
f 1324// 1336// 1337//
f 1324// 1337// 1338//
f 1338// 1339// 1324//
f 1324// 1339// 1333//
f 1324// 1333// 1325//
f 1325// 1333// 1327//
f 1325// 1327// 1326//
f 1332// 1333// 1340//
f 1340// 1333// 1341//
f 1334// 1332// 1342//
f 1342// 1332// 1340//
f 1334// 1342// 1343//
f 1334// 1343// 1335//
f 1335// 1343// 1344//
f 1335// 1344// 1336//
f 1337// 1336// 1345//
f 1345// 1336// 1344//
f 1337// 1345// 1346//
f 1337// 1346// 1338//
f 1338// 1346// 1347//
f 1338// 1347// 1339//
f 1333// 1339// 1341//
f 1341// 1339// 1347//
f 1348// 1349// 665//
f 665// 1349// 654//
f 1349// 1350// 654//
f 654// 1350// 655//
f 1350// 1351// 655//
f 655// 1351// 659//
f 1352// 670// 669//
f 1352// 669// 1353//
f 1353// 669// 668//
f 1353// 668// 1354//
f 1354// 668// 667//
f 1354// 667// 1355//
f 1355// 667// 666//
f 1355// 666// 1356//
f 1356// 666// 662//
f 1356// 662// 1357//
f 1357// 662// 661//
f 1357// 661// 1358//
f 1358// 661// 660//
f 1358// 660// 1359//
f 1359// 660// 659//
f 1359// 659// 1351//
f 1348// 665// 664//
f 1348// 664// 1360//
f 1360// 664// 663//
f 1360// 663// 1361//
f 1361// 663// 656//
f 1361// 656// 1362//
f 1362// 656// 657//
f 1362// 657// 1363//
f 1363// 657// 658//
f 1363// 658// 1364//
f 1364// 658// 671//
f 1364// 671// 1365//
f 1365// 671// 670//
f 1365// 670// 1352//
f 1354// 1355// 1366//
f 1366// 1355// 1356//
f 1366// 1356// 1367//
f 1367// 1356// 1357//
f 1367// 1357// 1368//
f 1368// 1357// 1358//
f 1368// 1358// 1369//
f 1369// 1358// 1359//
f 1369// 1359// 1370//
f 1370// 1359// 1351//
f 1370// 1351// 1371//
f 1371// 1351// 1350//
f 1371// 1350// 1372//
f 1372// 1350// 1349//
f 1372// 1349// 1373//
f 1373// 1349// 1348//
f 1373// 1348// 1374//
f 1374// 1348// 1360//
f 1374// 1360// 1375//
f 1375// 1360// 1361//
f 1375// 1361// 1376//
f 1376// 1361// 1362//
f 1376// 1362// 1377//
f 1377// 1362// 1363//
f 1377// 1363// 1378//
f 1378// 1363// 1364//
f 1378// 1364// 1379//
f 1379// 1364// 1365//
f 1379// 1365// 1380//
f 1380// 1365// 1352//
f 1380// 1352// 1381//
f 1381// 1352// 1353//
f 1381// 1353// 1382//
f 1382// 1353// 1354//
f 1382// 1354// 1366//
f 1370// 1371// 1383//
f 1383// 1371// 1384//
f 1370// 1383// 1385//
f 1370// 1385// 1369//
f 1369// 1385// 1386//
f 1369// 1386// 1368//
f 1368// 1386// 1387//
f 1368// 1387// 1367//
f 1367// 1387// 1388//
f 1367// 1388// 1366//
f 1366// 1388// 1389//
f 1366// 1389// 1382//
f 1382// 1389// 1390//
f 1382// 1390// 1381//
f 1381// 1390// 1391//
f 1381// 1391// 1380//
f 1380// 1391// 1392//
f 1380// 1392// 1379//
f 1379// 1392// 1393//
f 1379// 1393// 1378//
f 1378// 1393// 1394//
f 1378// 1394// 1377//
f 1377// 1394// 1395//
f 1377// 1395// 1376//
f 1376// 1395// 1396//
f 1376// 1396// 1375//
f 1375// 1396// 1397//
f 1375// 1397// 1374//
f 1374// 1397// 1398//
f 1374// 1398// 1373//
f 1372// 1373// 1399//
f 1399// 1373// 1398//
f 1371// 1372// 1384//
f 1384// 1372// 1399//
f 1400// 1401// 639//
f 639// 1401// 640//
f 1401// 1402// 640//
f 640// 1402// 642//
f 1402// 1403// 642//
f 642// 1403// 644//
f 1403// 1404// 644//
f 644// 1404// 645//
f 1404// 1405// 645//
f 645// 1405// 647//
f 1405// 1406// 647//
f 647// 1406// 653//
f 1406// 1407// 653//
f 653// 1407// 652//
f 1407// 1408// 652//
f 652// 1408// 651//
f 1408// 1409// 651//
f 651// 1409// 650//
f 1409// 1410// 650//
f 650// 1410// 648//
f 1410// 1411// 648//
f 648// 1411// 649//
f 1411// 1400// 649//
f 649// 1400// 639//
f 1402// 1401// 1400//
f 1400// 1411// 1402//
f 1402// 1411// 1410//
f 1402// 1410// 1403//
f 1405// 1404// 1406//
f 1406// 1404// 1403//
f 1406// 1403// 1407//
f 1407// 1403// 1410//
f 1407// 1410// 1408//
f 1408// 1410// 1409//
f 1412// 1413// 599//
f 599// 1413// 597//
f 597// 1413// 1414//
f 1415// 548// 603//
f 1415// 603// 1416//
f 1416// 603// 602//
f 1416// 602// 1414//
f 1414// 602// 601//
f 1414// 601// 597//
f 548// 1415// 495//
f 495// 1415// 1417//
f 495// 1417// 557//
f 557// 1417// 1418//
f 557// 1418// 558//
f 558// 1418// 1419//
f 558// 1419// 564//
f 564// 1419// 1420//
f 564// 1420// 565//
f 565// 1420// 1421//
f 565// 1421// 567//
f 567// 1421// 1422//
f 567// 1422// 572//
f 572// 1422// 1423//
f 572// 1423// 573//
f 1424// 1425// 570//
f 570// 1425// 575//
f 570// 569// 1424//
f 1424// 569// 563//
f 1424// 563// 1426//
f 1426// 563// 562//
f 1426// 562// 1427//
f 1427// 562// 560//
f 1427// 560// 1428//
f 1428// 560// 559//
f 1428// 559// 1429//
f 1429// 559// 574//
f 1429// 574// 1430//
f 1430// 574// 573//
f 1430// 573// 1423//
f 575// 1425// 604//
f 604// 1425// 1431//
f 604// 1431// 605//
f 605// 1431// 1432//
f 605// 1432// 606//
f 1432// 1433// 606//
f 606// 1433// 607//
f 1434// 610// 608//
f 1434// 608// 1435//
f 1435// 608// 607//
f 1435// 607// 1433//
f 1436// 615// 625//
f 1436// 625// 1437//
f 1437// 625// 624//
f 1437// 624// 1438//
f 1438// 624// 614//
f 1438// 614// 1439//
f 1439// 614// 613//
f 1439// 613// 1440//
f 1440// 613// 612//
f 1440// 612// 1441//
f 1441// 612// 611//
f 1441// 611// 1442//
f 1442// 611// 610//
f 1442// 610// 1434//
f 1443// 619// 618//
f 1443// 618// 1444//
f 1444// 618// 620//
f 1444// 620// 1445//
f 1445// 620// 621//
f 1445// 621// 1446//
f 1446// 621// 622//
f 1446// 622// 1447//
f 1447// 622// 617//
f 1447// 617// 1448//
f 1448// 617// 616//
f 1448// 616// 1449//
f 1449// 616// 615//
f 1449// 615// 1436//
f 1412// 599// 609//
f 1412// 609// 1450//
f 1450// 609// 623//
f 1450// 623// 1451//
f 1451// 623// 619//
f 1451// 619// 1443//
f 1444// 1415// 1443//
f 1443// 1415// 1416//
f 1443// 1416// 1451//
f 1451// 1416// 1414//
f 1451// 1414// 1450//
f 1450// 1414// 1413//
f 1450// 1413// 1412//
f 1433// 1432// 1435//
f 1435// 1432// 1431//
f 1435// 1431// 1434//
f 1434// 1431// 1425//
f 1434// 1425// 1442//
f 1442// 1425// 1424//
f 1442// 1424// 1441//
f 1441// 1424// 1426//
f 1441// 1426// 1440//
f 1440// 1426// 1427//
f 1440// 1427// 1439//
f 1439// 1427// 1428//
f 1439// 1428// 1438//
f 1438// 1428// 1429//
f 1438// 1429// 1437//
f 1437// 1429// 1430//
f 1437// 1430// 1436//
f 1436// 1430// 1423//
f 1436// 1423// 1449//
f 1449// 1423// 1422//
f 1449// 1422// 1448//
f 1448// 1422// 1421//
f 1448// 1421// 1447//
f 1447// 1421// 1420//
f 1447// 1420// 1446//
f 1446// 1420// 1419//
f 1446// 1419// 1445//
f 1445// 1419// 1418//
f 1445// 1418// 1444//
f 1444// 1418// 1417//
f 1444// 1417// 1415//
f 1452// 1453// 566//
f 566// 1453// 556//
f 1453// 1454// 556//
f 556// 1454// 555//
f 1454// 1455// 555//
f 555// 1455// 571//
f 1455// 1456// 571//
f 571// 1456// 561//
f 1456// 1457// 561//
f 561// 1457// 568//
f 1457// 1452// 568//
f 568// 1452// 566//
f 1456// 1455// 1457//
f 1457// 1455// 1454//
f 1457// 1454// 1452//
f 1452// 1454// 1453//
usemtl 2
f 1340// 1341// 1342//
f 1342// 1341// 1347//
f 1342// 1347// 1343//
f 1343// 1347// 1346//
f 1343// 1346// 1344//
f 1344// 1346// 1345//
f 1384// 1399// 1383//
f 1383// 1399// 1398//
f 1383// 1398// 1397//
f 1391// 1390// 1383//
f 1383// 1390// 1389//
f 1383// 1389// 1385//
f 1397// 1396// 1383//
f 1383// 1396// 1395//
f 1383// 1395// 1394//
f 1394// 1393// 1383//
f 1383// 1393// 1392//
f 1383// 1392// 1391//
f 1388// 1387// 1389//
f 1389// 1387// 1386//
f 1389// 1386// 1385//
usemtl 1
f 1228// 1270// 1240//
f 1240// 1270// 1305//
f 1240// 1305// 1241//
f 1241// 1305// 1304//
f 1241// 1304// 1242//
f 1242// 1304// 1303//
f 1242// 1303// 1257//
f 1257// 1303// 1302//
f 1257// 1302// 1258//
f 1258// 1302// 1301//
f 1258// 1301// 1259//
f 1259// 1301// 1300//
f 1259// 1300// 1254//
f 1254// 1300// 1297//
f 1254// 1297// 1261//
f 1261// 1297// 1293//
f 1261// 1293// 1262//
f 1262// 1293// 1291//
f 1262// 1291// 1234//
f 1234// 1291// 1290//
f 1234// 1290// 1233//
f 1233// 1290// 1276//
f 1233// 1276// 1231//
f 1231// 1276// 1277//
f 1231// 1277// 1229//
f 1229// 1277// 1278//
f 1229// 1278// 1243//
f 1243// 1278// 1275//
f 1243// 1275// 1244//
f 1244// 1275// 1274//
f 1244// 1274// 1237//
f 1237// 1274// 1273//
f 1237// 1273// 1247//
f 1247// 1273// 1288//
f 1247// 1288// 1248//
f 1248// 1288// 1289//
f 1248// 1289// 1249//
f 1249// 1289// 1284//
f 1249// 1284// 1250//
f 1250// 1284// 1283//
f 1250// 1283// 1251//
f 1251// 1283// 1282//
f 1251// 1282// 1255//
f 1255// 1282// 1281//
f 1255// 1281// 1256//
f 1256// 1281// 1280//
f 1256// 1280// 1228//
f 1228// 1280// 1270//
usemtl 2
f 1458// 1459// 737//
f 737// 1459// 1036//
f 737// 1036// 729//
f 1460// 1459// 1458//
f 1458// 1461// 1460//
f 1460// 1461// 1462//
f 1460// 1462// 1463//
f 1464// 1465// 1466//
f 1466// 1465// 1463//
f 1466// 1463// 1467//
f 1467// 1463// 1462//
f 1465// 1464// 1033//
f 1033// 1464// 727//
f 1033// 727// 726//
f 1035// 1036// 1459//
f 1459// 1460// 1035//
f 1035// 1460// 1463//
f 1035// 1463// 1034//
f 1034// 1463// 1465//
f 1034// 1465// 1033//
f 1468// 1469// 1470//
f 1470// 1469// 1471//
f 1469// 1472// 1471//
f 1471// 1472// 1473//
f 1471// 1473// 1474//
f 1474// 1473// 1475//
f 1474// 1475// 1476//
f 1476// 1475// 1477//
f 1476// 1477// 1030//
f 1030// 1477// 743//
f 1030// 743// 732//
f 1468// 1470// 739//
f 739// 1470// 1031//
f 739// 1031// 740//
f 1032// 1031// 1470//
f 1032// 1470// 1037//
f 1476// 1030// 1474//
f 1474// 1030// 1037//
f 1474// 1037// 1471//
f 1471// 1037// 1470//
f 1477// 1475// 743//
f 743// 1475// 742//
f 1468// 739// 1469//
f 1469// 739// 741//
f 1469// 741// 1472//
f 1472// 741// 742//
f 1472// 742// 1473//
f 1473// 742// 1475//
f 1458// 737// 1461//
f 1461// 737// 738//
f 728// 727// 1464//
f 1464// 1466// 728//
f 728// 1466// 1467//
f 728// 1467// 738//
f 738// 1467// 1462//
f 738// 1462// 1461//
