v -0.270204 0.2 0.251
v -0.271844 0.207872 0.259481
v -0.270204 0.2 0.26
newmtl 1
Ka 0.7529411764705882 0.7529411764705882 0.7529411764705882
Kd 0.7529411764705882 0.7529411764705882 0.7529411764705882
Ks 0.3764705882352941 0.3764705882352941 0.3764705882352941
d 0.0
endmtl
v -0.265624 0.17608 0.251
v -0.278091 0.235355 0.235355
v -0.27983 0.242426 0.242426
v -0.276916 0.230451 0.239658
v -0.278369 0.236501 0.24762
v -0.275641 0.225 0.243301
v -0.276809 0.23 0.251962
v -0.274307 0.21914 0.246192
v -0.275166 0.222933 0.255444
v -0.272935 0.212941 0.248296
v -0.273503 0.215529 0.257956
v -0.271559 0.206526 0.249572
v -0.270204 0.2 0.25
v -0.271563 -0.206545 0.24957
v -0.270204 -0.2 0.25
v -0.270204 -0.2 0.251
v -0.27983 -0.242426 0.242426
v -0.278091 -0.235355 0.235355
v -0.278365 -0.236486 0.247631
v -0.276908 -0.230417 0.239684
v -0.276809 -0.23 0.251962
v -0.275641 -0.225 0.243301
v -0.275178 -0.222983 0.255424
v -0.274309 -0.219152 0.246186
v -0.273503 -0.215529 0.257956
v -0.272935 -0.212941 0.248296
v -0.27184 -0.207855 0.259484
v -0.270204 -0.2 0.26
v -0.265624 -0.17608 0.251
v -0.265624 -0.17608 0.26
v -0.255634 -0.106002 0.251
v -0.255634 -0.106002 0.26
v -0.250627 -0.035393 0.251
v -0.250627 -0.035393 0.26
v -0.250627 0.035393 0.251
v -0.250627 0.035393 0.26
v -0.255634 0.106002 0.251
v -0.255634 0.106002 0.26
v -0.265624 0.17608 0.26
v 0.270204 0.2 0.25
v -0.01 0.2 0.25
v 0.265624 0.17608 0.25
newmtl 2
Ka 1.0 1.0 1.0
Kd 1.0 1.0 1.0
Ks 0.5019607843137255 0.5019607843137255 0.5019607843137255
d 0.0
endmtl
v 0.255634 0.106002 0.25
v -0.01 -0.2 0.25
v 0.270204 -0.2 0.25
v 0.265624 -0.17608 0.25
v 0.255634 -0.106002 0.25
v 0.250627 -0.035393 0.25
v 0.250627 0.035393 0.25
v -0.255634 0.106002 -0.25
v -0.265624 0.17608 -0.25
v -0.190446 0.044435 -0.25
v -0.214836 -0.055565 -0.25
v -0.204718 -0.027516 -0.25
v -0.163407 -0.027516 -0.25
v -0.255634 -0.106002 -0.25
v -0.2521 -0.056175 -0.25
v -0.041665 -0.056175 -0.25
v -0.15386 -0.055565 -0.25
v -0.139226 -0.055565 -0.25
v -0.126925 -0.028137 -0.25
v -0.121196 -0.037084 -0.25
v -0.112969 -0.044968 -0.25
v -0.102535 -0.051039 -0.25
v -0.051421 0.044435 -0.25
v -0.041665 0.2 -0.25
v -0.079642 0.044435 -0.25
v -0.117416 0.030824 -0.25
v -0.124263 0.022957 -0.25
v -0.177031 0.044435 -0.25
v -0.12876 0.014272 -0.25
v -0.270204 0.2 -0.25
v -0.093766 0.042964 -0.25
v -0.105453 0.038947 -0.25
v -0.116458 0.031675 -0.25
v -0.091013 -0.05448 -0.25
v -0.078613 -0.055565 -0.25
v -0.051421 -0.055565 -0.25
v -0.131298 0.004374 -0.25
v -0.131909 -0.004307 -0.25
v -0.130506 -0.01769 -0.25
v -0.22947 -0.055565 -0.25
v -0.250627 -0.035393 -0.25
v -0.250627 0.035393 -0.25
v -0.041665 -0.2 -0.25
v -0.270204 -0.2 -0.25
v -0.265624 -0.17608 -0.25
v 0.062026 -0.056175 -0.25
v 0.066043 -0.056738 -0.25
v 0.270204 -0.2 -0.25
v 0.265624 -0.17608 -0.25
v 0.255634 -0.106002 -0.25
v 0.2521 -0.056175 -0.25
v 0.074658 -0.056175 -0.25
v 0.068777 -0.056785 -0.25
v -0.02947 0.044435 -0.25
v -0.02947 0.033459 -0.25
v -0.031909 -0.044589 -0.25
v -0.031909 -0.055565 -0.25
v 0.021749 -0.055565 -0.25
v 0.041262 -0.050382 -0.25
v 0.041262 -0.039407 -0.25
v 0.021749 0.044435 -0.25
v 0.051921 -0.054759 -0.25
v 0.008335 -0.010443 -0.25
v 0.008335 -0.044589 -0.25
v -0.027031 -0.010443 -0.25
v -0.027031 5.32E-4 -0.25
v 0.008335 5.32E-4 -0.25
v 0.008335 0.033459 -0.25
v 0.250627 -0.035393 -0.25
v 0.175408 -0.055565 -0.25
v 0.124188 -0.055565 -0.25
v 0.0811 -0.055507 -0.25
v 0.090827 -0.052154 -0.25
v 0.270204 0.2 -0.25
v 0.265624 0.17608 -0.25
v 0.250627 0.035393 -0.25
v 0.175408 0.044435 -0.25
v 0.255634 0.106002 -0.25
v 0.041262 0.041691 -0.25
v 0.041262 0.028276 -0.25
v 0.074527 0.033573 -0.25
v 0.082012 0.030872 -0.25
v 0.043054 -0.040399 -0.25
v 0.088933 0.026241 -0.25
v 0.094972 0.019575 -0.25
v 0.102237 -0.006632 -0.25
v 0.101225 -0.017458 -0.25
v 0.098504 -0.026069 -0.25
v 0.076281 -0.044757 -0.25
v 0.066928 -0.045809 -0.25
v 0.083566 -0.042068 -0.25
v 0.089701 -0.037925 -0.25
v 0.094366 -0.033001 -0.25
v 0.053654 -0.044336 -0.25
v 0.161993 0.044435 -0.25
v 0.052526 0.0331 -0.25
v 0.06468 0.034679 -0.25
v 0.099095 0.011854 -0.25
v 0.10176 0.001148 -0.25
v 0.098869 -0.047008 -0.25
v 0.106371 -0.039095 -0.25
v 0.124188 -0.044589 -0.25
v 0.11169 -0.029582 -0.25
v 0.161993 -0.044589 -0.25
v 0.110455 0.017925 -0.25
v 0.104629 0.027302 -0.25
v 0.095652 0.036004 -0.25
v 0.086166 0.041518 -0.25
v 0.075021 0.044803 -0.25
v 0.114692 -0.018994 -0.25
v 0.115652 -0.007452 -0.25
v 0.114288 0.006416 -0.25
v 0.064794 0.045654 -0.25
v 0.052823 0.044828 -0.25
v 0.278091 -0.235355 0.235355
v 0.27983 -0.242426 0.242426
v 0.276908 -0.230417 0.239684
v 0.278369 -0.236501 0.24762
v 0.275641 -0.225 0.243301
v 0.276809 -0.23 0.251962
v 0.274309 -0.219152 0.246186
v 0.275166 -0.222933 0.255444
v 0.272935 -0.212941 0.248296
v 0.273503 -0.215529 0.257956
v 0.271563 -0.206545 0.24957
v 0.271844 -0.207872 0.259481
v 0.270204 -0.2 0.26
v 0.265624 -0.17608 0.26
v 0.255634 -0.106002 0.26
v 0.250627 -0.035393 0.26
v 0.250627 0.035393 0.26
v 0.255634 0.106002 0.26
v 0.265624 0.17608 0.26
v 0.27983 0.242426 0.242426
v 0.278091 0.235355 0.235355
v 0.278365 0.236486 0.247631
v 0.276916 0.230451 0.239658
v 0.276809 0.23 0.251962
v 0.275641 0.225 0.243301
v 0.275178 0.222983 0.255424
v 0.274307 0.21914 0.246192
v 0.273503 0.215529 0.257956
v 0.272935 0.212941 0.248296
v 0.27184 0.207855 0.259484
v 0.271559 0.206526 0.249572
v 0.270204 0.2 0.26
v 0.271559 0.249572 0.206527
v 0.270204 0.25 0.2
v -0.270204 0.25 0.2
v -0.271561 0.249571 0.206536
v -0.272935 0.248296 0.212941
v 0.272935 0.248296 0.212941
v -0.27431 0.246185 0.219156
v 0.27431 0.246185 0.219156
v -0.275641 0.243301 0.225
v 0.275641 0.243301 0.225
v -0.276912 0.239672 0.230432
v 0.276912 0.239672 0.230432
v 0.272935 0.248296 -0.212941
v -0.272935 0.248296 -0.212941
v -0.271563 0.24957 -0.206545
v -0.270204 0.25 -0.2
v 0.270204 0.25 -0.2
v 0.271565 0.249569 -0.206554
v -0.274308 0.246189 -0.219145
v 0.274305 0.246195 -0.219131
v -0.275641 0.243301 -0.225
v 0.275641 0.243301 -0.225
v 0.276914 0.239665 -0.230442
v -0.276913 0.239667 -0.230439
v 0.278091 0.235355 -0.235355
v -0.278091 0.235355 -0.235355
v 0.276908 0.230417 -0.239684
v -0.276908 0.230417 -0.239684
v 0.275641 0.225 -0.243301
v -0.275641 0.225 -0.243301
v 0.274309 0.219152 -0.246186
v -0.274309 0.219152 -0.246186
v 0.272935 0.212941 -0.248296
v -0.272935 0.212941 -0.248296
v 0.271563 0.206545 -0.24957
v -0.271563 0.206545 -0.24957
v -0.270204 -0.25 0.2
v 0.270204 -0.25 0.2
v -0.271562 -0.24957 0.206541
v 0.271562 -0.24957 0.206541
v -0.272935 -0.248296 0.212941
v 0.272935 -0.248296 0.212941
v -0.27431 -0.246185 0.219155
v 0.27431 -0.246185 0.219155
v -0.275641 -0.243301 0.225
v 0.275641 -0.243301 0.225
v 0.276909 -0.239681 0.230421
v -0.276909 -0.239681 0.230421
v 0.272541 -0.211126 -0.248746
v -0.272541 -0.211126 -0.248746
v 0.274884 -0.221694 -0.245048
v -0.274884 -0.221694 -0.245048
v 0.277088 -0.231174 -0.239092
v -0.277088 -0.231174 -0.239092
v -0.278091 -0.235355 -0.235355
v 0.278091 -0.235355 -0.235355
v -0.277088 -0.239092 -0.231174
v 0.277088 -0.239092 -0.231174
v 0.274884 -0.245048 -0.221694
v -0.274884 -0.245048 -0.221694
v 0.272541 -0.248746 -0.211126
v -0.272541 -0.248746 -0.211126
v 0.270204 -0.25 -0.2
v -0.270204 -0.25 -0.2
v 0.27983 0.242426 -0.242426
v 0.278369 0.236501 -0.24762
v 0.276809 0.23 -0.251962
v 0.275166 0.222933 -0.255444
v 0.273503 0.215529 -0.257956
v 0.271844 0.207872 -0.259481
v 0.270204 0.2 -0.26
v 0.250627 -0.035393 -0.26
v 0.250627 0.035393 -0.26
v 0.255634 0.106002 -0.26
v 0.265624 0.17608 -0.26
v 0.265624 -0.17608 -0.26
v 0.255634 -0.106002 -0.26
v 0.27983 -0.242426 -0.242426
v 0.278365 -0.236486 -0.247631
v 0.276809 -0.23 -0.251962
v 0.270204 -0.2 -0.26
v 0.27184 -0.207855 -0.259484
v 0.273503 -0.215529 -0.257956
v 0.275178 -0.222983 -0.255424
v -0.27983 -0.242426 -0.242426
v -0.271844 -0.207872 -0.259481
v -0.270204 -0.2 -0.26
v -0.265624 -0.17608 -0.26
v -0.255634 -0.106002 -0.26
v -0.278369 -0.236501 -0.24762
v -0.276809 -0.23 -0.251962
v -0.275166 -0.222933 -0.255444
v -0.273503 -0.215529 -0.257956
v -0.265624 0.17608 -0.26
v -0.255634 0.106002 -0.26
v -0.250627 0.035393 -0.26
v -0.250627 -0.035393 -0.26
v -0.27983 0.242426 -0.242426
v -0.278365 0.236486 -0.247631
v -0.276809 0.23 -0.251962
v -0.275178 0.222983 -0.255424
v -0.273503 0.215529 -0.257956
v -0.27184 0.207855 -0.259484
v -0.270204 0.2 -0.26
v 0.255634 0.25 -0.106002
v 0.265624 0.25 -0.17608
v -0.255634 0.25 -0.106002
v -0.265624 0.25 -0.17608
v 0.255634 0.25 0.106002
v -0.265624 0.25 0.17608
v 0.265624 0.25 0.17608
v 0.250627 0.25 -0.035393
v -0.250627 0.25 -0.035393
v 0.250627 0.25 0.035393
v -0.250627 0.25 0.035393
v -0.255634 0.25 0.106002
v -0.265624 -0.25 -0.17608
v 0.265624 -0.25 0.17608
v -0.255634 -0.25 -0.106002
v 0.255634 -0.25 0.106002
v -0.265624 -0.25 0.17608
v -0.255634 -0.25 0.106002
v 0.250627 -0.25 0.035393
v -0.250627 -0.25 0.035393
v 0.250627 -0.25 -0.035393
v -0.250627 -0.25 -0.035393
v 0.255634 -0.25 -0.106002
v 0.265624 -0.25 -0.17608
v -0.265624 0.26 -0.17608
v -0.270204 0.26 -0.2
v -0.45 0.26 -0.2
v -0.255634 0.26 -0.106002
v -0.45 0.26 0.2
v -0.270204 0.26 0.2
v -0.265624 0.26 0.17608
v -0.255634 0.26 0.106002
v -0.250627 0.26 0.035393
v -0.250627 0.26 -0.035393
v -0.51 0.2 -0.2
v -0.51 -0.2 -0.2
v -0.51 0.2 0.2
v -0.51 -0.2 0.2
v -0.265624 -0.26 0.17608
v -0.270204 -0.26 0.2
v -0.45 -0.26 0.2
v -0.45 -0.26 -0.2
v -0.270204 -0.26 -0.2
v -0.265624 -0.26 -0.17608
v -0.255634 -0.26 0.106002
v -0.255634 -0.26 -0.106002
v -0.250627 -0.26 -0.035393
v -0.250627 -0.26 0.035393
v -0.45 0.2 0.26
v -0.45 -0.2 0.26
v -0.45 -0.2 -0.26
v -0.45 0.2 -0.26
v -0.278369 -0.24762 0.236501
v -0.276809 -0.251962 0.23
v -0.275166 -0.255444 0.222933
v -0.273503 -0.257956 0.215529
v -0.271844 -0.259481 0.207872
v -0.278365 -0.247631 -0.236486
v -0.276809 -0.251962 -0.23
v -0.27184 -0.259484 -0.207855
v -0.273503 -0.257956 -0.215529
v -0.275178 -0.255424 -0.222983
v -0.278369 0.24762 -0.236501
v -0.276809 0.251962 -0.23
v -0.275166 0.255444 -0.222933
v -0.273503 0.257956 -0.215529
v -0.271844 0.259481 -0.207872
v -0.278365 0.247631 0.236486
v -0.276809 0.251962 0.23
v -0.275178 0.255424 0.222983
v -0.273503 0.257956 0.215529
v -0.27184 0.259484 0.207855
v -0.45 -0.24691 0.237409
v -0.45 -0.251678 0.229822
v -0.45 -0.254058 0.226033
v -0.45 -0.257758 0.21546
v -0.45 -0.258496 0.213351
v -0.45 -0.213351 0.258496
v -0.45 -0.21546 0.257758
v -0.45 -0.226033 0.254058
v -0.45 -0.229822 0.251678
v -0.45 -0.237409 0.24691
v -0.45 -0.24216 0.24216
v -0.508496 -0.213351 0.2
v -0.508496 -0.213351 -0.2
v -0.507758 -0.21546 0.2
v -0.507758 -0.21546 -0.2
v -0.504058 -0.226033 0.2
v -0.504058 -0.226033 -0.2
v -0.501678 -0.229822 0.2
v -0.501678 -0.229822 -0.2
v -0.49691 -0.237409 0.2
v -0.49691 -0.237409 -0.2
v -0.49216 -0.24216 0.2
v -0.49216 -0.24216 -0.2
v -0.487409 -0.24691 0.2
v -0.487409 -0.24691 -0.2
v -0.479822 -0.251678 0.2
v -0.479822 -0.251678 -0.2
v -0.476033 -0.254058 0.2
v -0.476033 -0.254058 -0.2
v -0.46546 -0.257758 0.2
v -0.46546 -0.257758 -0.2
v -0.463351 -0.258496 0.2
v -0.463351 -0.258496 -0.2
v -0.45 -0.237409 -0.24691
v -0.45 -0.229822 -0.251678
v -0.45 -0.226033 -0.254058
v -0.45 -0.21546 -0.257758
v -0.45 -0.213351 -0.258496
v -0.45 -0.258496 -0.213351
v -0.45 -0.257758 -0.21546
v -0.45 -0.254058 -0.226033
v -0.45 -0.251678 -0.229822
v -0.45 -0.24691 -0.237409
v -0.45 -0.24216 -0.24216
v -0.502703 -0.22538 0.213351
v -0.495734 -0.236471 0.213351
v -0.486471 -0.245734 0.213351
v -0.47538 -0.252703 0.213351
v -0.463017 -0.257029 0.213351
v -0.452971 -0.213017 0.258496
v -0.455793 -0.22538 0.254058
v -0.463351 -0.2 0.258496
v -0.463017 -0.202971 0.258496
v -0.46546 -0.2 0.257758
v -0.47538 -0.205793 0.254058
v -0.476033 -0.2 0.254058
v -0.479822 -0.2 0.251678
v -0.486471 -0.208324 0.24691
v -0.460438 -0.245734 0.237409
v -0.458324 -0.236471 0.24691
v -0.487409 -0.2 0.24691
v -0.49216 -0.2 0.24216
v -0.495734 -0.210438 0.237409
v -0.462029 -0.252703 0.226033
v -0.49691 -0.2 0.237409
v -0.501678 -0.2 0.229822
v -0.502703 -0.212029 0.226033
v -0.473455 -0.248705 0.226033
v -0.470353 -0.242264 0.237409
v -0.466231 -0.233705 0.24691
v -0.461295 -0.223455 0.254058
v -0.455793 -0.212029 0.258496
v -0.483705 -0.242264 0.226033
v -0.479248 -0.236676 0.237409
v -0.473324 -0.229248 0.24691
v -0.466231 -0.220353 0.254058
v -0.458324 -0.210438 0.258496
v -0.492264 -0.233705 0.226033
v -0.486676 -0.229248 0.237409
v -0.479248 -0.223324 0.24691
v -0.470353 -0.216231 0.254058
v -0.460438 -0.208324 0.258496
v -0.498705 -0.223455 0.226033
v -0.492264 -0.220353 0.237409
v -0.483705 -0.216231 0.24691
v -0.473455 -0.211295 0.254058
v -0.462029 -0.205793 0.258496
v -0.507029 -0.213017 0.213351
v -0.504058 -0.2 0.226033
v -0.507758 -0.2 0.21546
v -0.508496 -0.2 0.213351
v -0.462029 -0.205793 -0.258496
v -0.463017 -0.202971 -0.258496
v -0.458324 -0.210438 -0.258496
v -0.460438 -0.208324 -0.258496
v -0.455793 -0.212029 -0.258496
v -0.46546 -0.2 -0.257758
v -0.463351 -0.2 -0.258496
v -0.479822 -0.2 -0.251678
v -0.476033 -0.2 -0.254058
v -0.47538 -0.205793 -0.254058
v -0.463017 -0.257029 -0.213351
v -0.47538 -0.252703 -0.213351
v -0.486471 -0.245734 -0.213351
v -0.495734 -0.236471 -0.213351
v -0.502703 -0.22538 -0.213351
v -0.507029 -0.213017 -0.213351
v -0.462029 -0.252703 -0.226033
v -0.508496 -0.2 -0.213351
v -0.507758 -0.2 -0.21546
v -0.502703 -0.212029 -0.226033
v -0.498705 -0.223455 -0.226033
v -0.492264 -0.233705 -0.226033
v -0.483705 -0.242264 -0.226033
v -0.473455 -0.248705 -0.226033
v -0.460438 -0.245734 -0.237409
v -0.470353 -0.242264 -0.237409
v -0.479248 -0.236676 -0.237409
v -0.486676 -0.229248 -0.237409
v -0.492264 -0.220353 -0.237409
v -0.495734 -0.210438 -0.237409
v -0.458324 -0.236471 -0.24691
v -0.504058 -0.2 -0.226033
v -0.501678 -0.2 -0.229822
v -0.49691 -0.2 -0.237409
v -0.49216 -0.2 -0.24216
v -0.466231 -0.233705 -0.24691
v -0.473324 -0.229248 -0.24691
v -0.479248 -0.223324 -0.24691
v -0.483705 -0.216231 -0.24691
v -0.486471 -0.208324 -0.24691
v -0.487409 -0.2 -0.24691
v -0.455793 -0.22538 -0.254058
v -0.461295 -0.223455 -0.254058
v -0.466231 -0.220353 -0.254058
v -0.470353 -0.216231 -0.254058
v -0.473455 -0.211295 -0.254058
v -0.452971 -0.213017 -0.258496
v -0.45 0.237409 0.24691
v -0.45 0.229822 0.251678
v -0.45 0.226033 0.254058
v -0.45 0.21546 0.257758
v -0.45 0.213351 0.258496
v -0.45 0.258496 0.213351
v -0.45 0.257758 0.21546
v -0.45 0.254058 0.226033
v -0.45 0.251678 0.229822
v -0.45 0.24691 0.237409
v -0.45 0.24216 0.24216
v -0.508496 0.2 0.213351
v -0.507758 0.2 0.21546
v -0.504058 0.2 0.226033
v -0.501678 0.2 0.229822
v -0.49691 0.2 0.237409
v -0.49216 0.2 0.24216
v -0.487409 0.2 0.24691
v -0.479822 0.2 0.251678
v -0.476033 0.2 0.254058
v -0.46546 0.2 0.257758
v -0.463351 0.2 0.258496
v -0.508496 0.2 -0.213351
v -0.507758 0.2 -0.21546
v -0.504058 0.2 -0.226033
v -0.501678 0.2 -0.229822
v -0.49691 0.2 -0.237409
v -0.49216 0.2 -0.24216
v -0.487409 0.2 -0.24691
v -0.479822 0.2 -0.251678
v -0.476033 0.2 -0.254058
v -0.46546 0.2 -0.257758
v -0.463351 0.2 -0.258496
v -0.45 0.24691 -0.237409
v -0.45 0.251678 -0.229822
v -0.45 0.254058 -0.226033
v -0.45 0.257758 -0.21546
v -0.45 0.258496 -0.213351
v -0.45 0.213351 -0.258496
v -0.45 0.21546 -0.257758
v -0.45 0.226033 -0.254058
v -0.45 0.229822 -0.251678
v -0.45 0.237409 -0.24691
v -0.45 0.24216 -0.24216
v -0.46546 0.257758 0.2
v -0.476033 0.254058 0.2
v -0.47538 0.252703 0.213351
v -0.479822 0.251678 0.2
v -0.487409 0.24691 0.2
v -0.486471 0.245734 0.213351
v -0.49216 0.24216 0.2
v -0.49691 0.237409 0.2
v -0.495734 0.236471 0.213351
v -0.501678 0.229822 0.2
v -0.504058 0.226033 0.2
v -0.502703 0.22538 0.213351
v -0.507758 0.21546 0.2
v -0.508496 0.213351 0.2
v -0.507029 0.213017 0.213351
v -0.463017 0.202971 0.258496
v -0.47538 0.205793 0.254058
v -0.452971 0.213017 0.258496
v -0.455793 0.22538 0.254058
v -0.458324 0.236471 0.24691
v -0.495734 0.210438 0.237409
v -0.486471 0.208324 0.24691
v -0.460438 0.245734 0.237409
v -0.502703 0.212029 0.226033
v -0.462029 0.252703 0.226033
v -0.498705 0.223455 0.226033
v -0.492264 0.220353 0.237409
v -0.483705 0.216231 0.24691
v -0.473455 0.211295 0.254058
v -0.462029 0.205793 0.258496
v -0.492264 0.233705 0.226033
v -0.486676 0.229248 0.237409
v -0.479248 0.223324 0.24691
v -0.470353 0.216231 0.254058
v -0.460438 0.208324 0.258496
v -0.483705 0.242264 0.226033
v -0.479248 0.236676 0.237409
v -0.473324 0.229248 0.24691
v -0.466231 0.220353 0.254058
v -0.458324 0.210438 0.258496
v -0.473455 0.248705 0.226033
v -0.470353 0.242264 0.237409
v -0.466231 0.233705 0.24691
v -0.461295 0.223455 0.254058
v -0.455793 0.212029 0.258496
v -0.463351 0.258496 0.2
v -0.463017 0.257029 0.213351
v -0.455793 0.212029 -0.258496
v -0.452971 0.213017 -0.258496
v -0.460438 0.208324 -0.258496
v -0.458324 0.210438 -0.258496
v -0.462029 0.205793 -0.258496
v -0.455793 0.22538 -0.254058
v -0.508496 0.213351 -0.2
v -0.507029 0.213017 -0.213351
v -0.507758 0.21546 -0.2
v -0.502703 0.22538 -0.213351
v -0.504058 0.226033 -0.2
v -0.501678 0.229822 -0.2
v -0.495734 0.236471 -0.213351
v -0.49691 0.237409 -0.2
v -0.49216 0.24216 -0.2
v -0.486471 0.245734 -0.213351
v -0.487409 0.24691 -0.2
v -0.479822 0.251678 -0.2
v -0.47538 0.252703 -0.213351
v -0.463351 0.258496 -0.2
v -0.463017 0.257029 -0.213351
v -0.46546 0.257758 -0.2
v -0.476033 0.254058 -0.2
v -0.502703 0.212029 -0.226033
v -0.462029 0.252703 -0.226033
v -0.473455 0.248705 -0.226033
v -0.483705 0.242264 -0.226033
v -0.492264 0.233705 -0.226033
v -0.498705 0.223455 -0.226033
v -0.495734 0.210438 -0.237409
v -0.492264 0.220353 -0.237409
v -0.486676 0.229248 -0.237409
v -0.479248 0.236676 -0.237409
v -0.470353 0.242264 -0.237409
v -0.460438 0.245734 -0.237409
v -0.486471 0.208324 -0.24691
v -0.483705 0.216231 -0.24691
v -0.479248 0.223324 -0.24691
v -0.473324 0.229248 -0.24691
v -0.466231 0.233705 -0.24691
v -0.458324 0.236471 -0.24691
v -0.47538 0.205793 -0.254058
v -0.473455 0.211295 -0.254058
v -0.470353 0.216231 -0.254058
v -0.466231 0.220353 -0.254058
v -0.461295 0.223455 -0.254058
v -0.463017 0.202971 -0.258496
v 0.265624 -0.26 -0.17608
v 0.270204 -0.26 -0.2
v 0.45 -0.26 -0.2
v 0.45 -0.26 0.2
v 0.270204 -0.26 0.2
v 0.265624 -0.26 0.17608
v 0.255634 -0.26 -0.106002
v 0.255634 -0.26 0.106002
v 0.250627 -0.26 0.035393
v 0.250627 -0.26 -0.035393
v 0.51 -0.2 -0.2
v 0.51 0.2 -0.2
v 0.51 -0.2 0.2
v 0.51 0.2 0.2
v 0.265624 0.26 0.17608
v 0.270204 0.26 0.2
v 0.45 0.26 0.2
v 0.255634 0.26 0.106002
v 0.45 0.26 -0.2
v 0.270204 0.26 -0.2
v 0.265624 0.26 -0.17608
v 0.255634 0.26 -0.106002
v 0.250627 0.26 -0.035393
v 0.250627 0.26 0.035393
v 0.45 -0.2 0.26
v 0.45 0.2 0.26
v 0.45 0.2 -0.26
v 0.45 -0.2 -0.26
v 0.271844 -0.259481 -0.207872
v 0.278369 -0.24762 -0.236501
v 0.276809 -0.251962 -0.23
v 0.275166 -0.255444 -0.222933
v 0.273503 -0.257956 -0.215529
v 0.278365 -0.247631 0.236486
v 0.276809 -0.251962 0.23
v 0.275178 -0.255424 0.222983
v 0.273503 -0.257956 0.215529
v 0.27184 -0.259484 0.207855
v 0.278369 0.24762 0.236501
v 0.276809 0.251962 0.23
v 0.275166 0.255444 0.222933
v 0.273503 0.257956 0.215529
v 0.271844 0.259481 0.207872
v 0.278365 0.247631 -0.236486
v 0.276809 0.251962 -0.23
v 0.275178 0.255424 -0.222983
v 0.273503 0.257956 -0.215529
v 0.27184 0.259484 -0.207855
v 0.45 0.24691 0.237409
v 0.45 0.251678 0.229822
v 0.45 0.254058 0.226033
v 0.45 0.257758 0.21546
v 0.45 0.258496 0.213351
v 0.45 0.213351 0.258496
v 0.45 0.21546 0.257758
v 0.45 0.226033 0.254058
v 0.45 0.229822 0.251678
v 0.45 0.237409 0.24691
v 0.45 0.24216 0.24216
v 0.508496 0.213351 0.2
v 0.508496 0.213351 -0.2
v 0.507758 0.21546 0.2
v 0.507758 0.21546 -0.2
v 0.504058 0.226033 0.2
v 0.504058 0.226033 -0.2
v 0.501678 0.229822 0.2
v 0.501678 0.229822 -0.2
v 0.49691 0.237409 0.2
v 0.49691 0.237409 -0.2
v 0.49216 0.24216 0.2
v 0.49216 0.24216 -0.2
v 0.487409 0.24691 0.2
v 0.487409 0.24691 -0.2
v 0.479822 0.251678 0.2
v 0.479822 0.251678 -0.2
v 0.476033 0.254058 0.2
v 0.476033 0.254058 -0.2
v 0.46546 0.257758 0.2
v 0.46546 0.257758 -0.2
v 0.463351 0.258496 0.2
v 0.463351 0.258496 -0.2
v 0.45 0.237409 -0.24691
v 0.45 0.229822 -0.251678
v 0.45 0.226033 -0.254058
v 0.45 0.21546 -0.257758
v 0.45 0.213351 -0.258496
v 0.45 0.258496 -0.213351
v 0.45 0.257758 -0.21546
v 0.45 0.254058 -0.226033
v 0.45 0.251678 -0.229822
v 0.45 0.24691 -0.237409
v 0.45 0.24216 -0.24216
v 0.502703 0.22538 0.213351
v 0.495734 0.236471 0.213351
v 0.486471 0.245734 0.213351
v 0.47538 0.252703 0.213351
v 0.463017 0.257029 0.213351
v 0.452971 0.213017 0.258496
v 0.455793 0.22538 0.254058
v 0.463351 0.2 0.258496
v 0.463017 0.202971 0.258496
v 0.46546 0.2 0.257758
v 0.47538 0.205793 0.254058
v 0.476033 0.2 0.254058
v 0.479822 0.2 0.251678
v 0.486471 0.208324 0.24691
v 0.460438 0.245734 0.237409
v 0.458324 0.236471 0.24691
v 0.487409 0.2 0.24691
v 0.49216 0.2 0.24216
v 0.495734 0.210438 0.237409
v 0.462029 0.252703 0.226033
v 0.49691 0.2 0.237409
v 0.501678 0.2 0.229822
v 0.502703 0.212029 0.226033
v 0.473455 0.248705 0.226033
v 0.470353 0.242264 0.237409
v 0.466231 0.233705 0.24691
v 0.461295 0.223455 0.254058
v 0.455793 0.212029 0.258496
v 0.483705 0.242264 0.226033
v 0.479248 0.236676 0.237409
v 0.473324 0.229248 0.24691
v 0.466231 0.220353 0.254058
v 0.458324 0.210438 0.258496
v 0.492264 0.233705 0.226033
v 0.486676 0.229248 0.237409
v 0.479248 0.223324 0.24691
v 0.470353 0.216231 0.254058
v 0.460438 0.208324 0.258496
v 0.498705 0.223455 0.226033
v 0.492264 0.220353 0.237409
v 0.483705 0.216231 0.24691
v 0.473455 0.211295 0.254058
v 0.462029 0.205793 0.258496
v 0.507029 0.213017 0.213351
v 0.504058 0.2 0.226033
v 0.507758 0.2 0.21546
v 0.508496 0.2 0.213351
v 0.462029 0.205793 -0.258496
v 0.463017 0.202971 -0.258496
v 0.458324 0.210438 -0.258496
v 0.460438 0.208324 -0.258496
v 0.455793 0.212029 -0.258496
v 0.46546 0.2 -0.257758
v 0.463351 0.2 -0.258496
v 0.479822 0.2 -0.251678
v 0.476033 0.2 -0.254058
v 0.47538 0.205793 -0.254058
v 0.463017 0.257029 -0.213351
v 0.47538 0.252703 -0.213351
v 0.486471 0.245734 -0.213351
v 0.495734 0.236471 -0.213351
v 0.502703 0.22538 -0.213351
v 0.507029 0.213017 -0.213351
v 0.462029 0.252703 -0.226033
v 0.508496 0.2 -0.213351
v 0.507758 0.2 -0.21546
v 0.502703 0.212029 -0.226033
v 0.498705 0.223455 -0.226033
v 0.492264 0.233705 -0.226033
v 0.483705 0.242264 -0.226033
v 0.473455 0.248705 -0.226033
v 0.460438 0.245734 -0.237409
v 0.470353 0.242264 -0.237409
v 0.479248 0.236676 -0.237409
v 0.486676 0.229248 -0.237409
v 0.492264 0.220353 -0.237409
v 0.495734 0.210438 -0.237409
v 0.458324 0.236471 -0.24691
v 0.504058 0.2 -0.226033
v 0.501678 0.2 -0.229822
v 0.49691 0.2 -0.237409
v 0.49216 0.2 -0.24216
v 0.466231 0.233705 -0.24691
v 0.473324 0.229248 -0.24691
v 0.479248 0.223324 -0.24691
v 0.483705 0.216231 -0.24691
v 0.486471 0.208324 -0.24691
v 0.487409 0.2 -0.24691
v 0.455793 0.22538 -0.254058
v 0.461295 0.223455 -0.254058
v 0.466231 0.220353 -0.254058
v 0.470353 0.216231 -0.254058
v 0.473455 0.211295 -0.254058
v 0.452971 0.213017 -0.258496
v 0.45 -0.237409 0.24691
v 0.45 -0.229822 0.251678
v 0.45 -0.226033 0.254058
v 0.45 -0.21546 0.257758
v 0.45 -0.213351 0.258496
v 0.45 -0.258496 0.213351
v 0.45 -0.257758 0.21546
v 0.45 -0.254058 0.226033
v 0.45 -0.251678 0.229822
v 0.45 -0.24691 0.237409
v 0.45 -0.24216 0.24216
v 0.508496 -0.2 0.213351
v 0.507758 -0.2 0.21546
v 0.504058 -0.2 0.226033
v 0.501678 -0.2 0.229822
v 0.49691 -0.2 0.237409
v 0.49216 -0.2 0.24216
v 0.487409 -0.2 0.24691
v 0.479822 -0.2 0.251678
v 0.476033 -0.2 0.254058
v 0.46546 -0.2 0.257758
v 0.463351 -0.2 0.258496
v 0.508496 -0.2 -0.213351
v 0.507758 -0.2 -0.21546
v 0.504058 -0.2 -0.226033
v 0.501678 -0.2 -0.229822
v 0.49691 -0.2 -0.237409
v 0.49216 -0.2 -0.24216
v 0.487409 -0.2 -0.24691
v 0.479822 -0.2 -0.251678
v 0.476033 -0.2 -0.254058
v 0.46546 -0.2 -0.257758
v 0.463351 -0.2 -0.258496
v 0.45 -0.24691 -0.237409
v 0.45 -0.251678 -0.229822
v 0.45 -0.254058 -0.226033
v 0.45 -0.257758 -0.21546
v 0.45 -0.258496 -0.213351
v 0.45 -0.213351 -0.258496
v 0.45 -0.21546 -0.257758
v 0.45 -0.226033 -0.254058
v 0.45 -0.229822 -0.251678
v 0.45 -0.237409 -0.24691
v 0.45 -0.24216 -0.24216
v 0.46546 -0.257758 0.2
v 0.476033 -0.254058 0.2
v 0.47538 -0.252703 0.213351
v 0.479822 -0.251678 0.2
v 0.487409 -0.24691 0.2
v 0.486471 -0.245734 0.213351
v 0.49216 -0.24216 0.2
v 0.49691 -0.237409 0.2
v 0.495734 -0.236471 0.213351
v 0.501678 -0.229822 0.2
v 0.504058 -0.226033 0.2
v 0.502703 -0.22538 0.213351
v 0.507758 -0.21546 0.2
v 0.508496 -0.213351 0.2
v 0.507029 -0.213017 0.213351
v 0.463017 -0.202971 0.258496
v 0.47538 -0.205793 0.254058
v 0.452971 -0.213017 0.258496
v 0.455793 -0.22538 0.254058
v 0.458324 -0.236471 0.24691
v 0.495734 -0.210438 0.237409
v 0.486471 -0.208324 0.24691
v 0.460438 -0.245734 0.237409
v 0.502703 -0.212029 0.226033
v 0.462029 -0.252703 0.226033
v 0.498705 -0.223455 0.226033
v 0.492264 -0.220353 0.237409
v 0.483705 -0.216231 0.24691
v 0.473455 -0.211295 0.254058
v 0.462029 -0.205793 0.258496
v 0.492264 -0.233705 0.226033
v 0.486676 -0.229248 0.237409
v 0.479248 -0.223324 0.24691
v 0.470353 -0.216231 0.254058
v 0.460438 -0.208324 0.258496
v 0.483705 -0.242264 0.226033
v 0.479248 -0.236676 0.237409
v 0.473324 -0.229248 0.24691
v 0.466231 -0.220353 0.254058
v 0.458324 -0.210438 0.258496
v 0.473455 -0.248705 0.226033
v 0.470353 -0.242264 0.237409
v 0.466231 -0.233705 0.24691
v 0.461295 -0.223455 0.254058
v 0.455793 -0.212029 0.258496
v 0.463351 -0.258496 0.2
v 0.463017 -0.257029 0.213351
v 0.455793 -0.212029 -0.258496
v 0.452971 -0.213017 -0.258496
v 0.460438 -0.208324 -0.258496
v 0.458324 -0.210438 -0.258496
v 0.462029 -0.205793 -0.258496
v 0.455793 -0.22538 -0.254058
v 0.508496 -0.213351 -0.2
v 0.507029 -0.213017 -0.213351
v 0.507758 -0.21546 -0.2
v 0.502703 -0.22538 -0.213351
v 0.504058 -0.226033 -0.2
v 0.501678 -0.229822 -0.2
v 0.495734 -0.236471 -0.213351
v 0.49691 -0.237409 -0.2
v 0.49216 -0.24216 -0.2
v 0.486471 -0.245734 -0.213351
v 0.487409 -0.24691 -0.2
v 0.479822 -0.251678 -0.2
v 0.47538 -0.252703 -0.213351
v 0.463351 -0.258496 -0.2
v 0.463017 -0.257029 -0.213351
v 0.46546 -0.257758 -0.2
v 0.476033 -0.254058 -0.2
v 0.502703 -0.212029 -0.226033
v 0.462029 -0.252703 -0.226033
v 0.473455 -0.248705 -0.226033
v 0.483705 -0.242264 -0.226033
v 0.492264 -0.233705 -0.226033
v 0.498705 -0.223455 -0.226033
v 0.495734 -0.210438 -0.237409
v 0.492264 -0.220353 -0.237409
v 0.486676 -0.229248 -0.237409
v 0.479248 -0.236676 -0.237409
v 0.470353 -0.242264 -0.237409
v 0.460438 -0.245734 -0.237409
v 0.486471 -0.208324 -0.24691
v 0.483705 -0.216231 -0.24691
v 0.479248 -0.223324 -0.24691
v 0.473324 -0.229248 -0.24691
v 0.466231 -0.233705 -0.24691
v 0.458324 -0.236471 -0.24691
v 0.47538 -0.205793 -0.254058
v 0.473455 -0.211295 -0.254058
v 0.470353 -0.216231 -0.254058
v 0.466231 -0.220353 -0.254058
v 0.461295 -0.223455 -0.254058
v 0.463017 -0.202971 -0.258496
v -0.190446 0.044435 -0.249
v -0.22947 -0.055565 -0.249
newmtl 3
Ka 0.0 0.0 0.0
Kd 0.0 0.0 0.0
Ks 0.0 0.0 0.0
d 0.0
endmtl
v -0.214836 -0.055565 -0.249
v -0.204718 -0.027516 -0.249
v -0.163407 -0.027516 -0.249
v -0.15386 -0.055565 -0.249
v -0.139226 -0.055565 -0.249
v -0.177031 0.044435 -0.249
v -0.16678 -0.016541 -0.249
v -0.200221 -0.016541 -0.249
v -0.1817 0.025228 -0.249
v -0.182662 0.028696 -0.249
v -0.1833 0.03224 -0.249
v -0.183624 0.03224 -0.249
v -0.184277 0.028706 -0.249
v -0.185168 0.025228 -0.249
v -0.16678 -0.016541 -0.25
v -0.200221 -0.016541 -0.25
v -0.1817 0.025228 -0.25
v -0.182662 0.028696 -0.25
v -0.1833 0.03224 -0.25
v -0.183624 0.03224 -0.25
v -0.184277 0.028706 -0.25
v -0.185168 0.025228 -0.25
v -0.078613 -0.055565 -0.249
v -0.051421 -0.055565 -0.249
v -0.051421 0.044435 -0.249
v -0.079642 0.044435 -0.249
v -0.131909 -0.004307 -0.249
v -0.131298 0.004374 -0.249
v -0.12876 0.014272 -0.249
v -0.124263 0.022957 -0.249
v -0.117416 0.030824 -0.249
v -0.116458 0.031675 -0.249
v -0.105453 0.038947 -0.249
v -0.093766 0.042964 -0.249
v -0.091013 -0.05448 -0.249
v -0.102535 -0.051039 -0.249
v -0.112969 -0.044968 -0.249
v -0.121196 -0.037084 -0.249
v -0.126925 -0.028137 -0.249
v -0.130506 -0.01769 -0.249
v -0.111819 0.01946 -0.249
v -0.106957 0.024612 -0.249
v -0.099647 0.029326 -0.249
v -0.091387 0.032209 -0.249
v -0.079584 0.033459 -0.249
v -0.064836 0.033459 -0.249
v -0.064836 -0.044589 -0.249
v -0.079032 -0.044589 -0.249
v -0.089582 -0.043608 -0.249
v -0.098013 -0.040974 -0.249
v -0.104829 -0.036922 -0.249
v -0.110435 -0.031379 -0.249
v -0.11465 -0.024481 -0.249
v -0.11758 -0.015076 -0.249
v -0.118495 -0.004593 -0.249
v -0.117645 0.005359 -0.249
v -0.115297 0.0133 -0.249
v -0.079584 0.033459 -0.25
v -0.064836 0.033459 -0.25
v -0.091387 0.032209 -0.25
v -0.099647 0.029326 -0.25
v -0.106957 0.024612 -0.25
v -0.111819 0.01946 -0.25
v -0.115297 0.0133 -0.25
v -0.117645 0.005359 -0.25
v -0.118495 -0.004593 -0.25
v -0.11758 -0.015076 -0.25
v -0.11465 -0.024481 -0.25
v -0.110435 -0.031379 -0.25
v -0.104829 -0.036922 -0.25
v -0.098013 -0.040974 -0.25
v -0.089582 -0.043608 -0.25
v -0.079032 -0.044589 -0.25
v -0.064836 -0.044589 -0.25
v -0.031909 -0.044589 -0.249
v -0.031909 -0.055565 -0.249
v 0.021749 -0.055565 -0.249
v 0.021749 0.044435 -0.249
v -0.02947 0.044435 -0.249
v -0.02947 0.033459 -0.249
v 0.008335 0.033459 -0.249
v 0.008335 5.32E-4 -0.249
v -0.027031 5.32E-4 -0.249
v -0.027031 -0.010443 -0.249
v 0.008335 -0.010443 -0.249
v 0.008335 -0.044589 -0.249
v 0.041262 -0.039407 -0.249
v 0.041262 -0.050382 -0.249
v 0.051921 -0.054759 -0.249
v 0.068777 -0.056785 -0.249
v 0.066043 -0.056738 -0.249
v 0.0811 -0.055507 -0.249
v 0.090827 -0.052154 -0.249
v 0.098869 -0.047008 -0.249
v 0.106371 -0.039095 -0.249
v 0.11169 -0.029582 -0.249
v 0.114692 -0.018994 -0.249
v 0.115652 -0.007452 -0.249
v 0.064794 0.045654 -0.249
v 0.075021 0.044803 -0.249
v 0.086166 0.041518 -0.249
v 0.095652 0.036004 -0.249
v 0.104629 0.027302 -0.249
v 0.110455 0.017925 -0.249
v 0.114288 0.006416 -0.249
v 0.041262 0.041691 -0.249
v 0.052823 0.044828 -0.249
v 0.041262 0.028276 -0.249
v 0.06468 0.034679 -0.249
v 0.052526 0.0331 -0.249
v 0.102237 -0.006632 -0.249
v 0.10176 0.001148 -0.249
v 0.099095 0.011854 -0.249
v 0.094972 0.019575 -0.249
v 0.088933 0.026241 -0.249
v 0.082012 0.030872 -0.249
v 0.074527 0.033573 -0.249
v 0.066928 -0.045809 -0.249
v 0.076281 -0.044757 -0.249
v 0.083566 -0.042068 -0.249
v 0.089701 -0.037925 -0.249
v 0.094366 -0.033001 -0.249
v 0.098504 -0.026069 -0.249
v 0.101225 -0.017458 -0.249
v 0.043054 -0.040399 -0.249
v 0.053654 -0.044336 -0.249
v 0.124188 -0.044589 -0.249
v 0.124188 -0.055565 -0.249
v 0.175408 -0.055565 -0.249
v 0.175408 0.044435 -0.249
v 0.161993 0.044435 -0.249
v 0.161993 -0.044589 -0.249
v -0.01 0.2 0.251
v -0.01 -0.2 0.251
usemtl 1
f 1// 2// 3//
f 1// 3// 4//
f 5// 6// 7//
f 7// 6// 8//
f 7// 8// 9//
f 9// 8// 10//
f 9// 10// 11//
f 11// 10// 12//
f 11// 12// 13//
f 13// 12// 14//
f 13// 14// 15//
f 15// 14// 2//
f 15// 2// 16//
f 16// 2// 1//
f 17// 18// 19//
f 20// 21// 22//
f 22// 21// 23//
f 22// 23// 24//
f 24// 23// 25//
f 24// 25// 26//
f 26// 25// 27//
f 26// 27// 28//
f 28// 27// 29//
f 28// 29// 30//
f 29// 17// 30//
f 30// 17// 19//
f 30// 19// 31//
f 31// 19// 32//
f 31// 32// 33//
f 33// 32// 34//
f 33// 34// 35//
f 35// 34// 36//
f 35// 36// 37//
f 37// 36// 38//
f 37// 38// 39//
f 39// 38// 40//
f 39// 40// 41//
f 41// 40// 4//
f 41// 4// 42//
f 42// 4// 3//
usemtl 2
f 43// 44// 45//
f 45// 44// 46//
f 47// 48// 49//
f 49// 50// 47//
f 47// 50// 51//
f 47// 51// 44//
f 44// 51// 52//
f 44// 52// 46//
f 53// 54// 55//
f 56// 57// 58//
f 59// 60// 61//
f 61// 60// 62//
f 61// 62// 63//
f 64// 65// 63//
f 63// 65// 66//
f 63// 66// 67//
f 61// 68// 69//
f 69// 68// 70//
f 71// 72// 73//
f 73// 72// 74//
f 73// 55// 69//
f 69// 55// 54//
f 69// 54// 75//
f 70// 76// 69//
f 69// 76// 77//
f 69// 77// 73//
f 73// 77// 78//
f 73// 78// 71//
f 67// 79// 63//
f 63// 79// 80//
f 63// 80// 61//
f 61// 80// 81//
f 61// 81// 68//
f 74// 82// 73//
f 73// 82// 83//
f 73// 83// 63//
f 63// 83// 84//
f 63// 84// 64//
f 58// 62// 56//
f 56// 62// 60//
f 56// 60// 85//
f 85// 60// 86//
f 85// 86// 55//
f 55// 86// 87//
f 55// 87// 53//
f 88// 89// 90//
f 91// 92// 88//
f 93// 88// 94//
f 94// 88// 95//
f 96// 95// 97//
f 97// 95// 88//
f 97// 88// 98//
f 98// 88// 92//
f 99// 100// 69//
f 69// 100// 101//
f 69// 101// 61//
f 61// 101// 102//
f 61// 102// 103//
f 104// 103// 105//
f 105// 103// 106//
f 90// 59// 88//
f 88// 59// 61//
f 88// 61// 91//
f 91// 61// 103//
f 91// 103// 107//
f 107// 103// 104//
f 108// 109// 110//
f 110// 109// 101//
f 110// 101// 111//
f 111// 101// 100//
f 111// 100// 112//
f 112// 100// 113//
f 114// 96// 115//
f 115// 96// 97//
f 115// 97// 116//
f 116// 97// 117//
f 116// 117// 118//
f 69// 119// 120//
f 114// 115// 121//
f 121// 115// 122//
f 121// 122// 123//
f 69// 124// 125//
f 126// 127// 128//
f 128// 127// 129//
f 128// 129// 130//
f 131// 132// 128//
f 128// 132// 133//
f 134// 135// 136//
f 136// 135// 137//
f 133// 138// 128//
f 128// 138// 137//
f 128// 137// 139//
f 139// 137// 135//
f 123// 122// 120//
f 120// 122// 140//
f 120// 140// 69//
f 99// 69// 106//
f 106// 69// 125//
f 106// 125// 105//
f 105// 125// 141//
f 105// 141// 128//
f 128// 141// 142//
f 128// 142// 126//
f 130// 143// 128//
f 128// 143// 144//
f 128// 144// 131//
f 118// 145// 116//
f 116// 145// 146//
f 116// 146// 147//
f 147// 146// 148//
f 147// 148// 149//
f 150// 151// 140//
f 140// 151// 152//
f 140// 152// 69//
f 69// 152// 153//
f 69// 153// 154//
f 148// 155// 149//
f 149// 155// 156//
f 149// 156// 140//
f 140// 156// 157//
f 140// 157// 150//
f 154// 158// 69//
f 69// 158// 159//
f 69// 159// 124//
usemtl 1
f 160// 161// 162//
f 162// 161// 163//
f 162// 163// 164//
f 164// 163// 165//
f 164// 165// 166//
f 166// 165// 167//
f 166// 167// 168//
f 168// 167// 169//
f 168// 169// 170//
f 170// 169// 171//
f 170// 171// 48//
f 48// 171// 172//
f 48// 172// 49//
f 172// 173// 49//
f 49// 173// 174//
f 49// 174// 50//
f 50// 174// 175//
f 50// 175// 51//
f 51// 175// 176//
f 51// 176// 52//
f 52// 176// 177//
f 52// 177// 46//
f 46// 177// 178//
f 179// 180// 181//
f 181// 180// 182//
f 181// 182// 183//
f 183// 182// 184//
f 183// 184// 185//
f 185// 184// 186//
f 185// 186// 187//
f 187// 186// 188//
f 187// 188// 189//
f 189// 188// 190//
f 189// 190// 191//
f 191// 190// 43//
f 191// 43// 178//
f 178// 43// 45//
f 178// 45// 46//
usemtl 2
f 15// 16// 44//
f 192// 193// 194//
f 194// 195// 192//
f 192// 195// 196//
f 192// 196// 197//
f 197// 196// 198//
f 197// 198// 199//
f 199// 198// 200//
f 199// 200// 201//
f 201// 200// 202//
f 201// 202// 203//
f 203// 202// 5//
f 203// 5// 180//
f 180// 5// 7//
f 180// 7// 182//
f 182// 7// 9//
f 182// 9// 184//
f 184// 9// 11//
f 184// 11// 186//
f 186// 11// 13//
f 186// 13// 188//
f 188// 13// 15//
f 188// 15// 190//
f 190// 15// 44//
f 190// 44// 43//
f 204// 205// 206//
f 207// 208// 206//
f 206// 208// 209//
f 206// 209// 204//
f 205// 204// 210//
f 210// 204// 211//
f 210// 211// 212//
f 211// 213// 212//
f 212// 213// 214//
f 212// 214// 215//
f 215// 214// 216//
f 215// 216// 217//
f 217// 216// 218//
f 217// 218// 219//
f 219// 218// 220//
f 219// 220// 221//
f 221// 220// 222//
f 221// 222// 223//
f 223// 222// 224//
f 223// 224// 225//
f 225// 224// 226//
f 69// 75// 227//
f 119// 69// 226//
f 226// 69// 227//
f 226// 227// 225//
f 228// 229// 230//
f 230// 229// 231//
f 230// 231// 232//
f 232// 231// 233//
f 232// 233// 234//
f 234// 233// 235//
f 234// 235// 236//
f 235// 237// 236//
f 236// 237// 238//
f 236// 238// 239//
f 239// 238// 160//
f 239// 160// 21//
f 21// 160// 23//
f 23// 160// 162//
f 23// 162// 25//
f 162// 164// 25//
f 25// 164// 166//
f 25// 166// 27//
f 27// 166// 168//
f 27// 168// 29//
f 29// 168// 170//
f 47// 18// 17//
f 48// 47// 170//
f 170// 47// 17//
f 170// 17// 29//
f 88// 93// 240//
f 241// 89// 88//
f 88// 240// 241//
f 241// 240// 242//
f 241// 242// 243//
f 243// 242// 244//
f 243// 244// 245//
f 245// 244// 246//
f 246// 244// 247//
f 246// 247// 248//
f 247// 249// 248//
f 248// 249// 250//
f 248// 250// 251//
f 251// 250// 252//
f 251// 252// 253//
f 253// 252// 254//
f 253// 254// 255//
usemtl 1
f 216// 256// 218//
f 218// 256// 257//
f 218// 257// 220//
f 220// 257// 258//
f 220// 258// 222//
f 222// 258// 259//
f 222// 259// 224//
f 224// 259// 260//
f 224// 260// 226//
f 226// 260// 261//
f 226// 261// 119//
f 119// 261// 262//
f 119// 262// 120//
f 263// 121// 264//
f 264// 121// 123//
f 264// 123// 265//
f 265// 123// 120//
f 265// 120// 266//
f 266// 120// 262//
f 95// 96// 263//
f 263// 96// 114//
f 263// 114// 121//
f 93// 94// 267//
f 267// 94// 95//
f 267// 95// 268//
f 268// 95// 263//
f 269// 247// 270//
f 270// 247// 244//
f 270// 244// 271//
f 271// 244// 242//
f 267// 272// 93//
f 93// 272// 273//
f 93// 273// 240//
f 240// 273// 274//
f 240// 274// 242//
f 242// 274// 275//
f 242// 275// 271//
f 245// 246// 276//
f 241// 277// 89//
f 89// 277// 278//
f 89// 278// 90//
f 90// 278// 279//
f 90// 279// 280//
f 276// 281// 245//
f 245// 281// 282//
f 245// 282// 243//
f 243// 282// 283//
f 243// 283// 241//
f 241// 283// 284//
f 241// 284// 277//
f 285// 53// 286//
f 286// 53// 87//
f 286// 87// 287//
f 287// 87// 86//
f 287// 86// 288//
f 288// 86// 60//
f 288// 60// 280//
f 280// 60// 59//
f 280// 59// 90//
f 289// 217// 290//
f 290// 217// 219//
f 290// 219// 291//
f 291// 219// 221//
f 291// 221// 292//
f 292// 221// 223//
f 292// 223// 293//
f 293// 223// 225//
f 293// 225// 294//
f 294// 225// 227//
f 294// 227// 295//
f 295// 227// 75//
f 295// 75// 285//
f 285// 75// 54//
f 285// 54// 53//
usemtl 2
f 296// 297// 298//
f 298// 297// 299//
f 299// 297// 208//
f 299// 208// 207//
f 300// 301// 302//
f 302// 301// 194//
f 302// 194// 193//
f 296// 298// 303//
f 303// 298// 304//
f 303// 304// 305//
f 305// 304// 306//
f 305// 306// 300//
f 300// 306// 307//
f 300// 307// 301//
f 308// 255// 254//
f 309// 229// 228//
f 308// 254// 310//
f 309// 228// 311//
f 228// 312// 311//
f 311// 312// 313//
f 311// 313// 314//
f 314// 313// 315//
f 314// 315// 316//
f 316// 315// 317//
f 316// 317// 318//
f 318// 317// 310//
f 318// 310// 319//
f 319// 310// 254//
usemtl 1
f 320// 321// 322//
f 320// 322// 323//
f 324// 325// 326//
f 326// 327// 324//
f 324// 327// 328//
f 324// 328// 322//
f 322// 328// 329//
f 322// 329// 323//
f 330// 331// 332//
f 332// 331// 333//
f 334// 335// 336//
f 337// 338// 339//
f 334// 336// 340//
f 339// 341// 337//
f 337// 341// 342//
f 337// 342// 336//
f 336// 342// 343//
f 336// 343// 340//
f 42// 3// 344//
f 42// 344// 41//
f 345// 31// 33//
f 33// 35// 345//
f 345// 35// 37//
f 345// 37// 344//
f 344// 37// 39//
f 344// 39// 41//
f 279// 278// 346//
f 279// 346// 280//
f 347// 295// 285//
f 285// 286// 347//
f 347// 286// 287//
f 347// 287// 346//
f 346// 287// 288//
f 346// 288// 280//
f 21// 20// 239//
f 239// 20// 348//
f 239// 348// 236//
f 236// 348// 349//
f 236// 349// 234//
f 234// 349// 350//
f 234// 350// 232//
f 232// 350// 351//
f 232// 351// 230//
f 230// 351// 352//
f 230// 352// 228//
f 228// 352// 335//
f 228// 335// 312//
f 255// 308// 339//
f 339// 308// 310//
f 339// 310// 341//
f 341// 310// 317//
f 341// 317// 342//
f 342// 317// 315//
f 342// 315// 343//
f 343// 315// 313//
f 343// 313// 340//
f 340// 313// 312//
f 340// 312// 334//
f 334// 312// 335//
f 276// 246// 353//
f 353// 246// 248//
f 353// 248// 354//
f 354// 248// 251//
f 339// 338// 255//
f 255// 338// 355//
f 255// 355// 253//
f 253// 355// 356//
f 253// 356// 251//
f 251// 356// 357//
f 251// 357// 354//
f 217// 289// 215//
f 215// 289// 358//
f 215// 358// 212//
f 212// 358// 359//
f 212// 359// 210//
f 210// 359// 360//
f 210// 360// 205//
f 205// 360// 361//
f 205// 361// 206//
f 206// 361// 362//
f 206// 362// 207//
f 207// 362// 321//
f 207// 321// 299//
f 321// 320// 299//
f 299// 320// 323//
f 299// 323// 298//
f 298// 323// 329//
f 298// 329// 304//
f 304// 329// 328//
f 304// 328// 306//
f 306// 328// 327//
f 306// 327// 307//
f 307// 327// 326//
f 6// 5// 363//
f 363// 5// 202//
f 363// 202// 364//
f 364// 202// 200//
f 364// 200// 365//
f 365// 200// 198//
f 365// 198// 366//
f 366// 198// 196//
f 366// 196// 367//
f 367// 196// 195//
f 367// 195// 325//
f 325// 195// 194//
f 325// 194// 326//
f 326// 194// 301//
f 326// 301// 307//
f 20// 368// 348//
f 348// 368// 369//
f 348// 369// 349//
f 349// 369// 370//
f 349// 370// 350//
f 350// 370// 371//
f 350// 371// 351//
f 351// 371// 372//
f 351// 372// 352//
f 352// 372// 336//
f 352// 336// 335//
f 31// 345// 30//
f 30// 345// 373//
f 30// 373// 28//
f 28// 373// 374//
f 28// 374// 26//
f 26// 374// 375//
f 26// 375// 24//
f 24// 375// 376//
f 24// 376// 22//
f 22// 376// 377//
f 22// 377// 20//
f 20// 377// 378//
f 20// 378// 368//
f 333// 331// 379//
f 379// 331// 380//
f 379// 380// 381//
f 381// 380// 382//
f 381// 382// 383//
f 383// 382// 384//
f 383// 384// 385//
f 385// 384// 386//
f 385// 386// 387//
f 387// 386// 388//
f 387// 388// 389//
f 389// 388// 390//
f 389// 390// 391//
f 391// 390// 392//
f 391// 392// 393//
f 393// 392// 394//
f 393// 394// 395//
f 395// 394// 396//
f 395// 396// 397//
f 397// 396// 398//
f 397// 398// 399//
f 399// 398// 400//
f 399// 400// 336//
f 336// 400// 337//
f 276// 401// 281//
f 281// 401// 402//
f 281// 402// 282//
f 282// 402// 403//
f 282// 403// 283//
f 283// 403// 404//
f 283// 404// 284//
f 284// 404// 405//
f 284// 405// 277//
f 277// 405// 346//
f 277// 346// 278//
f 338// 337// 355//
f 355// 337// 406//
f 355// 406// 356//
f 356// 406// 407//
f 356// 407// 357//
f 357// 407// 408//
f 357// 408// 354//
f 354// 408// 409//
f 354// 409// 353//
f 353// 409// 410//
f 353// 410// 276//
f 276// 410// 411//
f 276// 411// 401//
f 381// 383// 412//
f 385// 387// 413//
f 389// 391// 414//
f 393// 395// 415//
f 397// 399// 416//
f 345// 417// 373//
f 418// 375// 417//
f 417// 375// 374//
f 417// 374// 373//
f 345// 419// 420//
f 420// 419// 421//
f 420// 421// 422//
f 421// 423// 422//
f 422// 423// 424//
f 422// 424// 425//
f 426// 378// 427//
f 427// 378// 377//
f 427// 377// 418//
f 418// 377// 376//
f 418// 376// 375//
f 424// 428// 425//
f 425// 428// 429//
f 425// 429// 430//
f 431// 369// 426//
f 426// 369// 368//
f 426// 368// 378//
f 429// 432// 430//
f 430// 432// 433//
f 430// 433// 434//
f 416// 371// 431//
f 431// 371// 370//
f 431// 370// 369//
f 399// 336// 416//
f 416// 336// 372//
f 416// 372// 371//
f 395// 397// 415//
f 415// 397// 416//
f 415// 416// 435//
f 435// 416// 431//
f 435// 431// 436//
f 436// 431// 426//
f 436// 426// 437//
f 437// 426// 427//
f 437// 427// 438//
f 438// 427// 418//
f 438// 418// 439//
f 439// 418// 417//
f 439// 417// 345//
f 391// 393// 414//
f 414// 393// 415//
f 414// 415// 440//
f 440// 415// 435//
f 440// 435// 441//
f 441// 435// 436//
f 441// 436// 442//
f 442// 436// 437//
f 442// 437// 443//
f 443// 437// 438//
f 443// 438// 444//
f 444// 438// 439//
f 444// 439// 345//
f 387// 389// 413//
f 413// 389// 414//
f 413// 414// 445//
f 445// 414// 440//
f 445// 440// 446//
f 446// 440// 441//
f 446// 441// 447//
f 447// 441// 442//
f 447// 442// 448//
f 448// 442// 443//
f 448// 443// 449//
f 449// 443// 444//
f 449// 444// 345//
f 383// 385// 412//
f 412// 385// 413//
f 412// 413// 450//
f 450// 413// 445//
f 450// 445// 451//
f 451// 445// 446//
f 451// 446// 452//
f 452// 446// 447//
f 452// 447// 453//
f 453// 447// 448//
f 453// 448// 454//
f 454// 448// 449//
f 454// 449// 345//
f 379// 381// 455//
f 455// 381// 412//
f 455// 412// 434//
f 434// 412// 450//
f 434// 450// 430//
f 430// 450// 451//
f 430// 451// 425//
f 425// 451// 452//
f 425// 452// 422//
f 422// 452// 453//
f 422// 453// 420//
f 420// 453// 454//
f 420// 454// 345//
f 433// 456// 434//
f 434// 456// 457//
f 434// 457// 455//
f 455// 457// 458//
f 455// 458// 379//
f 379// 458// 333//
f 459// 460// 346//
f 461// 462// 346//
f 461// 346// 463//
f 464// 465// 460//
f 460// 465// 346//
f 462// 459// 346//
f 466// 467// 468//
f 406// 337// 400//
f 406// 400// 469//
f 469// 400// 398//
f 469// 398// 470//
f 398// 396// 470//
f 470// 396// 394//
f 470// 394// 471//
f 394// 392// 471//
f 471// 392// 390//
f 471// 390// 472//
f 390// 388// 472//
f 472// 388// 386//
f 472// 386// 473//
f 380// 474// 382//
f 382// 474// 473//
f 382// 473// 384//
f 384// 473// 386//
f 409// 408// 475//
f 475// 408// 407//
f 380// 331// 474//
f 474// 331// 476//
f 474// 476// 477//
f 477// 478// 474//
f 474// 478// 479//
f 474// 479// 473//
f 473// 479// 480//
f 473// 480// 472//
f 472// 480// 481//
f 472// 481// 471//
f 471// 481// 482//
f 471// 482// 470//
f 470// 482// 475//
f 470// 475// 469//
f 469// 475// 407//
f 469// 407// 406//
f 411// 410// 483//
f 483// 410// 409//
f 409// 475// 483//
f 483// 475// 482//
f 483// 482// 484//
f 484// 482// 481//
f 484// 481// 485//
f 485// 481// 480//
f 485// 480// 486//
f 486// 480// 479//
f 486// 479// 487//
f 487// 479// 478//
f 487// 478// 488//
f 402// 401// 489//
f 489// 401// 411//
f 477// 490// 478//
f 478// 490// 491//
f 478// 491// 488//
f 488// 491// 492//
f 488// 492// 493//
f 411// 483// 489//
f 489// 483// 484//
f 489// 484// 494//
f 494// 484// 485//
f 494// 485// 495//
f 495// 485// 486//
f 495// 486// 496//
f 496// 486// 487//
f 496// 487// 497//
f 497// 487// 488//
f 497// 488// 498//
f 498// 488// 493//
f 498// 493// 499//
f 404// 403// 500//
f 500// 403// 402//
f 402// 489// 500//
f 500// 489// 494//
f 500// 494// 501//
f 501// 494// 495//
f 501// 495// 502//
f 502// 495// 496//
f 502// 496// 503//
f 503// 496// 497//
f 503// 497// 504//
f 504// 497// 498//
f 504// 498// 468//
f 468// 498// 499//
f 468// 499// 466//
f 346// 405// 505//
f 505// 405// 404//
f 463// 346// 505//
f 404// 500// 505//
f 505// 500// 501//
f 505// 501// 463//
f 463// 501// 502//
f 463// 502// 461//
f 461// 502// 503//
f 461// 503// 462//
f 462// 503// 504//
f 462// 504// 459//
f 459// 504// 468//
f 459// 468// 460//
f 460// 468// 467//
f 460// 467// 464//
f 6// 506// 8//
f 8// 506// 507//
f 8// 507// 10//
f 10// 507// 508//
f 10// 508// 12//
f 12// 508// 509//
f 12// 509// 14//
f 14// 509// 510//
f 14// 510// 2//
f 2// 510// 344//
f 2// 344// 3//
f 325// 324// 367//
f 367// 324// 511//
f 367// 511// 366//
f 366// 511// 512//
f 366// 512// 365//
f 365// 512// 513//
f 365// 513// 364//
f 364// 513// 514//
f 364// 514// 363//
f 363// 514// 515//
f 363// 515// 6//
f 6// 515// 516//
f 6// 516// 506//
f 332// 333// 517//
f 517// 333// 458//
f 517// 458// 518//
f 518// 458// 457//
f 518// 457// 519//
f 519// 457// 456//
f 519// 456// 520//
f 520// 456// 433//
f 520// 433// 521//
f 521// 433// 432//
f 521// 432// 522//
f 522// 432// 429//
f 522// 429// 523//
f 523// 429// 428//
f 523// 428// 524//
f 524// 428// 424//
f 524// 424// 525//
f 525// 424// 423//
f 525// 423// 526//
f 526// 423// 421//
f 526// 421// 527//
f 527// 421// 419//
f 527// 419// 344//
f 344// 419// 345//
f 331// 330// 476//
f 476// 330// 528//
f 476// 528// 477//
f 477// 528// 529//
f 477// 529// 490//
f 490// 529// 530//
f 490// 530// 491//
f 491// 530// 531//
f 491// 531// 492//
f 492// 531// 532//
f 492// 532// 493//
f 493// 532// 533//
f 493// 533// 499//
f 499// 533// 534//
f 499// 534// 466//
f 466// 534// 535//
f 466// 535// 467//
f 467// 535// 536//
f 467// 536// 464//
f 464// 536// 537//
f 464// 537// 465//
f 465// 537// 538//
f 465// 538// 346//
f 346// 538// 347//
f 289// 539// 358//
f 358// 539// 540//
f 358// 540// 359//
f 359// 540// 541//
f 359// 541// 360//
f 360// 541// 542//
f 360// 542// 361//
f 361// 542// 543//
f 361// 543// 362//
f 362// 543// 322//
f 362// 322// 321//
f 295// 347// 294//
f 294// 347// 544//
f 294// 544// 293//
f 293// 544// 545//
f 293// 545// 292//
f 292// 545// 546//
f 292// 546// 291//
f 291// 546// 547//
f 291// 547// 290//
f 290// 547// 548//
f 290// 548// 289//
f 289// 548// 549//
f 289// 549// 539//
f 550// 551// 552//
f 553// 554// 555//
f 556// 557// 558//
f 559// 560// 561//
f 562// 563// 564//
f 344// 565// 527//
f 566// 525// 565//
f 565// 525// 526//
f 565// 526// 527//
f 344// 510// 567//
f 567// 510// 509//
f 567// 509// 568//
f 509// 508// 568//
f 568// 508// 507//
f 568// 507// 569//
f 570// 522// 571//
f 571// 522// 523//
f 571// 523// 566//
f 566// 523// 524//
f 566// 524// 525//
f 507// 506// 569//
f 569// 506// 516//
f 569// 516// 572//
f 573// 520// 570//
f 570// 520// 521//
f 570// 521// 522//
f 516// 515// 572//
f 572// 515// 514//
f 572// 514// 574//
f 564// 518// 573//
f 573// 518// 519//
f 573// 519// 520//
f 563// 332// 564//
f 564// 332// 517//
f 564// 517// 518//
f 560// 562// 561//
f 561// 562// 564//
f 561// 564// 575//
f 575// 564// 573//
f 575// 573// 576//
f 576// 573// 570//
f 576// 570// 577//
f 577// 570// 571//
f 577// 571// 578//
f 578// 571// 566//
f 578// 566// 579//
f 579// 566// 565//
f 579// 565// 344//
f 557// 559// 558//
f 558// 559// 561//
f 558// 561// 580//
f 580// 561// 575//
f 580// 575// 581//
f 581// 575// 576//
f 581// 576// 582//
f 582// 576// 577//
f 582// 577// 583//
f 583// 577// 578//
f 583// 578// 584//
f 584// 578// 579//
f 584// 579// 344//
f 554// 556// 555//
f 555// 556// 558//
f 555// 558// 585//
f 585// 558// 580//
f 585// 580// 586//
f 586// 580// 581//
f 586// 581// 587//
f 587// 581// 582//
f 587// 582// 588//
f 588// 582// 583//
f 588// 583// 589//
f 589// 583// 584//
f 589// 584// 344//
f 551// 553// 552//
f 552// 553// 555//
f 552// 555// 590//
f 590// 555// 585//
f 590// 585// 591//
f 591// 585// 586//
f 591// 586// 592//
f 592// 586// 587//
f 592// 587// 593//
f 593// 587// 588//
f 593// 588// 594//
f 594// 588// 589//
f 594// 589// 344//
f 595// 550// 596//
f 596// 550// 552//
f 596// 552// 574//
f 574// 552// 590//
f 574// 590// 572//
f 572// 590// 591//
f 572// 591// 569//
f 569// 591// 592//
f 569// 592// 568//
f 568// 592// 593//
f 568// 593// 567//
f 567// 593// 594//
f 567// 594// 344//
f 514// 513// 574//
f 574// 513// 512//
f 574// 512// 596//
f 596// 512// 511//
f 596// 511// 595//
f 595// 511// 324//
f 597// 598// 347//
f 599// 600// 347//
f 599// 347// 601//
f 545// 544// 598//
f 598// 544// 347//
f 600// 597// 347//
f 547// 546// 602//
f 528// 330// 603//
f 528// 603// 604//
f 604// 603// 605//
f 604// 605// 606//
f 605// 607// 606//
f 606// 607// 608//
f 606// 608// 609//
f 608// 610// 609//
f 609// 610// 611//
f 609// 611// 612//
f 611// 613// 612//
f 612// 613// 614//
f 612// 614// 615//
f 616// 617// 618//
f 618// 617// 615//
f 618// 615// 619//
f 619// 615// 614//
f 531// 530// 620//
f 620// 530// 529//
f 616// 322// 617//
f 617// 322// 543//
f 617// 543// 542//
f 542// 621// 617//
f 617// 621// 622//
f 617// 622// 615//
f 615// 622// 623//
f 615// 623// 612//
f 612// 623// 624//
f 612// 624// 609//
f 609// 624// 625//
f 609// 625// 606//
f 606// 625// 620//
f 606// 620// 604//
f 604// 620// 529//
f 604// 529// 528//
f 533// 532// 626//
f 626// 532// 531//
f 531// 620// 626//
f 626// 620// 625//
f 626// 625// 627//
f 627// 625// 624//
f 627// 624// 628//
f 628// 624// 623//
f 628// 623// 629//
f 629// 623// 622//
f 629// 622// 630//
f 630// 622// 621//
f 630// 621// 631//
f 535// 534// 632//
f 632// 534// 533//
f 542// 541// 621//
f 621// 541// 540//
f 621// 540// 631//
f 631// 540// 539//
f 631// 539// 549//
f 533// 626// 632//
f 632// 626// 627//
f 632// 627// 633//
f 633// 627// 628//
f 633// 628// 634//
f 634// 628// 629//
f 634// 629// 635//
f 635// 629// 630//
f 635// 630// 636//
f 636// 630// 631//
f 636// 631// 637//
f 637// 631// 549//
f 637// 549// 548//
f 537// 536// 638//
f 638// 536// 535//
f 535// 632// 638//
f 638// 632// 633//
f 638// 633// 639//
f 639// 633// 634//
f 639// 634// 640//
f 640// 634// 635//
f 640// 635// 641//
f 641// 635// 636//
f 641// 636// 642//
f 642// 636// 637//
f 642// 637// 602//
f 602// 637// 548//
f 602// 548// 547//
f 347// 538// 643//
f 643// 538// 537//
f 601// 347// 643//
f 537// 638// 643//
f 643// 638// 639//
f 643// 639// 601//
f 601// 639// 640//
f 601// 640// 599//
f 599// 640// 641//
f 599// 641// 600//
f 600// 641// 642//
f 600// 642// 597//
f 597// 642// 602//
f 597// 602// 598//
f 598// 602// 546//
f 598// 546// 545//
f 324// 322// 595//
f 595// 322// 616//
f 595// 616// 550//
f 550// 616// 618//
f 550// 618// 551//
f 551// 618// 619//
f 551// 619// 553//
f 553// 619// 614//
f 553// 614// 554//
f 554// 614// 613//
f 554// 613// 556//
f 556// 613// 611//
f 556// 611// 557//
f 557// 611// 610//
f 557// 610// 559//
f 559// 610// 608//
f 559// 608// 560//
f 560// 608// 607//
f 560// 607// 562//
f 562// 607// 605//
f 562// 605// 563//
f 563// 605// 603//
f 563// 603// 332//
f 332// 603// 330//
f 644// 645// 646//
f 647// 648// 649//
f 644// 646// 650//
f 649// 651// 647//
f 647// 651// 652//
f 647// 652// 646//
f 646// 652// 653//
f 646// 653// 650//
f 654// 655// 656//
f 656// 655// 657//
f 658// 659// 660//
f 658// 660// 661//
f 662// 663// 664//
f 664// 665// 662//
f 662// 665// 666//
f 662// 666// 660//
f 660// 666// 667//
f 660// 667// 661//
f 173// 172// 668//
f 173// 668// 174//
f 669// 191// 178//
f 178// 177// 669//
f 669// 177// 176//
f 669// 176// 668//
f 668// 176// 175//
f 668// 175// 174//
f 266// 262// 670//
f 671// 272// 267//
f 266// 670// 265//
f 267// 268// 671//
f 671// 268// 263//
f 671// 263// 670//
f 670// 263// 264//
f 670// 264// 265//
f 249// 247// 269//
f 252// 672// 254//
f 254// 672// 645//
f 254// 645// 319//
f 269// 673// 249//
f 249// 673// 674//
f 249// 674// 250//
f 250// 674// 675//
f 250// 675// 252//
f 252// 675// 676//
f 252// 676// 672//
f 649// 311// 651//
f 651// 311// 314//
f 651// 314// 652//
f 652// 314// 316//
f 652// 316// 653//
f 653// 316// 318//
f 653// 318// 650//
f 650// 318// 319//
f 650// 319// 644//
f 644// 319// 645//
f 161// 160// 677//
f 677// 160// 238//
f 677// 238// 678//
f 678// 238// 237//
f 678// 237// 679//
f 679// 237// 235//
f 679// 235// 680//
f 680// 235// 233//
f 680// 233// 681//
f 681// 233// 231//
f 681// 231// 648//
f 648// 231// 229//
f 648// 229// 649//
f 649// 229// 309//
f 649// 309// 311//
f 180// 179// 203//
f 203// 179// 682//
f 203// 682// 201//
f 201// 682// 683//
f 201// 683// 199//
f 199// 683// 684//
f 199// 684// 197//
f 197// 684// 685//
f 197// 685// 192//
f 192// 685// 686//
f 192// 686// 193//
f 193// 686// 659//
f 193// 659// 302//
f 659// 658// 302//
f 302// 658// 661//
f 302// 661// 300//
f 300// 661// 667//
f 300// 667// 305//
f 305// 667// 666//
f 305// 666// 303//
f 303// 666// 665//
f 303// 665// 296//
f 296// 665// 664//
f 256// 216// 687//
f 687// 216// 214//
f 687// 214// 688//
f 688// 214// 213//
f 688// 213// 689//
f 689// 213// 211//
f 689// 211// 690//
f 690// 211// 204//
f 690// 204// 691//
f 691// 204// 209//
f 691// 209// 663//
f 663// 209// 208//
f 663// 208// 664//
f 664// 208// 297//
f 664// 297// 296//
f 179// 692// 682//
f 682// 692// 693//
f 682// 693// 683//
f 683// 693// 694//
f 683// 694// 684//
f 684// 694// 695//
f 684// 695// 685//
f 685// 695// 696//
f 685// 696// 686//
f 686// 696// 660//
f 686// 660// 659//
f 191// 669// 189//
f 189// 669// 697//
f 189// 697// 187//
f 187// 697// 698//
f 187// 698// 185//
f 185// 698// 699//
f 185// 699// 183//
f 183// 699// 700//
f 183// 700// 181//
f 181// 700// 701//
f 181// 701// 179//
f 179// 701// 702//
f 179// 702// 692//
f 657// 655// 703//
f 703// 655// 704//
f 703// 704// 705//
f 705// 704// 706//
f 705// 706// 707//
f 707// 706// 708//
f 707// 708// 709//
f 709// 708// 710//
f 709// 710// 711//
f 711// 710// 712//
f 711// 712// 713//
f 713// 712// 714//
f 713// 714// 715//
f 715// 714// 716//
f 715// 716// 717//
f 717// 716// 718//
f 717// 718// 719//
f 719// 718// 720//
f 719// 720// 721//
f 721// 720// 722//
f 721// 722// 723//
f 723// 722// 724//
f 723// 724// 660//
f 660// 724// 662//
f 256// 725// 257//
f 257// 725// 726//
f 257// 726// 258//
f 258// 726// 727//
f 258// 727// 259//
f 259// 727// 728//
f 259// 728// 260//
f 260// 728// 729//
f 260// 729// 261//
f 261// 729// 670//
f 261// 670// 262//
f 663// 662// 691//
f 691// 662// 730//
f 691// 730// 690//
f 690// 730// 731//
f 690// 731// 689//
f 689// 731// 732//
f 689// 732// 688//
f 688// 732// 733//
f 688// 733// 687//
f 687// 733// 734//
f 687// 734// 256//
f 256// 734// 735//
f 256// 735// 725//
f 705// 707// 736//
f 709// 711// 737//
f 713// 715// 738//
f 717// 719// 739//
f 721// 723// 740//
f 669// 741// 697//
f 742// 699// 741//
f 741// 699// 698//
f 741// 698// 697//
f 669// 743// 744//
f 744// 743// 745//
f 744// 745// 746//
f 745// 747// 746//
f 746// 747// 748//
f 746// 748// 749//
f 750// 702// 751//
f 751// 702// 701//
f 751// 701// 742//
f 742// 701// 700//
f 742// 700// 699//
f 748// 752// 749//
f 749// 752// 753//
f 749// 753// 754//
f 755// 693// 750//
f 750// 693// 692//
f 750// 692// 702//
f 753// 756// 754//
f 754// 756// 757//
f 754// 757// 758//
f 740// 695// 755//
f 755// 695// 694//
f 755// 694// 693//
f 723// 660// 740//
f 740// 660// 696//
f 740// 696// 695//
f 719// 721// 739//
f 739// 721// 740//
f 739// 740// 759//
f 759// 740// 755//
f 759// 755// 760//
f 760// 755// 750//
f 760// 750// 761//
f 761// 750// 751//
f 761// 751// 762//
f 762// 751// 742//
f 762// 742// 763//
f 763// 742// 741//
f 763// 741// 669//
f 715// 717// 738//
f 738// 717// 739//
f 738// 739// 764//
f 764// 739// 759//
f 764// 759// 765//
f 765// 759// 760//
f 765// 760// 766//
f 766// 760// 761//
f 766// 761// 767//
f 767// 761// 762//
f 767// 762// 768//
f 768// 762// 763//
f 768// 763// 669//
f 711// 713// 737//
f 737// 713// 738//
f 737// 738// 769//
f 769// 738// 764//
f 769// 764// 770//
f 770// 764// 765//
f 770// 765// 771//
f 771// 765// 766//
f 771// 766// 772//
f 772// 766// 767//
f 772// 767// 773//
f 773// 767// 768//
f 773// 768// 669//
f 707// 709// 736//
f 736// 709// 737//
f 736// 737// 774//
f 774// 737// 769//
f 774// 769// 775//
f 775// 769// 770//
f 775// 770// 776//
f 776// 770// 771//
f 776// 771// 777//
f 777// 771// 772//
f 777// 772// 778//
f 778// 772// 773//
f 778// 773// 669//
f 703// 705// 779//
f 779// 705// 736//
f 779// 736// 758//
f 758// 736// 774//
f 758// 774// 754//
f 754// 774// 775//
f 754// 775// 749//
f 749// 775// 776//
f 749// 776// 746//
f 746// 776// 777//
f 746// 777// 744//
f 744// 777// 778//
f 744// 778// 669//
f 757// 780// 758//
f 758// 780// 781//
f 758// 781// 779//
f 779// 781// 782//
f 779// 782// 703//
f 703// 782// 657//
f 783// 784// 670//
f 785// 786// 670//
f 785// 670// 787//
f 788// 789// 784//
f 784// 789// 670//
f 786// 783// 670//
f 790// 791// 792//
f 730// 662// 724//
f 730// 724// 793//
f 793// 724// 722//
f 793// 722// 794//
f 722// 720// 794//
f 794// 720// 718//
f 794// 718// 795//
f 718// 716// 795//
f 795// 716// 714//
f 795// 714// 796//
f 714// 712// 796//
f 796// 712// 710//
f 796// 710// 797//
f 704// 798// 706//
f 706// 798// 797//
f 706// 797// 708//
f 708// 797// 710//
f 733// 732// 799//
f 799// 732// 731//
f 704// 655// 798//
f 798// 655// 800//
f 798// 800// 801//
f 801// 802// 798//
f 798// 802// 803//
f 798// 803// 797//
f 797// 803// 804//
f 797// 804// 796//
f 796// 804// 805//
f 796// 805// 795//
f 795// 805// 806//
f 795// 806// 794//
f 794// 806// 799//
f 794// 799// 793//
f 793// 799// 731//
f 793// 731// 730//
f 735// 734// 807//
f 807// 734// 733//
f 733// 799// 807//
f 807// 799// 806//
f 807// 806// 808//
f 808// 806// 805//
f 808// 805// 809//
f 809// 805// 804//
f 809// 804// 810//
f 810// 804// 803//
f 810// 803// 811//
f 811// 803// 802//
f 811// 802// 812//
f 726// 725// 813//
f 813// 725// 735//
f 801// 814// 802//
f 802// 814// 815//
f 802// 815// 812//
f 812// 815// 816//
f 812// 816// 817//
f 735// 807// 813//
f 813// 807// 808//
f 813// 808// 818//
f 818// 808// 809//
f 818// 809// 819//
f 819// 809// 810//
f 819// 810// 820//
f 820// 810// 811//
f 820// 811// 821//
f 821// 811// 812//
f 821// 812// 822//
f 822// 812// 817//
f 822// 817// 823//
f 728// 727// 824//
f 824// 727// 726//
f 726// 813// 824//
f 824// 813// 818//
f 824// 818// 825//
f 825// 818// 819//
f 825// 819// 826//
f 826// 819// 820//
f 826// 820// 827//
f 827// 820// 821//
f 827// 821// 828//
f 828// 821// 822//
f 828// 822// 792//
f 792// 822// 823//
f 792// 823// 790//
f 670// 729// 829//
f 829// 729// 728//
f 787// 670// 829//
f 728// 824// 829//
f 829// 824// 825//
f 829// 825// 787//
f 787// 825// 826//
f 787// 826// 785//
f 785// 826// 827//
f 785// 827// 786//
f 786// 827// 828//
f 786// 828// 783//
f 783// 828// 792//
f 783// 792// 784//
f 784// 792// 791//
f 784// 791// 788//
f 161// 830// 163//
f 163// 830// 831//
f 163// 831// 165//
f 165// 831// 832//
f 165// 832// 167//
f 167// 832// 833//
f 167// 833// 169//
f 169// 833// 834//
f 169// 834// 171//
f 171// 834// 668//
f 171// 668// 172//
f 648// 647// 681//
f 681// 647// 835//
f 681// 835// 680//
f 680// 835// 836//
f 680// 836// 679//
f 679// 836// 837//
f 679// 837// 678//
f 678// 837// 838//
f 678// 838// 677//
f 677// 838// 839//
f 677// 839// 161//
f 161// 839// 840//
f 161// 840// 830//
f 656// 657// 841//
f 841// 657// 782//
f 841// 782// 842//
f 842// 782// 781//
f 842// 781// 843//
f 843// 781// 780//
f 843// 780// 844//
f 844// 780// 757//
f 844// 757// 845//
f 845// 757// 756//
f 845// 756// 846//
f 846// 756// 753//
f 846// 753// 847//
f 847// 753// 752//
f 847// 752// 848//
f 848// 752// 748//
f 848// 748// 849//
f 849// 748// 747//
f 849// 747// 850//
f 850// 747// 745//
f 850// 745// 851//
f 851// 745// 743//
f 851// 743// 668//
f 668// 743// 669//
f 655// 654// 800//
f 800// 654// 852//
f 800// 852// 801//
f 801// 852// 853//
f 801// 853// 814//
f 814// 853// 854//
f 814// 854// 815//
f 815// 854// 855//
f 815// 855// 816//
f 816// 855// 856//
f 816// 856// 817//
f 817// 856// 857//
f 817// 857// 823//
f 823// 857// 858//
f 823// 858// 790//
f 790// 858// 859//
f 790// 859// 791//
f 791// 859// 860//
f 791// 860// 788//
f 788// 860// 861//
f 788// 861// 789//
f 789// 861// 862//
f 789// 862// 670//
f 670// 862// 671//
f 269// 863// 673//
f 673// 863// 864//
f 673// 864// 674//
f 674// 864// 865//
f 674// 865// 675//
f 675// 865// 866//
f 675// 866// 676//
f 676// 866// 867//
f 676// 867// 672//
f 672// 867// 646//
f 672// 646// 645//
f 272// 671// 273//
f 273// 671// 868//
f 273// 868// 274//
f 274// 868// 869//
f 274// 869// 275//
f 275// 869// 870//
f 275// 870// 271//
f 271// 870// 871//
f 271// 871// 270//
f 270// 871// 872//
f 270// 872// 269//
f 269// 872// 873//
f 269// 873// 863//
f 874// 875// 876//
f 877// 878// 879//
f 880// 881// 882//
f 883// 884// 885//
f 886// 887// 888//
f 668// 889// 851//
f 890// 849// 889//
f 889// 849// 850//
f 889// 850// 851//
f 668// 834// 891//
f 891// 834// 833//
f 891// 833// 892//
f 833// 832// 892//
f 892// 832// 831//
f 892// 831// 893//
f 894// 846// 895//
f 895// 846// 847//
f 895// 847// 890//
f 890// 847// 848//
f 890// 848// 849//
f 831// 830// 893//
f 893// 830// 840//
f 893// 840// 896//
f 897// 844// 894//
f 894// 844// 845//
f 894// 845// 846//
f 840// 839// 896//
f 896// 839// 838//
f 896// 838// 898//
f 888// 842// 897//
f 897// 842// 843//
f 897// 843// 844//
f 887// 656// 888//
f 888// 656// 841//
f 888// 841// 842//
f 884// 886// 885//
f 885// 886// 888//
f 885// 888// 899//
f 899// 888// 897//
f 899// 897// 900//
f 900// 897// 894//
f 900// 894// 901//
f 901// 894// 895//
f 901// 895// 902//
f 902// 895// 890//
f 902// 890// 903//
f 903// 890// 889//
f 903// 889// 668//
f 881// 883// 882//
f 882// 883// 885//
f 882// 885// 904//
f 904// 885// 899//
f 904// 899// 905//
f 905// 899// 900//
f 905// 900// 906//
f 906// 900// 901//
f 906// 901// 907//
f 907// 901// 902//
f 907// 902// 908//
f 908// 902// 903//
f 908// 903// 668//
f 878// 880// 879//
f 879// 880// 882//
f 879// 882// 909//
f 909// 882// 904//
f 909// 904// 910//
f 910// 904// 905//
f 910// 905// 911//
f 911// 905// 906//
f 911// 906// 912//
f 912// 906// 907//
f 912// 907// 913//
f 913// 907// 908//
f 913// 908// 668//
f 875// 877// 876//
f 876// 877// 879//
f 876// 879// 914//
f 914// 879// 909//
f 914// 909// 915//
f 915// 909// 910//
f 915// 910// 916//
f 916// 910// 911//
f 916// 911// 917//
f 917// 911// 912//
f 917// 912// 918//
f 918// 912// 913//
f 918// 913// 668//
f 919// 874// 920//
f 920// 874// 876//
f 920// 876// 898//
f 898// 876// 914//
f 898// 914// 896//
f 896// 914// 915//
f 896// 915// 893//
f 893// 915// 916//
f 893// 916// 892//
f 892// 916// 917//
f 892// 917// 891//
f 891// 917// 918//
f 891// 918// 668//
f 838// 837// 898//
f 898// 837// 836//
f 898// 836// 920//
f 920// 836// 835//
f 920// 835// 919//
f 919// 835// 647//
f 921// 922// 671//
f 923// 924// 671//
f 923// 671// 925//
f 869// 868// 922//
f 922// 868// 671//
f 924// 921// 671//
f 871// 870// 926//
f 852// 654// 927//
f 852// 927// 928//
f 928// 927// 929//
f 928// 929// 930//
f 929// 931// 930//
f 930// 931// 932//
f 930// 932// 933//
f 932// 934// 933//
f 933// 934// 935//
f 933// 935// 936//
f 935// 937// 936//
f 936// 937// 938//
f 936// 938// 939//
f 940// 941// 942//
f 942// 941// 939//
f 942// 939// 943//
f 943// 939// 938//
f 855// 854// 944//
f 944// 854// 853//
f 940// 646// 941//
f 941// 646// 867//
f 941// 867// 866//
f 866// 945// 941//
f 941// 945// 946//
f 941// 946// 939//
f 939// 946// 947//
f 939// 947// 936//
f 936// 947// 948//
f 936// 948// 933//
f 933// 948// 949//
f 933// 949// 930//
f 930// 949// 944//
f 930// 944// 928//
f 928// 944// 853//
f 928// 853// 852//
f 857// 856// 950//
f 950// 856// 855//
f 855// 944// 950//
f 950// 944// 949//
f 950// 949// 951//
f 951// 949// 948//
f 951// 948// 952//
f 952// 948// 947//
f 952// 947// 953//
f 953// 947// 946//
f 953// 946// 954//
f 954// 946// 945//
f 954// 945// 955//
f 859// 858// 956//
f 956// 858// 857//
f 866// 865// 945//
f 945// 865// 864//
f 945// 864// 955//
f 955// 864// 863//
f 955// 863// 873//
f 857// 950// 956//
f 956// 950// 951//
f 956// 951// 957//
f 957// 951// 952//
f 957// 952// 958//
f 958// 952// 953//
f 958// 953// 959//
f 959// 953// 954//
f 959// 954// 960//
f 960// 954// 955//
f 960// 955// 961//
f 961// 955// 873//
f 961// 873// 872//
f 861// 860// 962//
f 962// 860// 859//
f 859// 956// 962//
f 962// 956// 957//
f 962// 957// 963//
f 963// 957// 958//
f 963// 958// 964//
f 964// 958// 959//
f 964// 959// 965//
f 965// 959// 960//
f 965// 960// 966//
f 966// 960// 961//
f 966// 961// 926//
f 926// 961// 872//
f 926// 872// 871//
f 671// 862// 967//
f 967// 862// 861//
f 925// 671// 967//
f 861// 962// 967//
f 967// 962// 963//
f 967// 963// 925//
f 925// 963// 964//
f 925// 964// 923//
f 923// 964// 965//
f 923// 965// 924//
f 924// 965// 966//
f 924// 966// 921//
f 921// 966// 926//
f 921// 926// 922//
f 922// 926// 870//
f 922// 870// 869//
f 647// 646// 919//
f 919// 646// 940//
f 919// 940// 874//
f 874// 940// 942//
f 874// 942// 875//
f 875// 942// 943//
f 875// 943// 877//
f 877// 943// 938//
f 877// 938// 878//
f 878// 938// 937//
f 878// 937// 880//
f 880// 937// 935//
f 880// 935// 881//
f 881// 935// 934//
f 881// 934// 883//
f 883// 934// 932//
f 883// 932// 884//
f 884// 932// 931//
f 884// 931// 886//
f 886// 931// 929//
f 886// 929// 887//
f 887// 929// 927//
f 887// 927// 656//
f 656// 927// 654//
usemtl 3
f 968// 969// 55//
f 55// 969// 85//
f 969// 970// 85//
f 85// 970// 56//
f 970// 971// 56//
f 56// 971// 57//
f 971// 972// 57//
f 57// 972// 58//
f 972// 973// 58//
f 58// 973// 62//
f 973// 974// 62//
f 62// 974// 63//
f 974// 975// 63//
f 63// 975// 73//
f 975// 968// 73//
f 73// 968// 55//
f 976// 972// 977//
f 977// 972// 971//
f 978// 975// 976//
f 976// 975// 974//
f 976// 974// 972//
f 972// 974// 973//
f 978// 979// 975//
f 975// 979// 980//
f 975// 980// 968//
f 968// 980// 981//
f 968// 981// 982//
f 982// 983// 968//
f 968// 983// 977//
f 968// 977// 969//
f 969// 977// 971//
f 969// 971// 970//
f 976// 977// 984//
f 984// 977// 985//
f 978// 976// 986//
f 986// 976// 984//
f 978// 986// 987//
f 978// 987// 979//
f 979// 987// 988//
f 979// 988// 980//
f 981// 980// 989//
f 989// 980// 988//
f 981// 989// 990//
f 981// 990// 982//
f 982// 990// 991//
f 982// 991// 983//
f 977// 983// 985//
f 985// 983// 991//
f 992// 993// 80//
f 80// 993// 81//
f 993// 994// 81//
f 81// 994// 68//
f 994// 995// 68//
f 68// 995// 70//
f 996// 83// 82//
f 996// 82// 997//
f 997// 82// 74//
f 997// 74// 998//
f 998// 74// 72//
f 998// 72// 999//
f 999// 72// 71//
f 999// 71// 1000//
f 1000// 71// 78//
f 1000// 78// 1001//
f 1001// 78// 77//
f 1001// 77// 1002//
f 1002// 77// 76//
f 1002// 76// 1003//
f 1003// 76// 70//
f 1003// 70// 995//
f 992// 80// 79//
f 992// 79// 1004//
f 1004// 79// 67//
f 1004// 67// 1005//
f 1005// 67// 66//
f 1005// 66// 1006//
f 1006// 66// 65//
f 1006// 65// 1007//
f 1007// 65// 64//
f 1007// 64// 1008//
f 1008// 64// 84//
f 1008// 84// 1009//
f 1009// 84// 83//
f 1009// 83// 996//
f 998// 999// 1010//
f 1010// 999// 1000//
f 1010// 1000// 1011//
f 1011// 1000// 1001//
f 1011// 1001// 1012//
f 1012// 1001// 1002//
f 1012// 1002// 1013//
f 1013// 1002// 1003//
f 1013// 1003// 1014//
f 1014// 1003// 995//
f 1014// 995// 1015//
f 1015// 995// 994//
f 1015// 994// 1016//
f 1016// 994// 993//
f 1016// 993// 1017//
f 1017// 993// 992//
f 1017// 992// 1018//
f 1018// 992// 1004//
f 1018// 1004// 1019//
f 1019// 1004// 1005//
f 1019// 1005// 1020//
f 1020// 1005// 1006//
f 1020// 1006// 1021//
f 1021// 1006// 1007//
f 1021// 1007// 1022//
f 1022// 1007// 1008//
f 1022// 1008// 1023//
f 1023// 1008// 1009//
f 1023// 1009// 1024//
f 1024// 1009// 996//
f 1024// 996// 1025//
f 1025// 996// 997//
f 1025// 997// 1026//
f 1026// 997// 998//
f 1026// 998// 1010//
f 1014// 1015// 1027//
f 1027// 1015// 1028//
f 1014// 1027// 1029//
f 1014// 1029// 1013//
f 1013// 1029// 1030//
f 1013// 1030// 1012//
f 1012// 1030// 1031//
f 1012// 1031// 1011//
f 1011// 1031// 1032//
f 1011// 1032// 1010//
f 1010// 1032// 1033//
f 1010// 1033// 1026//
f 1026// 1033// 1034//
f 1026// 1034// 1025//
f 1025// 1034// 1035//
f 1025// 1035// 1024//
f 1024// 1035// 1036//
f 1024// 1036// 1023//
f 1023// 1036// 1037//
f 1023// 1037// 1022//
f 1022// 1037// 1038//
f 1022// 1038// 1021//
f 1021// 1038// 1039//
f 1021// 1039// 1020//
f 1020// 1039// 1040//
f 1020// 1040// 1019//
f 1019// 1040// 1041//
f 1019// 1041// 1018//
f 1018// 1041// 1042//
f 1018// 1042// 1017//
f 1016// 1017// 1043//
f 1043// 1017// 1042//
f 1015// 1016// 1028//
f 1028// 1016// 1043//
f 1044// 1045// 101//
f 101// 1045// 102//
f 1045// 1046// 102//
f 102// 1046// 103//
f 1046// 1047// 103//
f 103// 1047// 106//
f 1047// 1048// 106//
f 106// 1048// 99//
f 1048// 1049// 99//
f 99// 1049// 100//
f 1049// 1050// 100//
f 100// 1050// 113//
f 1050// 1051// 113//
f 113// 1051// 112//
f 1051// 1052// 112//
f 112// 1052// 111//
f 1052// 1053// 111//
f 111// 1053// 110//
f 1053// 1054// 110//
f 110// 1054// 108//
f 1054// 1055// 108//
f 108// 1055// 109//
f 1055// 1044// 109//
f 109// 1044// 101//
f 1046// 1045// 1044//
f 1044// 1055// 1046//
f 1046// 1055// 1054//
f 1046// 1054// 1047//
f 1049// 1048// 1050//
f 1050// 1048// 1047//
f 1050// 1047// 1051//
f 1051// 1047// 1054//
f 1051// 1054// 1052//
f 1052// 1054// 1053//
f 1056// 1057// 105//
f 105// 1057// 104//
f 104// 1057// 1058//
f 1059// 98// 92//
f 1059// 92// 1060//
f 1060// 92// 91//
f 1060// 91// 1058//
f 1058// 91// 107//
f 1058// 107// 104//
f 98// 1059// 97//
f 97// 1059// 1061//
f 97// 1061// 117//
f 117// 1061// 1062//
f 117// 1062// 118//
f 118// 1062// 1063//
f 118// 1063// 145//
f 145// 1063// 1064//
f 145// 1064// 146//
f 146// 1064// 1065//
f 146// 1065// 148//
f 148// 1065// 1066//
f 148// 1066// 155//
f 155// 1066// 1067//
f 155// 1067// 156//
f 1068// 158// 154//
f 1068// 154// 1069//
f 1069// 154// 153//
f 1069// 153// 1070//
f 1070// 153// 152//
f 1070// 152// 1071//
f 1071// 152// 151//
f 1071// 151// 1072//
f 1072// 151// 150//
f 1072// 150// 1073//
f 1073// 150// 157//
f 1073// 157// 1074//
f 1074// 157// 156//
f 1074// 156// 1067//
f 1075// 124// 159//
f 1075// 159// 1076//
f 1076// 159// 158//
f 1076// 158// 1068//
f 1075// 1077// 124//
f 124// 1077// 125//
f 1078// 142// 141//
f 1078// 141// 1079//
f 1079// 141// 125//
f 1079// 125// 1077//
f 1080// 131// 144//
f 1080// 144// 1081//
f 1081// 144// 143//
f 1081// 143// 1082//
f 1082// 143// 130//
f 1082// 130// 1083//
f 1083// 130// 129//
f 1083// 129// 1084//
f 1084// 129// 127//
f 1084// 127// 1085//
f 1085// 127// 126//
f 1085// 126// 1086//
f 1086// 126// 142//
f 1086// 142// 1078//
f 1087// 135// 134//
f 1087// 134// 1088//
f 1088// 134// 136//
f 1088// 136// 1089//
f 1089// 136// 137//
f 1089// 137// 1090//
f 1090// 137// 138//
f 1090// 138// 1091//
f 1091// 138// 133//
f 1091// 133// 1092//
f 1092// 133// 132//
f 1092// 132// 1093//
f 1093// 132// 131//
f 1093// 131// 1080//
f 1056// 105// 128//
f 1056// 128// 1094//
f 1094// 128// 139//
f 1094// 139// 1095//
f 1095// 139// 135//
f 1095// 135// 1087//
f 1088// 1059// 1087//
f 1087// 1059// 1060//
f 1087// 1060// 1095//
f 1095// 1060// 1058//
f 1095// 1058// 1094//
f 1094// 1058// 1057//
f 1094// 1057// 1056//
f 1077// 1075// 1079//
f 1079// 1075// 1076//
f 1079// 1076// 1078//
f 1078// 1076// 1068//
f 1078// 1068// 1086//
f 1086// 1068// 1069//
f 1086// 1069// 1085//
f 1085// 1069// 1070//
f 1085// 1070// 1084//
f 1084// 1070// 1071//
f 1084// 1071// 1083//
f 1083// 1071// 1072//
f 1083// 1072// 1082//
f 1082// 1072// 1073//
f 1082// 1073// 1081//
f 1081// 1073// 1074//
f 1081// 1074// 1080//
f 1080// 1074// 1067//
f 1080// 1067// 1093//
f 1093// 1067// 1066//
f 1093// 1066// 1092//
f 1092// 1066// 1065//
f 1092// 1065// 1091//
f 1091// 1065// 1064//
f 1091// 1064// 1090//
f 1090// 1064// 1063//
f 1090// 1063// 1089//
f 1089// 1063// 1062//
f 1089// 1062// 1088//
f 1088// 1062// 1061//
f 1088// 1061// 1059//
f 1096// 1097// 147//
f 147// 1097// 116//
f 1097// 1098// 116//
f 116// 1098// 115//
f 1098// 1099// 115//
f 115// 1099// 122//
f 1099// 1100// 122//
f 122// 1100// 140//
f 1100// 1101// 140//
f 140// 1101// 149//
f 1101// 1096// 149//
f 149// 1096// 147//
f 1100// 1099// 1101//
f 1101// 1099// 1098//
f 1101// 1098// 1096//
f 1096// 1098// 1097//
usemtl 2
f 984// 985// 986//
f 986// 985// 991//
f 986// 991// 987//
f 987// 991// 990//
f 987// 990// 988//
f 988// 990// 989//
f 1028// 1043// 1027//
f 1027// 1043// 1042//
f 1027// 1042// 1041//
f 1035// 1034// 1027//
f 1027// 1034// 1033//
f 1027// 1033// 1029//
f 1041// 1040// 1027//
f 1027// 1040// 1039//
f 1027// 1039// 1038//
f 1038// 1037// 1027//
f 1027// 1037// 1036//
f 1027// 1036// 1035//
f 1032// 1031// 1033//
f 1033// 1031// 1030//
f 1033// 1030// 1029//
usemtl 3
f 1102// 1103// 44//
f 44// 1103// 47//
f 1// 1102// 16//
f 16// 1102// 44//
f 1103// 19// 47//
f 47// 19// 18//
f 1102// 1// 4//
f 19// 1103// 32//
f 32// 1103// 34//
f 4// 40// 1102//
f 1102// 40// 38//
f 1102// 38// 1103//
f 1103// 38// 36//
f 1103// 36// 34//
