# Assembly coordinates in millimetres, Z-up.
mtllib CR2032.mtl
o CR2032
v 10.0000000 0.0000000 2.4000000 0.63 0.68 0.73
v 10.0000000 0.0000000 5.6000000 0.63 0.68 0.73
v 9.9955243 0.2991547 5.6000000 0.63 0.68 0.73
v 9.9821013 0.5980415 5.6000000 0.63 0.68 0.73
v 9.9597429 0.8963931 5.6000000 0.63 0.68 0.73
v 9.9284693 1.1939422 5.6000000 0.63 0.68 0.73
v 9.8883083 1.4904227 5.6000000 0.63 0.68 0.73
v 9.8392959 1.7855689 5.6000000 0.63 0.68 0.73
v 9.7814760 2.0791169 5.6000000 0.63 0.68 0.73
v 9.7149004 2.3708038 5.6000000 0.63 0.68 0.73
v 9.6396286 2.6603685 5.6000000 0.63 0.68 0.73
v 9.5557281 2.9475517 5.6000000 0.63 0.68 0.73
v 9.4632738 3.2320966 5.6000000 0.63 0.68 0.73
v 9.3623487 3.5137482 5.6000000 0.63 0.68 0.73
v 9.2530430 3.7922546 5.6000000 0.63 0.68 0.73
v 9.1354546 4.0673664 5.6000000 0.63 0.68 0.73
v 9.0096887 4.3388374 5.6000000 0.63 0.68 0.73
v 8.8758579 4.6064245 5.6000000 0.63 0.68 0.73
v 8.7340820 4.8698882 5.6000000 0.63 0.68 0.73
v 8.5844879 5.1289928 5.6000000 0.63 0.68 0.73
v 8.4272096 5.3835062 5.6000000 0.63 0.68 0.73
v 8.2623877 5.6332006 5.6000000 0.63 0.68 0.73
v 8.0901699 5.8778525 5.6000000 0.63 0.68 0.73
v 7.9107103 6.1172430 5.6000000 0.63 0.68 0.73
v 7.7241696 6.3511577 5.6000000 0.63 0.68 0.73
v 7.5307147 6.5793873 5.6000000 0.63 0.68 0.73
v 7.3305187 6.8017274 5.6000000 0.63 0.68 0.73
v 7.1237610 7.0179790 5.6000000 0.63 0.68 0.73
v 6.9106265 7.2279486 5.6000000 0.63 0.68 0.73
v 6.6913061 7.4314483 5.6000000 0.63 0.68 0.73
v 6.4659960 7.6282957 5.6000000 0.63 0.68 0.73
v 6.2348980 7.8183148 5.6000000 0.63 0.68 0.73
v 5.9982189 8.0013355 5.6000000 0.63 0.68 0.73
v 5.7561707 8.1771939 5.6000000 0.63 0.68 0.73
v 5.5089698 8.3457325 5.6000000 0.63 0.68 0.73
v 5.2568377 8.5068007 5.6000000 0.63 0.68 0.73
v 5.0000000 8.6602540 5.6000000 0.63 0.68 0.73
v 4.7386866 8.8059553 5.6000000 0.63 0.68 0.73
v 4.4731315 8.9437741 5.6000000 0.63 0.68 0.73
v 4.2035723 9.0735869 5.6000000 0.63 0.68 0.73
v 3.9302503 9.1952777 5.6000000 0.63 0.68 0.73
v 3.6534102 9.3087375 5.6000000 0.63 0.68 0.73
v 3.3732999 9.4138647 5.6000000 0.63 0.68 0.73
v 3.0901699 9.5105652 5.6000000 0.63 0.68 0.73
v 2.8042739 9.5987524 5.6000000 0.63 0.68 0.73
v 2.5158676 9.6783475 5.6000000 0.63 0.68 0.73
v 2.2252093 9.7492791 5.6000000 0.63 0.68 0.73
v 1.9325592 9.8114838 5.6000000 0.63 0.68 0.73
v 1.6381791 9.8649059 5.6000000 0.63 0.68 0.73
v 1.3423327 9.9094976 5.6000000 0.63 0.68 0.73
v 1.0452846 9.9452190 5.6000000 0.63 0.68 0.73
v 0.7473009 9.9720380 5.6000000 0.63 0.68 0.73
v 0.4486483 9.9899307 5.6000000 0.63 0.68 0.73
v 0.1495941 9.9988810 5.6000000 0.63 0.68 0.73
v -0.1495941 9.9988810 5.6000000 0.63 0.68 0.73
v -0.4486483 9.9899307 5.6000000 0.63 0.68 0.73
v -0.7473009 9.9720380 5.6000000 0.63 0.68 0.73
v -1.0452846 9.9452190 5.6000000 0.63 0.68 0.73
v -1.3423327 9.9094976 5.6000000 0.63 0.68 0.73
v -1.6381791 9.8649059 5.6000000 0.63 0.68 0.73
v -1.9325592 9.8114838 5.6000000 0.63 0.68 0.73
v -2.2252093 9.7492791 5.6000000 0.63 0.68 0.73
v -2.5158676 9.6783475 5.6000000 0.63 0.68 0.73
v -2.8042739 9.5987524 5.6000000 0.63 0.68 0.73
v -3.0901699 9.5105652 5.6000000 0.63 0.68 0.73
v -3.3732999 9.4138647 5.6000000 0.63 0.68 0.73
v -3.6534102 9.3087375 5.6000000 0.63 0.68 0.73
v -3.9302503 9.1952777 5.6000000 0.63 0.68 0.73
v -4.2035723 9.0735869 5.6000000 0.63 0.68 0.73
v -4.4731315 8.9437741 5.6000000 0.63 0.68 0.73
v -4.7386866 8.8059553 5.6000000 0.63 0.68 0.73
v -5.0000000 8.6602540 5.6000000 0.63 0.68 0.73
v -5.2568377 8.5068007 5.6000000 0.63 0.68 0.73
v -5.5089698 8.3457325 5.6000000 0.63 0.68 0.73
v -5.7561707 8.1771939 5.6000000 0.63 0.68 0.73
v -5.9982189 8.0013355 5.6000000 0.63 0.68 0.73
v -6.2348980 7.8183148 5.6000000 0.63 0.68 0.73
v -6.4659960 7.6282957 5.6000000 0.63 0.68 0.73
v -6.6913061 7.4314483 5.6000000 0.63 0.68 0.73
v -6.9106265 7.2279486 5.6000000 0.63 0.68 0.73
v -7.1237610 7.0179790 5.6000000 0.63 0.68 0.73
v -7.3305187 6.8017274 5.6000000 0.63 0.68 0.73
v -7.5307147 6.5793873 5.6000000 0.63 0.68 0.73
v -7.7241696 6.3511577 5.6000000 0.63 0.68 0.73
v -7.9107103 6.1172430 5.6000000 0.63 0.68 0.73
v -8.0901699 5.8778525 5.6000000 0.63 0.68 0.73
v -8.2623877 5.6332006 5.6000000 0.63 0.68 0.73
v -8.4272096 5.3835062 5.6000000 0.63 0.68 0.73
v -8.5844879 5.1289928 5.6000000 0.63 0.68 0.73
v -8.7340820 4.8698882 5.6000000 0.63 0.68 0.73
v -8.8758579 4.6064245 5.6000000 0.63 0.68 0.73
v -9.0096887 4.3388374 5.6000000 0.63 0.68 0.73
v -9.1354546 4.0673664 5.6000000 0.63 0.68 0.73
v -9.2530430 3.7922546 5.6000000 0.63 0.68 0.73
v -9.3623487 3.5137482 5.6000000 0.63 0.68 0.73
v -9.4632738 3.2320966 5.6000000 0.63 0.68 0.73
v -9.5557281 2.9475517 5.6000000 0.63 0.68 0.73
v -9.6396286 2.6603685 5.6000000 0.63 0.68 0.73
v -9.7149004 2.3708038 5.6000000 0.63 0.68 0.73
v -9.7814760 2.0791169 5.6000000 0.63 0.68 0.73
v -9.8392959 1.7855689 5.6000000 0.63 0.68 0.73
v -9.8883083 1.4904227 5.6000000 0.63 0.68 0.73
v -9.9284693 1.1939422 5.6000000 0.63 0.68 0.73
v -9.9597429 0.8963931 5.6000000 0.63 0.68 0.73
v -9.9821013 0.5980415 5.6000000 0.63 0.68 0.73
v -9.9955243 0.2991547 5.6000000 0.63 0.68 0.73
v -10.0000000 0.0000000 5.6000000 0.63 0.68 0.73
v -9.9955243 -0.2991547 5.6000000 0.63 0.68 0.73
v -9.9821013 -0.5980415 5.6000000 0.63 0.68 0.73
v -9.9597429 -0.8963931 5.6000000 0.63 0.68 0.73
v -9.9284693 -1.1939422 5.6000000 0.63 0.68 0.73
v -9.8883083 -1.4904227 5.6000000 0.63 0.68 0.73
v -9.8392959 -1.7855689 5.6000000 0.63 0.68 0.73
v -9.7814760 -2.0791169 5.6000000 0.63 0.68 0.73
v -9.7149004 -2.3708038 5.6000000 0.63 0.68 0.73
v -9.6396286 -2.6603685 5.6000000 0.63 0.68 0.73
v -9.5557281 -2.9475517 5.6000000 0.63 0.68 0.73
v -9.4632738 -3.2320966 5.6000000 0.63 0.68 0.73
v -9.3623487 -3.5137482 5.6000000 0.63 0.68 0.73
v -9.2530430 -3.7922546 5.6000000 0.63 0.68 0.73
v -9.1354546 -4.0673664 5.6000000 0.63 0.68 0.73
v -9.0096887 -4.3388374 5.6000000 0.63 0.68 0.73
v -8.8758579 -4.6064245 5.6000000 0.63 0.68 0.73
v -8.7340820 -4.8698882 5.6000000 0.63 0.68 0.73
v -8.5844879 -5.1289928 5.6000000 0.63 0.68 0.73
v -8.4272096 -5.3835062 5.6000000 0.63 0.68 0.73
v -8.2623877 -5.6332006 5.6000000 0.63 0.68 0.73
v -8.0901699 -5.8778525 5.6000000 0.63 0.68 0.73
v -7.9107103 -6.1172430 5.6000000 0.63 0.68 0.73
v -7.7241696 -6.3511577 5.6000000 0.63 0.68 0.73
v -7.5307147 -6.5793873 5.6000000 0.63 0.68 0.73
v -7.3305187 -6.8017274 5.6000000 0.63 0.68 0.73
v -7.1237610 -7.0179790 5.6000000 0.63 0.68 0.73
v -6.9106265 -7.2279486 5.6000000 0.63 0.68 0.73
v -6.6913061 -7.4314483 5.6000000 0.63 0.68 0.73
v -6.4659960 -7.6282957 5.6000000 0.63 0.68 0.73
v -6.2348980 -7.8183148 5.6000000 0.63 0.68 0.73
v -5.9982189 -8.0013355 5.6000000 0.63 0.68 0.73
v -5.7561707 -8.1771939 5.6000000 0.63 0.68 0.73
v -5.5089698 -8.3457325 5.6000000 0.63 0.68 0.73
v -5.2568377 -8.5068007 5.6000000 0.63 0.68 0.73
v -5.0000000 -8.6602540 5.6000000 0.63 0.68 0.73
v -4.7386866 -8.8059553 5.6000000 0.63 0.68 0.73
v -4.4731315 -8.9437741 5.6000000 0.63 0.68 0.73
v -4.2035723 -9.0735869 5.6000000 0.63 0.68 0.73
v -3.9302503 -9.1952777 5.6000000 0.63 0.68 0.73
v -3.6534102 -9.3087375 5.6000000 0.63 0.68 0.73
v -3.3732999 -9.4138647 5.6000000 0.63 0.68 0.73
v -3.0901699 -9.5105652 5.6000000 0.63 0.68 0.73
v -2.8042739 -9.5987524 5.6000000 0.63 0.68 0.73
v -2.5158676 -9.6783475 5.6000000 0.63 0.68 0.73
v -2.2252093 -9.7492791 5.6000000 0.63 0.68 0.73
v -1.9325592 -9.8114838 5.6000000 0.63 0.68 0.73
v -1.6381791 -9.8649059 5.6000000 0.63 0.68 0.73
v -1.3423327 -9.9094976 5.6000000 0.63 0.68 0.73
v -1.0452846 -9.9452190 5.6000000 0.63 0.68 0.73
v -0.7473009 -9.9720380 5.6000000 0.63 0.68 0.73
v -0.4486483 -9.9899307 5.6000000 0.63 0.68 0.73
v -0.1495941 -9.9988810 5.6000000 0.63 0.68 0.73
v 0.1495941 -9.9988810 5.6000000 0.63 0.68 0.73
v 0.4486483 -9.9899307 5.6000000 0.63 0.68 0.73
v 0.7473009 -9.9720380 5.6000000 0.63 0.68 0.73
v 1.0452846 -9.9452190 5.6000000 0.63 0.68 0.73
v 1.3423327 -9.9094976 5.6000000 0.63 0.68 0.73
v 1.6381791 -9.8649059 5.6000000 0.63 0.68 0.73
v 1.9325592 -9.8114838 5.6000000 0.63 0.68 0.73
v 2.2252093 -9.7492791 5.6000000 0.63 0.68 0.73
v 2.5158676 -9.6783475 5.6000000 0.63 0.68 0.73
v 2.8042739 -9.5987524 5.6000000 0.63 0.68 0.73
v 3.0901699 -9.5105652 5.6000000 0.63 0.68 0.73
v 3.3732999 -9.4138647 5.6000000 0.63 0.68 0.73
v 3.6534102 -9.3087375 5.6000000 0.63 0.68 0.73
v 3.9302503 -9.1952777 5.6000000 0.63 0.68 0.73
v 4.2035723 -9.0735869 5.6000000 0.63 0.68 0.73
v 4.4731315 -8.9437741 5.6000000 0.63 0.68 0.73
v 4.7386866 -8.8059553 5.6000000 0.63 0.68 0.73
v 5.0000000 -8.6602540 5.6000000 0.63 0.68 0.73
v 5.2568377 -8.5068007 5.6000000 0.63 0.68 0.73
v 5.5089698 -8.3457325 5.6000000 0.63 0.68 0.73
v 5.7561707 -8.1771939 5.6000000 0.63 0.68 0.73
v 5.9982189 -8.0013355 5.6000000 0.63 0.68 0.73
v 6.2348980 -7.8183148 5.6000000 0.63 0.68 0.73
v 6.4659960 -7.6282957 5.6000000 0.63 0.68 0.73
v 6.6913061 -7.4314483 5.6000000 0.63 0.68 0.73
v 6.9106265 -7.2279486 5.6000000 0.63 0.68 0.73
v 7.1237610 -7.0179790 5.6000000 0.63 0.68 0.73
v 7.3305187 -6.8017274 5.6000000 0.63 0.68 0.73
v 7.5307147 -6.5793873 5.6000000 0.63 0.68 0.73
v 7.7241696 -6.3511577 5.6000000 0.63 0.68 0.73
v 7.9107103 -6.1172430 5.6000000 0.63 0.68 0.73
v 8.0901699 -5.8778525 5.6000000 0.63 0.68 0.73
v 8.2623877 -5.6332006 5.6000000 0.63 0.68 0.73
v 8.4272096 -5.3835062 5.6000000 0.63 0.68 0.73
v 8.5844879 -5.1289928 5.6000000 0.63 0.68 0.73
v 8.7340820 -4.8698882 5.6000000 0.63 0.68 0.73
v 8.8758579 -4.6064245 5.6000000 0.63 0.68 0.73
v 9.0096887 -4.3388374 5.6000000 0.63 0.68 0.73
v 9.1354546 -4.0673664 5.6000000 0.63 0.68 0.73
v 9.2530430 -3.7922546 5.6000000 0.63 0.68 0.73
v 9.3623487 -3.5137482 5.6000000 0.63 0.68 0.73
v 9.4632738 -3.2320966 5.6000000 0.63 0.68 0.73
v 9.5557281 -2.9475517 5.6000000 0.63 0.68 0.73
v 9.6396286 -2.6603685 5.6000000 0.63 0.68 0.73
v 9.7149004 -2.3708038 5.6000000 0.63 0.68 0.73
v 9.7814760 -2.0791169 5.6000000 0.63 0.68 0.73
v 9.8392959 -1.7855689 5.6000000 0.63 0.68 0.73
v 9.8883083 -1.4904227 5.6000000 0.63 0.68 0.73
v 9.9284693 -1.1939422 5.6000000 0.63 0.68 0.73
v 9.9597429 -0.8963931 5.6000000 0.63 0.68 0.73
v 9.9821013 -0.5980415 5.6000000 0.63 0.68 0.73
v 9.9955243 -0.2991547 5.6000000 0.63 0.68 0.73
v 10.0000000 0.0000000 5.6000000 0.63 0.68 0.73
v 10.0000000 0.0000000 2.4000000 0.63 0.68 0.73
v 9.9955243 0.2991547 2.4000000 0.63 0.68 0.73
v 9.9821013 0.5980415 2.4000000 0.63 0.68 0.73
v 9.9597429 0.8963931 2.4000000 0.63 0.68 0.73
v 9.9284693 1.1939422 2.4000000 0.63 0.68 0.73
v 9.8883083 1.4904227 2.4000000 0.63 0.68 0.73
v 9.8392959 1.7855689 2.4000000 0.63 0.68 0.73
v 9.7814760 2.0791169 2.4000000 0.63 0.68 0.73
v 9.7149004 2.3708038 2.4000000 0.63 0.68 0.73
v 9.6396286 2.6603685 2.4000000 0.63 0.68 0.73
v 9.5557281 2.9475517 2.4000000 0.63 0.68 0.73
v 9.4632738 3.2320966 2.4000000 0.63 0.68 0.73
v 9.3623487 3.5137482 2.4000000 0.63 0.68 0.73
v 9.2530430 3.7922546 2.4000000 0.63 0.68 0.73
v 9.1354546 4.0673664 2.4000000 0.63 0.68 0.73
v 9.0096887 4.3388374 2.4000000 0.63 0.68 0.73
v 8.8758579 4.6064245 2.4000000 0.63 0.68 0.73
v 8.7340820 4.8698882 2.4000000 0.63 0.68 0.73
v 8.5844879 5.1289928 2.4000000 0.63 0.68 0.73
v 8.4272096 5.3835062 2.4000000 0.63 0.68 0.73
v 8.2623877 5.6332006 2.4000000 0.63 0.68 0.73
v 8.0901699 5.8778525 2.4000000 0.63 0.68 0.73
v 7.9107103 6.1172430 2.4000000 0.63 0.68 0.73
v 7.7241696 6.3511577 2.4000000 0.63 0.68 0.73
v 7.5307147 6.5793873 2.4000000 0.63 0.68 0.73
v 7.3305187 6.8017274 2.4000000 0.63 0.68 0.73
v 7.1237610 7.0179790 2.4000000 0.63 0.68 0.73
v 6.9106265 7.2279486 2.4000000 0.63 0.68 0.73
v 6.6913061 7.4314483 2.4000000 0.63 0.68 0.73
v 6.4659960 7.6282957 2.4000000 0.63 0.68 0.73
v 6.2348980 7.8183148 2.4000000 0.63 0.68 0.73
v 5.9982189 8.0013355 2.4000000 0.63 0.68 0.73
v 5.7561707 8.1771939 2.4000000 0.63 0.68 0.73
v 5.5089698 8.3457325 2.4000000 0.63 0.68 0.73
v 5.2568377 8.5068007 2.4000000 0.63 0.68 0.73
v 5.0000000 8.6602540 2.4000000 0.63 0.68 0.73
v 4.7386866 8.8059553 2.4000000 0.63 0.68 0.73
v 4.4731315 8.9437741 2.4000000 0.63 0.68 0.73
v 4.2035723 9.0735869 2.4000000 0.63 0.68 0.73
v 3.9302503 9.1952777 2.4000000 0.63 0.68 0.73
v 3.6534102 9.3087375 2.4000000 0.63 0.68 0.73
v 3.3732999 9.4138647 2.4000000 0.63 0.68 0.73
v 3.0901699 9.5105652 2.4000000 0.63 0.68 0.73
v 2.8042739 9.5987524 2.4000000 0.63 0.68 0.73
v 2.5158676 9.6783475 2.4000000 0.63 0.68 0.73
v 2.2252093 9.7492791 2.4000000 0.63 0.68 0.73
v 1.9325592 9.8114838 2.4000000 0.63 0.68 0.73
v 1.6381791 9.8649059 2.4000000 0.63 0.68 0.73
v 1.3423327 9.9094976 2.4000000 0.63 0.68 0.73
v 1.0452846 9.9452190 2.4000000 0.63 0.68 0.73
v 0.7473009 9.9720380 2.4000000 0.63 0.68 0.73
v 0.4486483 9.9899307 2.4000000 0.63 0.68 0.73
v 0.1495941 9.9988810 2.4000000 0.63 0.68 0.73
v -0.1495941 9.9988810 2.4000000 0.63 0.68 0.73
v -0.4486483 9.9899307 2.4000000 0.63 0.68 0.73
v -0.7473009 9.9720380 2.4000000 0.63 0.68 0.73
v -1.0452846 9.9452190 2.4000000 0.63 0.68 0.73
v -1.3423327 9.9094976 2.4000000 0.63 0.68 0.73
v -1.6381791 9.8649059 2.4000000 0.63 0.68 0.73
v -1.9325592 9.8114838 2.4000000 0.63 0.68 0.73
v -2.2252093 9.7492791 2.4000000 0.63 0.68 0.73
v -2.5158676 9.6783475 2.4000000 0.63 0.68 0.73
v -2.8042739 9.5987524 2.4000000 0.63 0.68 0.73
v -3.0901699 9.5105652 2.4000000 0.63 0.68 0.73
v -3.3732999 9.4138647 2.4000000 0.63 0.68 0.73
v -3.6534102 9.3087375 2.4000000 0.63 0.68 0.73
v -3.9302503 9.1952777 2.4000000 0.63 0.68 0.73
v -4.2035723 9.0735869 2.4000000 0.63 0.68 0.73
v -4.4731315 8.9437741 2.4000000 0.63 0.68 0.73
v -4.7386866 8.8059553 2.4000000 0.63 0.68 0.73
v -5.0000000 8.6602540 2.4000000 0.63 0.68 0.73
v -5.2568377 8.5068007 2.4000000 0.63 0.68 0.73
v -5.5089698 8.3457325 2.4000000 0.63 0.68 0.73
v -5.7561707 8.1771939 2.4000000 0.63 0.68 0.73
v -5.9982189 8.0013355 2.4000000 0.63 0.68 0.73
v -6.2348980 7.8183148 2.4000000 0.63 0.68 0.73
v -6.4659960 7.6282957 2.4000000 0.63 0.68 0.73
v -6.6913061 7.4314483 2.4000000 0.63 0.68 0.73
v -6.9106265 7.2279486 2.4000000 0.63 0.68 0.73
v -7.1237610 7.0179790 2.4000000 0.63 0.68 0.73
v -7.3305187 6.8017274 2.4000000 0.63 0.68 0.73
v -7.5307147 6.5793873 2.4000000 0.63 0.68 0.73
v -7.7241696 6.3511577 2.4000000 0.63 0.68 0.73
v -7.9107103 6.1172430 2.4000000 0.63 0.68 0.73
v -8.0901699 5.8778525 2.4000000 0.63 0.68 0.73
v -8.2623877 5.6332006 2.4000000 0.63 0.68 0.73
v -8.4272096 5.3835062 2.4000000 0.63 0.68 0.73
v -8.5844879 5.1289928 2.4000000 0.63 0.68 0.73
v -8.7340820 4.8698882 2.4000000 0.63 0.68 0.73
v -8.8758579 4.6064245 2.4000000 0.63 0.68 0.73
v -9.0096887 4.3388374 2.4000000 0.63 0.68 0.73
v -9.1354546 4.0673664 2.4000000 0.63 0.68 0.73
v -9.2530430 3.7922546 2.4000000 0.63 0.68 0.73
v -9.3623487 3.5137482 2.4000000 0.63 0.68 0.73
v -9.4632738 3.2320966 2.4000000 0.63 0.68 0.73
v -9.5557281 2.9475517 2.4000000 0.63 0.68 0.73
v -9.6396286 2.6603685 2.4000000 0.63 0.68 0.73
v -9.7149004 2.3708038 2.4000000 0.63 0.68 0.73
v -9.7814760 2.0791169 2.4000000 0.63 0.68 0.73
v -9.8392959 1.7855689 2.4000000 0.63 0.68 0.73
v -9.8883083 1.4904227 2.4000000 0.63 0.68 0.73
v -9.9284693 1.1939422 2.4000000 0.63 0.68 0.73
v -9.9597429 0.8963931 2.4000000 0.63 0.68 0.73
v -9.9821013 0.5980415 2.4000000 0.63 0.68 0.73
v -9.9955243 0.2991547 2.4000000 0.63 0.68 0.73
v -10.0000000 0.0000000 2.4000000 0.63 0.68 0.73
v -9.9955243 -0.2991547 2.4000000 0.63 0.68 0.73
v -9.9821013 -0.5980415 2.4000000 0.63 0.68 0.73
v -9.9597429 -0.8963931 2.4000000 0.63 0.68 0.73
v -9.9284693 -1.1939422 2.4000000 0.63 0.68 0.73
v -9.8883083 -1.4904227 2.4000000 0.63 0.68 0.73
v -9.8392959 -1.7855689 2.4000000 0.63 0.68 0.73
v -9.7814760 -2.0791169 2.4000000 0.63 0.68 0.73
v -9.7149004 -2.3708038 2.4000000 0.63 0.68 0.73
v -9.6396286 -2.6603685 2.4000000 0.63 0.68 0.73
v -9.5557281 -2.9475517 2.4000000 0.63 0.68 0.73
v -9.4632738 -3.2320966 2.4000000 0.63 0.68 0.73
v -9.3623487 -3.5137482 2.4000000 0.63 0.68 0.73
v -9.2530430 -3.7922546 2.4000000 0.63 0.68 0.73
v -9.1354546 -4.0673664 2.4000000 0.63 0.68 0.73
v -9.0096887 -4.3388374 2.4000000 0.63 0.68 0.73
v -8.8758579 -4.6064245 2.4000000 0.63 0.68 0.73
v -8.7340820 -4.8698882 2.4000000 0.63 0.68 0.73
v -8.5844879 -5.1289928 2.4000000 0.63 0.68 0.73
v -8.4272096 -5.3835062 2.4000000 0.63 0.68 0.73
v -8.2623877 -5.6332006 2.4000000 0.63 0.68 0.73
v -8.0901699 -5.8778525 2.4000000 0.63 0.68 0.73
v -7.9107103 -6.1172430 2.4000000 0.63 0.68 0.73
v -7.7241696 -6.3511577 2.4000000 0.63 0.68 0.73
v -7.5307147 -6.5793873 2.4000000 0.63 0.68 0.73
v -7.3305187 -6.8017274 2.4000000 0.63 0.68 0.73
v -7.1237610 -7.0179790 2.4000000 0.63 0.68 0.73
v -6.9106265 -7.2279486 2.4000000 0.63 0.68 0.73
v -6.6913061 -7.4314483 2.4000000 0.63 0.68 0.73
v -6.4659960 -7.6282957 2.4000000 0.63 0.68 0.73
v -6.2348980 -7.8183148 2.4000000 0.63 0.68 0.73
v -5.9982189 -8.0013355 2.4000000 0.63 0.68 0.73
v -5.7561707 -8.1771939 2.4000000 0.63 0.68 0.73
v -5.5089698 -8.3457325 2.4000000 0.63 0.68 0.73
v -5.2568377 -8.5068007 2.4000000 0.63 0.68 0.73
v -5.0000000 -8.6602540 2.4000000 0.63 0.68 0.73
v -4.7386866 -8.8059553 2.4000000 0.63 0.68 0.73
v -4.4731315 -8.9437741 2.4000000 0.63 0.68 0.73
v -4.2035723 -9.0735869 2.4000000 0.63 0.68 0.73
v -3.9302503 -9.1952777 2.4000000 0.63 0.68 0.73
v -3.6534102 -9.3087375 2.4000000 0.63 0.68 0.73
v -3.3732999 -9.4138647 2.4000000 0.63 0.68 0.73
v -3.0901699 -9.5105652 2.4000000 0.63 0.68 0.73
v -2.8042739 -9.5987524 2.4000000 0.63 0.68 0.73
v -2.5158676 -9.6783475 2.4000000 0.63 0.68 0.73
v -2.2252093 -9.7492791 2.4000000 0.63 0.68 0.73
v -1.9325592 -9.8114838 2.4000000 0.63 0.68 0.73
v -1.6381791 -9.8649059 2.4000000 0.63 0.68 0.73
v -1.3423327 -9.9094976 2.4000000 0.63 0.68 0.73
v -1.0452846 -9.9452190 2.4000000 0.63 0.68 0.73
v -0.7473009 -9.9720380 2.4000000 0.63 0.68 0.73
v -0.4486483 -9.9899307 2.4000000 0.63 0.68 0.73
v -0.1495941 -9.9988810 2.4000000 0.63 0.68 0.73
v 0.1495941 -9.9988810 2.4000000 0.63 0.68 0.73
v 0.4486483 -9.9899307 2.4000000 0.63 0.68 0.73
v 0.7473009 -9.9720380 2.4000000 0.63 0.68 0.73
v 1.0452846 -9.9452190 2.4000000 0.63 0.68 0.73
v 1.3423327 -9.9094976 2.4000000 0.63 0.68 0.73
v 1.6381791 -9.8649059 2.4000000 0.63 0.68 0.73
v 1.9325592 -9.8114838 2.4000000 0.63 0.68 0.73
v 2.2252093 -9.7492791 2.4000000 0.63 0.68 0.73
v 2.5158676 -9.6783475 2.4000000 0.63 0.68 0.73
v 2.8042739 -9.5987524 2.4000000 0.63 0.68 0.73
v 3.0901699 -9.5105652 2.4000000 0.63 0.68 0.73
v 3.3732999 -9.4138647 2.4000000 0.63 0.68 0.73
v 3.6534102 -9.3087375 2.4000000 0.63 0.68 0.73
v 3.9302503 -9.1952777 2.4000000 0.63 0.68 0.73
v 4.2035723 -9.0735869 2.4000000 0.63 0.68 0.73
v 4.4731315 -8.9437741 2.4000000 0.63 0.68 0.73
v 4.7386866 -8.8059553 2.4000000 0.63 0.68 0.73
v 5.0000000 -8.6602540 2.4000000 0.63 0.68 0.73
v 5.2568377 -8.5068007 2.4000000 0.63 0.68 0.73
v 5.5089698 -8.3457325 2.4000000 0.63 0.68 0.73
v 5.7561707 -8.1771939 2.4000000 0.63 0.68 0.73
v 5.9982189 -8.0013355 2.4000000 0.63 0.68 0.73
v 6.2348980 -7.8183148 2.4000000 0.63 0.68 0.73
v 6.4659960 -7.6282957 2.4000000 0.63 0.68 0.73
v 6.6913061 -7.4314483 2.4000000 0.63 0.68 0.73
v 6.9106265 -7.2279486 2.4000000 0.63 0.68 0.73
v 7.1237610 -7.0179790 2.4000000 0.63 0.68 0.73
v 7.3305187 -6.8017274 2.4000000 0.63 0.68 0.73
v 7.5307147 -6.5793873 2.4000000 0.63 0.68 0.73
v 7.7241696 -6.3511577 2.4000000 0.63 0.68 0.73
v 7.9107103 -6.1172430 2.4000000 0.63 0.68 0.73
v 8.0901699 -5.8778525 2.4000000 0.63 0.68 0.73
v 8.2623877 -5.6332006 2.4000000 0.63 0.68 0.73
v 8.4272096 -5.3835062 2.4000000 0.63 0.68 0.73
v 8.5844879 -5.1289928 2.4000000 0.63 0.68 0.73
v 8.7340820 -4.8698882 2.4000000 0.63 0.68 0.73
v 8.8758579 -4.6064245 2.4000000 0.63 0.68 0.73
v 9.0096887 -4.3388374 2.4000000 0.63 0.68 0.73
v 9.1354546 -4.0673664 2.4000000 0.63 0.68 0.73
v 9.2530430 -3.7922546 2.4000000 0.63 0.68 0.73
v 9.3623487 -3.5137482 2.4000000 0.63 0.68 0.73
v 9.4632738 -3.2320966 2.4000000 0.63 0.68 0.73
v 9.5557281 -2.9475517 2.4000000 0.63 0.68 0.73
v 9.6396286 -2.6603685 2.4000000 0.63 0.68 0.73
v 9.7149004 -2.3708038 2.4000000 0.63 0.68 0.73
v 9.7814760 -2.0791169 2.4000000 0.63 0.68 0.73
v 9.8392959 -1.7855689 2.4000000 0.63 0.68 0.73
v 9.8883083 -1.4904227 2.4000000 0.63 0.68 0.73
v 9.9284693 -1.1939422 2.4000000 0.63 0.68 0.73
v 9.9597429 -0.8963931 2.4000000 0.63 0.68 0.73
v 9.9821013 -0.5980415 2.4000000 0.63 0.68 0.73
v 9.9955243 -0.2991547 2.4000000 0.63 0.68 0.73
v 10.0000000 0.0000000 2.4000000 0.63 0.68 0.73
v 9.9955243 0.2991547 2.4000000 0.63 0.68 0.73
v 9.9821013 0.5980415 2.4000000 0.63 0.68 0.73
v 9.9597429 0.8963931 2.4000000 0.63 0.68 0.73
v 9.9284693 1.1939422 2.4000000 0.63 0.68 0.73
v 9.8883083 1.4904227 2.4000000 0.63 0.68 0.73
v 9.8392959 1.7855689 2.4000000 0.63 0.68 0.73
v 9.7814760 2.0791169 2.4000000 0.63 0.68 0.73
v 9.7149004 2.3708038 2.4000000 0.63 0.68 0.73
v 9.6396286 2.6603685 2.4000000 0.63 0.68 0.73
v 9.5557281 2.9475517 2.4000000 0.63 0.68 0.73
v 9.4632738 3.2320966 2.4000000 0.63 0.68 0.73
v 9.3623487 3.5137482 2.4000000 0.63 0.68 0.73
v 9.2530430 3.7922546 2.4000000 0.63 0.68 0.73
v 9.1354546 4.0673664 2.4000000 0.63 0.68 0.73
v 9.0096887 4.3388374 2.4000000 0.63 0.68 0.73
v 8.8758579 4.6064245 2.4000000 0.63 0.68 0.73
v 8.7340820 4.8698882 2.4000000 0.63 0.68 0.73
v 8.5844879 5.1289928 2.4000000 0.63 0.68 0.73
v 8.4272096 5.3835062 2.4000000 0.63 0.68 0.73
v 8.2623877 5.6332006 2.4000000 0.63 0.68 0.73
v 8.0901699 5.8778525 2.4000000 0.63 0.68 0.73
v 7.9107103 6.1172430 2.4000000 0.63 0.68 0.73
v 7.7241696 6.3511577 2.4000000 0.63 0.68 0.73
v 7.5307147 6.5793873 2.4000000 0.63 0.68 0.73
v 7.3305187 6.8017274 2.4000000 0.63 0.68 0.73
v 7.1237610 7.0179790 2.4000000 0.63 0.68 0.73
v 6.9106265 7.2279486 2.4000000 0.63 0.68 0.73
v 6.6913061 7.4314483 2.4000000 0.63 0.68 0.73
v 6.4659960 7.6282957 2.4000000 0.63 0.68 0.73
v 6.2348980 7.8183148 2.4000000 0.63 0.68 0.73
v 5.9982189 8.0013355 2.4000000 0.63 0.68 0.73
v 5.7561707 8.1771939 2.4000000 0.63 0.68 0.73
v 5.5089698 8.3457325 2.4000000 0.63 0.68 0.73
v 5.2568377 8.5068007 2.4000000 0.63 0.68 0.73
v 5.0000000 8.6602540 2.4000000 0.63 0.68 0.73
v 4.7386866 8.8059553 2.4000000 0.63 0.68 0.73
v 4.4731315 8.9437741 2.4000000 0.63 0.68 0.73
v 4.2035723 9.0735869 2.4000000 0.63 0.68 0.73
v 3.9302503 9.1952777 2.4000000 0.63 0.68 0.73
v 3.6534102 9.3087375 2.4000000 0.63 0.68 0.73
v 3.3732999 9.4138647 2.4000000 0.63 0.68 0.73
v 3.0901699 9.5105652 2.4000000 0.63 0.68 0.73
v 2.8042739 9.5987524 2.4000000 0.63 0.68 0.73
v 2.5158676 9.6783475 2.4000000 0.63 0.68 0.73
v 2.2252093 9.7492791 2.4000000 0.63 0.68 0.73
v 1.9325592 9.8114838 2.4000000 0.63 0.68 0.73
v 1.6381791 9.8649059 2.4000000 0.63 0.68 0.73
v 1.3423327 9.9094976 2.4000000 0.63 0.68 0.73
v 1.0452846 9.9452190 2.4000000 0.63 0.68 0.73
v 0.7473009 9.9720380 2.4000000 0.63 0.68 0.73
v 0.4486483 9.9899307 2.4000000 0.63 0.68 0.73
v 0.1495941 9.9988810 2.4000000 0.63 0.68 0.73
v -0.1495941 9.9988810 2.4000000 0.63 0.68 0.73
v -0.4486483 9.9899307 2.4000000 0.63 0.68 0.73
v -0.7473009 9.9720380 2.4000000 0.63 0.68 0.73
v -1.0452846 9.9452190 2.4000000 0.63 0.68 0.73
v -1.3423327 9.9094976 2.4000000 0.63 0.68 0.73
v -1.6381791 9.8649059 2.4000000 0.63 0.68 0.73
v -1.9325592 9.8114838 2.4000000 0.63 0.68 0.73
v -2.2252093 9.7492791 2.4000000 0.63 0.68 0.73
v -2.5158676 9.6783475 2.4000000 0.63 0.68 0.73
v -2.8042739 9.5987524 2.4000000 0.63 0.68 0.73
v -3.0901699 9.5105652 2.4000000 0.63 0.68 0.73
v -3.3732999 9.4138647 2.4000000 0.63 0.68 0.73
v -3.6534102 9.3087375 2.4000000 0.63 0.68 0.73
v -3.9302503 9.1952777 2.4000000 0.63 0.68 0.73
v -4.2035723 9.0735869 2.4000000 0.63 0.68 0.73
v -4.4731315 8.9437741 2.4000000 0.63 0.68 0.73
v -4.7386866 8.8059553 2.4000000 0.63 0.68 0.73
v -5.0000000 8.6602540 2.4000000 0.63 0.68 0.73
v -5.2568377 8.5068007 2.4000000 0.63 0.68 0.73
v -5.5089698 8.3457325 2.4000000 0.63 0.68 0.73
v -5.7561707 8.1771939 2.4000000 0.63 0.68 0.73
v -5.9982189 8.0013355 2.4000000 0.63 0.68 0.73
v -6.2348980 7.8183148 2.4000000 0.63 0.68 0.73
v -6.4659960 7.6282957 2.4000000 0.63 0.68 0.73
v -6.6913061 7.4314483 2.4000000 0.63 0.68 0.73
v -6.9106265 7.2279486 2.4000000 0.63 0.68 0.73
v -7.1237610 7.0179790 2.4000000 0.63 0.68 0.73
v -7.3305187 6.8017274 2.4000000 0.63 0.68 0.73
v -7.5307147 6.5793873 2.4000000 0.63 0.68 0.73
v -7.7241696 6.3511577 2.4000000 0.63 0.68 0.73
v -7.9107103 6.1172430 2.4000000 0.63 0.68 0.73
v -8.0901699 5.8778525 2.4000000 0.63 0.68 0.73
v -8.2623877 5.6332006 2.4000000 0.63 0.68 0.73
v -8.4272096 5.3835062 2.4000000 0.63 0.68 0.73
v -8.5844879 5.1289928 2.4000000 0.63 0.68 0.73
v -8.7340820 4.8698882 2.4000000 0.63 0.68 0.73
v -8.8758579 4.6064245 2.4000000 0.63 0.68 0.73
v -9.0096887 4.3388374 2.4000000 0.63 0.68 0.73
v -9.1354546 4.0673664 2.4000000 0.63 0.68 0.73
v -9.2530430 3.7922546 2.4000000 0.63 0.68 0.73
v -9.3623487 3.5137482 2.4000000 0.63 0.68 0.73
v -9.4632738 3.2320966 2.4000000 0.63 0.68 0.73
v -9.5557281 2.9475517 2.4000000 0.63 0.68 0.73
v -9.6396286 2.6603685 2.4000000 0.63 0.68 0.73
v -9.7149004 2.3708038 2.4000000 0.63 0.68 0.73
v -9.7814760 2.0791169 2.4000000 0.63 0.68 0.73
v -9.8392959 1.7855689 2.4000000 0.63 0.68 0.73
v -9.8883083 1.4904227 2.4000000 0.63 0.68 0.73
v -9.9284693 1.1939422 2.4000000 0.63 0.68 0.73
v -9.9597429 0.8963931 2.4000000 0.63 0.68 0.73
v -9.9821013 0.5980415 2.4000000 0.63 0.68 0.73
v -9.9955243 0.2991547 2.4000000 0.63 0.68 0.73
v -10.0000000 0.0000000 2.4000000 0.63 0.68 0.73
v -9.9955243 -0.2991547 2.4000000 0.63 0.68 0.73
v -9.9821013 -0.5980415 2.4000000 0.63 0.68 0.73
v -9.9597429 -0.8963931 2.4000000 0.63 0.68 0.73
v -9.9284693 -1.1939422 2.4000000 0.63 0.68 0.73
v -9.8883083 -1.4904227 2.4000000 0.63 0.68 0.73
v -9.8392959 -1.7855689 2.4000000 0.63 0.68 0.73
v -9.7814760 -2.0791169 2.4000000 0.63 0.68 0.73
v -9.7149004 -2.3708038 2.4000000 0.63 0.68 0.73
v -9.6396286 -2.6603685 2.4000000 0.63 0.68 0.73
v -9.5557281 -2.9475517 2.4000000 0.63 0.68 0.73
v -9.4632738 -3.2320966 2.4000000 0.63 0.68 0.73
v -9.3623487 -3.5137482 2.4000000 0.63 0.68 0.73
v -9.2530430 -3.7922546 2.4000000 0.63 0.68 0.73
v -9.1354546 -4.0673664 2.4000000 0.63 0.68 0.73
v -9.0096887 -4.3388374 2.4000000 0.63 0.68 0.73
v -8.8758579 -4.6064245 2.4000000 0.63 0.68 0.73
v -8.7340820 -4.8698882 2.4000000 0.63 0.68 0.73
v -8.5844879 -5.1289928 2.4000000 0.63 0.68 0.73
v -8.4272096 -5.3835062 2.4000000 0.63 0.68 0.73
v -8.2623877 -5.6332006 2.4000000 0.63 0.68 0.73
v -8.0901699 -5.8778525 2.4000000 0.63 0.68 0.73
v -7.9107103 -6.1172430 2.4000000 0.63 0.68 0.73
v -7.7241696 -6.3511577 2.4000000 0.63 0.68 0.73
v -7.5307147 -6.5793873 2.4000000 0.63 0.68 0.73
v -7.3305187 -6.8017274 2.4000000 0.63 0.68 0.73
v -7.1237610 -7.0179790 2.4000000 0.63 0.68 0.73
v -6.9106265 -7.2279486 2.4000000 0.63 0.68 0.73
v -6.6913061 -7.4314483 2.4000000 0.63 0.68 0.73
v -6.4659960 -7.6282957 2.4000000 0.63 0.68 0.73
v -6.2348980 -7.8183148 2.4000000 0.63 0.68 0.73
v -5.9982189 -8.0013355 2.4000000 0.63 0.68 0.73
v -5.7561707 -8.1771939 2.4000000 0.63 0.68 0.73
v -5.5089698 -8.3457325 2.4000000 0.63 0.68 0.73
v -5.2568377 -8.5068007 2.4000000 0.63 0.68 0.73
v -5.0000000 -8.6602540 2.4000000 0.63 0.68 0.73
v -4.7386866 -8.8059553 2.4000000 0.63 0.68 0.73
v -4.4731315 -8.9437741 2.4000000 0.63 0.68 0.73
v -4.2035723 -9.0735869 2.4000000 0.63 0.68 0.73
v -3.9302503 -9.1952777 2.4000000 0.63 0.68 0.73
v -3.6534102 -9.3087375 2.4000000 0.63 0.68 0.73
v -3.3732999 -9.4138647 2.4000000 0.63 0.68 0.73
v -3.0901699 -9.5105652 2.4000000 0.63 0.68 0.73
v -2.8042739 -9.5987524 2.4000000 0.63 0.68 0.73
v -2.5158676 -9.6783475 2.4000000 0.63 0.68 0.73
v -2.2252093 -9.7492791 2.4000000 0.63 0.68 0.73
v -1.9325592 -9.8114838 2.4000000 0.63 0.68 0.73
v -1.6381791 -9.8649059 2.4000000 0.63 0.68 0.73
v -1.3423327 -9.9094976 2.4000000 0.63 0.68 0.73
v -1.0452846 -9.9452190 2.4000000 0.63 0.68 0.73
v -0.7473009 -9.9720380 2.4000000 0.63 0.68 0.73
v -0.4486483 -9.9899307 2.4000000 0.63 0.68 0.73
v -0.1495941 -9.9988810 2.4000000 0.63 0.68 0.73
v 0.1495941 -9.9988810 2.4000000 0.63 0.68 0.73
v 0.4486483 -9.9899307 2.4000000 0.63 0.68 0.73
v 0.7473009 -9.9720380 2.4000000 0.63 0.68 0.73
v 1.0452846 -9.9452190 2.4000000 0.63 0.68 0.73
v 1.3423327 -9.9094976 2.4000000 0.63 0.68 0.73
v 1.6381791 -9.8649059 2.4000000 0.63 0.68 0.73
v 1.9325592 -9.8114838 2.4000000 0.63 0.68 0.73
v 2.2252093 -9.7492791 2.4000000 0.63 0.68 0.73
v 2.5158676 -9.6783475 2.4000000 0.63 0.68 0.73
v 2.8042739 -9.5987524 2.4000000 0.63 0.68 0.73
v 3.0901699 -9.5105652 2.4000000 0.63 0.68 0.73
v 3.3732999 -9.4138647 2.4000000 0.63 0.68 0.73
v 3.6534102 -9.3087375 2.4000000 0.63 0.68 0.73
v 3.9302503 -9.1952777 2.4000000 0.63 0.68 0.73
v 4.2035723 -9.0735869 2.4000000 0.63 0.68 0.73
v 4.4731315 -8.9437741 2.4000000 0.63 0.68 0.73
v 4.7386866 -8.8059553 2.4000000 0.63 0.68 0.73
v 5.0000000 -8.6602540 2.4000000 0.63 0.68 0.73
v 5.2568377 -8.5068007 2.4000000 0.63 0.68 0.73
v 5.5089698 -8.3457325 2.4000000 0.63 0.68 0.73
v 5.7561707 -8.1771939 2.4000000 0.63 0.68 0.73
v 5.9982189 -8.0013355 2.4000000 0.63 0.68 0.73
v 6.2348980 -7.8183148 2.4000000 0.63 0.68 0.73
v 6.4659960 -7.6282957 2.4000000 0.63 0.68 0.73
v 6.6913061 -7.4314483 2.4000000 0.63 0.68 0.73
v 6.9106265 -7.2279486 2.4000000 0.63 0.68 0.73
v 7.1237610 -7.0179790 2.4000000 0.63 0.68 0.73
v 7.3305187 -6.8017274 2.4000000 0.63 0.68 0.73
v 7.5307147 -6.5793873 2.4000000 0.63 0.68 0.73
v 7.7241696 -6.3511577 2.4000000 0.63 0.68 0.73
v 7.9107103 -6.1172430 2.4000000 0.63 0.68 0.73
v 8.0901699 -5.8778525 2.4000000 0.63 0.68 0.73
v 8.2623877 -5.6332006 2.4000000 0.63 0.68 0.73
v 8.4272096 -5.3835062 2.4000000 0.63 0.68 0.73
v 8.5844879 -5.1289928 2.4000000 0.63 0.68 0.73
v 8.7340820 -4.8698882 2.4000000 0.63 0.68 0.73
v 8.8758579 -4.6064245 2.4000000 0.63 0.68 0.73
v 9.0096887 -4.3388374 2.4000000 0.63 0.68 0.73
v 9.1354546 -4.0673664 2.4000000 0.63 0.68 0.73
v 9.2530430 -3.7922546 2.4000000 0.63 0.68 0.73
v 9.3623487 -3.5137482 2.4000000 0.63 0.68 0.73
v 9.4632738 -3.2320966 2.4000000 0.63 0.68 0.73
v 9.5557281 -2.9475517 2.4000000 0.63 0.68 0.73
v 9.6396286 -2.6603685 2.4000000 0.63 0.68 0.73
v 9.7149004 -2.3708038 2.4000000 0.63 0.68 0.73
v 9.7814760 -2.0791169 2.4000000 0.63 0.68 0.73
v 9.8392959 -1.7855689 2.4000000 0.63 0.68 0.73
v 9.8883083 -1.4904227 2.4000000 0.63 0.68 0.73
v 9.9284693 -1.1939422 2.4000000 0.63 0.68 0.73
v 9.9597429 -0.8963931 2.4000000 0.63 0.68 0.73
v 9.9821013 -0.5980415 2.4000000 0.63 0.68 0.73
v 9.9955243 -0.2991547 2.4000000 0.63 0.68 0.73
v 10.0000000 0.0000000 5.6000000 0.63 0.68 0.73
v 9.9955243 0.2991547 5.6000000 0.63 0.68 0.73
v 9.9821013 0.5980415 5.6000000 0.63 0.68 0.73
v 9.9597429 0.8963931 5.6000000 0.63 0.68 0.73
v 9.9284693 1.1939422 5.6000000 0.63 0.68 0.73
v 9.8883083 1.4904227 5.6000000 0.63 0.68 0.73
v 9.8392959 1.7855689 5.6000000 0.63 0.68 0.73
v 9.7814760 2.0791169 5.6000000 0.63 0.68 0.73
v 9.7149004 2.3708038 5.6000000 0.63 0.68 0.73
v 9.6396286 2.6603685 5.6000000 0.63 0.68 0.73
v 9.5557281 2.9475517 5.6000000 0.63 0.68 0.73
v 9.4632738 3.2320966 5.6000000 0.63 0.68 0.73
v 9.3623487 3.5137482 5.6000000 0.63 0.68 0.73
v 9.2530430 3.7922546 5.6000000 0.63 0.68 0.73
v 9.1354546 4.0673664 5.6000000 0.63 0.68 0.73
v 9.0096887 4.3388374 5.6000000 0.63 0.68 0.73
v 8.8758579 4.6064245 5.6000000 0.63 0.68 0.73
v 8.7340820 4.8698882 5.6000000 0.63 0.68 0.73
v 8.5844879 5.1289928 5.6000000 0.63 0.68 0.73
v 8.4272096 5.3835062 5.6000000 0.63 0.68 0.73
v 8.2623877 5.6332006 5.6000000 0.63 0.68 0.73
v 8.0901699 5.8778525 5.6000000 0.63 0.68 0.73
v 7.9107103 6.1172430 5.6000000 0.63 0.68 0.73
v 7.7241696 6.3511577 5.6000000 0.63 0.68 0.73
v 7.5307147 6.5793873 5.6000000 0.63 0.68 0.73
v 7.3305187 6.8017274 5.6000000 0.63 0.68 0.73
v 7.1237610 7.0179790 5.6000000 0.63 0.68 0.73
v 6.9106265 7.2279486 5.6000000 0.63 0.68 0.73
v 6.6913061 7.4314483 5.6000000 0.63 0.68 0.73
v 6.4659960 7.6282957 5.6000000 0.63 0.68 0.73
v 6.2348980 7.8183148 5.6000000 0.63 0.68 0.73
v 5.9982189 8.0013355 5.6000000 0.63 0.68 0.73
v 5.7561707 8.1771939 5.6000000 0.63 0.68 0.73
v 5.5089698 8.3457325 5.6000000 0.63 0.68 0.73
v 5.2568377 8.5068007 5.6000000 0.63 0.68 0.73
v 5.0000000 8.6602540 5.6000000 0.63 0.68 0.73
v 4.7386866 8.8059553 5.6000000 0.63 0.68 0.73
v 4.4731315 8.9437741 5.6000000 0.63 0.68 0.73
v 4.2035723 9.0735869 5.6000000 0.63 0.68 0.73
v 3.9302503 9.1952777 5.6000000 0.63 0.68 0.73
v 3.6534102 9.3087375 5.6000000 0.63 0.68 0.73
v 3.3732999 9.4138647 5.6000000 0.63 0.68 0.73
v 3.0901699 9.5105652 5.6000000 0.63 0.68 0.73
v 2.8042739 9.5987524 5.6000000 0.63 0.68 0.73
v 2.5158676 9.6783475 5.6000000 0.63 0.68 0.73
v 2.2252093 9.7492791 5.6000000 0.63 0.68 0.73
v 1.9325592 9.8114838 5.6000000 0.63 0.68 0.73
v 1.6381791 9.8649059 5.6000000 0.63 0.68 0.73
v 1.3423327 9.9094976 5.6000000 0.63 0.68 0.73
v 1.0452846 9.9452190 5.6000000 0.63 0.68 0.73
v 0.7473009 9.9720380 5.6000000 0.63 0.68 0.73
v 0.4486483 9.9899307 5.6000000 0.63 0.68 0.73
v 0.1495941 9.9988810 5.6000000 0.63 0.68 0.73
v -0.1495941 9.9988810 5.6000000 0.63 0.68 0.73
v -0.4486483 9.9899307 5.6000000 0.63 0.68 0.73
v -0.7473009 9.9720380 5.6000000 0.63 0.68 0.73
v -1.0452846 9.9452190 5.6000000 0.63 0.68 0.73
v -1.3423327 9.9094976 5.6000000 0.63 0.68 0.73
v -1.6381791 9.8649059 5.6000000 0.63 0.68 0.73
v -1.9325592 9.8114838 5.6000000 0.63 0.68 0.73
v -2.2252093 9.7492791 5.6000000 0.63 0.68 0.73
v -2.5158676 9.6783475 5.6000000 0.63 0.68 0.73
v -2.8042739 9.5987524 5.6000000 0.63 0.68 0.73
v -3.0901699 9.5105652 5.6000000 0.63 0.68 0.73
v -3.3732999 9.4138647 5.6000000 0.63 0.68 0.73
v -3.6534102 9.3087375 5.6000000 0.63 0.68 0.73
v -3.9302503 9.1952777 5.6000000 0.63 0.68 0.73
v -4.2035723 9.0735869 5.6000000 0.63 0.68 0.73
v -4.4731315 8.9437741 5.6000000 0.63 0.68 0.73
v -4.7386866 8.8059553 5.6000000 0.63 0.68 0.73
v -5.0000000 8.6602540 5.6000000 0.63 0.68 0.73
v -5.2568377 8.5068007 5.6000000 0.63 0.68 0.73
v -5.5089698 8.3457325 5.6000000 0.63 0.68 0.73
v -5.7561707 8.1771939 5.6000000 0.63 0.68 0.73
v -5.9982189 8.0013355 5.6000000 0.63 0.68 0.73
v -6.2348980 7.8183148 5.6000000 0.63 0.68 0.73
v -6.4659960 7.6282957 5.6000000 0.63 0.68 0.73
v -6.6913061 7.4314483 5.6000000 0.63 0.68 0.73
v -6.9106265 7.2279486 5.6000000 0.63 0.68 0.73
v -7.1237610 7.0179790 5.6000000 0.63 0.68 0.73
v -7.3305187 6.8017274 5.6000000 0.63 0.68 0.73
v -7.5307147 6.5793873 5.6000000 0.63 0.68 0.73
v -7.7241696 6.3511577 5.6000000 0.63 0.68 0.73
v -7.9107103 6.1172430 5.6000000 0.63 0.68 0.73
v -8.0901699 5.8778525 5.6000000 0.63 0.68 0.73
v -8.2623877 5.6332006 5.6000000 0.63 0.68 0.73
v -8.4272096 5.3835062 5.6000000 0.63 0.68 0.73
v -8.5844879 5.1289928 5.6000000 0.63 0.68 0.73
v -8.7340820 4.8698882 5.6000000 0.63 0.68 0.73
v -8.8758579 4.6064245 5.6000000 0.63 0.68 0.73
v -9.0096887 4.3388374 5.6000000 0.63 0.68 0.73
v -9.1354546 4.0673664 5.6000000 0.63 0.68 0.73
v -9.2530430 3.7922546 5.6000000 0.63 0.68 0.73
v -9.3623487 3.5137482 5.6000000 0.63 0.68 0.73
v -9.4632738 3.2320966 5.6000000 0.63 0.68 0.73
v -9.5557281 2.9475517 5.6000000 0.63 0.68 0.73
v -9.6396286 2.6603685 5.6000000 0.63 0.68 0.73
v -9.7149004 2.3708038 5.6000000 0.63 0.68 0.73
v -9.7814760 2.0791169 5.6000000 0.63 0.68 0.73
v -9.8392959 1.7855689 5.6000000 0.63 0.68 0.73
v -9.8883083 1.4904227 5.6000000 0.63 0.68 0.73
v -9.9284693 1.1939422 5.6000000 0.63 0.68 0.73
v -9.9597429 0.8963931 5.6000000 0.63 0.68 0.73
v -9.9821013 0.5980415 5.6000000 0.63 0.68 0.73
v -9.9955243 0.2991547 5.6000000 0.63 0.68 0.73
v -10.0000000 0.0000000 5.6000000 0.63 0.68 0.73
v -9.9955243 -0.2991547 5.6000000 0.63 0.68 0.73
v -9.9821013 -0.5980415 5.6000000 0.63 0.68 0.73
v -9.9597429 -0.8963931 5.6000000 0.63 0.68 0.73
v -9.9284693 -1.1939422 5.6000000 0.63 0.68 0.73
v -9.8883083 -1.4904227 5.6000000 0.63 0.68 0.73
v -9.8392959 -1.7855689 5.6000000 0.63 0.68 0.73
v -9.7814760 -2.0791169 5.6000000 0.63 0.68 0.73
v -9.7149004 -2.3708038 5.6000000 0.63 0.68 0.73
v -9.6396286 -2.6603685 5.6000000 0.63 0.68 0.73
v -9.5557281 -2.9475517 5.6000000 0.63 0.68 0.73
v -9.4632738 -3.2320966 5.6000000 0.63 0.68 0.73
v -9.3623487 -3.5137482 5.6000000 0.63 0.68 0.73
v -9.2530430 -3.7922546 5.6000000 0.63 0.68 0.73
v -9.1354546 -4.0673664 5.6000000 0.63 0.68 0.73
v -9.0096887 -4.3388374 5.6000000 0.63 0.68 0.73
v -8.8758579 -4.6064245 5.6000000 0.63 0.68 0.73
v -8.7340820 -4.8698882 5.6000000 0.63 0.68 0.73
v -8.5844879 -5.1289928 5.6000000 0.63 0.68 0.73
v -8.4272096 -5.3835062 5.6000000 0.63 0.68 0.73
v -8.2623877 -5.6332006 5.6000000 0.63 0.68 0.73
v -8.0901699 -5.8778525 5.6000000 0.63 0.68 0.73
v -7.9107103 -6.1172430 5.6000000 0.63 0.68 0.73
v -7.7241696 -6.3511577 5.6000000 0.63 0.68 0.73
v -7.5307147 -6.5793873 5.6000000 0.63 0.68 0.73
v -7.3305187 -6.8017274 5.6000000 0.63 0.68 0.73
v -7.1237610 -7.0179790 5.6000000 0.63 0.68 0.73
v -6.9106265 -7.2279486 5.6000000 0.63 0.68 0.73
v -6.6913061 -7.4314483 5.6000000 0.63 0.68 0.73
v -6.4659960 -7.6282957 5.6000000 0.63 0.68 0.73
v -6.2348980 -7.8183148 5.6000000 0.63 0.68 0.73
v -5.9982189 -8.0013355 5.6000000 0.63 0.68 0.73
v -5.7561707 -8.1771939 5.6000000 0.63 0.68 0.73
v -5.5089698 -8.3457325 5.6000000 0.63 0.68 0.73
v -5.2568377 -8.5068007 5.6000000 0.63 0.68 0.73
v -5.0000000 -8.6602540 5.6000000 0.63 0.68 0.73
v -4.7386866 -8.8059553 5.6000000 0.63 0.68 0.73
v -4.4731315 -8.9437741 5.6000000 0.63 0.68 0.73
v -4.2035723 -9.0735869 5.6000000 0.63 0.68 0.73
v -3.9302503 -9.1952777 5.6000000 0.63 0.68 0.73
v -3.6534102 -9.3087375 5.6000000 0.63 0.68 0.73
v -3.3732999 -9.4138647 5.6000000 0.63 0.68 0.73
v -3.0901699 -9.5105652 5.6000000 0.63 0.68 0.73
v -2.8042739 -9.5987524 5.6000000 0.63 0.68 0.73
v -2.5158676 -9.6783475 5.6000000 0.63 0.68 0.73
v -2.2252093 -9.7492791 5.6000000 0.63 0.68 0.73
v -1.9325592 -9.8114838 5.6000000 0.63 0.68 0.73
v -1.6381791 -9.8649059 5.6000000 0.63 0.68 0.73
v -1.3423327 -9.9094976 5.6000000 0.63 0.68 0.73
v -1.0452846 -9.9452190 5.6000000 0.63 0.68 0.73
v -0.7473009 -9.9720380 5.6000000 0.63 0.68 0.73
v -0.4486483 -9.9899307 5.6000000 0.63 0.68 0.73
v -0.1495941 -9.9988810 5.6000000 0.63 0.68 0.73
v 0.1495941 -9.9988810 5.6000000 0.63 0.68 0.73
v 0.4486483 -9.9899307 5.6000000 0.63 0.68 0.73
v 0.7473009 -9.9720380 5.6000000 0.63 0.68 0.73
v 1.0452846 -9.9452190 5.6000000 0.63 0.68 0.73
v 1.3423327 -9.9094976 5.6000000 0.63 0.68 0.73
v 1.6381791 -9.8649059 5.6000000 0.63 0.68 0.73
v 1.9325592 -9.8114838 5.6000000 0.63 0.68 0.73
v 2.2252093 -9.7492791 5.6000000 0.63 0.68 0.73
v 2.5158676 -9.6783475 5.6000000 0.63 0.68 0.73
v 2.8042739 -9.5987524 5.6000000 0.63 0.68 0.73
v 3.0901699 -9.5105652 5.6000000 0.63 0.68 0.73
v 3.3732999 -9.4138647 5.6000000 0.63 0.68 0.73
v 3.6534102 -9.3087375 5.6000000 0.63 0.68 0.73
v 3.9302503 -9.1952777 5.6000000 0.63 0.68 0.73
v 4.2035723 -9.0735869 5.6000000 0.63 0.68 0.73
v 4.4731315 -8.9437741 5.6000000 0.63 0.68 0.73
v 4.7386866 -8.8059553 5.6000000 0.63 0.68 0.73
v 5.0000000 -8.6602540 5.6000000 0.63 0.68 0.73
v 5.2568377 -8.5068007 5.6000000 0.63 0.68 0.73
v 5.5089698 -8.3457325 5.6000000 0.63 0.68 0.73
v 5.7561707 -8.1771939 5.6000000 0.63 0.68 0.73
v 5.9982189 -8.0013355 5.6000000 0.63 0.68 0.73
v 6.2348980 -7.8183148 5.6000000 0.63 0.68 0.73
v 6.4659960 -7.6282957 5.6000000 0.63 0.68 0.73
v 6.6913061 -7.4314483 5.6000000 0.63 0.68 0.73
v 6.9106265 -7.2279486 5.6000000 0.63 0.68 0.73
v 7.1237610 -7.0179790 5.6000000 0.63 0.68 0.73
v 7.3305187 -6.8017274 5.6000000 0.63 0.68 0.73
v 7.5307147 -6.5793873 5.6000000 0.63 0.68 0.73
v 7.7241696 -6.3511577 5.6000000 0.63 0.68 0.73
v 7.9107103 -6.1172430 5.6000000 0.63 0.68 0.73
v 8.0901699 -5.8778525 5.6000000 0.63 0.68 0.73
v 8.2623877 -5.6332006 5.6000000 0.63 0.68 0.73
v 8.4272096 -5.3835062 5.6000000 0.63 0.68 0.73
v 8.5844879 -5.1289928 5.6000000 0.63 0.68 0.73
v 8.7340820 -4.8698882 5.6000000 0.63 0.68 0.73
v 8.8758579 -4.6064245 5.6000000 0.63 0.68 0.73
v 9.0096887 -4.3388374 5.6000000 0.63 0.68 0.73
v 9.1354546 -4.0673664 5.6000000 0.63 0.68 0.73
v 9.2530430 -3.7922546 5.6000000 0.63 0.68 0.73
v 9.3623487 -3.5137482 5.6000000 0.63 0.68 0.73
v 9.4632738 -3.2320966 5.6000000 0.63 0.68 0.73
v 9.5557281 -2.9475517 5.6000000 0.63 0.68 0.73
v 9.6396286 -2.6603685 5.6000000 0.63 0.68 0.73
v 9.7149004 -2.3708038 5.6000000 0.63 0.68 0.73
v 9.7814760 -2.0791169 5.6000000 0.63 0.68 0.73
v 9.8392959 -1.7855689 5.6000000 0.63 0.68 0.73
v 9.8883083 -1.4904227 5.6000000 0.63 0.68 0.73
v 9.9284693 -1.1939422 5.6000000 0.63 0.68 0.73
v 9.9597429 -0.8963931 5.6000000 0.63 0.68 0.73
v 9.9821013 -0.5980415 5.6000000 0.63 0.68 0.73
v 9.9955243 -0.2991547 5.6000000 0.63 0.68 0.73
usemtl CR2032
s off
f 214 2 1
f 214 3 2
f 215 4 3
f 215 5 4
f 215 3 214
f 216 5 215
f 217 6 5
f 217 5 216
f 218 7 6
f 218 6 217
f 219 8 7
f 219 7 218
f 220 9 8
f 220 10 9
f 220 8 219
f 221 10 220
f 222 11 10
f 222 12 11
f 222 10 221
f 223 13 12
f 223 12 222
f 224 13 223
f 225 14 13
f 225 13 224
f 226 15 14
f 226 14 225
f 227 16 15
f 227 15 226
f 228 17 16
f 228 16 227
f 229 18 17
f 229 17 228
f 230 19 18
f 230 18 229
f 231 20 19
f 231 21 20
f 231 19 230
f 232 21 231
f 233 21 232
f 233 22 21
f 233 23 22
f 234 23 233
f 235 23 234
f 235 24 23
f 236 24 235
f 236 25 24
f 236 26 25
f 237 26 236
f 238 26 237
f 238 27 26
f 238 28 27
f 239 29 28
f 239 28 238
f 240 30 29
f 240 29 239
f 241 30 240
f 242 31 30
f 242 30 241
f 243 32 31
f 243 33 32
f 243 31 242
f 244 34 33
f 244 33 243
f 245 34 244
f 246 35 34
f 246 34 245
f 247 36 35
f 247 35 246
f 248 37 36
f 248 38 37
f 248 36 247
f 249 38 248
f 250 39 38
f 250 40 39
f 250 38 249
f 251 41 40
f 251 40 250
f 252 41 251
f 253 42 41
f 253 43 42
f 253 41 252
f 254 43 253
f 255 44 43
f 255 43 254
f 256 45 44
f 256 44 255
f 257 46 45
f 257 47 46
f 257 45 256
f 258 47 257
f 259 47 258
f 259 48 47
f 260 48 259
f 260 49 48
f 261 49 260
f 261 50 49
f 262 50 261
f 262 51 50
f 263 51 262
f 263 52 51
f 264 52 263
f 264 53 52
f 265 53 264
f 265 54 53
f 266 54 265
f 266 55 54
f 267 55 266
f 267 56 55
f 268 56 267
f 268 57 56
f 269 57 268
f 269 58 57
f 269 59 58
f 270 59 269
f 271 59 270
f 271 60 59
f 272 60 271
f 272 61 60
f 272 62 61
f 273 62 272
f 274 63 62
f 274 62 273
f 275 64 63
f 275 65 64
f 275 63 274
f 276 65 275
f 277 66 65
f 277 67 66
f 277 65 276
f 278 67 277
f 279 68 67
f 279 67 278
f 280 69 68
f 280 68 279
f 281 70 69
f 281 71 70
f 281 69 280
f 282 71 281
f 283 71 282
f 283 72 71
f 283 73 72
f 284 73 283
f 285 73 284
f 285 74 73
f 286 74 285
f 286 75 74
f 286 76 75
f 287 76 286
f 288 76 287
f 288 77 76
f 289 77 288
f 289 78 77
f 290 78 289
f 290 79 78
f 291 79 290
f 291 80 79
f 291 81 80
f 292 81 291
f 292 82 81
f 293 82 292
f 294 82 293
f 294 83 82
f 295 83 294
f 295 84 83
f 296 84 295
f 296 85 84
f 297 85 296
f 297 86 85
f 298 86 297
f 298 87 86
f 299 87 298
f 299 88 87
f 300 88 299
f 300 89 88
f 301 89 300
f 301 90 89
f 302 90 301
f 302 91 90
f 303 91 302
f 303 92 91
f 304 92 303
f 304 93 92
f 305 93 304
f 305 94 93
f 306 95 94
f 306 94 305
f 307 96 95
f 307 95 306
f 308 97 96
f 308 96 307
f 309 97 308
f 309 98 97
f 310 98 309
f 310 99 98
f 311 99 310
f 311 100 99
f 312 100 311
f 312 101 100
f 313 102 101
f 313 101 312
f 314 103 102
f 314 102 313
f 315 104 103
f 315 103 314
f 316 105 104
f 316 104 315
f 317 106 105
f 317 105 316
f 318 107 106
f 318 106 317
f 319 108 107
f 319 107 318
f 320 109 108
f 320 108 319
f 321 110 109
f 321 109 320
f 322 111 110
f 322 110 321
f 323 112 111
f 323 111 322
f 324 113 112
f 324 112 323
f 325 114 113
f 325 113 324
f 326 115 114
f 326 114 325
f 327 116 115
f 327 115 326
f 328 117 116
f 328 116 327
f 329 118 117
f 329 117 328
f 330 119 118
f 330 120 119
f 330 118 329
f 331 120 330
f 332 121 120
f 332 122 121
f 332 120 331
f 333 123 122
f 333 122 332
f 334 123 333
f 335 123 334
f 335 124 123
f 335 125 124
f 336 125 335
f 337 125 336
f 337 126 125
f 337 127 126
f 338 127 337
f 339 127 338
f 339 128 127
f 339 129 128
f 340 129 339
f 341 130 129
f 341 131 130
f 341 129 340
f 342 131 341
f 343 132 131
f 343 133 132
f 343 131 342
f 344 133 343
f 345 134 133
f 345 133 344
f 346 135 134
f 346 134 345
f 347 136 135
f 347 135 346
f 348 137 136
f 348 136 347
f 349 138 137
f 349 139 138
f 349 137 348
f 350 139 349
f 351 140 139
f 351 141 140
f 351 139 350
f 352 142 141
f 352 141 351
f 353 142 352
f 354 143 142
f 354 142 353
f 355 144 143
f 355 145 144
f 355 143 354
f 356 145 355
f 357 146 145
f 357 145 356
f 358 147 146
f 358 148 147
f 358 146 357
f 359 148 358
f 360 148 359
f 360 149 148
f 361 149 360
f 361 150 149
f 361 151 150
f 362 151 361
f 363 151 362
f 363 152 151
f 364 152 363
f 364 153 152
f 364 154 153
f 365 154 364
f 366 154 365
f 366 155 154
f 367 155 366
f 367 156 155
f 367 157 156
f 368 157 367
f 369 157 368
f 369 158 157
f 369 159 158
f 370 159 369
f 370 160 159
f 371 160 370
f 371 161 160
f 372 161 371
f 373 161 372
f 373 162 161
f 373 163 162
f 374 163 373
f 375 163 374
f 375 164 163
f 376 165 164
f 376 164 375
f 377 166 165
f 377 165 376
f 378 167 166
f 378 166 377
f 379 168 167
f 379 167 378
f 380 169 168
f 380 168 379
f 381 170 169
f 381 169 380
f 382 171 170
f 382 170 381
f 383 172 171
f 383 173 172
f 383 171 382
f 384 173 383
f 385 173 384
f 385 174 173
f 386 174 385
f 386 175 174
f 387 175 386
f 387 176 175
f 388 176 387
f 388 177 176
f 389 177 388
f 389 178 177
f 390 178 389
f 390 179 178
f 391 179 390
f 391 180 179
f 392 180 391
f 392 181 180
f 393 181 392
f 393 182 181
f 394 182 393
f 394 183 182
f 395 183 394
f 395 184 183
f 396 184 395
f 396 185 184
f 397 185 396
f 397 186 185
f 398 186 397
f 398 187 186
f 398 188 187
f 399 188 398
f 400 188 399
f 400 189 188
f 400 190 189
f 401 190 400
f 402 190 401
f 402 191 190
f 402 192 191
f 403 192 402
f 404 192 403
f 404 193 192
f 405 193 404
f 405 194 193
f 406 194 405
f 406 195 194
f 406 196 195
f 407 196 406
f 408 196 407
f 408 197 196
f 409 198 197
f 409 197 408
f 410 198 409
f 410 199 198
f 411 199 410
f 411 200 199
f 412 200 411
f 412 201 200
f 412 202 201
f 413 202 412
f 414 203 202
f 414 202 413
f 415 204 203
f 415 203 414
f 416 205 204
f 416 204 415
f 417 206 205
f 417 205 416
f 418 207 206
f 418 208 207
f 418 206 417
f 419 208 418
f 420 209 208
f 420 208 419
f 421 210 209
f 421 209 420
f 422 211 210
f 422 210 421
f 213 212 211
f 213 211 422
f 557 554 553
f 557 555 554
f 557 556 555
f 551 553 552
f 559 558 557
f 548 550 549
f 548 551 550
f 563 562 561
f 545 547 546
f 545 548 547
f 565 564 563
f 566 563 561
f 566 565 563
f 542 544 543
f 542 557 553
f 542 545 544
f 542 553 551
f 542 559 557
f 542 551 548
f 542 548 545
f 568 567 566
f 570 559 542
f 570 560 559
f 570 561 560
f 570 569 568
f 570 566 561
f 570 568 566
f 538 540 539
f 538 541 540
f 537 542 541
f 537 541 538
f 573 571 570
f 573 572 571
f 573 570 542
f 533 535 534
f 533 536 535
f 533 537 536
f 531 533 532
f 578 577 576
f 530 533 531
f 530 542 537
f 530 537 533
f 579 578 576
f 527 529 528
f 527 530 529
f 583 582 581
f 585 584 583
f 523 525 524
f 523 526 525
f 523 527 526
f 587 585 583
f 587 586 585
f 519 527 523
f 519 521 520
f 519 522 521
f 519 523 522
f 590 579 576
f 590 583 581
f 590 587 583
f 590 580 579
f 590 581 580
f 590 588 587
f 590 589 588
f 591 590 576
f 591 574 573
f 591 575 574
f 591 576 575
f 517 519 518
f 593 591 573
f 593 592 591
f 514 542 530
f 514 530 527
f 514 527 519
f 514 519 517
f 514 593 573
f 514 573 542
f 514 516 515
f 514 517 516
f 595 594 593
f 597 596 595
f 597 595 593
f 598 597 593
f 599 598 593
f 509 511 510
f 508 512 511
f 508 513 512
f 508 511 509
f 508 514 513
f 601 600 599
f 507 514 508
f 602 601 599
f 506 593 514
f 506 514 507
f 603 602 599
f 504 506 505
f 605 604 603
f 606 605 603
f 606 603 599
f 607 606 599
f 501 506 504
f 501 503 502
f 501 504 503
f 500 593 506
f 500 506 501
f 609 607 599
f 609 608 607
f 611 609 599
f 611 599 593
f 611 610 609
f 497 499 498
f 615 612 611
f 615 613 612
f 615 614 613
f 493 495 494
f 493 496 495
f 493 497 496
f 616 615 611
f 619 593 500
f 619 611 593
f 619 616 611
f 619 499 497
f 619 497 493
f 619 500 499
f 619 617 616
f 619 618 617
f 489 491 490
f 489 492 491
f 489 493 492
f 486 488 487
f 486 489 488
f 485 493 489
f 485 489 486
f 624 621 620
f 624 622 621
f 624 623 622
f 481 483 482
f 480 484 483
f 480 485 484
f 480 483 481
f 629 625 624
f 629 626 625
f 629 627 626
f 629 628 627
f 629 624 620
f 629 620 619
f 630 629 619
f 477 479 478
f 477 480 479
f 475 480 477
f 475 477 476
f 424 631 630
f 424 632 631
f 424 423 632
f 424 630 619
f 473 475 474
f 426 425 424
f 471 480 475
f 471 475 473
f 471 473 472
f 428 427 426
f 428 426 424
f 429 428 424
f 468 485 480
f 468 480 471
f 468 470 469
f 468 471 470
f 468 493 485
f 431 430 429
f 432 429 424
f 432 431 429
f 465 467 466
f 434 433 432
f 435 432 424
f 435 434 432
f 437 436 435
f 437 435 424
f 461 463 462
f 461 464 463
f 461 465 464
f 439 424 619
f 439 438 437
f 439 493 468
f 439 619 493
f 439 437 424
f 459 461 460
f 459 468 467
f 459 467 465
f 459 465 461
f 457 468 459
f 457 459 458
f 443 442 441
f 455 457 456
f 455 468 457
f 444 440 439
f 444 441 440
f 444 443 441
f 453 468 455
f 453 455 454
f 446 444 439
f 446 445 444
f 448 446 439
f 448 447 446
f 450 452 451
f 450 453 452
f 449 468 453
f 449 448 439
f 449 453 450
f 449 439 468
f 767 763 764
f 767 764 765
f 767 765 766
f 761 762 763
f 769 767 768
f 758 759 760
f 758 760 761
f 773 771 772
f 755 756 757
f 755 757 758
f 775 773 774
f 776 771 773
f 776 773 775
f 752 753 754
f 752 763 767
f 752 754 755
f 752 761 763
f 752 767 769
f 752 758 761
f 752 755 758
f 778 776 777
f 780 752 769
f 780 769 770
f 780 770 771
f 780 778 779
f 780 771 776
f 780 776 778
f 748 749 750
f 748 750 751
f 747 751 752
f 747 748 751
f 783 780 781
f 783 781 782
f 783 752 780
f 743 744 745
f 743 745 746
f 743 746 747
f 741 742 743
f 788 786 787
f 740 741 743
f 740 747 752
f 740 743 747
f 789 786 788
f 737 738 739
f 737 739 740
f 793 791 792
f 795 793 794
f 733 734 735
f 733 735 736
f 733 736 737
f 797 793 795
f 797 795 796
f 729 733 737
f 729 730 731
f 729 731 732
f 729 732 733
f 800 786 789
f 800 791 793
f 800 793 797
f 800 789 790
f 800 790 791
f 800 797 798
f 800 798 799
f 801 786 800
f 801 783 784
f 801 784 785
f 801 785 786
f 727 728 729
f 803 783 801
f 803 801 802
f 724 740 752
f 724 737 740
f 724 729 737
f 724 727 729
f 724 783 803
f 724 752 783
f 724 725 726
f 724 726 727
f 805 803 804
f 807 805 806
f 807 803 805
f 808 803 807
f 809 803 808
f 719 720 721
f 718 721 722
f 718 722 723
f 718 719 721
f 718 723 724
f 811 809 810
f 717 718 724
f 812 809 811
f 716 724 803
f 716 717 724
f 813 809 812
f 714 715 716
f 815 813 814
f 816 813 815
f 816 809 813
f 817 809 816
f 711 714 716
f 711 712 713
f 711 713 714
f 710 716 803
f 710 711 716
f 819 809 817
f 819 817 818
f 821 809 819
f 821 803 809
f 821 819 820
f 707 708 709
f 825 821 822
f 825 822 823
f 825 823 824
f 703 704 705
f 703 705 706
f 703 706 707
f 826 821 825
f 829 710 803
f 829 803 821
f 829 821 826
f 829 707 709
f 829 703 707
f 829 709 710
f 829 826 827
f 829 827 828
f 699 700 701
f 699 701 702
f 699 702 703
f 696 697 698
f 696 698 699
f 695 699 703
f 695 696 699
f 834 830 831
f 834 831 832
f 834 832 833
f 691 692 693
f 690 693 694
f 690 694 695
f 690 691 693
f 839 834 835
f 839 835 836
f 839 836 837
f 839 837 838
f 839 830 834
f 839 829 830
f 840 829 839
f 687 688 689
f 687 689 690
f 685 687 690
f 685 686 687
f 634 840 841
f 634 841 842
f 634 842 633
f 634 829 840
f 683 684 685
f 636 634 635
f 681 685 690
f 681 683 685
f 681 682 683
f 638 636 637
f 638 634 636
f 639 634 638
f 678 690 695
f 678 681 690
f 678 679 680
f 678 680 681
f 678 695 703
f 641 639 640
f 642 634 639
f 642 639 641
f 675 676 677
f 644 642 643
f 645 634 642
f 645 642 644
f 647 645 646
f 647 634 645
f 671 672 673
f 671 673 674
f 671 674 675
f 649 829 634
f 649 647 648
f 649 678 703
f 649 703 829
f 649 634 647
f 669 670 671
f 669 677 678
f 669 675 677
f 669 671 675
f 667 669 678
f 667 668 669
f 653 651 652
f 665 666 667
f 665 667 678
f 654 649 650
f 654 650 651
f 654 651 653
f 663 665 678
f 663 664 665
f 656 649 654
f 656 654 655
f 658 649 656
f 658 656 657
f 660 661 662
f 660 662 663
f 659 663 678
f 659 649 658
f 659 660 663
f 659 678 649
