# Assembly coordinates in millimetres, Z-up.
mtllib Encoder_Shim.mtl
o Encoder_Shim
v 2.5000000 0.0000000 11.9000000 0.6 0.6 0.6
v 2.5000000 0.0000000 12.1000000 0.6 0.6 0.6
v 2.4980235 0.0993913 12.1000000 0.6 0.6 0.6
v 2.4920971 0.1986254 12.1000000 0.6 0.6 0.6
v 2.4822302 0.2975455 12.1000000 0.6 0.6 0.6
v 2.4684384 0.3959951 12.1000000 0.6 0.6 0.6
v 2.4507434 0.4938185 12.1000000 0.6 0.6 0.6
v 2.4291734 0.5908611 12.1000000 0.6 0.6 0.6
v 2.4037623 0.6869694 12.1000000 0.6 0.6 0.6
v 2.3745503 0.7819915 12.1000000 0.6 0.6 0.6
v 2.3415837 0.8757771 12.1000000 0.6 0.6 0.6
v 2.3049146 0.9681779 12.1000000 0.6 0.6 0.6
v 2.2646010 1.0590479 12.1000000 0.6 0.6 0.6
v 2.2207065 1.1482432 12.1000000 0.6 0.6 0.6
v 2.1733007 1.2356230 12.1000000 0.6 0.6 0.6
v 2.1224584 1.3210489 12.1000000 0.6 0.6 0.6
v 2.0682601 1.4043861 12.1000000 0.6 0.6 0.6
v 2.0107914 1.4855026 12.1000000 0.6 0.6 0.6
v 1.9501433 1.5642702 12.1000000 0.6 0.6 0.6
v 1.8864116 1.6405644 12.1000000 0.6 0.6 0.6
v 1.8196970 1.7142645 12.1000000 0.6 0.6 0.6
v 1.7501052 1.7852540 12.1000000 0.6 0.6 0.6
v 1.6777461 1.8534207 12.1000000 0.6 0.6 0.6
v 1.6027341 1.9186567 12.1000000 0.6 0.6 0.6
v 1.5251879 1.9808589 12.1000000 0.6 0.6 0.6
v 1.4452300 2.0399290 12.1000000 0.6 0.6 0.6
v 1.3629869 2.0957735 12.1000000 0.6 0.6 0.6
v 1.2785887 2.1483042 12.1000000 0.6 0.6 0.6
v 1.1921688 2.1974380 12.1000000 0.6 0.6 0.6
v 1.1038637 2.2430972 12.1000000 0.6 0.6 0.6
v 1.0138133 2.2852095 12.1000000 0.6 0.6 0.6
v 0.9221598 2.3237085 12.1000000 0.6 0.6 0.6
v 0.8290482 2.3585332 12.1000000 0.6 0.6 0.6
v 0.7346257 2.3896287 12.1000000 0.6 0.6 0.6
v 0.6390416 2.4169456 12.1000000 0.6 0.6 0.6
v 0.5424470 2.4404408 12.1000000 0.6 0.6 0.6
v 0.4449947 2.4600772 12.1000000 0.6 0.6 0.6
v 0.3468388 2.4758237 12.1000000 0.6 0.6 0.6
v 0.2481345 2.4876554 12.1000000 0.6 0.6 0.6
v 0.1490378 2.4955536 12.1000000 0.6 0.6 0.6
v 0.0497055 2.4995058 12.1000000 0.6 0.6 0.6
v -0.0497055 2.4995058 12.1000000 0.6 0.6 0.6
v -0.1490378 2.4955536 12.1000000 0.6 0.6 0.6
v -0.2481345 2.4876554 12.1000000 0.6 0.6 0.6
v -0.3468388 2.4758237 12.1000000 0.6 0.6 0.6
v -0.4449947 2.4600772 12.1000000 0.6 0.6 0.6
v -0.5424470 2.4404408 12.1000000 0.6 0.6 0.6
v -0.6390416 2.4169456 12.1000000 0.6 0.6 0.6
v -0.7346257 2.3896287 12.1000000 0.6 0.6 0.6
v -0.8290482 2.3585332 12.1000000 0.6 0.6 0.6
v -0.9221598 2.3237085 12.1000000 0.6 0.6 0.6
v -1.0138133 2.2852095 12.1000000 0.6 0.6 0.6
v -1.1038637 2.2430972 12.1000000 0.6 0.6 0.6
v -1.1921688 2.1974380 12.1000000 0.6 0.6 0.6
v -1.2785887 2.1483042 12.1000000 0.6 0.6 0.6
v -1.3629869 2.0957735 12.1000000 0.6 0.6 0.6
v -1.4452300 2.0399290 12.1000000 0.6 0.6 0.6
v -1.5251879 1.9808589 12.1000000 0.6 0.6 0.6
v -1.6027341 1.9186567 12.1000000 0.6 0.6 0.6
v -1.6777461 1.8534207 12.1000000 0.6 0.6 0.6
v -1.7501052 1.7852540 12.1000000 0.6 0.6 0.6
v -1.8196970 1.7142645 12.1000000 0.6 0.6 0.6
v -1.8864116 1.6405644 12.1000000 0.6 0.6 0.6
v -1.9501433 1.5642702 12.1000000 0.6 0.6 0.6
v -2.0107914 1.4855026 12.1000000 0.6 0.6 0.6
v -2.0682601 1.4043861 12.1000000 0.6 0.6 0.6
v -2.1224584 1.3210489 12.1000000 0.6 0.6 0.6
v -2.1733007 1.2356230 12.1000000 0.6 0.6 0.6
v -2.2207065 1.1482432 12.1000000 0.6 0.6 0.6
v -2.2646010 1.0590479 12.1000000 0.6 0.6 0.6
v -2.3049146 0.9681779 12.1000000 0.6 0.6 0.6
v -2.3415837 0.8757771 12.1000000 0.6 0.6 0.6
v -2.3745503 0.7819915 12.1000000 0.6 0.6 0.6
v -2.4037623 0.6869694 12.1000000 0.6 0.6 0.6
v -2.4291734 0.5908611 12.1000000 0.6 0.6 0.6
v -2.4507434 0.4938185 12.1000000 0.6 0.6 0.6
v -2.4684384 0.3959951 12.1000000 0.6 0.6 0.6
v -2.4822302 0.2975455 12.1000000 0.6 0.6 0.6
v -2.4920971 0.1986254 12.1000000 0.6 0.6 0.6
v -2.4980235 0.0993913 12.1000000 0.6 0.6 0.6
v -2.5000000 -0.0000000 12.1000000 0.6 0.6 0.6
v -2.4980235 -0.0993913 12.1000000 0.6 0.6 0.6
v -2.4920971 -0.1986254 12.1000000 0.6 0.6 0.6
v -2.4822302 -0.2975455 12.1000000 0.6 0.6 0.6
v -2.4684384 -0.3959951 12.1000000 0.6 0.6 0.6
v -2.4507434 -0.4938185 12.1000000 0.6 0.6 0.6
v -2.4291734 -0.5908611 12.1000000 0.6 0.6 0.6
v -2.4037623 -0.6869694 12.1000000 0.6 0.6 0.6
v -2.3745503 -0.7819915 12.1000000 0.6 0.6 0.6
v -2.3415837 -0.8757771 12.1000000 0.6 0.6 0.6
v -2.3049146 -0.9681779 12.1000000 0.6 0.6 0.6
v -2.2646010 -1.0590479 12.1000000 0.6 0.6 0.6
v -2.2207065 -1.1482432 12.1000000 0.6 0.6 0.6
v -2.1733007 -1.2356230 12.1000000 0.6 0.6 0.6
v -2.1224584 -1.3210489 12.1000000 0.6 0.6 0.6
v -2.0682601 -1.4043861 12.1000000 0.6 0.6 0.6
v -2.0107914 -1.4855026 12.1000000 0.6 0.6 0.6
v -1.9501433 -1.5642702 12.1000000 0.6 0.6 0.6
v -1.8864116 -1.6405644 12.1000000 0.6 0.6 0.6
v -1.8196970 -1.7142645 12.1000000 0.6 0.6 0.6
v -1.7501052 -1.7852540 12.1000000 0.6 0.6 0.6
v -1.6777461 -1.8534207 12.1000000 0.6 0.6 0.6
v -1.6027341 -1.9186567 12.1000000 0.6 0.6 0.6
v -1.5251879 -1.9808589 12.1000000 0.6 0.6 0.6
v -1.4452300 -2.0399290 12.1000000 0.6 0.6 0.6
v -1.3629869 -2.0957735 12.1000000 0.6 0.6 0.6
v -1.2785887 -2.1483042 12.1000000 0.6 0.6 0.6
v -1.1921688 -2.1974380 12.1000000 0.6 0.6 0.6
v -1.1038637 -2.2430972 12.1000000 0.6 0.6 0.6
v -1.0138133 -2.2852095 12.1000000 0.6 0.6 0.6
v -0.9221598 -2.3237085 12.1000000 0.6 0.6 0.6
v -0.8290482 -2.3585332 12.1000000 0.6 0.6 0.6
v -0.7346257 -2.3896287 12.1000000 0.6 0.6 0.6
v -0.6390416 -2.4169456 12.1000000 0.6 0.6 0.6
v -0.5424470 -2.4404408 12.1000000 0.6 0.6 0.6
v -0.4449947 -2.4600772 12.1000000 0.6 0.6 0.6
v -0.3468388 -2.4758237 12.1000000 0.6 0.6 0.6
v -0.2481345 -2.4876554 12.1000000 0.6 0.6 0.6
v -0.1490378 -2.4955536 12.1000000 0.6 0.6 0.6
v -0.0497055 -2.4995058 12.1000000 0.6 0.6 0.6
v 0.0497055 -2.4995058 12.1000000 0.6 0.6 0.6
v 0.1490378 -2.4955536 12.1000000 0.6 0.6 0.6
v 0.2481345 -2.4876554 12.1000000 0.6 0.6 0.6
v 0.3468388 -2.4758237 12.1000000 0.6 0.6 0.6
v 0.4449947 -2.4600772 12.1000000 0.6 0.6 0.6
v 0.5424470 -2.4404408 12.1000000 0.6 0.6 0.6
v 0.6390416 -2.4169456 12.1000000 0.6 0.6 0.6
v 0.7346257 -2.3896287 12.1000000 0.6 0.6 0.6
v 0.8290482 -2.3585332 12.1000000 0.6 0.6 0.6
v 0.9221598 -2.3237085 12.1000000 0.6 0.6 0.6
v 1.0138133 -2.2852095 12.1000000 0.6 0.6 0.6
v 1.1038637 -2.2430972 12.1000000 0.6 0.6 0.6
v 1.1921688 -2.1974380 12.1000000 0.6 0.6 0.6
v 1.2785887 -2.1483042 12.1000000 0.6 0.6 0.6
v 1.3629869 -2.0957735 12.1000000 0.6 0.6 0.6
v 1.4452300 -2.0399290 12.1000000 0.6 0.6 0.6
v 1.5251879 -1.9808589 12.1000000 0.6 0.6 0.6
v 1.6027341 -1.9186567 12.1000000 0.6 0.6 0.6
v 1.6777461 -1.8534207 12.1000000 0.6 0.6 0.6
v 1.7501052 -1.7852540 12.1000000 0.6 0.6 0.6
v 1.8196970 -1.7142645 12.1000000 0.6 0.6 0.6
v 1.8864116 -1.6405644 12.1000000 0.6 0.6 0.6
v 1.9501433 -1.5642702 12.1000000 0.6 0.6 0.6
v 2.0107914 -1.4855026 12.1000000 0.6 0.6 0.6
v 2.0682601 -1.4043861 12.1000000 0.6 0.6 0.6
v 2.1224584 -1.3210489 12.1000000 0.6 0.6 0.6
v 2.1733007 -1.2356230 12.1000000 0.6 0.6 0.6
v 2.2207065 -1.1482432 12.1000000 0.6 0.6 0.6
v 2.2646010 -1.0590479 12.1000000 0.6 0.6 0.6
v 2.3049146 -0.9681779 12.1000000 0.6 0.6 0.6
v 2.3415837 -0.8757771 12.1000000 0.6 0.6 0.6
v 2.3745503 -0.7819915 12.1000000 0.6 0.6 0.6
v 2.4037623 -0.6869694 12.1000000 0.6 0.6 0.6
v 2.4291734 -0.5908611 12.1000000 0.6 0.6 0.6
v 2.4507434 -0.4938185 12.1000000 0.6 0.6 0.6
v 2.4684384 -0.3959951 12.1000000 0.6 0.6 0.6
v 2.4822302 -0.2975455 12.1000000 0.6 0.6 0.6
v 2.4920971 -0.1986254 12.1000000 0.6 0.6 0.6
v 2.4980235 -0.0993913 12.1000000 0.6 0.6 0.6
v 2.5000000 0.0000000 12.1000000 0.6 0.6 0.6
v 2.5000000 0.0000000 11.9000000 0.6 0.6 0.6
v 2.4980235 0.0993913 11.9000000 0.6 0.6 0.6
v 2.4920971 0.1986254 11.9000000 0.6 0.6 0.6
v 2.4822302 0.2975455 11.9000000 0.6 0.6 0.6
v 2.4684384 0.3959951 11.9000000 0.6 0.6 0.6
v 2.4507434 0.4938185 11.9000000 0.6 0.6 0.6
v 2.4291734 0.5908611 11.9000000 0.6 0.6 0.6
v 2.4037623 0.6869694 11.9000000 0.6 0.6 0.6
v 2.3745503 0.7819915 11.9000000 0.6 0.6 0.6
v 2.3415837 0.8757771 11.9000000 0.6 0.6 0.6
v 2.3049146 0.9681779 11.9000000 0.6 0.6 0.6
v 2.2646010 1.0590479 11.9000000 0.6 0.6 0.6
v 2.2207065 1.1482432 11.9000000 0.6 0.6 0.6
v 2.1733007 1.2356230 11.9000000 0.6 0.6 0.6
v 2.1224584 1.3210489 11.9000000 0.6 0.6 0.6
v 2.0682601 1.4043861 11.9000000 0.6 0.6 0.6
v 2.0107914 1.4855026 11.9000000 0.6 0.6 0.6
v 1.9501433 1.5642702 11.9000000 0.6 0.6 0.6
v 1.8864116 1.6405644 11.9000000 0.6 0.6 0.6
v 1.8196970 1.7142645 11.9000000 0.6 0.6 0.6
v 1.7501052 1.7852540 11.9000000 0.6 0.6 0.6
v 1.6777461 1.8534207 11.9000000 0.6 0.6 0.6
v 1.6027341 1.9186567 11.9000000 0.6 0.6 0.6
v 1.5251879 1.9808589 11.9000000 0.6 0.6 0.6
v 1.4452300 2.0399290 11.9000000 0.6 0.6 0.6
v 1.3629869 2.0957735 11.9000000 0.6 0.6 0.6
v 1.2785887 2.1483042 11.9000000 0.6 0.6 0.6
v 1.1921688 2.1974380 11.9000000 0.6 0.6 0.6
v 1.1038637 2.2430972 11.9000000 0.6 0.6 0.6
v 1.0138133 2.2852095 11.9000000 0.6 0.6 0.6
v 0.9221598 2.3237085 11.9000000 0.6 0.6 0.6
v 0.8290482 2.3585332 11.9000000 0.6 0.6 0.6
v 0.7346257 2.3896287 11.9000000 0.6 0.6 0.6
v 0.6390416 2.4169456 11.9000000 0.6 0.6 0.6
v 0.5424470 2.4404408 11.9000000 0.6 0.6 0.6
v 0.4449947 2.4600772 11.9000000 0.6 0.6 0.6
v 0.3468388 2.4758237 11.9000000 0.6 0.6 0.6
v 0.2481345 2.4876554 11.9000000 0.6 0.6 0.6
v 0.1490378 2.4955536 11.9000000 0.6 0.6 0.6
v 0.0497055 2.4995058 11.9000000 0.6 0.6 0.6
v -0.0497055 2.4995058 11.9000000 0.6 0.6 0.6
v -0.1490378 2.4955536 11.9000000 0.6 0.6 0.6
v -0.2481345 2.4876554 11.9000000 0.6 0.6 0.6
v -0.3468388 2.4758237 11.9000000 0.6 0.6 0.6
v -0.4449947 2.4600772 11.9000000 0.6 0.6 0.6
v -0.5424470 2.4404408 11.9000000 0.6 0.6 0.6
v -0.6390416 2.4169456 11.9000000 0.6 0.6 0.6
v -0.7346257 2.3896287 11.9000000 0.6 0.6 0.6
v -0.8290482 2.3585332 11.9000000 0.6 0.6 0.6
v -0.9221598 2.3237085 11.9000000 0.6 0.6 0.6
v -1.0138133 2.2852095 11.9000000 0.6 0.6 0.6
v -1.1038637 2.2430972 11.9000000 0.6 0.6 0.6
v -1.1921688 2.1974380 11.9000000 0.6 0.6 0.6
v -1.2785887 2.1483042 11.9000000 0.6 0.6 0.6
v -1.3629869 2.0957735 11.9000000 0.6 0.6 0.6
v -1.4452300 2.0399290 11.9000000 0.6 0.6 0.6
v -1.5251879 1.9808589 11.9000000 0.6 0.6 0.6
v -1.6027341 1.9186567 11.9000000 0.6 0.6 0.6
v -1.6777461 1.8534207 11.9000000 0.6 0.6 0.6
v -1.7501052 1.7852540 11.9000000 0.6 0.6 0.6
v -1.8196970 1.7142645 11.9000000 0.6 0.6 0.6
v -1.8864116 1.6405644 11.9000000 0.6 0.6 0.6
v -1.9501433 1.5642702 11.9000000 0.6 0.6 0.6
v -2.0107914 1.4855026 11.9000000 0.6 0.6 0.6
v -2.0682601 1.4043861 11.9000000 0.6 0.6 0.6
v -2.1224584 1.3210489 11.9000000 0.6 0.6 0.6
v -2.1733007 1.2356230 11.9000000 0.6 0.6 0.6
v -2.2207065 1.1482432 11.9000000 0.6 0.6 0.6
v -2.2646010 1.0590479 11.9000000 0.6 0.6 0.6
v -2.3049146 0.9681779 11.9000000 0.6 0.6 0.6
v -2.3415837 0.8757771 11.9000000 0.6 0.6 0.6
v -2.3745503 0.7819915 11.9000000 0.6 0.6 0.6
v -2.4037623 0.6869694 11.9000000 0.6 0.6 0.6
v -2.4291734 0.5908611 11.9000000 0.6 0.6 0.6
v -2.4507434 0.4938185 11.9000000 0.6 0.6 0.6
v -2.4684384 0.3959951 11.9000000 0.6 0.6 0.6
v -2.4822302 0.2975455 11.9000000 0.6 0.6 0.6
v -2.4920971 0.1986254 11.9000000 0.6 0.6 0.6
v -2.4980235 0.0993913 11.9000000 0.6 0.6 0.6
v -2.5000000 -0.0000000 11.9000000 0.6 0.6 0.6
v -2.4980235 -0.0993913 11.9000000 0.6 0.6 0.6
v -2.4920971 -0.1986254 11.9000000 0.6 0.6 0.6
v -2.4822302 -0.2975455 11.9000000 0.6 0.6 0.6
v -2.4684384 -0.3959951 11.9000000 0.6 0.6 0.6
v -2.4507434 -0.4938185 11.9000000 0.6 0.6 0.6
v -2.4291734 -0.5908611 11.9000000 0.6 0.6 0.6
v -2.4037623 -0.6869694 11.9000000 0.6 0.6 0.6
v -2.3745503 -0.7819915 11.9000000 0.6 0.6 0.6
v -2.3415837 -0.8757771 11.9000000 0.6 0.6 0.6
v -2.3049146 -0.9681779 11.9000000 0.6 0.6 0.6
v -2.2646010 -1.0590479 11.9000000 0.6 0.6 0.6
v -2.2207065 -1.1482432 11.9000000 0.6 0.6 0.6
v -2.1733007 -1.2356230 11.9000000 0.6 0.6 0.6
v -2.1224584 -1.3210489 11.9000000 0.6 0.6 0.6
v -2.0682601 -1.4043861 11.9000000 0.6 0.6 0.6
v -2.0107914 -1.4855026 11.9000000 0.6 0.6 0.6
v -1.9501433 -1.5642702 11.9000000 0.6 0.6 0.6
v -1.8864116 -1.6405644 11.9000000 0.6 0.6 0.6
v -1.8196970 -1.7142645 11.9000000 0.6 0.6 0.6
v -1.7501052 -1.7852540 11.9000000 0.6 0.6 0.6
v -1.6777461 -1.8534207 11.9000000 0.6 0.6 0.6
v -1.6027341 -1.9186567 11.9000000 0.6 0.6 0.6
v -1.5251879 -1.9808589 11.9000000 0.6 0.6 0.6
v -1.4452300 -2.0399290 11.9000000 0.6 0.6 0.6
v -1.3629869 -2.0957735 11.9000000 0.6 0.6 0.6
v -1.2785887 -2.1483042 11.9000000 0.6 0.6 0.6
v -1.1921688 -2.1974380 11.9000000 0.6 0.6 0.6
v -1.1038637 -2.2430972 11.9000000 0.6 0.6 0.6
v -1.0138133 -2.2852095 11.9000000 0.6 0.6 0.6
v -0.9221598 -2.3237085 11.9000000 0.6 0.6 0.6
v -0.8290482 -2.3585332 11.9000000 0.6 0.6 0.6
v -0.7346257 -2.3896287 11.9000000 0.6 0.6 0.6
v -0.6390416 -2.4169456 11.9000000 0.6 0.6 0.6
v -0.5424470 -2.4404408 11.9000000 0.6 0.6 0.6
v -0.4449947 -2.4600772 11.9000000 0.6 0.6 0.6
v -0.3468388 -2.4758237 11.9000000 0.6 0.6 0.6
v -0.2481345 -2.4876554 11.9000000 0.6 0.6 0.6
v -0.1490378 -2.4955536 11.9000000 0.6 0.6 0.6
v -0.0497055 -2.4995058 11.9000000 0.6 0.6 0.6
v 0.0497055 -2.4995058 11.9000000 0.6 0.6 0.6
v 0.1490378 -2.4955536 11.9000000 0.6 0.6 0.6
v 0.2481345 -2.4876554 11.9000000 0.6 0.6 0.6
v 0.3468388 -2.4758237 11.9000000 0.6 0.6 0.6
v 0.4449947 -2.4600772 11.9000000 0.6 0.6 0.6
v 0.5424470 -2.4404408 11.9000000 0.6 0.6 0.6
v 0.6390416 -2.4169456 11.9000000 0.6 0.6 0.6
v 0.7346257 -2.3896287 11.9000000 0.6 0.6 0.6
v 0.8290482 -2.3585332 11.9000000 0.6 0.6 0.6
v 0.9221598 -2.3237085 11.9000000 0.6 0.6 0.6
v 1.0138133 -2.2852095 11.9000000 0.6 0.6 0.6
v 1.1038637 -2.2430972 11.9000000 0.6 0.6 0.6
v 1.1921688 -2.1974380 11.9000000 0.6 0.6 0.6
v 1.2785887 -2.1483042 11.9000000 0.6 0.6 0.6
v 1.3629869 -2.0957735 11.9000000 0.6 0.6 0.6
v 1.4452300 -2.0399290 11.9000000 0.6 0.6 0.6
v 1.5251879 -1.9808589 11.9000000 0.6 0.6 0.6
v 1.6027341 -1.9186567 11.9000000 0.6 0.6 0.6
v 1.6777461 -1.8534207 11.9000000 0.6 0.6 0.6
v 1.7501052 -1.7852540 11.9000000 0.6 0.6 0.6
v 1.8196970 -1.7142645 11.9000000 0.6 0.6 0.6
v 1.8864116 -1.6405644 11.9000000 0.6 0.6 0.6
v 1.9501433 -1.5642702 11.9000000 0.6 0.6 0.6
v 2.0107914 -1.4855026 11.9000000 0.6 0.6 0.6
v 2.0682601 -1.4043861 11.9000000 0.6 0.6 0.6
v 2.1224584 -1.3210489 11.9000000 0.6 0.6 0.6
v 2.1733007 -1.2356230 11.9000000 0.6 0.6 0.6
v 2.2207065 -1.1482432 11.9000000 0.6 0.6 0.6
v 2.2646010 -1.0590479 11.9000000 0.6 0.6 0.6
v 2.3049146 -0.9681779 11.9000000 0.6 0.6 0.6
v 2.3415837 -0.8757771 11.9000000 0.6 0.6 0.6
v 2.3745503 -0.7819915 11.9000000 0.6 0.6 0.6
v 2.4037623 -0.6869694 11.9000000 0.6 0.6 0.6
v 2.4291734 -0.5908611 11.9000000 0.6 0.6 0.6
v 2.4507434 -0.4938185 11.9000000 0.6 0.6 0.6
v 2.4684384 -0.3959951 11.9000000 0.6 0.6 0.6
v 2.4822302 -0.2975455 11.9000000 0.6 0.6 0.6
v 2.4920971 -0.1986254 11.9000000 0.6 0.6 0.6
v 2.4980235 -0.0993913 11.9000000 0.6 0.6 0.6
v 2.5000000 0.0000000 11.9000000 0.6 0.6 0.6
v 2.4980235 0.0993913 11.9000000 0.6 0.6 0.6
v 2.4920971 0.1986254 11.9000000 0.6 0.6 0.6
v 2.4822302 0.2975455 11.9000000 0.6 0.6 0.6
v 2.4684384 0.3959951 11.9000000 0.6 0.6 0.6
v 2.4507434 0.4938185 11.9000000 0.6 0.6 0.6
v 2.4291734 0.5908611 11.9000000 0.6 0.6 0.6
v 2.4037623 0.6869694 11.9000000 0.6 0.6 0.6
v 2.3745503 0.7819915 11.9000000 0.6 0.6 0.6
v 2.3415837 0.8757771 11.9000000 0.6 0.6 0.6
v 2.3049146 0.9681779 11.9000000 0.6 0.6 0.6
v 2.2646010 1.0590479 11.9000000 0.6 0.6 0.6
v 2.2207065 1.1482432 11.9000000 0.6 0.6 0.6
v 2.1733007 1.2356230 11.9000000 0.6 0.6 0.6
v 2.1224584 1.3210489 11.9000000 0.6 0.6 0.6
v 2.0682601 1.4043861 11.9000000 0.6 0.6 0.6
v 2.0107914 1.4855026 11.9000000 0.6 0.6 0.6
v 1.9501433 1.5642702 11.9000000 0.6 0.6 0.6
v 1.8864116 1.6405644 11.9000000 0.6 0.6 0.6
v 1.8196970 1.7142645 11.9000000 0.6 0.6 0.6
v 1.7501052 1.7852540 11.9000000 0.6 0.6 0.6
v 1.6777461 1.8534207 11.9000000 0.6 0.6 0.6
v 1.6027341 1.9186567 11.9000000 0.6 0.6 0.6
v 1.5251879 1.9808589 11.9000000 0.6 0.6 0.6
v 1.4452300 2.0399290 11.9000000 0.6 0.6 0.6
v 1.3629869 2.0957735 11.9000000 0.6 0.6 0.6
v 1.2785887 2.1483042 11.9000000 0.6 0.6 0.6
v 1.1921688 2.1974380 11.9000000 0.6 0.6 0.6
v 1.1038637 2.2430972 11.9000000 0.6 0.6 0.6
v 1.0138133 2.2852095 11.9000000 0.6 0.6 0.6
v 0.9221598 2.3237085 11.9000000 0.6 0.6 0.6
v 0.8290482 2.3585332 11.9000000 0.6 0.6 0.6
v 0.7346257 2.3896287 11.9000000 0.6 0.6 0.6
v 0.6390416 2.4169456 11.9000000 0.6 0.6 0.6
v 0.5424470 2.4404408 11.9000000 0.6 0.6 0.6
v 0.4449947 2.4600772 11.9000000 0.6 0.6 0.6
v 0.3468388 2.4758237 11.9000000 0.6 0.6 0.6
v 0.2481345 2.4876554 11.9000000 0.6 0.6 0.6
v 0.1490378 2.4955536 11.9000000 0.6 0.6 0.6
v 0.0497055 2.4995058 11.9000000 0.6 0.6 0.6
v -0.0497055 2.4995058 11.9000000 0.6 0.6 0.6
v -0.1490378 2.4955536 11.9000000 0.6 0.6 0.6
v -0.2481345 2.4876554 11.9000000 0.6 0.6 0.6
v -0.3468388 2.4758237 11.9000000 0.6 0.6 0.6
v -0.4449947 2.4600772 11.9000000 0.6 0.6 0.6
v -0.5424470 2.4404408 11.9000000 0.6 0.6 0.6
v -0.6390416 2.4169456 11.9000000 0.6 0.6 0.6
v -0.7346257 2.3896287 11.9000000 0.6 0.6 0.6
v -0.8290482 2.3585332 11.9000000 0.6 0.6 0.6
v -0.9221598 2.3237085 11.9000000 0.6 0.6 0.6
v -1.0138133 2.2852095 11.9000000 0.6 0.6 0.6
v -1.1038637 2.2430972 11.9000000 0.6 0.6 0.6
v -1.1921688 2.1974380 11.9000000 0.6 0.6 0.6
v -1.2785887 2.1483042 11.9000000 0.6 0.6 0.6
v -1.3629869 2.0957735 11.9000000 0.6 0.6 0.6
v -1.4452300 2.0399290 11.9000000 0.6 0.6 0.6
v -1.5251879 1.9808589 11.9000000 0.6 0.6 0.6
v -1.6027341 1.9186567 11.9000000 0.6 0.6 0.6
v -1.6777461 1.8534207 11.9000000 0.6 0.6 0.6
v -1.7501052 1.7852540 11.9000000 0.6 0.6 0.6
v -1.8196970 1.7142645 11.9000000 0.6 0.6 0.6
v -1.8864116 1.6405644 11.9000000 0.6 0.6 0.6
v -1.9501433 1.5642702 11.9000000 0.6 0.6 0.6
v -2.0107914 1.4855026 11.9000000 0.6 0.6 0.6
v -2.0682601 1.4043861 11.9000000 0.6 0.6 0.6
v -2.1224584 1.3210489 11.9000000 0.6 0.6 0.6
v -2.1733007 1.2356230 11.9000000 0.6 0.6 0.6
v -2.2207065 1.1482432 11.9000000 0.6 0.6 0.6
v -2.2646010 1.0590479 11.9000000 0.6 0.6 0.6
v -2.3049146 0.9681779 11.9000000 0.6 0.6 0.6
v -2.3415837 0.8757771 11.9000000 0.6 0.6 0.6
v -2.3745503 0.7819915 11.9000000 0.6 0.6 0.6
v -2.4037623 0.6869694 11.9000000 0.6 0.6 0.6
v -2.4291734 0.5908611 11.9000000 0.6 0.6 0.6
v -2.4507434 0.4938185 11.9000000 0.6 0.6 0.6
v -2.4684384 0.3959951 11.9000000 0.6 0.6 0.6
v -2.4822302 0.2975455 11.9000000 0.6 0.6 0.6
v -2.4920971 0.1986254 11.9000000 0.6 0.6 0.6
v -2.4980235 0.0993913 11.9000000 0.6 0.6 0.6
v -2.5000000 -0.0000000 11.9000000 0.6 0.6 0.6
v -2.4980235 -0.0993913 11.9000000 0.6 0.6 0.6
v -2.4920971 -0.1986254 11.9000000 0.6 0.6 0.6
v -2.4822302 -0.2975455 11.9000000 0.6 0.6 0.6
v -2.4684384 -0.3959951 11.9000000 0.6 0.6 0.6
v -2.4507434 -0.4938185 11.9000000 0.6 0.6 0.6
v -2.4291734 -0.5908611 11.9000000 0.6 0.6 0.6
v -2.4037623 -0.6869694 11.9000000 0.6 0.6 0.6
v -2.3745503 -0.7819915 11.9000000 0.6 0.6 0.6
v -2.3415837 -0.8757771 11.9000000 0.6 0.6 0.6
v -2.3049146 -0.9681779 11.9000000 0.6 0.6 0.6
v -2.2646010 -1.0590479 11.9000000 0.6 0.6 0.6
v -2.2207065 -1.1482432 11.9000000 0.6 0.6 0.6
v -2.1733007 -1.2356230 11.9000000 0.6 0.6 0.6
v -2.1224584 -1.3210489 11.9000000 0.6 0.6 0.6
v -2.0682601 -1.4043861 11.9000000 0.6 0.6 0.6
v -2.0107914 -1.4855026 11.9000000 0.6 0.6 0.6
v -1.9501433 -1.5642702 11.9000000 0.6 0.6 0.6
v -1.8864116 -1.6405644 11.9000000 0.6 0.6 0.6
v -1.8196970 -1.7142645 11.9000000 0.6 0.6 0.6
v -1.7501052 -1.7852540 11.9000000 0.6 0.6 0.6
v -1.6777461 -1.8534207 11.9000000 0.6 0.6 0.6
v -1.6027341 -1.9186567 11.9000000 0.6 0.6 0.6
v -1.5251879 -1.9808589 11.9000000 0.6 0.6 0.6
v -1.4452300 -2.0399290 11.9000000 0.6 0.6 0.6
v -1.3629869 -2.0957735 11.9000000 0.6 0.6 0.6
v -1.2785887 -2.1483042 11.9000000 0.6 0.6 0.6
v -1.1921688 -2.1974380 11.9000000 0.6 0.6 0.6
v -1.1038637 -2.2430972 11.9000000 0.6 0.6 0.6
v -1.0138133 -2.2852095 11.9000000 0.6 0.6 0.6
v -0.9221598 -2.3237085 11.9000000 0.6 0.6 0.6
v -0.8290482 -2.3585332 11.9000000 0.6 0.6 0.6
v -0.7346257 -2.3896287 11.9000000 0.6 0.6 0.6
v -0.6390416 -2.4169456 11.9000000 0.6 0.6 0.6
v -0.5424470 -2.4404408 11.9000000 0.6 0.6 0.6
v -0.4449947 -2.4600772 11.9000000 0.6 0.6 0.6
v -0.3468388 -2.4758237 11.9000000 0.6 0.6 0.6
v -0.2481345 -2.4876554 11.9000000 0.6 0.6 0.6
v -0.1490378 -2.4955536 11.9000000 0.6 0.6 0.6
v -0.0497055 -2.4995058 11.9000000 0.6 0.6 0.6
v 0.0497055 -2.4995058 11.9000000 0.6 0.6 0.6
v 0.1490378 -2.4955536 11.9000000 0.6 0.6 0.6
v 0.2481345 -2.4876554 11.9000000 0.6 0.6 0.6
v 0.3468388 -2.4758237 11.9000000 0.6 0.6 0.6
v 0.4449947 -2.4600772 11.9000000 0.6 0.6 0.6
v 0.5424470 -2.4404408 11.9000000 0.6 0.6 0.6
v 0.6390416 -2.4169456 11.9000000 0.6 0.6 0.6
v 0.7346257 -2.3896287 11.9000000 0.6 0.6 0.6
v 0.8290482 -2.3585332 11.9000000 0.6 0.6 0.6
v 0.9221598 -2.3237085 11.9000000 0.6 0.6 0.6
v 1.0138133 -2.2852095 11.9000000 0.6 0.6 0.6
v 1.1038637 -2.2430972 11.9000000 0.6 0.6 0.6
v 1.1921688 -2.1974380 11.9000000 0.6 0.6 0.6
v 1.2785887 -2.1483042 11.9000000 0.6 0.6 0.6
v 1.3629869 -2.0957735 11.9000000 0.6 0.6 0.6
v 1.4452300 -2.0399290 11.9000000 0.6 0.6 0.6
v 1.5251879 -1.9808589 11.9000000 0.6 0.6 0.6
v 1.6027341 -1.9186567 11.9000000 0.6 0.6 0.6
v 1.6777461 -1.8534207 11.9000000 0.6 0.6 0.6
v 1.7501052 -1.7852540 11.9000000 0.6 0.6 0.6
v 1.8196970 -1.7142645 11.9000000 0.6 0.6 0.6
v 1.8864116 -1.6405644 11.9000000 0.6 0.6 0.6
v 1.9501433 -1.5642702 11.9000000 0.6 0.6 0.6
v 2.0107914 -1.4855026 11.9000000 0.6 0.6 0.6
v 2.0682601 -1.4043861 11.9000000 0.6 0.6 0.6
v 2.1224584 -1.3210489 11.9000000 0.6 0.6 0.6
v 2.1733007 -1.2356230 11.9000000 0.6 0.6 0.6
v 2.2207065 -1.1482432 11.9000000 0.6 0.6 0.6
v 2.2646010 -1.0590479 11.9000000 0.6 0.6 0.6
v 2.3049146 -0.9681779 11.9000000 0.6 0.6 0.6
v 2.3415837 -0.8757771 11.9000000 0.6 0.6 0.6
v 2.3745503 -0.7819915 11.9000000 0.6 0.6 0.6
v 2.4037623 -0.6869694 11.9000000 0.6 0.6 0.6
v 2.4291734 -0.5908611 11.9000000 0.6 0.6 0.6
v 2.4507434 -0.4938185 11.9000000 0.6 0.6 0.6
v 2.4684384 -0.3959951 11.9000000 0.6 0.6 0.6
v 2.4822302 -0.2975455 11.9000000 0.6 0.6 0.6
v 2.4920971 -0.1986254 11.9000000 0.6 0.6 0.6
v 2.4980235 -0.0993913 11.9000000 0.6 0.6 0.6
v 2.5000000 0.0000000 12.1000000 0.6 0.6 0.6
v 2.4980235 0.0993913 12.1000000 0.6 0.6 0.6
v 2.4920971 0.1986254 12.1000000 0.6 0.6 0.6
v 2.4822302 0.2975455 12.1000000 0.6 0.6 0.6
v 2.4684384 0.3959951 12.1000000 0.6 0.6 0.6
v 2.4507434 0.4938185 12.1000000 0.6 0.6 0.6
v 2.4291734 0.5908611 12.1000000 0.6 0.6 0.6
v 2.4037623 0.6869694 12.1000000 0.6 0.6 0.6
v 2.3745503 0.7819915 12.1000000 0.6 0.6 0.6
v 2.3415837 0.8757771 12.1000000 0.6 0.6 0.6
v 2.3049146 0.9681779 12.1000000 0.6 0.6 0.6
v 2.2646010 1.0590479 12.1000000 0.6 0.6 0.6
v 2.2207065 1.1482432 12.1000000 0.6 0.6 0.6
v 2.1733007 1.2356230 12.1000000 0.6 0.6 0.6
v 2.1224584 1.3210489 12.1000000 0.6 0.6 0.6
v 2.0682601 1.4043861 12.1000000 0.6 0.6 0.6
v 2.0107914 1.4855026 12.1000000 0.6 0.6 0.6
v 1.9501433 1.5642702 12.1000000 0.6 0.6 0.6
v 1.8864116 1.6405644 12.1000000 0.6 0.6 0.6
v 1.8196970 1.7142645 12.1000000 0.6 0.6 0.6
v 1.7501052 1.7852540 12.1000000 0.6 0.6 0.6
v 1.6777461 1.8534207 12.1000000 0.6 0.6 0.6
v 1.6027341 1.9186567 12.1000000 0.6 0.6 0.6
v 1.5251879 1.9808589 12.1000000 0.6 0.6 0.6
v 1.4452300 2.0399290 12.1000000 0.6 0.6 0.6
v 1.3629869 2.0957735 12.1000000 0.6 0.6 0.6
v 1.2785887 2.1483042 12.1000000 0.6 0.6 0.6
v 1.1921688 2.1974380 12.1000000 0.6 0.6 0.6
v 1.1038637 2.2430972 12.1000000 0.6 0.6 0.6
v 1.0138133 2.2852095 12.1000000 0.6 0.6 0.6
v 0.9221598 2.3237085 12.1000000 0.6 0.6 0.6
v 0.8290482 2.3585332 12.1000000 0.6 0.6 0.6
v 0.7346257 2.3896287 12.1000000 0.6 0.6 0.6
v 0.6390416 2.4169456 12.1000000 0.6 0.6 0.6
v 0.5424470 2.4404408 12.1000000 0.6 0.6 0.6
v 0.4449947 2.4600772 12.1000000 0.6 0.6 0.6
v 0.3468388 2.4758237 12.1000000 0.6 0.6 0.6
v 0.2481345 2.4876554 12.1000000 0.6 0.6 0.6
v 0.1490378 2.4955536 12.1000000 0.6 0.6 0.6
v 0.0497055 2.4995058 12.1000000 0.6 0.6 0.6
v -0.0497055 2.4995058 12.1000000 0.6 0.6 0.6
v -0.1490378 2.4955536 12.1000000 0.6 0.6 0.6
v -0.2481345 2.4876554 12.1000000 0.6 0.6 0.6
v -0.3468388 2.4758237 12.1000000 0.6 0.6 0.6
v -0.4449947 2.4600772 12.1000000 0.6 0.6 0.6
v -0.5424470 2.4404408 12.1000000 0.6 0.6 0.6
v -0.6390416 2.4169456 12.1000000 0.6 0.6 0.6
v -0.7346257 2.3896287 12.1000000 0.6 0.6 0.6
v -0.8290482 2.3585332 12.1000000 0.6 0.6 0.6
v -0.9221598 2.3237085 12.1000000 0.6 0.6 0.6
v -1.0138133 2.2852095 12.1000000 0.6 0.6 0.6
v -1.1038637 2.2430972 12.1000000 0.6 0.6 0.6
v -1.1921688 2.1974380 12.1000000 0.6 0.6 0.6
v -1.2785887 2.1483042 12.1000000 0.6 0.6 0.6
v -1.3629869 2.0957735 12.1000000 0.6 0.6 0.6
v -1.4452300 2.0399290 12.1000000 0.6 0.6 0.6
v -1.5251879 1.9808589 12.1000000 0.6 0.6 0.6
v -1.6027341 1.9186567 12.1000000 0.6 0.6 0.6
v -1.6777461 1.8534207 12.1000000 0.6 0.6 0.6
v -1.7501052 1.7852540 12.1000000 0.6 0.6 0.6
v -1.8196970 1.7142645 12.1000000 0.6 0.6 0.6
v -1.8864116 1.6405644 12.1000000 0.6 0.6 0.6
v -1.9501433 1.5642702 12.1000000 0.6 0.6 0.6
v -2.0107914 1.4855026 12.1000000 0.6 0.6 0.6
v -2.0682601 1.4043861 12.1000000 0.6 0.6 0.6
v -2.1224584 1.3210489 12.1000000 0.6 0.6 0.6
v -2.1733007 1.2356230 12.1000000 0.6 0.6 0.6
v -2.2207065 1.1482432 12.1000000 0.6 0.6 0.6
v -2.2646010 1.0590479 12.1000000 0.6 0.6 0.6
v -2.3049146 0.9681779 12.1000000 0.6 0.6 0.6
v -2.3415837 0.8757771 12.1000000 0.6 0.6 0.6
v -2.3745503 0.7819915 12.1000000 0.6 0.6 0.6
v -2.4037623 0.6869694 12.1000000 0.6 0.6 0.6
v -2.4291734 0.5908611 12.1000000 0.6 0.6 0.6
v -2.4507434 0.4938185 12.1000000 0.6 0.6 0.6
v -2.4684384 0.3959951 12.1000000 0.6 0.6 0.6
v -2.4822302 0.2975455 12.1000000 0.6 0.6 0.6
v -2.4920971 0.1986254 12.1000000 0.6 0.6 0.6
v -2.4980235 0.0993913 12.1000000 0.6 0.6 0.6
v -2.5000000 -0.0000000 12.1000000 0.6 0.6 0.6
v -2.4980235 -0.0993913 12.1000000 0.6 0.6 0.6
v -2.4920971 -0.1986254 12.1000000 0.6 0.6 0.6
v -2.4822302 -0.2975455 12.1000000 0.6 0.6 0.6
v -2.4684384 -0.3959951 12.1000000 0.6 0.6 0.6
v -2.4507434 -0.4938185 12.1000000 0.6 0.6 0.6
v -2.4291734 -0.5908611 12.1000000 0.6 0.6 0.6
v -2.4037623 -0.6869694 12.1000000 0.6 0.6 0.6
v -2.3745503 -0.7819915 12.1000000 0.6 0.6 0.6
v -2.3415837 -0.8757771 12.1000000 0.6 0.6 0.6
v -2.3049146 -0.9681779 12.1000000 0.6 0.6 0.6
v -2.2646010 -1.0590479 12.1000000 0.6 0.6 0.6
v -2.2207065 -1.1482432 12.1000000 0.6 0.6 0.6
v -2.1733007 -1.2356230 12.1000000 0.6 0.6 0.6
v -2.1224584 -1.3210489 12.1000000 0.6 0.6 0.6
v -2.0682601 -1.4043861 12.1000000 0.6 0.6 0.6
v -2.0107914 -1.4855026 12.1000000 0.6 0.6 0.6
v -1.9501433 -1.5642702 12.1000000 0.6 0.6 0.6
v -1.8864116 -1.6405644 12.1000000 0.6 0.6 0.6
v -1.8196970 -1.7142645 12.1000000 0.6 0.6 0.6
v -1.7501052 -1.7852540 12.1000000 0.6 0.6 0.6
v -1.6777461 -1.8534207 12.1000000 0.6 0.6 0.6
v -1.6027341 -1.9186567 12.1000000 0.6 0.6 0.6
v -1.5251879 -1.9808589 12.1000000 0.6 0.6 0.6
v -1.4452300 -2.0399290 12.1000000 0.6 0.6 0.6
v -1.3629869 -2.0957735 12.1000000 0.6 0.6 0.6
v -1.2785887 -2.1483042 12.1000000 0.6 0.6 0.6
v -1.1921688 -2.1974380 12.1000000 0.6 0.6 0.6
v -1.1038637 -2.2430972 12.1000000 0.6 0.6 0.6
v -1.0138133 -2.2852095 12.1000000 0.6 0.6 0.6
v -0.9221598 -2.3237085 12.1000000 0.6 0.6 0.6
v -0.8290482 -2.3585332 12.1000000 0.6 0.6 0.6
v -0.7346257 -2.3896287 12.1000000 0.6 0.6 0.6
v -0.6390416 -2.4169456 12.1000000 0.6 0.6 0.6
v -0.5424470 -2.4404408 12.1000000 0.6 0.6 0.6
v -0.4449947 -2.4600772 12.1000000 0.6 0.6 0.6
v -0.3468388 -2.4758237 12.1000000 0.6 0.6 0.6
v -0.2481345 -2.4876554 12.1000000 0.6 0.6 0.6
v -0.1490378 -2.4955536 12.1000000 0.6 0.6 0.6
v -0.0497055 -2.4995058 12.1000000 0.6 0.6 0.6
v 0.0497055 -2.4995058 12.1000000 0.6 0.6 0.6
v 0.1490378 -2.4955536 12.1000000 0.6 0.6 0.6
v 0.2481345 -2.4876554 12.1000000 0.6 0.6 0.6
v 0.3468388 -2.4758237 12.1000000 0.6 0.6 0.6
v 0.4449947 -2.4600772 12.1000000 0.6 0.6 0.6
v 0.5424470 -2.4404408 12.1000000 0.6 0.6 0.6
v 0.6390416 -2.4169456 12.1000000 0.6 0.6 0.6
v 0.7346257 -2.3896287 12.1000000 0.6 0.6 0.6
v 0.8290482 -2.3585332 12.1000000 0.6 0.6 0.6
v 0.9221598 -2.3237085 12.1000000 0.6 0.6 0.6
v 1.0138133 -2.2852095 12.1000000 0.6 0.6 0.6
v 1.1038637 -2.2430972 12.1000000 0.6 0.6 0.6
v 1.1921688 -2.1974380 12.1000000 0.6 0.6 0.6
v 1.2785887 -2.1483042 12.1000000 0.6 0.6 0.6
v 1.3629869 -2.0957735 12.1000000 0.6 0.6 0.6
v 1.4452300 -2.0399290 12.1000000 0.6 0.6 0.6
v 1.5251879 -1.9808589 12.1000000 0.6 0.6 0.6
v 1.6027341 -1.9186567 12.1000000 0.6 0.6 0.6
v 1.6777461 -1.8534207 12.1000000 0.6 0.6 0.6
v 1.7501052 -1.7852540 12.1000000 0.6 0.6 0.6
v 1.8196970 -1.7142645 12.1000000 0.6 0.6 0.6
v 1.8864116 -1.6405644 12.1000000 0.6 0.6 0.6
v 1.9501433 -1.5642702 12.1000000 0.6 0.6 0.6
v 2.0107914 -1.4855026 12.1000000 0.6 0.6 0.6
v 2.0682601 -1.4043861 12.1000000 0.6 0.6 0.6
v 2.1224584 -1.3210489 12.1000000 0.6 0.6 0.6
v 2.1733007 -1.2356230 12.1000000 0.6 0.6 0.6
v 2.2207065 -1.1482432 12.1000000 0.6 0.6 0.6
v 2.2646010 -1.0590479 12.1000000 0.6 0.6 0.6
v 2.3049146 -0.9681779 12.1000000 0.6 0.6 0.6
v 2.3415837 -0.8757771 12.1000000 0.6 0.6 0.6
v 2.3745503 -0.7819915 12.1000000 0.6 0.6 0.6
v 2.4037623 -0.6869694 12.1000000 0.6 0.6 0.6
v 2.4291734 -0.5908611 12.1000000 0.6 0.6 0.6
v 2.4507434 -0.4938185 12.1000000 0.6 0.6 0.6
v 2.4684384 -0.3959951 12.1000000 0.6 0.6 0.6
v 2.4822302 -0.2975455 12.1000000 0.6 0.6 0.6
v 2.4920971 -0.1986254 12.1000000 0.6 0.6 0.6
v 2.4980235 -0.0993913 12.1000000 0.6 0.6 0.6
usemtl Encoder_Shim
s off
f 162 2 1
f 162 3 2
f 163 4 3
f 163 3 162
f 164 5 4
f 164 4 163
f 165 6 5
f 165 5 164
f 166 7 6
f 166 6 165
f 167 8 7
f 167 7 166
f 168 9 8
f 168 8 167
f 169 10 9
f 169 9 168
f 170 11 10
f 170 10 169
f 171 12 11
f 171 11 170
f 172 13 12
f 172 12 171
f 173 14 13
f 173 13 172
f 174 15 14
f 174 14 173
f 175 16 15
f 175 15 174
f 176 17 16
f 176 18 17
f 176 16 175
f 177 18 176
f 178 19 18
f 178 18 177
f 179 20 19
f 179 19 178
f 180 21 20
f 180 20 179
f 181 22 21
f 181 21 180
f 182 23 22
f 182 22 181
f 183 23 182
f 183 24 23
f 184 24 183
f 184 25 24
f 184 26 25
f 185 26 184
f 186 26 185
f 186 27 26
f 186 28 27
f 187 28 186
f 188 29 28
f 188 28 187
f 189 30 29
f 189 29 188
f 190 31 30
f 190 32 31
f 190 30 189
f 191 32 190
f 192 33 32
f 192 32 191
f 193 34 33
f 193 35 34
f 193 33 192
f 194 35 193
f 195 36 35
f 195 35 194
f 196 37 36
f 196 38 37
f 196 36 195
f 197 39 38
f 197 38 196
f 198 39 197
f 199 40 39
f 199 39 198
f 200 41 40
f 200 40 199
f 201 42 41
f 201 43 42
f 201 41 200
f 202 44 43
f 202 43 201
f 203 44 202
f 204 45 44
f 204 44 203
f 205 46 45
f 205 47 46
f 205 45 204
f 206 48 47
f 206 47 205
f 207 48 206
f 208 48 207
f 208 49 48
f 209 49 208
f 209 50 49
f 210 50 209
f 210 51 50
f 211 51 210
f 211 52 51
f 212 52 211
f 212 53 52
f 212 54 53
f 213 54 212
f 214 54 213
f 214 55 54
f 215 55 214
f 215 56 55
f 215 57 56
f 216 57 215
f 217 57 216
f 217 58 57
f 218 58 217
f 218 59 58
f 219 59 218
f 219 60 59
f 220 60 219
f 220 61 60
f 221 61 220
f 221 62 61
f 222 62 221
f 222 63 62
f 223 64 63
f 223 65 64
f 223 63 222
f 224 65 223
f 224 66 65
f 225 66 224
f 226 67 66
f 226 66 225
f 227 68 67
f 227 67 226
f 228 69 68
f 228 68 227
f 229 70 69
f 229 69 228
f 230 71 70
f 230 70 229
f 231 72 71
f 231 71 230
f 232 73 72
f 232 72 231
f 233 73 232
f 233 74 73
f 234 74 233
f 234 75 74
f 235 75 234
f 235 76 75
f 236 76 235
f 236 77 76
f 237 77 236
f 237 78 77
f 238 78 237
f 238 79 78
f 239 79 238
f 239 80 79
f 239 81 80
f 240 81 239
f 241 81 240
f 241 82 81
f 241 83 82
f 242 83 241
f 243 83 242
f 243 84 83
f 244 84 243
f 244 85 84
f 245 85 244
f 245 86 85
f 246 86 245
f 246 87 86
f 247 87 246
f 247 88 87
f 248 88 247
f 248 89 88
f 249 89 248
f 249 90 89
f 250 90 249
f 250 91 90
f 251 91 250
f 251 92 91
f 252 92 251
f 252 93 92
f 253 93 252
f 253 94 93
f 254 94 253
f 254 95 94
f 255 96 95
f 255 95 254
f 256 97 96
f 256 96 255
f 256 98 97
f 257 98 256
f 258 98 257
f 258 99 98
f 259 99 258
f 259 100 99
f 260 100 259
f 260 101 100
f 261 102 101
f 261 101 260
f 262 103 102
f 262 102 261
f 263 104 103
f 263 103 262
f 264 105 104
f 264 104 263
f 265 106 105
f 265 105 264
f 266 107 106
f 266 108 107
f 266 106 265
f 267 109 108
f 267 108 266
f 268 109 267
f 269 110 109
f 269 109 268
f 270 111 110
f 270 112 111
f 270 110 269
f 271 112 270
f 272 113 112
f 272 112 271
f 273 114 113
f 273 113 272
f 274 115 114
f 274 114 273
f 275 116 115
f 275 117 116
f 275 115 274
f 276 118 117
f 276 117 275
f 277 118 276
f 278 119 118
f 278 120 119
f 278 118 277
f 279 120 278
f 280 121 120
f 280 122 121
f 280 120 279
f 281 123 122
f 281 122 280
f 282 123 281
f 282 124 123
f 283 124 282
f 284 124 283
f 284 125 124
f 284 126 125
f 285 126 284
f 285 127 126
f 286 127 285
f 287 127 286
f 287 128 127
f 288 128 287
f 288 129 128
f 288 130 129
f 289 131 130
f 289 130 288
f 290 131 289
f 291 131 290
f 291 132 131
f 291 133 132
f 292 133 291
f 293 134 133
f 293 135 134
f 293 133 292
f 294 135 293
f 295 136 135
f 295 137 136
f 295 135 294
f 296 137 295
f 297 138 137
f 297 139 138
f 297 137 296
f 298 140 139
f 298 139 297
f 299 140 298
f 300 141 140
f 300 142 141
f 300 140 299
f 301 142 300
f 302 143 142
f 302 144 143
f 302 142 301
f 303 144 302
f 304 145 144
f 304 146 145
f 304 144 303
f 305 146 304
f 306 147 146
f 306 148 147
f 306 146 305
f 307 148 306
f 308 148 307
f 308 149 148
f 308 150 149
f 309 150 308
f 310 150 309
f 310 151 150
f 310 152 151
f 311 152 310
f 312 152 311
f 312 153 152
f 312 154 153
f 313 154 312
f 314 154 313
f 314 155 154
f 315 155 314
f 315 156 155
f 315 157 156
f 316 157 315
f 316 158 157
f 317 158 316
f 317 159 158
f 318 159 317
f 161 159 318
f 161 160 159
f 423 421 420
f 423 422 421
f 412 414 413
f 412 415 414
f 426 425 424
f 409 411 410
f 409 412 411
f 427 420 419
f 427 424 423
f 427 423 420
f 427 426 424
f 406 408 407
f 406 409 408
f 430 428 427
f 430 429 428
f 405 409 406
f 432 431 430
f 403 405 404
f 434 433 432
f 401 403 402
f 435 432 430
f 435 434 432
f 435 427 419
f 435 430 427
f 435 418 417
f 435 419 418
f 400 405 403
f 400 403 401
f 398 400 399
f 439 436 435
f 439 437 436
f 439 438 437
f 396 409 405
f 396 400 398
f 396 405 400
f 396 398 397
f 396 415 412
f 396 412 409
f 396 416 415
f 396 417 416
f 441 440 439
f 392 394 393
f 392 395 394
f 392 396 395
f 444 442 441
f 444 443 442
f 390 392 391
f 447 446 445
f 388 392 390
f 388 390 389
f 448 445 444
f 448 447 445
f 449 448 444
f 385 387 386
f 385 388 387
f 452 450 449
f 452 451 450
f 452 449 444
f 383 385 384
f 381 383 382
f 381 385 383
f 455 454 453
f 380 385 381
f 380 388 385
f 379 388 380
f 457 456 455
f 458 455 453
f 458 457 455
f 458 453 452
f 458 452 444
f 377 388 379
f 377 379 378
f 459 458 444
f 459 444 441
f 375 396 392
f 375 377 376
f 375 388 377
f 375 392 388
f 461 459 441
f 461 460 459
f 462 461 441
f 373 375 374
f 463 462 441
f 371 375 373
f 371 373 372
f 466 464 463
f 466 465 464
f 369 375 371
f 369 371 370
f 467 466 463
f 469 468 467
f 469 467 463
f 365 367 366
f 365 368 367
f 365 369 368
f 471 470 469
f 471 469 463
f 472 471 463
f 363 365 364
f 363 375 369
f 363 369 365
f 476 475 474
f 359 361 360
f 359 362 361
f 359 363 362
f 319 473 472
f 319 474 473
f 319 476 474
f 358 375 363
f 358 363 359
f 320 319 472
f 356 358 357
f 323 321 320
f 323 322 321
f 323 463 441
f 323 439 435
f 323 441 439
f 323 472 463
f 323 320 472
f 325 324 323
f 326 325 323
f 351 353 352
f 351 354 353
f 351 355 354
f 351 356 355
f 327 326 323
f 328 327 323
f 349 351 350
f 348 351 349
f 348 356 351
f 348 358 356
f 330 329 328
f 346 348 347
f 333 331 330
f 333 332 331
f 333 328 323
f 333 330 328
f 344 346 345
f 344 348 346
f 334 333 323
f 343 348 344
f 337 335 334
f 337 336 335
f 338 323 435
f 338 435 417
f 338 334 323
f 338 337 334
f 339 341 340
f 339 342 341
f 339 343 342
f 339 396 375
f 339 348 343
f 339 358 348
f 339 417 396
f 339 338 417
f 339 375 358
f 581 578 579
f 581 579 580
f 570 571 572
f 570 572 573
f 584 582 583
f 567 568 569
f 567 569 570
f 585 577 578
f 585 581 582
f 585 578 581
f 585 582 584
f 564 565 566
f 564 566 567
f 588 585 586
f 588 586 587
f 563 564 567
f 590 588 589
f 561 562 563
f 592 590 591
f 559 560 561
f 593 588 590
f 593 590 592
f 593 577 585
f 593 585 588
f 593 575 576
f 593 576 577
f 558 561 563
f 558 559 561
f 556 557 558
f 597 593 594
f 597 594 595
f 597 595 596
f 554 563 567
f 554 556 558
f 554 558 563
f 554 555 556
f 554 570 573
f 554 567 570
f 554 573 574
f 554 574 575
f 599 597 598
f 550 551 552
f 550 552 553
f 550 553 554
f 602 599 600
f 602 600 601
f 548 549 550
f 605 603 604
f 546 548 550
f 546 547 548
f 606 602 603
f 606 603 605
f 607 602 606
f 543 544 545
f 543 545 546
f 610 607 608
f 610 608 609
f 610 602 607
f 541 542 543
f 539 540 541
f 539 541 543
f 613 611 612
f 538 539 543
f 538 543 546
f 537 538 546
f 615 613 614
f 616 611 613
f 616 613 615
f 616 610 611
f 616 602 610
f 535 537 546
f 535 536 537
f 617 602 616
f 617 599 602
f 533 550 554
f 533 534 535
f 533 535 546
f 533 546 550
f 619 599 617
f 619 617 618
f 620 599 619
f 531 532 533
f 621 599 620
f 529 531 533
f 529 530 531
f 624 621 622
f 624 622 623
f 527 529 533
f 527 528 529
f 625 621 624
f 627 625 626
f 627 621 625
f 523 524 525
f 523 525 526
f 523 526 527
f 629 627 628
f 629 621 627
f 630 621 629
f 521 522 523
f 521 527 533
f 521 523 527
f 634 632 633
f 517 518 519
f 517 519 520
f 517 520 521
f 477 630 631
f 477 631 632
f 477 632 634
f 516 521 533
f 516 517 521
f 478 630 477
f 514 515 516
f 481 478 479
f 481 479 480
f 481 599 621
f 481 593 597
f 481 597 599
f 481 621 630
f 481 630 478
f 483 481 482
f 484 481 483
f 509 510 511
f 509 511 512
f 509 512 513
f 509 513 514
f 485 481 484
f 486 481 485
f 507 508 509
f 506 507 509
f 506 509 514
f 506 514 516
f 488 486 487
f 504 505 506
f 491 488 489
f 491 489 490
f 491 481 486
f 491 486 488
f 502 503 504
f 502 504 506
f 492 481 491
f 501 502 506
f 495 492 493
f 495 493 494
f 496 593 481
f 496 575 593
f 496 481 492
f 496 492 495
f 497 498 499
f 497 499 500
f 497 500 501
f 497 533 554
f 497 501 506
f 497 506 516
f 497 554 575
f 497 575 496
f 497 516 533
