# Assembly coordinates in millimetres, Z-up.
mtllib Encoder_Magnet.mtl
o Encoder_Magnet
v 2.5000000 0.0000000 10.4000000 0.88 0.31 0.22
v 2.5000000 0.0000000 11.9000000 0.88 0.31 0.22
v 2.4988811 0.0747887 11.9000000 0.88 0.31 0.22
v 2.4955253 0.1495104 11.9000000 0.88 0.31 0.22
v 2.4899357 0.2240983 11.9000000 0.88 0.31 0.22
v 2.4821173 0.2984856 11.9000000 0.88 0.31 0.22
v 2.4720771 0.3726057 11.9000000 0.88 0.31 0.22
v 2.4598240 0.4463922 11.9000000 0.88 0.31 0.22
v 2.4453690 0.5197792 11.9000000 0.88 0.31 0.22
v 2.4287251 0.5927009 11.9000000 0.88 0.31 0.22
v 2.4099072 0.6650921 11.9000000 0.88 0.31 0.22
v 2.3889320 0.7368879 11.9000000 0.88 0.31 0.22
v 2.3658185 0.8080241 11.9000000 0.88 0.31 0.22
v 2.3405872 0.8784371 11.9000000 0.88 0.31 0.22
v 2.3132608 0.9480637 11.9000000 0.88 0.31 0.22
v 2.2838636 1.0168416 11.9000000 0.88 0.31 0.22
v 2.2524222 1.0847093 11.9000000 0.88 0.31 0.22
v 2.2189645 1.1516061 11.9000000 0.88 0.31 0.22
v 2.1835205 1.2174721 11.9000000 0.88 0.31 0.22
v 2.1461220 1.2822482 11.9000000 0.88 0.31 0.22
v 2.1068024 1.3458765 11.9000000 0.88 0.31 0.22
v 2.0655969 1.4083001 11.9000000 0.88 0.31 0.22
v 2.0225425 1.4694631 11.9000000 0.88 0.31 0.22
v 1.9776776 1.5293107 11.9000000 0.88 0.31 0.22
v 1.9310424 1.5877894 11.9000000 0.88 0.31 0.22
v 1.8826787 1.6448468 11.9000000 0.88 0.31 0.22
v 1.8326297 1.7004318 11.9000000 0.88 0.31 0.22
v 1.7809402 1.7544948 11.9000000 0.88 0.31 0.22
v 1.7276566 1.8069872 11.9000000 0.88 0.31 0.22
v 1.6728265 1.8578621 11.9000000 0.88 0.31 0.22
v 1.6164990 1.9070739 11.9000000 0.88 0.31 0.22
v 1.5587245 1.9545787 11.9000000 0.88 0.31 0.22
v 1.4995547 2.0003339 11.9000000 0.88 0.31 0.22
v 1.4390427 2.0442985 11.9000000 0.88 0.31 0.22
v 1.3772425 2.0864331 11.9000000 0.88 0.31 0.22
v 1.3142094 2.1267002 11.9000000 0.88 0.31 0.22
v 1.2500000 2.1650635 11.9000000 0.88 0.31 0.22
v 1.1846717 2.2014888 11.9000000 0.88 0.31 0.22
v 1.1182829 2.2359435 11.9000000 0.88 0.31 0.22
v 1.0508931 2.2683967 11.9000000 0.88 0.31 0.22
v 0.9825626 2.2988194 11.9000000 0.88 0.31 0.22
v 0.9133526 2.3271844 11.9000000 0.88 0.31 0.22
v 0.8433250 2.3534662 11.9000000 0.88 0.31 0.22
v 0.7725425 2.3776413 11.9000000 0.88 0.31 0.22
v 0.7010685 2.3996881 11.9000000 0.88 0.31 0.22
v 0.6289669 2.4195869 11.9000000 0.88 0.31 0.22
v 0.5563023 2.4373198 11.9000000 0.88 0.31 0.22
v 0.4831398 2.4528710 11.9000000 0.88 0.31 0.22
v 0.4095448 2.4662265 11.9000000 0.88 0.31 0.22
v 0.3355832 2.4773744 11.9000000 0.88 0.31 0.22
v 0.2613212 2.4863047 11.9000000 0.88 0.31 0.22
v 0.1868252 2.4930095 11.9000000 0.88 0.31 0.22
v 0.1121621 2.4974827 11.9000000 0.88 0.31 0.22
v 0.0373985 2.4997203 11.9000000 0.88 0.31 0.22
v -0.0373985 2.4997203 11.9000000 0.88 0.31 0.22
v -0.1121621 2.4974827 11.9000000 0.88 0.31 0.22
v -0.1868252 2.4930095 11.9000000 0.88 0.31 0.22
v -0.2613212 2.4863047 11.9000000 0.88 0.31 0.22
v -0.3355832 2.4773744 11.9000000 0.88 0.31 0.22
v -0.4095448 2.4662265 11.9000000 0.88 0.31 0.22
v -0.4831398 2.4528710 11.9000000 0.88 0.31 0.22
v -0.5563023 2.4373198 11.9000000 0.88 0.31 0.22
v -0.6289669 2.4195869 11.9000000 0.88 0.31 0.22
v -0.7010685 2.3996881 11.9000000 0.88 0.31 0.22
v -0.7725425 2.3776413 11.9000000 0.88 0.31 0.22
v -0.8433250 2.3534662 11.9000000 0.88 0.31 0.22
v -0.9133526 2.3271844 11.9000000 0.88 0.31 0.22
v -0.9825626 2.2988194 11.9000000 0.88 0.31 0.22
v -1.0508931 2.2683967 11.9000000 0.88 0.31 0.22
v -1.1182829 2.2359435 11.9000000 0.88 0.31 0.22
v -1.1846717 2.2014888 11.9000000 0.88 0.31 0.22
v -1.2500000 2.1650635 11.9000000 0.88 0.31 0.22
v -1.3142094 2.1267002 11.9000000 0.88 0.31 0.22
v -1.3772425 2.0864331 11.9000000 0.88 0.31 0.22
v -1.4390427 2.0442985 11.9000000 0.88 0.31 0.22
v -1.4995547 2.0003339 11.9000000 0.88 0.31 0.22
v -1.5587245 1.9545787 11.9000000 0.88 0.31 0.22
v -1.6164990 1.9070739 11.9000000 0.88 0.31 0.22
v -1.6728265 1.8578621 11.9000000 0.88 0.31 0.22
v -1.7276566 1.8069872 11.9000000 0.88 0.31 0.22
v -1.7809402 1.7544948 11.9000000 0.88 0.31 0.22
v -1.8326297 1.7004318 11.9000000 0.88 0.31 0.22
v -1.8826787 1.6448468 11.9000000 0.88 0.31 0.22
v -1.9310424 1.5877894 11.9000000 0.88 0.31 0.22
v -1.9776776 1.5293107 11.9000000 0.88 0.31 0.22
v -2.0225425 1.4694631 11.9000000 0.88 0.31 0.22
v -2.0655969 1.4083001 11.9000000 0.88 0.31 0.22
v -2.1068024 1.3458765 11.9000000 0.88 0.31 0.22
v -2.1461220 1.2822482 11.9000000 0.88 0.31 0.22
v -2.1835205 1.2174721 11.9000000 0.88 0.31 0.22
v -2.2189645 1.1516061 11.9000000 0.88 0.31 0.22
v -2.2524222 1.0847093 11.9000000 0.88 0.31 0.22
v -2.2838636 1.0168416 11.9000000 0.88 0.31 0.22
v -2.3132608 0.9480637 11.9000000 0.88 0.31 0.22
v -2.3405872 0.8784371 11.9000000 0.88 0.31 0.22
v -2.3658185 0.8080241 11.9000000 0.88 0.31 0.22
v -2.3889320 0.7368879 11.9000000 0.88 0.31 0.22
v -2.4099072 0.6650921 11.9000000 0.88 0.31 0.22
v -2.4287251 0.5927009 11.9000000 0.88 0.31 0.22
v -2.4453690 0.5197792 11.9000000 0.88 0.31 0.22
v -2.4598240 0.4463922 11.9000000 0.88 0.31 0.22
v -2.4720771 0.3726057 11.9000000 0.88 0.31 0.22
v -2.4821173 0.2984856 11.9000000 0.88 0.31 0.22
v -2.4899357 0.2240983 11.9000000 0.88 0.31 0.22
v -2.4955253 0.1495104 11.9000000 0.88 0.31 0.22
v -2.4988811 0.0747887 11.9000000 0.88 0.31 0.22
v -2.5000000 0.0000000 11.9000000 0.88 0.31 0.22
v -2.4988811 -0.0747887 11.9000000 0.88 0.31 0.22
v -2.4955253 -0.1495104 11.9000000 0.88 0.31 0.22
v -2.4899357 -0.2240983 11.9000000 0.88 0.31 0.22
v -2.4821173 -0.2984856 11.9000000 0.88 0.31 0.22
v -2.4720771 -0.3726057 11.9000000 0.88 0.31 0.22
v -2.4598240 -0.4463922 11.9000000 0.88 0.31 0.22
v -2.4453690 -0.5197792 11.9000000 0.88 0.31 0.22
v -2.4287251 -0.5927009 11.9000000 0.88 0.31 0.22
v -2.4099072 -0.6650921 11.9000000 0.88 0.31 0.22
v -2.3889320 -0.7368879 11.9000000 0.88 0.31 0.22
v -2.3658185 -0.8080241 11.9000000 0.88 0.31 0.22
v -2.3405872 -0.8784371 11.9000000 0.88 0.31 0.22
v -2.3132608 -0.9480637 11.9000000 0.88 0.31 0.22
v -2.2838636 -1.0168416 11.9000000 0.88 0.31 0.22
v -2.2524222 -1.0847093 11.9000000 0.88 0.31 0.22
v -2.2189645 -1.1516061 11.9000000 0.88 0.31 0.22
v -2.1835205 -1.2174721 11.9000000 0.88 0.31 0.22
v -2.1461220 -1.2822482 11.9000000 0.88 0.31 0.22
v -2.1068024 -1.3458765 11.9000000 0.88 0.31 0.22
v -2.0655969 -1.4083001 11.9000000 0.88 0.31 0.22
v -2.0225425 -1.4694631 11.9000000 0.88 0.31 0.22
v -1.9776776 -1.5293107 11.9000000 0.88 0.31 0.22
v -1.9310424 -1.5877894 11.9000000 0.88 0.31 0.22
v -1.8826787 -1.6448468 11.9000000 0.88 0.31 0.22
v -1.8326297 -1.7004318 11.9000000 0.88 0.31 0.22
v -1.7809402 -1.7544948 11.9000000 0.88 0.31 0.22
v -1.7276566 -1.8069872 11.9000000 0.88 0.31 0.22
v -1.6728265 -1.8578621 11.9000000 0.88 0.31 0.22
v -1.6164990 -1.9070739 11.9000000 0.88 0.31 0.22
v -1.5587245 -1.9545787 11.9000000 0.88 0.31 0.22
v -1.4995547 -2.0003339 11.9000000 0.88 0.31 0.22
v -1.4390427 -2.0442985 11.9000000 0.88 0.31 0.22
v -1.3772425 -2.0864331 11.9000000 0.88 0.31 0.22
v -1.3142094 -2.1267002 11.9000000 0.88 0.31 0.22
v -1.2500000 -2.1650635 11.9000000 0.88 0.31 0.22
v -1.1846717 -2.2014888 11.9000000 0.88 0.31 0.22
v -1.1182829 -2.2359435 11.9000000 0.88 0.31 0.22
v -1.0508931 -2.2683967 11.9000000 0.88 0.31 0.22
v -0.9825626 -2.2988194 11.9000000 0.88 0.31 0.22
v -0.9133526 -2.3271844 11.9000000 0.88 0.31 0.22
v -0.8433250 -2.3534662 11.9000000 0.88 0.31 0.22
v -0.7725425 -2.3776413 11.9000000 0.88 0.31 0.22
v -0.7010685 -2.3996881 11.9000000 0.88 0.31 0.22
v -0.6289669 -2.4195869 11.9000000 0.88 0.31 0.22
v -0.5563023 -2.4373198 11.9000000 0.88 0.31 0.22
v -0.4831398 -2.4528710 11.9000000 0.88 0.31 0.22
v -0.4095448 -2.4662265 11.9000000 0.88 0.31 0.22
v -0.3355832 -2.4773744 11.9000000 0.88 0.31 0.22
v -0.2613212 -2.4863047 11.9000000 0.88 0.31 0.22
v -0.1868252 -2.4930095 11.9000000 0.88 0.31 0.22
v -0.1121621 -2.4974827 11.9000000 0.88 0.31 0.22
v -0.0373985 -2.4997203 11.9000000 0.88 0.31 0.22
v 0.0373985 -2.4997203 11.9000000 0.88 0.31 0.22
v 0.1121621 -2.4974827 11.9000000 0.88 0.31 0.22
v 0.1868252 -2.4930095 11.9000000 0.88 0.31 0.22
v 0.2613212 -2.4863047 11.9000000 0.88 0.31 0.22
v 0.3355832 -2.4773744 11.9000000 0.88 0.31 0.22
v 0.4095448 -2.4662265 11.9000000 0.88 0.31 0.22
v 0.4831398 -2.4528710 11.9000000 0.88 0.31 0.22
v 0.5563023 -2.4373198 11.9000000 0.88 0.31 0.22
v 0.6289669 -2.4195869 11.9000000 0.88 0.31 0.22
v 0.7010685 -2.3996881 11.9000000 0.88 0.31 0.22
v 0.7725425 -2.3776413 11.9000000 0.88 0.31 0.22
v 0.8433250 -2.3534662 11.9000000 0.88 0.31 0.22
v 0.9133526 -2.3271844 11.9000000 0.88 0.31 0.22
v 0.9825626 -2.2988194 11.9000000 0.88 0.31 0.22
v 1.0508931 -2.2683967 11.9000000 0.88 0.31 0.22
v 1.1182829 -2.2359435 11.9000000 0.88 0.31 0.22
v 1.1846717 -2.2014888 11.9000000 0.88 0.31 0.22
v 1.2500000 -2.1650635 11.9000000 0.88 0.31 0.22
v 1.3142094 -2.1267002 11.9000000 0.88 0.31 0.22
v 1.3772425 -2.0864331 11.9000000 0.88 0.31 0.22
v 1.4390427 -2.0442985 11.9000000 0.88 0.31 0.22
v 1.4995547 -2.0003339 11.9000000 0.88 0.31 0.22
v 1.5587245 -1.9545787 11.9000000 0.88 0.31 0.22
v 1.6164990 -1.9070739 11.9000000 0.88 0.31 0.22
v 1.6728265 -1.8578621 11.9000000 0.88 0.31 0.22
v 1.7276566 -1.8069872 11.9000000 0.88 0.31 0.22
v 1.7809402 -1.7544948 11.9000000 0.88 0.31 0.22
v 1.8326297 -1.7004318 11.9000000 0.88 0.31 0.22
v 1.8826787 -1.6448468 11.9000000 0.88 0.31 0.22
v 1.9310424 -1.5877894 11.9000000 0.88 0.31 0.22
v 1.9776776 -1.5293107 11.9000000 0.88 0.31 0.22
v 2.0225425 -1.4694631 11.9000000 0.88 0.31 0.22
v 2.0655969 -1.4083001 11.9000000 0.88 0.31 0.22
v 2.1068024 -1.3458765 11.9000000 0.88 0.31 0.22
v 2.1461220 -1.2822482 11.9000000 0.88 0.31 0.22
v 2.1835205 -1.2174721 11.9000000 0.88 0.31 0.22
v 2.2189645 -1.1516061 11.9000000 0.88 0.31 0.22
v 2.2524222 -1.0847093 11.9000000 0.88 0.31 0.22
v 2.2838636 -1.0168416 11.9000000 0.88 0.31 0.22
v 2.3132608 -0.9480637 11.9000000 0.88 0.31 0.22
v 2.3405872 -0.8784371 11.9000000 0.88 0.31 0.22
v 2.3658185 -0.8080241 11.9000000 0.88 0.31 0.22
v 2.3889320 -0.7368879 11.9000000 0.88 0.31 0.22
v 2.4099072 -0.6650921 11.9000000 0.88 0.31 0.22
v 2.4287251 -0.5927009 11.9000000 0.88 0.31 0.22
v 2.4453690 -0.5197792 11.9000000 0.88 0.31 0.22
v 2.4598240 -0.4463922 11.9000000 0.88 0.31 0.22
v 2.4720771 -0.3726057 11.9000000 0.88 0.31 0.22
v 2.4821173 -0.2984856 11.9000000 0.88 0.31 0.22
v 2.4899357 -0.2240983 11.9000000 0.88 0.31 0.22
v 2.4955253 -0.1495104 11.9000000 0.88 0.31 0.22
v 2.4988811 -0.0747887 11.9000000 0.88 0.31 0.22
v 2.5000000 0.0000000 11.9000000 0.88 0.31 0.22
v 2.5000000 0.0000000 10.4000000 0.88 0.31 0.22
v 2.4988811 0.0747887 10.4000000 0.88 0.31 0.22
v 2.4955253 0.1495104 10.4000000 0.88 0.31 0.22
v 2.4899357 0.2240983 10.4000000 0.88 0.31 0.22
v 2.4821173 0.2984856 10.4000000 0.88 0.31 0.22
v 2.4720771 0.3726057 10.4000000 0.88 0.31 0.22
v 2.4598240 0.4463922 10.4000000 0.88 0.31 0.22
v 2.4453690 0.5197792 10.4000000 0.88 0.31 0.22
v 2.4287251 0.5927009 10.4000000 0.88 0.31 0.22
v 2.4099072 0.6650921 10.4000000 0.88 0.31 0.22
v 2.3889320 0.7368879 10.4000000 0.88 0.31 0.22
v 2.3658185 0.8080241 10.4000000 0.88 0.31 0.22
v 2.3405872 0.8784371 10.4000000 0.88 0.31 0.22
v 2.3132608 0.9480637 10.4000000 0.88 0.31 0.22
v 2.2838636 1.0168416 10.4000000 0.88 0.31 0.22
v 2.2524222 1.0847093 10.4000000 0.88 0.31 0.22
v 2.2189645 1.1516061 10.4000000 0.88 0.31 0.22
v 2.1835205 1.2174721 10.4000000 0.88 0.31 0.22
v 2.1461220 1.2822482 10.4000000 0.88 0.31 0.22
v 2.1068024 1.3458765 10.4000000 0.88 0.31 0.22
v 2.0655969 1.4083001 10.4000000 0.88 0.31 0.22
v 2.0225425 1.4694631 10.4000000 0.88 0.31 0.22
v 1.9776776 1.5293107 10.4000000 0.88 0.31 0.22
v 1.9310424 1.5877894 10.4000000 0.88 0.31 0.22
v 1.8826787 1.6448468 10.4000000 0.88 0.31 0.22
v 1.8326297 1.7004318 10.4000000 0.88 0.31 0.22
v 1.7809402 1.7544948 10.4000000 0.88 0.31 0.22
v 1.7276566 1.8069872 10.4000000 0.88 0.31 0.22
v 1.6728265 1.8578621 10.4000000 0.88 0.31 0.22
v 1.6164990 1.9070739 10.4000000 0.88 0.31 0.22
v 1.5587245 1.9545787 10.4000000 0.88 0.31 0.22
v 1.4995547 2.0003339 10.4000000 0.88 0.31 0.22
v 1.4390427 2.0442985 10.4000000 0.88 0.31 0.22
v 1.3772425 2.0864331 10.4000000 0.88 0.31 0.22
v 1.3142094 2.1267002 10.4000000 0.88 0.31 0.22
v 1.2500000 2.1650635 10.4000000 0.88 0.31 0.22
v 1.1846717 2.2014888 10.4000000 0.88 0.31 0.22
v 1.1182829 2.2359435 10.4000000 0.88 0.31 0.22
v 1.0508931 2.2683967 10.4000000 0.88 0.31 0.22
v 0.9825626 2.2988194 10.4000000 0.88 0.31 0.22
v 0.9133526 2.3271844 10.4000000 0.88 0.31 0.22
v 0.8433250 2.3534662 10.4000000 0.88 0.31 0.22
v 0.7725425 2.3776413 10.4000000 0.88 0.31 0.22
v 0.7010685 2.3996881 10.4000000 0.88 0.31 0.22
v 0.6289669 2.4195869 10.4000000 0.88 0.31 0.22
v 0.5563023 2.4373198 10.4000000 0.88 0.31 0.22
v 0.4831398 2.4528710 10.4000000 0.88 0.31 0.22
v 0.4095448 2.4662265 10.4000000 0.88 0.31 0.22
v 0.3355832 2.4773744 10.4000000 0.88 0.31 0.22
v 0.2613212 2.4863047 10.4000000 0.88 0.31 0.22
v 0.1868252 2.4930095 10.4000000 0.88 0.31 0.22
v 0.1121621 2.4974827 10.4000000 0.88 0.31 0.22
v 0.0373985 2.4997203 10.4000000 0.88 0.31 0.22
v -0.0373985 2.4997203 10.4000000 0.88 0.31 0.22
v -0.1121621 2.4974827 10.4000000 0.88 0.31 0.22
v -0.1868252 2.4930095 10.4000000 0.88 0.31 0.22
v -0.2613212 2.4863047 10.4000000 0.88 0.31 0.22
v -0.3355832 2.4773744 10.4000000 0.88 0.31 0.22
v -0.4095448 2.4662265 10.4000000 0.88 0.31 0.22
v -0.4831398 2.4528710 10.4000000 0.88 0.31 0.22
v -0.5563023 2.4373198 10.4000000 0.88 0.31 0.22
v -0.6289669 2.4195869 10.4000000 0.88 0.31 0.22
v -0.7010685 2.3996881 10.4000000 0.88 0.31 0.22
v -0.7725425 2.3776413 10.4000000 0.88 0.31 0.22
v -0.8433250 2.3534662 10.4000000 0.88 0.31 0.22
v -0.9133526 2.3271844 10.4000000 0.88 0.31 0.22
v -0.9825626 2.2988194 10.4000000 0.88 0.31 0.22
v -1.0508931 2.2683967 10.4000000 0.88 0.31 0.22
v -1.1182829 2.2359435 10.4000000 0.88 0.31 0.22
v -1.1846717 2.2014888 10.4000000 0.88 0.31 0.22
v -1.2500000 2.1650635 10.4000000 0.88 0.31 0.22
v -1.3142094 2.1267002 10.4000000 0.88 0.31 0.22
v -1.3772425 2.0864331 10.4000000 0.88 0.31 0.22
v -1.4390427 2.0442985 10.4000000 0.88 0.31 0.22
v -1.4995547 2.0003339 10.4000000 0.88 0.31 0.22
v -1.5587245 1.9545787 10.4000000 0.88 0.31 0.22
v -1.6164990 1.9070739 10.4000000 0.88 0.31 0.22
v -1.6728265 1.8578621 10.4000000 0.88 0.31 0.22
v -1.7276566 1.8069872 10.4000000 0.88 0.31 0.22
v -1.7809402 1.7544948 10.4000000 0.88 0.31 0.22
v -1.8326297 1.7004318 10.4000000 0.88 0.31 0.22
v -1.8826787 1.6448468 10.4000000 0.88 0.31 0.22
v -1.9310424 1.5877894 10.4000000 0.88 0.31 0.22
v -1.9776776 1.5293107 10.4000000 0.88 0.31 0.22
v -2.0225425 1.4694631 10.4000000 0.88 0.31 0.22
v -2.0655969 1.4083001 10.4000000 0.88 0.31 0.22
v -2.1068024 1.3458765 10.4000000 0.88 0.31 0.22
v -2.1461220 1.2822482 10.4000000 0.88 0.31 0.22
v -2.1835205 1.2174721 10.4000000 0.88 0.31 0.22
v -2.2189645 1.1516061 10.4000000 0.88 0.31 0.22
v -2.2524222 1.0847093 10.4000000 0.88 0.31 0.22
v -2.2838636 1.0168416 10.4000000 0.88 0.31 0.22
v -2.3132608 0.9480637 10.4000000 0.88 0.31 0.22
v -2.3405872 0.8784371 10.4000000 0.88 0.31 0.22
v -2.3658185 0.8080241 10.4000000 0.88 0.31 0.22
v -2.3889320 0.7368879 10.4000000 0.88 0.31 0.22
v -2.4099072 0.6650921 10.4000000 0.88 0.31 0.22
v -2.4287251 0.5927009 10.4000000 0.88 0.31 0.22
v -2.4453690 0.5197792 10.4000000 0.88 0.31 0.22
v -2.4598240 0.4463922 10.4000000 0.88 0.31 0.22
v -2.4720771 0.3726057 10.4000000 0.88 0.31 0.22
v -2.4821173 0.2984856 10.4000000 0.88 0.31 0.22
v -2.4899357 0.2240983 10.4000000 0.88 0.31 0.22
v -2.4955253 0.1495104 10.4000000 0.88 0.31 0.22
v -2.4988811 0.0747887 10.4000000 0.88 0.31 0.22
v -2.5000000 0.0000000 10.4000000 0.88 0.31 0.22
v -2.4988811 -0.0747887 10.4000000 0.88 0.31 0.22
v -2.4955253 -0.1495104 10.4000000 0.88 0.31 0.22
v -2.4899357 -0.2240983 10.4000000 0.88 0.31 0.22
v -2.4821173 -0.2984856 10.4000000 0.88 0.31 0.22
v -2.4720771 -0.3726057 10.4000000 0.88 0.31 0.22
v -2.4598240 -0.4463922 10.4000000 0.88 0.31 0.22
v -2.4453690 -0.5197792 10.4000000 0.88 0.31 0.22
v -2.4287251 -0.5927009 10.4000000 0.88 0.31 0.22
v -2.4099072 -0.6650921 10.4000000 0.88 0.31 0.22
v -2.3889320 -0.7368879 10.4000000 0.88 0.31 0.22
v -2.3658185 -0.8080241 10.4000000 0.88 0.31 0.22
v -2.3405872 -0.8784371 10.4000000 0.88 0.31 0.22
v -2.3132608 -0.9480637 10.4000000 0.88 0.31 0.22
v -2.2838636 -1.0168416 10.4000000 0.88 0.31 0.22
v -2.2524222 -1.0847093 10.4000000 0.88 0.31 0.22
v -2.2189645 -1.1516061 10.4000000 0.88 0.31 0.22
v -2.1835205 -1.2174721 10.4000000 0.88 0.31 0.22
v -2.1461220 -1.2822482 10.4000000 0.88 0.31 0.22
v -2.1068024 -1.3458765 10.4000000 0.88 0.31 0.22
v -2.0655969 -1.4083001 10.4000000 0.88 0.31 0.22
v -2.0225425 -1.4694631 10.4000000 0.88 0.31 0.22
v -1.9776776 -1.5293107 10.4000000 0.88 0.31 0.22
v -1.9310424 -1.5877894 10.4000000 0.88 0.31 0.22
v -1.8826787 -1.6448468 10.4000000 0.88 0.31 0.22
v -1.8326297 -1.7004318 10.4000000 0.88 0.31 0.22
v -1.7809402 -1.7544948 10.4000000 0.88 0.31 0.22
v -1.7276566 -1.8069872 10.4000000 0.88 0.31 0.22
v -1.6728265 -1.8578621 10.4000000 0.88 0.31 0.22
v -1.6164990 -1.9070739 10.4000000 0.88 0.31 0.22
v -1.5587245 -1.9545787 10.4000000 0.88 0.31 0.22
v -1.4995547 -2.0003339 10.4000000 0.88 0.31 0.22
v -1.4390427 -2.0442985 10.4000000 0.88 0.31 0.22
v -1.3772425 -2.0864331 10.4000000 0.88 0.31 0.22
v -1.3142094 -2.1267002 10.4000000 0.88 0.31 0.22
v -1.2500000 -2.1650635 10.4000000 0.88 0.31 0.22
v -1.1846717 -2.2014888 10.4000000 0.88 0.31 0.22
v -1.1182829 -2.2359435 10.4000000 0.88 0.31 0.22
v -1.0508931 -2.2683967 10.4000000 0.88 0.31 0.22
v -0.9825626 -2.2988194 10.4000000 0.88 0.31 0.22
v -0.9133526 -2.3271844 10.4000000 0.88 0.31 0.22
v -0.8433250 -2.3534662 10.4000000 0.88 0.31 0.22
v -0.7725425 -2.3776413 10.4000000 0.88 0.31 0.22
v -0.7010685 -2.3996881 10.4000000 0.88 0.31 0.22
v -0.6289669 -2.4195869 10.4000000 0.88 0.31 0.22
v -0.5563023 -2.4373198 10.4000000 0.88 0.31 0.22
v -0.4831398 -2.4528710 10.4000000 0.88 0.31 0.22
v -0.4095448 -2.4662265 10.4000000 0.88 0.31 0.22
v -0.3355832 -2.4773744 10.4000000 0.88 0.31 0.22
v -0.2613212 -2.4863047 10.4000000 0.88 0.31 0.22
v -0.1868252 -2.4930095 10.4000000 0.88 0.31 0.22
v -0.1121621 -2.4974827 10.4000000 0.88 0.31 0.22
v -0.0373985 -2.4997203 10.4000000 0.88 0.31 0.22
v 0.0373985 -2.4997203 10.4000000 0.88 0.31 0.22
v 0.1121621 -2.4974827 10.4000000 0.88 0.31 0.22
v 0.1868252 -2.4930095 10.4000000 0.88 0.31 0.22
v 0.2613212 -2.4863047 10.4000000 0.88 0.31 0.22
v 0.3355832 -2.4773744 10.4000000 0.88 0.31 0.22
v 0.4095448 -2.4662265 10.4000000 0.88 0.31 0.22
v 0.4831398 -2.4528710 10.4000000 0.88 0.31 0.22
v 0.5563023 -2.4373198 10.4000000 0.88 0.31 0.22
v 0.6289669 -2.4195869 10.4000000 0.88 0.31 0.22
v 0.7010685 -2.3996881 10.4000000 0.88 0.31 0.22
v 0.7725425 -2.3776413 10.4000000 0.88 0.31 0.22
v 0.8433250 -2.3534662 10.4000000 0.88 0.31 0.22
v 0.9133526 -2.3271844 10.4000000 0.88 0.31 0.22
v 0.9825626 -2.2988194 10.4000000 0.88 0.31 0.22
v 1.0508931 -2.2683967 10.4000000 0.88 0.31 0.22
v 1.1182829 -2.2359435 10.4000000 0.88 0.31 0.22
v 1.1846717 -2.2014888 10.4000000 0.88 0.31 0.22
v 1.2500000 -2.1650635 10.4000000 0.88 0.31 0.22
v 1.3142094 -2.1267002 10.4000000 0.88 0.31 0.22
v 1.3772425 -2.0864331 10.4000000 0.88 0.31 0.22
v 1.4390427 -2.0442985 10.4000000 0.88 0.31 0.22
v 1.4995547 -2.0003339 10.4000000 0.88 0.31 0.22
v 1.5587245 -1.9545787 10.4000000 0.88 0.31 0.22
v 1.6164990 -1.9070739 10.4000000 0.88 0.31 0.22
v 1.6728265 -1.8578621 10.4000000 0.88 0.31 0.22
v 1.7276566 -1.8069872 10.4000000 0.88 0.31 0.22
v 1.7809402 -1.7544948 10.4000000 0.88 0.31 0.22
v 1.8326297 -1.7004318 10.4000000 0.88 0.31 0.22
v 1.8826787 -1.6448468 10.4000000 0.88 0.31 0.22
v 1.9310424 -1.5877894 10.4000000 0.88 0.31 0.22
v 1.9776776 -1.5293107 10.4000000 0.88 0.31 0.22
v 2.0225425 -1.4694631 10.4000000 0.88 0.31 0.22
v 2.0655969 -1.4083001 10.4000000 0.88 0.31 0.22
v 2.1068024 -1.3458765 10.4000000 0.88 0.31 0.22
v 2.1461220 -1.2822482 10.4000000 0.88 0.31 0.22
v 2.1835205 -1.2174721 10.4000000 0.88 0.31 0.22
v 2.2189645 -1.1516061 10.4000000 0.88 0.31 0.22
v 2.2524222 -1.0847093 10.4000000 0.88 0.31 0.22
v 2.2838636 -1.0168416 10.4000000 0.88 0.31 0.22
v 2.3132608 -0.9480637 10.4000000 0.88 0.31 0.22
v 2.3405872 -0.8784371 10.4000000 0.88 0.31 0.22
v 2.3658185 -0.8080241 10.4000000 0.88 0.31 0.22
v 2.3889320 -0.7368879 10.4000000 0.88 0.31 0.22
v 2.4099072 -0.6650921 10.4000000 0.88 0.31 0.22
v 2.4287251 -0.5927009 10.4000000 0.88 0.31 0.22
v 2.4453690 -0.5197792 10.4000000 0.88 0.31 0.22
v 2.4598240 -0.4463922 10.4000000 0.88 0.31 0.22
v 2.4720771 -0.3726057 10.4000000 0.88 0.31 0.22
v 2.4821173 -0.2984856 10.4000000 0.88 0.31 0.22
v 2.4899357 -0.2240983 10.4000000 0.88 0.31 0.22
v 2.4955253 -0.1495104 10.4000000 0.88 0.31 0.22
v 2.4988811 -0.0747887 10.4000000 0.88 0.31 0.22
v 2.5000000 0.0000000 10.4000000 0.88 0.31 0.22
v 2.4988811 0.0747887 10.4000000 0.88 0.31 0.22
v 2.4955253 0.1495104 10.4000000 0.88 0.31 0.22
v 2.4899357 0.2240983 10.4000000 0.88 0.31 0.22
v 2.4821173 0.2984856 10.4000000 0.88 0.31 0.22
v 2.4720771 0.3726057 10.4000000 0.88 0.31 0.22
v 2.4598240 0.4463922 10.4000000 0.88 0.31 0.22
v 2.4453690 0.5197792 10.4000000 0.88 0.31 0.22
v 2.4287251 0.5927009 10.4000000 0.88 0.31 0.22
v 2.4099072 0.6650921 10.4000000 0.88 0.31 0.22
v 2.3889320 0.7368879 10.4000000 0.88 0.31 0.22
v 2.3658185 0.8080241 10.4000000 0.88 0.31 0.22
v 2.3405872 0.8784371 10.4000000 0.88 0.31 0.22
v 2.3132608 0.9480637 10.4000000 0.88 0.31 0.22
v 2.2838636 1.0168416 10.4000000 0.88 0.31 0.22
v 2.2524222 1.0847093 10.4000000 0.88 0.31 0.22
v 2.2189645 1.1516061 10.4000000 0.88 0.31 0.22
v 2.1835205 1.2174721 10.4000000 0.88 0.31 0.22
v 2.1461220 1.2822482 10.4000000 0.88 0.31 0.22
v 2.1068024 1.3458765 10.4000000 0.88 0.31 0.22
v 2.0655969 1.4083001 10.4000000 0.88 0.31 0.22
v 2.0225425 1.4694631 10.4000000 0.88 0.31 0.22
v 1.9776776 1.5293107 10.4000000 0.88 0.31 0.22
v 1.9310424 1.5877894 10.4000000 0.88 0.31 0.22
v 1.8826787 1.6448468 10.4000000 0.88 0.31 0.22
v 1.8326297 1.7004318 10.4000000 0.88 0.31 0.22
v 1.7809402 1.7544948 10.4000000 0.88 0.31 0.22
v 1.7276566 1.8069872 10.4000000 0.88 0.31 0.22
v 1.6728265 1.8578621 10.4000000 0.88 0.31 0.22
v 1.6164990 1.9070739 10.4000000 0.88 0.31 0.22
v 1.5587245 1.9545787 10.4000000 0.88 0.31 0.22
v 1.4995547 2.0003339 10.4000000 0.88 0.31 0.22
v 1.4390427 2.0442985 10.4000000 0.88 0.31 0.22
v 1.3772425 2.0864331 10.4000000 0.88 0.31 0.22
v 1.3142094 2.1267002 10.4000000 0.88 0.31 0.22
v 1.2500000 2.1650635 10.4000000 0.88 0.31 0.22
v 1.1846717 2.2014888 10.4000000 0.88 0.31 0.22
v 1.1182829 2.2359435 10.4000000 0.88 0.31 0.22
v 1.0508931 2.2683967 10.4000000 0.88 0.31 0.22
v 0.9825626 2.2988194 10.4000000 0.88 0.31 0.22
v 0.9133526 2.3271844 10.4000000 0.88 0.31 0.22
v 0.8433250 2.3534662 10.4000000 0.88 0.31 0.22
v 0.7725425 2.3776413 10.4000000 0.88 0.31 0.22
v 0.7010685 2.3996881 10.4000000 0.88 0.31 0.22
v 0.6289669 2.4195869 10.4000000 0.88 0.31 0.22
v 0.5563023 2.4373198 10.4000000 0.88 0.31 0.22
v 0.4831398 2.4528710 10.4000000 0.88 0.31 0.22
v 0.4095448 2.4662265 10.4000000 0.88 0.31 0.22
v 0.3355832 2.4773744 10.4000000 0.88 0.31 0.22
v 0.2613212 2.4863047 10.4000000 0.88 0.31 0.22
v 0.1868252 2.4930095 10.4000000 0.88 0.31 0.22
v 0.1121621 2.4974827 10.4000000 0.88 0.31 0.22
v 0.0373985 2.4997203 10.4000000 0.88 0.31 0.22
v -0.0373985 2.4997203 10.4000000 0.88 0.31 0.22
v -0.1121621 2.4974827 10.4000000 0.88 0.31 0.22
v -0.1868252 2.4930095 10.4000000 0.88 0.31 0.22
v -0.2613212 2.4863047 10.4000000 0.88 0.31 0.22
v -0.3355832 2.4773744 10.4000000 0.88 0.31 0.22
v -0.4095448 2.4662265 10.4000000 0.88 0.31 0.22
v -0.4831398 2.4528710 10.4000000 0.88 0.31 0.22
v -0.5563023 2.4373198 10.4000000 0.88 0.31 0.22
v -0.6289669 2.4195869 10.4000000 0.88 0.31 0.22
v -0.7010685 2.3996881 10.4000000 0.88 0.31 0.22
v -0.7725425 2.3776413 10.4000000 0.88 0.31 0.22
v -0.8433250 2.3534662 10.4000000 0.88 0.31 0.22
v -0.9133526 2.3271844 10.4000000 0.88 0.31 0.22
v -0.9825626 2.2988194 10.4000000 0.88 0.31 0.22
v -1.0508931 2.2683967 10.4000000 0.88 0.31 0.22
v -1.1182829 2.2359435 10.4000000 0.88 0.31 0.22
v -1.1846717 2.2014888 10.4000000 0.88 0.31 0.22
v -1.2500000 2.1650635 10.4000000 0.88 0.31 0.22
v -1.3142094 2.1267002 10.4000000 0.88 0.31 0.22
v -1.3772425 2.0864331 10.4000000 0.88 0.31 0.22
v -1.4390427 2.0442985 10.4000000 0.88 0.31 0.22
v -1.4995547 2.0003339 10.4000000 0.88 0.31 0.22
v -1.5587245 1.9545787 10.4000000 0.88 0.31 0.22
v -1.6164990 1.9070739 10.4000000 0.88 0.31 0.22
v -1.6728265 1.8578621 10.4000000 0.88 0.31 0.22
v -1.7276566 1.8069872 10.4000000 0.88 0.31 0.22
v -1.7809402 1.7544948 10.4000000 0.88 0.31 0.22
v -1.8326297 1.7004318 10.4000000 0.88 0.31 0.22
v -1.8826787 1.6448468 10.4000000 0.88 0.31 0.22
v -1.9310424 1.5877894 10.4000000 0.88 0.31 0.22
v -1.9776776 1.5293107 10.4000000 0.88 0.31 0.22
v -2.0225425 1.4694631 10.4000000 0.88 0.31 0.22
v -2.0655969 1.4083001 10.4000000 0.88 0.31 0.22
v -2.1068024 1.3458765 10.4000000 0.88 0.31 0.22
v -2.1461220 1.2822482 10.4000000 0.88 0.31 0.22
v -2.1835205 1.2174721 10.4000000 0.88 0.31 0.22
v -2.2189645 1.1516061 10.4000000 0.88 0.31 0.22
v -2.2524222 1.0847093 10.4000000 0.88 0.31 0.22
v -2.2838636 1.0168416 10.4000000 0.88 0.31 0.22
v -2.3132608 0.9480637 10.4000000 0.88 0.31 0.22
v -2.3405872 0.8784371 10.4000000 0.88 0.31 0.22
v -2.3658185 0.8080241 10.4000000 0.88 0.31 0.22
v -2.3889320 0.7368879 10.4000000 0.88 0.31 0.22
v -2.4099072 0.6650921 10.4000000 0.88 0.31 0.22
v -2.4287251 0.5927009 10.4000000 0.88 0.31 0.22
v -2.4453690 0.5197792 10.4000000 0.88 0.31 0.22
v -2.4598240 0.4463922 10.4000000 0.88 0.31 0.22
v -2.4720771 0.3726057 10.4000000 0.88 0.31 0.22
v -2.4821173 0.2984856 10.4000000 0.88 0.31 0.22
v -2.4899357 0.2240983 10.4000000 0.88 0.31 0.22
v -2.4955253 0.1495104 10.4000000 0.88 0.31 0.22
v -2.4988811 0.0747887 10.4000000 0.88 0.31 0.22
v -2.5000000 0.0000000 10.4000000 0.88 0.31 0.22
v -2.4988811 -0.0747887 10.4000000 0.88 0.31 0.22
v -2.4955253 -0.1495104 10.4000000 0.88 0.31 0.22
v -2.4899357 -0.2240983 10.4000000 0.88 0.31 0.22
v -2.4821173 -0.2984856 10.4000000 0.88 0.31 0.22
v -2.4720771 -0.3726057 10.4000000 0.88 0.31 0.22
v -2.4598240 -0.4463922 10.4000000 0.88 0.31 0.22
v -2.4453690 -0.5197792 10.4000000 0.88 0.31 0.22
v -2.4287251 -0.5927009 10.4000000 0.88 0.31 0.22
v -2.4099072 -0.6650921 10.4000000 0.88 0.31 0.22
v -2.3889320 -0.7368879 10.4000000 0.88 0.31 0.22
v -2.3658185 -0.8080241 10.4000000 0.88 0.31 0.22
v -2.3405872 -0.8784371 10.4000000 0.88 0.31 0.22
v -2.3132608 -0.9480637 10.4000000 0.88 0.31 0.22
v -2.2838636 -1.0168416 10.4000000 0.88 0.31 0.22
v -2.2524222 -1.0847093 10.4000000 0.88 0.31 0.22
v -2.2189645 -1.1516061 10.4000000 0.88 0.31 0.22
v -2.1835205 -1.2174721 10.4000000 0.88 0.31 0.22
v -2.1461220 -1.2822482 10.4000000 0.88 0.31 0.22
v -2.1068024 -1.3458765 10.4000000 0.88 0.31 0.22
v -2.0655969 -1.4083001 10.4000000 0.88 0.31 0.22
v -2.0225425 -1.4694631 10.4000000 0.88 0.31 0.22
v -1.9776776 -1.5293107 10.4000000 0.88 0.31 0.22
v -1.9310424 -1.5877894 10.4000000 0.88 0.31 0.22
v -1.8826787 -1.6448468 10.4000000 0.88 0.31 0.22
v -1.8326297 -1.7004318 10.4000000 0.88 0.31 0.22
v -1.7809402 -1.7544948 10.4000000 0.88 0.31 0.22
v -1.7276566 -1.8069872 10.4000000 0.88 0.31 0.22
v -1.6728265 -1.8578621 10.4000000 0.88 0.31 0.22
v -1.6164990 -1.9070739 10.4000000 0.88 0.31 0.22
v -1.5587245 -1.9545787 10.4000000 0.88 0.31 0.22
v -1.4995547 -2.0003339 10.4000000 0.88 0.31 0.22
v -1.4390427 -2.0442985 10.4000000 0.88 0.31 0.22
v -1.3772425 -2.0864331 10.4000000 0.88 0.31 0.22
v -1.3142094 -2.1267002 10.4000000 0.88 0.31 0.22
v -1.2500000 -2.1650635 10.4000000 0.88 0.31 0.22
v -1.1846717 -2.2014888 10.4000000 0.88 0.31 0.22
v -1.1182829 -2.2359435 10.4000000 0.88 0.31 0.22
v -1.0508931 -2.2683967 10.4000000 0.88 0.31 0.22
v -0.9825626 -2.2988194 10.4000000 0.88 0.31 0.22
v -0.9133526 -2.3271844 10.4000000 0.88 0.31 0.22
v -0.8433250 -2.3534662 10.4000000 0.88 0.31 0.22
v -0.7725425 -2.3776413 10.4000000 0.88 0.31 0.22
v -0.7010685 -2.3996881 10.4000000 0.88 0.31 0.22
v -0.6289669 -2.4195869 10.4000000 0.88 0.31 0.22
v -0.5563023 -2.4373198 10.4000000 0.88 0.31 0.22
v -0.4831398 -2.4528710 10.4000000 0.88 0.31 0.22
v -0.4095448 -2.4662265 10.4000000 0.88 0.31 0.22
v -0.3355832 -2.4773744 10.4000000 0.88 0.31 0.22
v -0.2613212 -2.4863047 10.4000000 0.88 0.31 0.22
v -0.1868252 -2.4930095 10.4000000 0.88 0.31 0.22
v -0.1121621 -2.4974827 10.4000000 0.88 0.31 0.22
v -0.0373985 -2.4997203 10.4000000 0.88 0.31 0.22
v 0.0373985 -2.4997203 10.4000000 0.88 0.31 0.22
v 0.1121621 -2.4974827 10.4000000 0.88 0.31 0.22
v 0.1868252 -2.4930095 10.4000000 0.88 0.31 0.22
v 0.2613212 -2.4863047 10.4000000 0.88 0.31 0.22
v 0.3355832 -2.4773744 10.4000000 0.88 0.31 0.22
v 0.4095448 -2.4662265 10.4000000 0.88 0.31 0.22
v 0.4831398 -2.4528710 10.4000000 0.88 0.31 0.22
v 0.5563023 -2.4373198 10.4000000 0.88 0.31 0.22
v 0.6289669 -2.4195869 10.4000000 0.88 0.31 0.22
v 0.7010685 -2.3996881 10.4000000 0.88 0.31 0.22
v 0.7725425 -2.3776413 10.4000000 0.88 0.31 0.22
v 0.8433250 -2.3534662 10.4000000 0.88 0.31 0.22
v 0.9133526 -2.3271844 10.4000000 0.88 0.31 0.22
v 0.9825626 -2.2988194 10.4000000 0.88 0.31 0.22
v 1.0508931 -2.2683967 10.4000000 0.88 0.31 0.22
v 1.1182829 -2.2359435 10.4000000 0.88 0.31 0.22
v 1.1846717 -2.2014888 10.4000000 0.88 0.31 0.22
v 1.2500000 -2.1650635 10.4000000 0.88 0.31 0.22
v 1.3142094 -2.1267002 10.4000000 0.88 0.31 0.22
v 1.3772425 -2.0864331 10.4000000 0.88 0.31 0.22
v 1.4390427 -2.0442985 10.4000000 0.88 0.31 0.22
v 1.4995547 -2.0003339 10.4000000 0.88 0.31 0.22
v 1.5587245 -1.9545787 10.4000000 0.88 0.31 0.22
v 1.6164990 -1.9070739 10.4000000 0.88 0.31 0.22
v 1.6728265 -1.8578621 10.4000000 0.88 0.31 0.22
v 1.7276566 -1.8069872 10.4000000 0.88 0.31 0.22
v 1.7809402 -1.7544948 10.4000000 0.88 0.31 0.22
v 1.8326297 -1.7004318 10.4000000 0.88 0.31 0.22
v 1.8826787 -1.6448468 10.4000000 0.88 0.31 0.22
v 1.9310424 -1.5877894 10.4000000 0.88 0.31 0.22
v 1.9776776 -1.5293107 10.4000000 0.88 0.31 0.22
v 2.0225425 -1.4694631 10.4000000 0.88 0.31 0.22
v 2.0655969 -1.4083001 10.4000000 0.88 0.31 0.22
v 2.1068024 -1.3458765 10.4000000 0.88 0.31 0.22
v 2.1461220 -1.2822482 10.4000000 0.88 0.31 0.22
v 2.1835205 -1.2174721 10.4000000 0.88 0.31 0.22
v 2.2189645 -1.1516061 10.4000000 0.88 0.31 0.22
v 2.2524222 -1.0847093 10.4000000 0.88 0.31 0.22
v 2.2838636 -1.0168416 10.4000000 0.88 0.31 0.22
v 2.3132608 -0.9480637 10.4000000 0.88 0.31 0.22
v 2.3405872 -0.8784371 10.4000000 0.88 0.31 0.22
v 2.3658185 -0.8080241 10.4000000 0.88 0.31 0.22
v 2.3889320 -0.7368879 10.4000000 0.88 0.31 0.22
v 2.4099072 -0.6650921 10.4000000 0.88 0.31 0.22
v 2.4287251 -0.5927009 10.4000000 0.88 0.31 0.22
v 2.4453690 -0.5197792 10.4000000 0.88 0.31 0.22
v 2.4598240 -0.4463922 10.4000000 0.88 0.31 0.22
v 2.4720771 -0.3726057 10.4000000 0.88 0.31 0.22
v 2.4821173 -0.2984856 10.4000000 0.88 0.31 0.22
v 2.4899357 -0.2240983 10.4000000 0.88 0.31 0.22
v 2.4955253 -0.1495104 10.4000000 0.88 0.31 0.22
v 2.4988811 -0.0747887 10.4000000 0.88 0.31 0.22
v 2.5000000 0.0000000 11.9000000 0.88 0.31 0.22
v 2.4988811 0.0747887 11.9000000 0.88 0.31 0.22
v 2.4955253 0.1495104 11.9000000 0.88 0.31 0.22
v 2.4899357 0.2240983 11.9000000 0.88 0.31 0.22
v 2.4821173 0.2984856 11.9000000 0.88 0.31 0.22
v 2.4720771 0.3726057 11.9000000 0.88 0.31 0.22
v 2.4598240 0.4463922 11.9000000 0.88 0.31 0.22
v 2.4453690 0.5197792 11.9000000 0.88 0.31 0.22
v 2.4287251 0.5927009 11.9000000 0.88 0.31 0.22
v 2.4099072 0.6650921 11.9000000 0.88 0.31 0.22
v 2.3889320 0.7368879 11.9000000 0.88 0.31 0.22
v 2.3658185 0.8080241 11.9000000 0.88 0.31 0.22
v 2.3405872 0.8784371 11.9000000 0.88 0.31 0.22
v 2.3132608 0.9480637 11.9000000 0.88 0.31 0.22
v 2.2838636 1.0168416 11.9000000 0.88 0.31 0.22
v 2.2524222 1.0847093 11.9000000 0.88 0.31 0.22
v 2.2189645 1.1516061 11.9000000 0.88 0.31 0.22
v 2.1835205 1.2174721 11.9000000 0.88 0.31 0.22
v 2.1461220 1.2822482 11.9000000 0.88 0.31 0.22
v 2.1068024 1.3458765 11.9000000 0.88 0.31 0.22
v 2.0655969 1.4083001 11.9000000 0.88 0.31 0.22
v 2.0225425 1.4694631 11.9000000 0.88 0.31 0.22
v 1.9776776 1.5293107 11.9000000 0.88 0.31 0.22
v 1.9310424 1.5877894 11.9000000 0.88 0.31 0.22
v 1.8826787 1.6448468 11.9000000 0.88 0.31 0.22
v 1.8326297 1.7004318 11.9000000 0.88 0.31 0.22
v 1.7809402 1.7544948 11.9000000 0.88 0.31 0.22
v 1.7276566 1.8069872 11.9000000 0.88 0.31 0.22
v 1.6728265 1.8578621 11.9000000 0.88 0.31 0.22
v 1.6164990 1.9070739 11.9000000 0.88 0.31 0.22
v 1.5587245 1.9545787 11.9000000 0.88 0.31 0.22
v 1.4995547 2.0003339 11.9000000 0.88 0.31 0.22
v 1.4390427 2.0442985 11.9000000 0.88 0.31 0.22
v 1.3772425 2.0864331 11.9000000 0.88 0.31 0.22
v 1.3142094 2.1267002 11.9000000 0.88 0.31 0.22
v 1.2500000 2.1650635 11.9000000 0.88 0.31 0.22
v 1.1846717 2.2014888 11.9000000 0.88 0.31 0.22
v 1.1182829 2.2359435 11.9000000 0.88 0.31 0.22
v 1.0508931 2.2683967 11.9000000 0.88 0.31 0.22
v 0.9825626 2.2988194 11.9000000 0.88 0.31 0.22
v 0.9133526 2.3271844 11.9000000 0.88 0.31 0.22
v 0.8433250 2.3534662 11.9000000 0.88 0.31 0.22
v 0.7725425 2.3776413 11.9000000 0.88 0.31 0.22
v 0.7010685 2.3996881 11.9000000 0.88 0.31 0.22
v 0.6289669 2.4195869 11.9000000 0.88 0.31 0.22
v 0.5563023 2.4373198 11.9000000 0.88 0.31 0.22
v 0.4831398 2.4528710 11.9000000 0.88 0.31 0.22
v 0.4095448 2.4662265 11.9000000 0.88 0.31 0.22
v 0.3355832 2.4773744 11.9000000 0.88 0.31 0.22
v 0.2613212 2.4863047 11.9000000 0.88 0.31 0.22
v 0.1868252 2.4930095 11.9000000 0.88 0.31 0.22
v 0.1121621 2.4974827 11.9000000 0.88 0.31 0.22
v 0.0373985 2.4997203 11.9000000 0.88 0.31 0.22
v -0.0373985 2.4997203 11.9000000 0.88 0.31 0.22
v -0.1121621 2.4974827 11.9000000 0.88 0.31 0.22
v -0.1868252 2.4930095 11.9000000 0.88 0.31 0.22
v -0.2613212 2.4863047 11.9000000 0.88 0.31 0.22
v -0.3355832 2.4773744 11.9000000 0.88 0.31 0.22
v -0.4095448 2.4662265 11.9000000 0.88 0.31 0.22
v -0.4831398 2.4528710 11.9000000 0.88 0.31 0.22
v -0.5563023 2.4373198 11.9000000 0.88 0.31 0.22
v -0.6289669 2.4195869 11.9000000 0.88 0.31 0.22
v -0.7010685 2.3996881 11.9000000 0.88 0.31 0.22
v -0.7725425 2.3776413 11.9000000 0.88 0.31 0.22
v -0.8433250 2.3534662 11.9000000 0.88 0.31 0.22
v -0.9133526 2.3271844 11.9000000 0.88 0.31 0.22
v -0.9825626 2.2988194 11.9000000 0.88 0.31 0.22
v -1.0508931 2.2683967 11.9000000 0.88 0.31 0.22
v -1.1182829 2.2359435 11.9000000 0.88 0.31 0.22
v -1.1846717 2.2014888 11.9000000 0.88 0.31 0.22
v -1.2500000 2.1650635 11.9000000 0.88 0.31 0.22
v -1.3142094 2.1267002 11.9000000 0.88 0.31 0.22
v -1.3772425 2.0864331 11.9000000 0.88 0.31 0.22
v -1.4390427 2.0442985 11.9000000 0.88 0.31 0.22
v -1.4995547 2.0003339 11.9000000 0.88 0.31 0.22
v -1.5587245 1.9545787 11.9000000 0.88 0.31 0.22
v -1.6164990 1.9070739 11.9000000 0.88 0.31 0.22
v -1.6728265 1.8578621 11.9000000 0.88 0.31 0.22
v -1.7276566 1.8069872 11.9000000 0.88 0.31 0.22
v -1.7809402 1.7544948 11.9000000 0.88 0.31 0.22
v -1.8326297 1.7004318 11.9000000 0.88 0.31 0.22
v -1.8826787 1.6448468 11.9000000 0.88 0.31 0.22
v -1.9310424 1.5877894 11.9000000 0.88 0.31 0.22
v -1.9776776 1.5293107 11.9000000 0.88 0.31 0.22
v -2.0225425 1.4694631 11.9000000 0.88 0.31 0.22
v -2.0655969 1.4083001 11.9000000 0.88 0.31 0.22
v -2.1068024 1.3458765 11.9000000 0.88 0.31 0.22
v -2.1461220 1.2822482 11.9000000 0.88 0.31 0.22
v -2.1835205 1.2174721 11.9000000 0.88 0.31 0.22
v -2.2189645 1.1516061 11.9000000 0.88 0.31 0.22
v -2.2524222 1.0847093 11.9000000 0.88 0.31 0.22
v -2.2838636 1.0168416 11.9000000 0.88 0.31 0.22
v -2.3132608 0.9480637 11.9000000 0.88 0.31 0.22
v -2.3405872 0.8784371 11.9000000 0.88 0.31 0.22
v -2.3658185 0.8080241 11.9000000 0.88 0.31 0.22
v -2.3889320 0.7368879 11.9000000 0.88 0.31 0.22
v -2.4099072 0.6650921 11.9000000 0.88 0.31 0.22
v -2.4287251 0.5927009 11.9000000 0.88 0.31 0.22
v -2.4453690 0.5197792 11.9000000 0.88 0.31 0.22
v -2.4598240 0.4463922 11.9000000 0.88 0.31 0.22
v -2.4720771 0.3726057 11.9000000 0.88 0.31 0.22
v -2.4821173 0.2984856 11.9000000 0.88 0.31 0.22
v -2.4899357 0.2240983 11.9000000 0.88 0.31 0.22
v -2.4955253 0.1495104 11.9000000 0.88 0.31 0.22
v -2.4988811 0.0747887 11.9000000 0.88 0.31 0.22
v -2.5000000 0.0000000 11.9000000 0.88 0.31 0.22
v -2.4988811 -0.0747887 11.9000000 0.88 0.31 0.22
v -2.4955253 -0.1495104 11.9000000 0.88 0.31 0.22
v -2.4899357 -0.2240983 11.9000000 0.88 0.31 0.22
v -2.4821173 -0.2984856 11.9000000 0.88 0.31 0.22
v -2.4720771 -0.3726057 11.9000000 0.88 0.31 0.22
v -2.4598240 -0.4463922 11.9000000 0.88 0.31 0.22
v -2.4453690 -0.5197792 11.9000000 0.88 0.31 0.22
v -2.4287251 -0.5927009 11.9000000 0.88 0.31 0.22
v -2.4099072 -0.6650921 11.9000000 0.88 0.31 0.22
v -2.3889320 -0.7368879 11.9000000 0.88 0.31 0.22
v -2.3658185 -0.8080241 11.9000000 0.88 0.31 0.22
v -2.3405872 -0.8784371 11.9000000 0.88 0.31 0.22
v -2.3132608 -0.9480637 11.9000000 0.88 0.31 0.22
v -2.2838636 -1.0168416 11.9000000 0.88 0.31 0.22
v -2.2524222 -1.0847093 11.9000000 0.88 0.31 0.22
v -2.2189645 -1.1516061 11.9000000 0.88 0.31 0.22
v -2.1835205 -1.2174721 11.9000000 0.88 0.31 0.22
v -2.1461220 -1.2822482 11.9000000 0.88 0.31 0.22
v -2.1068024 -1.3458765 11.9000000 0.88 0.31 0.22
v -2.0655969 -1.4083001 11.9000000 0.88 0.31 0.22
v -2.0225425 -1.4694631 11.9000000 0.88 0.31 0.22
v -1.9776776 -1.5293107 11.9000000 0.88 0.31 0.22
v -1.9310424 -1.5877894 11.9000000 0.88 0.31 0.22
v -1.8826787 -1.6448468 11.9000000 0.88 0.31 0.22
v -1.8326297 -1.7004318 11.9000000 0.88 0.31 0.22
v -1.7809402 -1.7544948 11.9000000 0.88 0.31 0.22
v -1.7276566 -1.8069872 11.9000000 0.88 0.31 0.22
v -1.6728265 -1.8578621 11.9000000 0.88 0.31 0.22
v -1.6164990 -1.9070739 11.9000000 0.88 0.31 0.22
v -1.5587245 -1.9545787 11.9000000 0.88 0.31 0.22
v -1.4995547 -2.0003339 11.9000000 0.88 0.31 0.22
v -1.4390427 -2.0442985 11.9000000 0.88 0.31 0.22
v -1.3772425 -2.0864331 11.9000000 0.88 0.31 0.22
v -1.3142094 -2.1267002 11.9000000 0.88 0.31 0.22
v -1.2500000 -2.1650635 11.9000000 0.88 0.31 0.22
v -1.1846717 -2.2014888 11.9000000 0.88 0.31 0.22
v -1.1182829 -2.2359435 11.9000000 0.88 0.31 0.22
v -1.0508931 -2.2683967 11.9000000 0.88 0.31 0.22
v -0.9825626 -2.2988194 11.9000000 0.88 0.31 0.22
v -0.9133526 -2.3271844 11.9000000 0.88 0.31 0.22
v -0.8433250 -2.3534662 11.9000000 0.88 0.31 0.22
v -0.7725425 -2.3776413 11.9000000 0.88 0.31 0.22
v -0.7010685 -2.3996881 11.9000000 0.88 0.31 0.22
v -0.6289669 -2.4195869 11.9000000 0.88 0.31 0.22
v -0.5563023 -2.4373198 11.9000000 0.88 0.31 0.22
v -0.4831398 -2.4528710 11.9000000 0.88 0.31 0.22
v -0.4095448 -2.4662265 11.9000000 0.88 0.31 0.22
v -0.3355832 -2.4773744 11.9000000 0.88 0.31 0.22
v -0.2613212 -2.4863047 11.9000000 0.88 0.31 0.22
v -0.1868252 -2.4930095 11.9000000 0.88 0.31 0.22
v -0.1121621 -2.4974827 11.9000000 0.88 0.31 0.22
v -0.0373985 -2.4997203 11.9000000 0.88 0.31 0.22
v 0.0373985 -2.4997203 11.9000000 0.88 0.31 0.22
v 0.1121621 -2.4974827 11.9000000 0.88 0.31 0.22
v 0.1868252 -2.4930095 11.9000000 0.88 0.31 0.22
v 0.2613212 -2.4863047 11.9000000 0.88 0.31 0.22
v 0.3355832 -2.4773744 11.9000000 0.88 0.31 0.22
v 0.4095448 -2.4662265 11.9000000 0.88 0.31 0.22
v 0.4831398 -2.4528710 11.9000000 0.88 0.31 0.22
v 0.5563023 -2.4373198 11.9000000 0.88 0.31 0.22
v 0.6289669 -2.4195869 11.9000000 0.88 0.31 0.22
v 0.7010685 -2.3996881 11.9000000 0.88 0.31 0.22
v 0.7725425 -2.3776413 11.9000000 0.88 0.31 0.22
v 0.8433250 -2.3534662 11.9000000 0.88 0.31 0.22
v 0.9133526 -2.3271844 11.9000000 0.88 0.31 0.22
v 0.9825626 -2.2988194 11.9000000 0.88 0.31 0.22
v 1.0508931 -2.2683967 11.9000000 0.88 0.31 0.22
v 1.1182829 -2.2359435 11.9000000 0.88 0.31 0.22
v 1.1846717 -2.2014888 11.9000000 0.88 0.31 0.22
v 1.2500000 -2.1650635 11.9000000 0.88 0.31 0.22
v 1.3142094 -2.1267002 11.9000000 0.88 0.31 0.22
v 1.3772425 -2.0864331 11.9000000 0.88 0.31 0.22
v 1.4390427 -2.0442985 11.9000000 0.88 0.31 0.22
v 1.4995547 -2.0003339 11.9000000 0.88 0.31 0.22
v 1.5587245 -1.9545787 11.9000000 0.88 0.31 0.22
v 1.6164990 -1.9070739 11.9000000 0.88 0.31 0.22
v 1.6728265 -1.8578621 11.9000000 0.88 0.31 0.22
v 1.7276566 -1.8069872 11.9000000 0.88 0.31 0.22
v 1.7809402 -1.7544948 11.9000000 0.88 0.31 0.22
v 1.8326297 -1.7004318 11.9000000 0.88 0.31 0.22
v 1.8826787 -1.6448468 11.9000000 0.88 0.31 0.22
v 1.9310424 -1.5877894 11.9000000 0.88 0.31 0.22
v 1.9776776 -1.5293107 11.9000000 0.88 0.31 0.22
v 2.0225425 -1.4694631 11.9000000 0.88 0.31 0.22
v 2.0655969 -1.4083001 11.9000000 0.88 0.31 0.22
v 2.1068024 -1.3458765 11.9000000 0.88 0.31 0.22
v 2.1461220 -1.2822482 11.9000000 0.88 0.31 0.22
v 2.1835205 -1.2174721 11.9000000 0.88 0.31 0.22
v 2.2189645 -1.1516061 11.9000000 0.88 0.31 0.22
v 2.2524222 -1.0847093 11.9000000 0.88 0.31 0.22
v 2.2838636 -1.0168416 11.9000000 0.88 0.31 0.22
v 2.3132608 -0.9480637 11.9000000 0.88 0.31 0.22
v 2.3405872 -0.8784371 11.9000000 0.88 0.31 0.22
v 2.3658185 -0.8080241 11.9000000 0.88 0.31 0.22
v 2.3889320 -0.7368879 11.9000000 0.88 0.31 0.22
v 2.4099072 -0.6650921 11.9000000 0.88 0.31 0.22
v 2.4287251 -0.5927009 11.9000000 0.88 0.31 0.22
v 2.4453690 -0.5197792 11.9000000 0.88 0.31 0.22
v 2.4598240 -0.4463922 11.9000000 0.88 0.31 0.22
v 2.4720771 -0.3726057 11.9000000 0.88 0.31 0.22
v 2.4821173 -0.2984856 11.9000000 0.88 0.31 0.22
v 2.4899357 -0.2240983 11.9000000 0.88 0.31 0.22
v 2.4955253 -0.1495104 11.9000000 0.88 0.31 0.22
v 2.4988811 -0.0747887 11.9000000 0.88 0.31 0.22
usemtl Encoder_Magnet
s off
f 214 2 1
f 214 3 2
f 215 4 3
f 215 3 214
f 216 5 4
f 216 4 215
f 217 6 5
f 217 5 216
f 218 7 6
f 218 8 7
f 218 6 217
f 219 8 218
f 220 9 8
f 220 8 219
f 221 10 9
f 221 9 220
f 222 11 10
f 222 10 221
f 223 12 11
f 223 11 222
f 224 13 12
f 224 12 223
f 225 14 13
f 225 13 224
f 226 15 14
f 226 14 225
f 227 16 15
f 227 15 226
f 228 17 16
f 228 16 227
f 229 18 17
f 229 17 228
f 230 19 18
f 230 20 19
f 230 18 229
f 231 20 230
f 232 21 20
f 232 20 231
f 233 22 21
f 233 21 232
f 234 22 233
f 234 23 22
f 234 24 23
f 235 24 234
f 235 25 24
f 236 25 235
f 237 25 236
f 237 26 25
f 238 26 237
f 238 27 26
f 239 28 27
f 239 27 238
f 240 29 28
f 240 28 239
f 240 30 29
f 241 31 30
f 241 30 240
f 242 31 241
f 243 32 31
f 243 33 32
f 243 31 242
f 244 34 33
f 244 33 243
f 245 34 244
f 246 35 34
f 246 34 245
f 247 36 35
f 247 37 36
f 247 35 246
f 248 37 247
f 249 38 37
f 249 37 248
f 250 39 38
f 250 38 249
f 251 40 39
f 251 39 250
f 252 41 40
f 252 40 251
f 253 42 41
f 253 41 252
f 254 43 42
f 254 42 253
f 255 44 43
f 255 43 254
f 256 45 44
f 256 44 255
f 257 46 45
f 257 45 256
f 258 47 46
f 258 46 257
f 259 47 258
f 259 48 47
f 260 48 259
f 260 49 48
f 261 49 260
f 261 50 49
f 261 51 50
f 262 51 261
f 263 51 262
f 263 52 51
f 264 52 263
f 264 53 52
f 265 53 264
f 265 54 53
f 266 54 265
f 266 55 54
f 267 55 266
f 267 56 55
f 268 56 267
f 268 57 56
f 269 57 268
f 269 58 57
f 269 59 58
f 270 59 269
f 271 59 270
f 271 60 59
f 272 60 271
f 272 61 60
f 273 61 272
f 273 62 61
f 274 63 62
f 274 62 273
f 275 64 63
f 275 63 274
f 276 65 64
f 276 64 275
f 277 66 65
f 277 65 276
f 278 67 66
f 278 66 277
f 279 68 67
f 279 69 68
f 279 67 278
f 280 69 279
f 281 70 69
f 281 69 280
f 282 71 70
f 282 72 71
f 282 70 281
f 283 72 282
f 284 72 283
f 284 73 72
f 285 73 284
f 285 74 73
f 286 74 285
f 286 75 74
f 287 75 286
f 287 76 75
f 288 76 287
f 288 77 76
f 289 77 288
f 289 78 77
f 290 78 289
f 290 79 78
f 291 79 290
f 291 80 79
f 292 80 291
f 292 81 80
f 293 81 292
f 293 82 81
f 294 82 293
f 294 83 82
f 295 83 294
f 295 84 83
f 296 84 295
f 296 85 84
f 297 85 296
f 297 86 85
f 298 86 297
f 298 87 86
f 299 87 298
f 299 88 87
f 300 88 299
f 300 89 88
f 301 89 300
f 301 90 89
f 302 90 301
f 302 91 90
f 303 91 302
f 303 92 91
f 304 92 303
f 304 93 92
f 305 93 304
f 305 94 93
f 306 95 94
f 306 94 305
f 307 96 95
f 307 95 306
f 308 97 96
f 308 96 307
f 309 97 308
f 309 98 97
f 310 98 309
f 310 99 98
f 311 99 310
f 311 100 99
f 312 100 311
f 312 101 100
f 313 102 101
f 313 101 312
f 314 103 102
f 314 102 313
f 315 104 103
f 315 103 314
f 316 105 104
f 316 106 105
f 316 104 315
f 317 106 316
f 318 107 106
f 318 108 107
f 318 106 317
f 319 109 108
f 319 108 318
f 320 109 319
f 321 110 109
f 321 111 110
f 321 109 320
f 322 111 321
f 323 112 111
f 323 113 112
f 323 111 322
f 324 113 323
f 325 114 113
f 325 113 324
f 326 115 114
f 326 116 115
f 326 114 325
f 327 116 326
f 328 117 116
f 328 116 327
f 329 118 117
f 329 119 118
f 329 117 328
f 330 120 119
f 330 119 329
f 331 120 330
f 332 121 120
f 332 120 331
f 333 122 121
f 333 121 332
f 334 122 333
f 334 123 122
f 335 123 334
f 335 124 123
f 335 125 124
f 336 125 335
f 336 126 125
f 337 126 336
f 338 126 337
f 338 127 126
f 339 127 338
f 339 128 127
f 339 129 128
f 340 129 339
f 341 130 129
f 341 129 340
f 342 131 130
f 342 130 341
f 343 132 131
f 343 131 342
f 344 133 132
f 344 134 133
f 344 132 343
f 345 135 134
f 345 134 344
f 346 135 345
f 347 136 135
f 347 135 346
f 348 137 136
f 348 138 137
f 348 136 347
f 349 138 348
f 350 139 138
f 350 138 349
f 351 140 139
f 351 141 140
f 351 139 350
f 352 141 351
f 353 142 141
f 353 143 142
f 353 141 352
f 354 143 353
f 355 144 143
f 355 143 354
f 356 145 144
f 356 144 355
f 357 146 145
f 357 145 356
f 358 147 146
f 358 146 357
f 359 148 147
f 359 147 358
f 360 148 359
f 360 149 148
f 360 150 149
f 361 150 360
f 361 151 150
f 362 151 361
f 363 151 362
f 363 152 151
f 364 152 363
f 364 153 152
f 364 154 153
f 365 154 364
f 366 154 365
f 366 155 154
f 367 155 366
f 367 156 155
f 367 157 156
f 368 157 367
f 368 158 157
f 369 158 368
f 370 158 369
f 370 159 158
f 371 159 370
f 371 160 159
f 372 160 371
f 372 161 160
f 372 162 161
f 373 162 372
f 374 163 162
f 374 162 373
f 375 164 163
f 375 163 374
f 376 165 164
f 376 164 375
f 377 166 165
f 377 165 376
f 378 167 166
f 378 166 377
f 379 168 167
f 379 169 168
f 379 167 378
f 380 169 379
f 381 170 169
f 381 171 170
f 381 169 380
f 382 171 381
f 383 172 171
f 383 173 172
f 383 171 382
f 384 173 383
f 384 174 173
f 385 174 384
f 386 174 385
f 386 175 174
f 386 176 175
f 387 176 386
f 387 177 176
f 388 177 387
f 389 177 388
f 389 178 177
f 390 178 389
f 390 179 178
f 390 180 179
f 391 180 390
f 391 181 180
f 392 181 391
f 393 181 392
f 393 182 181
f 393 183 182
f 394 183 393
f 395 183 394
f 395 184 183
f 395 185 184
f 396 185 395
f 396 186 185
f 397 186 396
f 398 186 397
f 398 187 186
f 398 188 187
f 399 188 398
f 400 188 399
f 400 189 188
f 401 189 400
f 401 190 189
f 401 191 190
f 402 191 401
f 403 191 402
f 403 192 191
f 403 193 192
f 404 193 403
f 405 193 404
f 405 194 193
f 406 194 405
f 406 195 194
f 407 196 195
f 407 195 406
f 407 197 196
f 408 197 407
f 409 198 197
f 409 199 198
f 409 197 408
f 410 199 409
f 411 199 410
f 411 200 199
f 411 201 200
f 412 201 411
f 413 201 412
f 413 202 201
f 414 203 202
f 414 204 203
f 414 202 413
f 415 204 414
f 416 205 204
f 416 204 415
f 417 206 205
f 417 205 416
f 418 207 206
f 418 206 417
f 419 208 207
f 419 207 418
f 420 209 208
f 420 208 419
f 421 210 209
f 421 209 420
f 422 211 210
f 422 210 421
f 213 212 211
f 213 211 422
f 557 554 553
f 557 555 554
f 557 556 555
f 551 553 552
f 561 558 557
f 561 559 558
f 561 560 559
f 547 549 548
f 547 550 549
f 563 562 561
f 545 547 546
f 565 564 563
f 542 544 543
f 542 545 544
f 567 566 565
f 568 565 563
f 568 567 565
f 539 541 540
f 539 542 541
f 570 569 568
f 571 570 568
f 573 572 571
f 535 537 536
f 535 538 537
f 533 535 534
f 576 574 573
f 576 575 574
f 576 573 571
f 531 533 532
f 578 577 576
f 579 578 576
f 527 529 528
f 527 530 529
f 527 531 530
f 527 533 531
f 527 539 538
f 527 557 553
f 527 553 551
f 527 551 550
f 527 550 547
f 527 561 557
f 527 547 545
f 527 545 542
f 527 538 535
f 527 542 539
f 527 535 533
f 583 581 580
f 583 582 581
f 586 585 584
f 522 524 523
f 522 525 524
f 522 526 525
f 522 527 526
f 587 586 584
f 590 588 587
f 590 589 588
f 518 520 519
f 518 521 520
f 518 522 521
f 591 590 587
f 592 591 587
f 516 522 518
f 516 518 517
f 593 583 580
f 593 587 584
f 593 579 576
f 593 580 579
f 593 592 587
f 593 584 583
f 593 576 571
f 514 522 516
f 514 516 515
f 595 594 593
f 512 514 513
f 597 596 595
f 597 595 593
f 511 514 512
f 598 597 593
f 599 593 571
f 599 568 563
f 599 598 593
f 599 571 568
f 509 511 510
f 508 514 511
f 508 511 509
f 601 600 599
f 507 514 508
f 602 601 599
f 506 514 507
f 603 602 599
f 504 506 505
f 605 604 603
f 503 514 506
f 503 506 504
f 606 605 603
f 606 603 599
f 607 606 599
f 499 501 500
f 499 502 501
f 497 502 499
f 497 499 498
f 612 609 608
f 612 610 609
f 612 611 610
f 613 612 608
f 613 608 607
f 493 495 494
f 616 615 614
f 617 616 614
f 618 617 614
f 618 614 613
f 489 491 490
f 489 492 491
f 489 493 492
f 620 618 613
f 620 619 618
f 487 502 497
f 487 493 489
f 487 495 493
f 487 489 488
f 487 496 495
f 487 497 496
f 487 503 502
f 624 621 620
f 624 622 621
f 624 623 622
f 627 625 624
f 627 626 625
f 627 624 620
f 481 483 482
f 480 483 481
f 480 484 483
f 480 485 484
f 480 486 485
f 480 487 486
f 629 627 620
f 629 628 627
f 629 613 607
f 629 620 613
f 477 479 478
f 477 480 479
f 632 630 629
f 632 631 630
f 423 632 629
f 475 480 477
f 475 477 476
f 424 423 629
f 473 475 474
f 426 425 424
f 470 475 473
f 470 472 471
f 470 473 472
f 429 428 427
f 468 475 470
f 468 470 469
f 431 430 429
f 432 427 426
f 432 431 429
f 432 426 424
f 432 429 427
f 465 467 466
f 434 433 432
f 435 434 432
f 463 465 464
f 463 468 467
f 463 467 465
f 461 463 462
f 461 468 463
f 438 437 436
f 439 436 435
f 439 435 432
f 439 438 436
f 458 460 459
f 457 461 460
f 457 460 458
f 443 442 441
f 455 457 456
f 455 461 457
f 444 440 439
f 444 441 440
f 444 443 441
f 453 455 454
f 453 461 455
f 446 445 444
f 446 444 439
f 451 461 453
f 451 453 452
f 448 446 439
f 448 447 446
f 450 561 527
f 450 629 607
f 450 487 480
f 450 514 503
f 450 424 629
f 450 527 522
f 450 480 475
f 450 607 599
f 450 432 424
f 450 475 468
f 450 522 514
f 450 563 561
f 450 503 487
f 450 439 432
f 450 468 461
f 450 599 563
f 450 461 451
f 449 448 439
f 449 439 450
f 767 763 764
f 767 764 765
f 767 765 766
f 761 762 763
f 771 767 768
f 771 768 769
f 771 769 770
f 757 758 759
f 757 759 760
f 773 771 772
f 755 756 757
f 775 773 774
f 752 753 754
f 752 754 755
f 777 775 776
f 778 773 775
f 778 775 777
f 749 750 751
f 749 751 752
f 780 778 779
f 781 778 780
f 783 781 782
f 745 746 747
f 745 747 748
f 743 744 745
f 786 783 784
f 786 784 785
f 786 781 783
f 741 742 743
f 788 786 787
f 789 786 788
f 737 738 739
f 737 739 740
f 737 740 741
f 737 741 743
f 737 748 749
f 737 763 767
f 737 761 763
f 737 760 761
f 737 757 760
f 737 767 771
f 737 755 757
f 737 752 755
f 737 745 748
f 737 749 752
f 737 743 745
f 793 790 791
f 793 791 792
f 796 794 795
f 732 733 734
f 732 734 735
f 732 735 736
f 732 736 737
f 797 794 796
f 800 797 798
f 800 798 799
f 728 729 730
f 728 730 731
f 728 731 732
f 801 797 800
f 802 797 801
f 726 728 732
f 726 727 728
f 803 790 793
f 803 794 797
f 803 786 789
f 803 789 790
f 803 797 802
f 803 793 794
f 803 781 786
f 724 726 732
f 724 725 726
f 805 803 804
f 722 723 724
f 807 805 806
f 807 803 805
f 721 722 724
f 808 803 807
f 809 781 803
f 809 773 778
f 809 803 808
f 809 778 781
f 719 720 721
f 718 721 724
f 718 719 721
f 811 809 810
f 717 718 724
f 812 809 811
f 716 717 724
f 813 809 812
f 714 715 716
f 815 813 814
f 713 716 724
f 713 714 716
f 816 813 815
f 816 809 813
f 817 809 816
f 709 710 711
f 709 711 712
f 707 709 712
f 707 708 709
f 822 818 819
f 822 819 820
f 822 820 821
f 823 818 822
f 823 817 818
f 703 704 705
f 826 824 825
f 827 824 826
f 828 824 827
f 828 823 824
f 699 700 701
f 699 701 702
f 699 702 703
f 830 823 828
f 830 828 829
f 697 707 712
f 697 699 703
f 697 703 705
f 697 698 699
f 697 705 706
f 697 706 707
f 697 712 713
f 834 830 831
f 834 831 832
f 834 832 833
f 837 834 835
f 837 835 836
f 837 830 834
f 691 692 693
f 690 691 693
f 690 693 694
f 690 694 695
f 690 695 696
f 690 696 697
f 839 830 837
f 839 837 838
f 839 817 823
f 839 823 830
f 687 688 689
f 687 689 690
f 842 839 840
f 842 840 841
f 633 839 842
f 685 687 690
f 685 686 687
f 634 839 633
f 683 684 685
f 636 634 635
f 680 683 685
f 680 681 682
f 680 682 683
f 639 637 638
f 678 680 685
f 678 679 680
f 641 639 640
f 642 636 637
f 642 639 641
f 642 634 636
f 642 637 639
f 675 676 677
f 644 642 643
f 645 642 644
f 673 674 675
f 673 677 678
f 673 675 677
f 671 672 673
f 671 673 678
f 648 646 647
f 649 645 646
f 649 642 645
f 649 646 648
f 668 669 670
f 667 670 671
f 667 668 670
f 653 651 652
f 665 666 667
f 665 667 671
f 654 649 650
f 654 650 651
f 654 651 653
f 663 664 665
f 663 665 671
f 656 654 655
f 656 649 654
f 661 663 671
f 661 662 663
f 658 649 656
f 658 656 657
f 660 737 771
f 660 817 839
f 660 690 697
f 660 713 724
f 660 839 634
f 660 732 737
f 660 685 690
f 660 809 817
f 660 634 642
f 660 678 685
f 660 724 732
f 660 771 773
f 660 697 713
f 660 642 649
f 660 671 678
f 660 773 809
f 660 661 671
f 659 649 658
f 659 660 649
