# Assembly coordinates in millimetres, Z-up.
mtllib Phone_Pad.mtl
o Phone_Pad
v 29.0000000 0.0000000 0.0000000 0.16 0.18 0.2
v 29.0000000 0.0000000 0.2000000 0.16 0.18 0.2
v 28.9770725 1.1529389 0.2000000 0.16 0.18 0.2
v 28.9083263 2.3040548 0.2000000 0.16 0.18 0.2
v 28.7938701 3.4515276 0.2000000 0.16 0.18 0.2
v 28.6338849 4.5935427 0.2000000 0.16 0.18 0.2
v 28.4286236 5.7282945 0.2000000 0.16 0.18 0.2
v 28.1784109 6.8539887 0.2000000 0.16 0.18 0.2
v 27.8836422 7.9688454 0.2000000 0.16 0.18 0.2
v 27.5447838 9.0711016 0.2000000 0.16 0.18 0.2
v 27.1623714 10.1590146 0.2000000 0.16 0.18 0.2
v 26.7370098 11.2308641 0.2000000 0.16 0.18 0.2
v 26.2693714 12.2849552 0.2000000 0.16 0.18 0.2
v 25.7601958 13.3196214 0.2000000 0.16 0.18 0.2
v 25.2102880 14.3332265 0.2000000 0.16 0.18 0.2
v 24.6205175 15.3241678 0.2000000 0.16 0.18 0.2
v 23.9918169 16.2908784 0.2000000 0.16 0.18 0.2
v 23.3251804 17.2318298 0.2000000 0.16 0.18 0.2
v 22.6216619 18.1455342 0.2000000 0.16 0.18 0.2
v 21.8823740 19.0305467 0.2000000 0.16 0.18 0.2
v 21.1084855 19.8854681 0.2000000 0.16 0.18 0.2
v 20.3012202 20.7089464 0.2000000 0.16 0.18 0.2
v 19.4618544 21.4996796 0.2000000 0.16 0.18 0.2
v 18.5917155 22.2564174 0.2000000 0.16 0.18 0.2
v 17.6921792 22.9779632 0.2000000 0.16 0.18 0.2
v 16.7646680 23.6631762 0.2000000 0.16 0.18 0.2
v 15.8106484 24.3109728 0.2000000 0.16 0.18 0.2
v 14.8316289 24.9203287 0.2000000 0.16 0.18 0.2
v 13.8291575 25.4902805 0.2000000 0.16 0.18 0.2
v 12.8048194 26.0199270 0.2000000 0.16 0.18 0.2
v 11.7602343 26.5084305 0.2000000 0.16 0.18 0.2
v 10.6970538 26.9550188 0.2000000 0.16 0.18 0.2
v 9.6169591 27.3589857 0.2000000 0.16 0.18 0.2
v 8.5216580 27.7196924 0.2000000 0.16 0.18 0.2
v 7.4128823 28.0365685 0.2000000 0.16 0.18 0.2
v 6.2923854 28.3091131 0.2000000 0.16 0.18 0.2
v 5.1619390 28.5368952 0.2000000 0.16 0.18 0.2
v 4.0233304 28.7195545 0.2000000 0.16 0.18 0.2
v 2.8783602 28.8568024 0.2000000 0.16 0.18 0.2
v 1.7288386 28.9484217 0.2000000 0.16 0.18 0.2
v 0.5765834 28.9942676 0.2000000 0.16 0.18 0.2
v -0.5765834 28.9942676 0.2000000 0.16 0.18 0.2
v -1.7288386 28.9484217 0.2000000 0.16 0.18 0.2
v -2.8783602 28.8568024 0.2000000 0.16 0.18 0.2
v -4.0233304 28.7195545 0.2000000 0.16 0.18 0.2
v -5.1619390 28.5368952 0.2000000 0.16 0.18 0.2
v -6.2923854 28.3091131 0.2000000 0.16 0.18 0.2
v -7.4128823 28.0365685 0.2000000 0.16 0.18 0.2
v -8.5216580 27.7196924 0.2000000 0.16 0.18 0.2
v -9.6169591 27.3589857 0.2000000 0.16 0.18 0.2
v -10.6970538 26.9550188 0.2000000 0.16 0.18 0.2
v -11.7602343 26.5084305 0.2000000 0.16 0.18 0.2
v -12.8048194 26.0199270 0.2000000 0.16 0.18 0.2
v -13.8291575 25.4902805 0.2000000 0.16 0.18 0.2
v -14.8316289 24.9203287 0.2000000 0.16 0.18 0.2
v -15.8106484 24.3109728 0.2000000 0.16 0.18 0.2
v -16.7646680 23.6631762 0.2000000 0.16 0.18 0.2
v -17.6921792 22.9779632 0.2000000 0.16 0.18 0.2
v -18.5917155 22.2564174 0.2000000 0.16 0.18 0.2
v -19.4618544 21.4996796 0.2000000 0.16 0.18 0.2
v -20.3012202 20.7089464 0.2000000 0.16 0.18 0.2
v -21.1084855 19.8854681 0.2000000 0.16 0.18 0.2
v -21.8823740 19.0305467 0.2000000 0.16 0.18 0.2
v -22.6216619 18.1455342 0.2000000 0.16 0.18 0.2
v -23.3251804 17.2318298 0.2000000 0.16 0.18 0.2
v -23.9918169 16.2908784 0.2000000 0.16 0.18 0.2
v -24.6205175 15.3241678 0.2000000 0.16 0.18 0.2
v -25.2102880 14.3332265 0.2000000 0.16 0.18 0.2
v -25.7601958 13.3196214 0.2000000 0.16 0.18 0.2
v -26.2693714 12.2849552 0.2000000 0.16 0.18 0.2
v -26.7370098 11.2308641 0.2000000 0.16 0.18 0.2
v -27.1623714 10.1590146 0.2000000 0.16 0.18 0.2
v -27.5447838 9.0711016 0.2000000 0.16 0.18 0.2
v -27.8836422 7.9688454 0.2000000 0.16 0.18 0.2
v -28.1784109 6.8539887 0.2000000 0.16 0.18 0.2
v -28.4286236 5.7282945 0.2000000 0.16 0.18 0.2
v -28.6338849 4.5935427 0.2000000 0.16 0.18 0.2
v -28.7938701 3.4515276 0.2000000 0.16 0.18 0.2
v -28.9083263 2.3040548 0.2000000 0.16 0.18 0.2
v -28.9770725 1.1529389 0.2000000 0.16 0.18 0.2
v -29.0000000 -0.0000000 0.2000000 0.16 0.18 0.2
v -28.9770725 -1.1529389 0.2000000 0.16 0.18 0.2
v -28.9083263 -2.3040548 0.2000000 0.16 0.18 0.2
v -28.7938701 -3.4515276 0.2000000 0.16 0.18 0.2
v -28.6338849 -4.5935427 0.2000000 0.16 0.18 0.2
v -28.4286236 -5.7282945 0.2000000 0.16 0.18 0.2
v -28.1784109 -6.8539887 0.2000000 0.16 0.18 0.2
v -27.8836422 -7.9688454 0.2000000 0.16 0.18 0.2
v -27.5447838 -9.0711016 0.2000000 0.16 0.18 0.2
v -27.1623714 -10.1590146 0.2000000 0.16 0.18 0.2
v -26.7370098 -11.2308641 0.2000000 0.16 0.18 0.2
v -26.2693714 -12.2849552 0.2000000 0.16 0.18 0.2
v -25.7601958 -13.3196214 0.2000000 0.16 0.18 0.2
v -25.2102880 -14.3332265 0.2000000 0.16 0.18 0.2
v -24.6205175 -15.3241678 0.2000000 0.16 0.18 0.2
v -23.9918169 -16.2908784 0.2000000 0.16 0.18 0.2
v -23.3251804 -17.2318298 0.2000000 0.16 0.18 0.2
v -22.6216619 -18.1455342 0.2000000 0.16 0.18 0.2
v -21.8823740 -19.0305467 0.2000000 0.16 0.18 0.2
v -21.1084855 -19.8854681 0.2000000 0.16 0.18 0.2
v -20.3012202 -20.7089464 0.2000000 0.16 0.18 0.2
v -19.4618544 -21.4996796 0.2000000 0.16 0.18 0.2
v -18.5917155 -22.2564174 0.2000000 0.16 0.18 0.2
v -17.6921792 -22.9779632 0.2000000 0.16 0.18 0.2
v -16.7646680 -23.6631762 0.2000000 0.16 0.18 0.2
v -15.8106484 -24.3109728 0.2000000 0.16 0.18 0.2
v -14.8316289 -24.9203287 0.2000000 0.16 0.18 0.2
v -13.8291575 -25.4902805 0.2000000 0.16 0.18 0.2
v -12.8048194 -26.0199270 0.2000000 0.16 0.18 0.2
v -11.7602343 -26.5084305 0.2000000 0.16 0.18 0.2
v -10.6970538 -26.9550188 0.2000000 0.16 0.18 0.2
v -9.6169591 -27.3589857 0.2000000 0.16 0.18 0.2
v -8.5216580 -27.7196924 0.2000000 0.16 0.18 0.2
v -7.4128823 -28.0365685 0.2000000 0.16 0.18 0.2
v -6.2923854 -28.3091131 0.2000000 0.16 0.18 0.2
v -5.1619390 -28.5368952 0.2000000 0.16 0.18 0.2
v -4.0233304 -28.7195545 0.2000000 0.16 0.18 0.2
v -2.8783602 -28.8568024 0.2000000 0.16 0.18 0.2
v -1.7288386 -28.9484217 0.2000000 0.16 0.18 0.2
v -0.5765834 -28.9942676 0.2000000 0.16 0.18 0.2
v 0.5765834 -28.9942676 0.2000000 0.16 0.18 0.2
v 1.7288386 -28.9484217 0.2000000 0.16 0.18 0.2
v 2.8783602 -28.8568024 0.2000000 0.16 0.18 0.2
v 4.0233304 -28.7195545 0.2000000 0.16 0.18 0.2
v 5.1619390 -28.5368952 0.2000000 0.16 0.18 0.2
v 6.2923854 -28.3091131 0.2000000 0.16 0.18 0.2
v 7.4128823 -28.0365685 0.2000000 0.16 0.18 0.2
v 8.5216580 -27.7196924 0.2000000 0.16 0.18 0.2
v 9.6169591 -27.3589857 0.2000000 0.16 0.18 0.2
v 10.6970538 -26.9550188 0.2000000 0.16 0.18 0.2
v 11.7602343 -26.5084305 0.2000000 0.16 0.18 0.2
v 12.8048194 -26.0199270 0.2000000 0.16 0.18 0.2
v 13.8291575 -25.4902805 0.2000000 0.16 0.18 0.2
v 14.8316289 -24.9203287 0.2000000 0.16 0.18 0.2
v 15.8106484 -24.3109728 0.2000000 0.16 0.18 0.2
v 16.7646680 -23.6631762 0.2000000 0.16 0.18 0.2
v 17.6921792 -22.9779632 0.2000000 0.16 0.18 0.2
v 18.5917155 -22.2564174 0.2000000 0.16 0.18 0.2
v 19.4618544 -21.4996796 0.2000000 0.16 0.18 0.2
v 20.3012202 -20.7089464 0.2000000 0.16 0.18 0.2
v 21.1084855 -19.8854681 0.2000000 0.16 0.18 0.2
v 21.8823740 -19.0305467 0.2000000 0.16 0.18 0.2
v 22.6216619 -18.1455342 0.2000000 0.16 0.18 0.2
v 23.3251804 -17.2318298 0.2000000 0.16 0.18 0.2
v 23.9918169 -16.2908784 0.2000000 0.16 0.18 0.2
v 24.6205175 -15.3241678 0.2000000 0.16 0.18 0.2
v 25.2102880 -14.3332265 0.2000000 0.16 0.18 0.2
v 25.7601958 -13.3196214 0.2000000 0.16 0.18 0.2
v 26.2693714 -12.2849552 0.2000000 0.16 0.18 0.2
v 26.7370098 -11.2308641 0.2000000 0.16 0.18 0.2
v 27.1623714 -10.1590146 0.2000000 0.16 0.18 0.2
v 27.5447838 -9.0711016 0.2000000 0.16 0.18 0.2
v 27.8836422 -7.9688454 0.2000000 0.16 0.18 0.2
v 28.1784109 -6.8539887 0.2000000 0.16 0.18 0.2
v 28.4286236 -5.7282945 0.2000000 0.16 0.18 0.2
v 28.6338849 -4.5935427 0.2000000 0.16 0.18 0.2
v 28.7938701 -3.4515276 0.2000000 0.16 0.18 0.2
v 28.9083263 -2.3040548 0.2000000 0.16 0.18 0.2
v 28.9770725 -1.1529389 0.2000000 0.16 0.18 0.2
v 29.0000000 0.0000000 0.2000000 0.16 0.18 0.2
v 29.0000000 0.0000000 0.0000000 0.16 0.18 0.2
v 28.9770725 1.1529389 0.0000000 0.16 0.18 0.2
v 28.9083263 2.3040548 0.0000000 0.16 0.18 0.2
v 28.7938701 3.4515276 0.0000000 0.16 0.18 0.2
v 28.6338849 4.5935427 0.0000000 0.16 0.18 0.2
v 28.4286236 5.7282945 0.0000000 0.16 0.18 0.2
v 28.1784109 6.8539887 0.0000000 0.16 0.18 0.2
v 27.8836422 7.9688454 0.0000000 0.16 0.18 0.2
v 27.5447838 9.0711016 0.0000000 0.16 0.18 0.2
v 27.1623714 10.1590146 0.0000000 0.16 0.18 0.2
v 26.7370098 11.2308641 0.0000000 0.16 0.18 0.2
v 26.2693714 12.2849552 0.0000000 0.16 0.18 0.2
v 25.7601958 13.3196214 0.0000000 0.16 0.18 0.2
v 25.2102880 14.3332265 0.0000000 0.16 0.18 0.2
v 24.6205175 15.3241678 0.0000000 0.16 0.18 0.2
v 23.9918169 16.2908784 0.0000000 0.16 0.18 0.2
v 23.3251804 17.2318298 0.0000000 0.16 0.18 0.2
v 22.6216619 18.1455342 0.0000000 0.16 0.18 0.2
v 21.8823740 19.0305467 0.0000000 0.16 0.18 0.2
v 21.1084855 19.8854681 0.0000000 0.16 0.18 0.2
v 20.3012202 20.7089464 0.0000000 0.16 0.18 0.2
v 19.4618544 21.4996796 0.0000000 0.16 0.18 0.2
v 18.5917155 22.2564174 0.0000000 0.16 0.18 0.2
v 17.6921792 22.9779632 0.0000000 0.16 0.18 0.2
v 16.7646680 23.6631762 0.0000000 0.16 0.18 0.2
v 15.8106484 24.3109728 0.0000000 0.16 0.18 0.2
v 14.8316289 24.9203287 0.0000000 0.16 0.18 0.2
v 13.8291575 25.4902805 0.0000000 0.16 0.18 0.2
v 12.8048194 26.0199270 0.0000000 0.16 0.18 0.2
v 11.7602343 26.5084305 0.0000000 0.16 0.18 0.2
v 10.6970538 26.9550188 0.0000000 0.16 0.18 0.2
v 9.6169591 27.3589857 0.0000000 0.16 0.18 0.2
v 8.5216580 27.7196924 0.0000000 0.16 0.18 0.2
v 7.4128823 28.0365685 0.0000000 0.16 0.18 0.2
v 6.2923854 28.3091131 0.0000000 0.16 0.18 0.2
v 5.1619390 28.5368952 0.0000000 0.16 0.18 0.2
v 4.0233304 28.7195545 0.0000000 0.16 0.18 0.2
v 2.8783602 28.8568024 0.0000000 0.16 0.18 0.2
v 1.7288386 28.9484217 0.0000000 0.16 0.18 0.2
v 0.5765834 28.9942676 0.0000000 0.16 0.18 0.2
v -0.5765834 28.9942676 0.0000000 0.16 0.18 0.2
v -1.7288386 28.9484217 0.0000000 0.16 0.18 0.2
v -2.8783602 28.8568024 0.0000000 0.16 0.18 0.2
v -4.0233304 28.7195545 0.0000000 0.16 0.18 0.2
v -5.1619390 28.5368952 0.0000000 0.16 0.18 0.2
v -6.2923854 28.3091131 0.0000000 0.16 0.18 0.2
v -7.4128823 28.0365685 0.0000000 0.16 0.18 0.2
v -8.5216580 27.7196924 0.0000000 0.16 0.18 0.2
v -9.6169591 27.3589857 0.0000000 0.16 0.18 0.2
v -10.6970538 26.9550188 0.0000000 0.16 0.18 0.2
v -11.7602343 26.5084305 0.0000000 0.16 0.18 0.2
v -12.8048194 26.0199270 0.0000000 0.16 0.18 0.2
v -13.8291575 25.4902805 0.0000000 0.16 0.18 0.2
v -14.8316289 24.9203287 0.0000000 0.16 0.18 0.2
v -15.8106484 24.3109728 0.0000000 0.16 0.18 0.2
v -16.7646680 23.6631762 0.0000000 0.16 0.18 0.2
v -17.6921792 22.9779632 0.0000000 0.16 0.18 0.2
v -18.5917155 22.2564174 0.0000000 0.16 0.18 0.2
v -19.4618544 21.4996796 0.0000000 0.16 0.18 0.2
v -20.3012202 20.7089464 0.0000000 0.16 0.18 0.2
v -21.1084855 19.8854681 0.0000000 0.16 0.18 0.2
v -21.8823740 19.0305467 0.0000000 0.16 0.18 0.2
v -22.6216619 18.1455342 0.0000000 0.16 0.18 0.2
v -23.3251804 17.2318298 0.0000000 0.16 0.18 0.2
v -23.9918169 16.2908784 0.0000000 0.16 0.18 0.2
v -24.6205175 15.3241678 0.0000000 0.16 0.18 0.2
v -25.2102880 14.3332265 0.0000000 0.16 0.18 0.2
v -25.7601958 13.3196214 0.0000000 0.16 0.18 0.2
v -26.2693714 12.2849552 0.0000000 0.16 0.18 0.2
v -26.7370098 11.2308641 0.0000000 0.16 0.18 0.2
v -27.1623714 10.1590146 0.0000000 0.16 0.18 0.2
v -27.5447838 9.0711016 0.0000000 0.16 0.18 0.2
v -27.8836422 7.9688454 0.0000000 0.16 0.18 0.2
v -28.1784109 6.8539887 0.0000000 0.16 0.18 0.2
v -28.4286236 5.7282945 0.0000000 0.16 0.18 0.2
v -28.6338849 4.5935427 0.0000000 0.16 0.18 0.2
v -28.7938701 3.4515276 0.0000000 0.16 0.18 0.2
v -28.9083263 2.3040548 0.0000000 0.16 0.18 0.2
v -28.9770725 1.1529389 0.0000000 0.16 0.18 0.2
v -29.0000000 -0.0000000 0.0000000 0.16 0.18 0.2
v -28.9770725 -1.1529389 0.0000000 0.16 0.18 0.2
v -28.9083263 -2.3040548 0.0000000 0.16 0.18 0.2
v -28.7938701 -3.4515276 0.0000000 0.16 0.18 0.2
v -28.6338849 -4.5935427 0.0000000 0.16 0.18 0.2
v -28.4286236 -5.7282945 0.0000000 0.16 0.18 0.2
v -28.1784109 -6.8539887 0.0000000 0.16 0.18 0.2
v -27.8836422 -7.9688454 0.0000000 0.16 0.18 0.2
v -27.5447838 -9.0711016 0.0000000 0.16 0.18 0.2
v -27.1623714 -10.1590146 0.0000000 0.16 0.18 0.2
v -26.7370098 -11.2308641 0.0000000 0.16 0.18 0.2
v -26.2693714 -12.2849552 0.0000000 0.16 0.18 0.2
v -25.7601958 -13.3196214 0.0000000 0.16 0.18 0.2
v -25.2102880 -14.3332265 0.0000000 0.16 0.18 0.2
v -24.6205175 -15.3241678 0.0000000 0.16 0.18 0.2
v -23.9918169 -16.2908784 0.0000000 0.16 0.18 0.2
v -23.3251804 -17.2318298 0.0000000 0.16 0.18 0.2
v -22.6216619 -18.1455342 0.0000000 0.16 0.18 0.2
v -21.8823740 -19.0305467 0.0000000 0.16 0.18 0.2
v -21.1084855 -19.8854681 0.0000000 0.16 0.18 0.2
v -20.3012202 -20.7089464 0.0000000 0.16 0.18 0.2
v -19.4618544 -21.4996796 0.0000000 0.16 0.18 0.2
v -18.5917155 -22.2564174 0.0000000 0.16 0.18 0.2
v -17.6921792 -22.9779632 0.0000000 0.16 0.18 0.2
v -16.7646680 -23.6631762 0.0000000 0.16 0.18 0.2
v -15.8106484 -24.3109728 0.0000000 0.16 0.18 0.2
v -14.8316289 -24.9203287 0.0000000 0.16 0.18 0.2
v -13.8291575 -25.4902805 0.0000000 0.16 0.18 0.2
v -12.8048194 -26.0199270 0.0000000 0.16 0.18 0.2
v -11.7602343 -26.5084305 0.0000000 0.16 0.18 0.2
v -10.6970538 -26.9550188 0.0000000 0.16 0.18 0.2
v -9.6169591 -27.3589857 0.0000000 0.16 0.18 0.2
v -8.5216580 -27.7196924 0.0000000 0.16 0.18 0.2
v -7.4128823 -28.0365685 0.0000000 0.16 0.18 0.2
v -6.2923854 -28.3091131 0.0000000 0.16 0.18 0.2
v -5.1619390 -28.5368952 0.0000000 0.16 0.18 0.2
v -4.0233304 -28.7195545 0.0000000 0.16 0.18 0.2
v -2.8783602 -28.8568024 0.0000000 0.16 0.18 0.2
v -1.7288386 -28.9484217 0.0000000 0.16 0.18 0.2
v -0.5765834 -28.9942676 0.0000000 0.16 0.18 0.2
v 0.5765834 -28.9942676 0.0000000 0.16 0.18 0.2
v 1.7288386 -28.9484217 0.0000000 0.16 0.18 0.2
v 2.8783602 -28.8568024 0.0000000 0.16 0.18 0.2
v 4.0233304 -28.7195545 0.0000000 0.16 0.18 0.2
v 5.1619390 -28.5368952 0.0000000 0.16 0.18 0.2
v 6.2923854 -28.3091131 0.0000000 0.16 0.18 0.2
v 7.4128823 -28.0365685 0.0000000 0.16 0.18 0.2
v 8.5216580 -27.7196924 0.0000000 0.16 0.18 0.2
v 9.6169591 -27.3589857 0.0000000 0.16 0.18 0.2
v 10.6970538 -26.9550188 0.0000000 0.16 0.18 0.2
v 11.7602343 -26.5084305 0.0000000 0.16 0.18 0.2
v 12.8048194 -26.0199270 0.0000000 0.16 0.18 0.2
v 13.8291575 -25.4902805 0.0000000 0.16 0.18 0.2
v 14.8316289 -24.9203287 0.0000000 0.16 0.18 0.2
v 15.8106484 -24.3109728 0.0000000 0.16 0.18 0.2
v 16.7646680 -23.6631762 0.0000000 0.16 0.18 0.2
v 17.6921792 -22.9779632 0.0000000 0.16 0.18 0.2
v 18.5917155 -22.2564174 0.0000000 0.16 0.18 0.2
v 19.4618544 -21.4996796 0.0000000 0.16 0.18 0.2
v 20.3012202 -20.7089464 0.0000000 0.16 0.18 0.2
v 21.1084855 -19.8854681 0.0000000 0.16 0.18 0.2
v 21.8823740 -19.0305467 0.0000000 0.16 0.18 0.2
v 22.6216619 -18.1455342 0.0000000 0.16 0.18 0.2
v 23.3251804 -17.2318298 0.0000000 0.16 0.18 0.2
v 23.9918169 -16.2908784 0.0000000 0.16 0.18 0.2
v 24.6205175 -15.3241678 0.0000000 0.16 0.18 0.2
v 25.2102880 -14.3332265 0.0000000 0.16 0.18 0.2
v 25.7601958 -13.3196214 0.0000000 0.16 0.18 0.2
v 26.2693714 -12.2849552 0.0000000 0.16 0.18 0.2
v 26.7370098 -11.2308641 0.0000000 0.16 0.18 0.2
v 27.1623714 -10.1590146 0.0000000 0.16 0.18 0.2
v 27.5447838 -9.0711016 0.0000000 0.16 0.18 0.2
v 27.8836422 -7.9688454 0.0000000 0.16 0.18 0.2
v 28.1784109 -6.8539887 0.0000000 0.16 0.18 0.2
v 28.4286236 -5.7282945 0.0000000 0.16 0.18 0.2
v 28.6338849 -4.5935427 0.0000000 0.16 0.18 0.2
v 28.7938701 -3.4515276 0.0000000 0.16 0.18 0.2
v 28.9083263 -2.3040548 0.0000000 0.16 0.18 0.2
v 28.9770725 -1.1529389 0.0000000 0.16 0.18 0.2
v 29.0000000 0.0000000 0.0000000 0.16 0.18 0.2
v 28.9770725 1.1529389 0.0000000 0.16 0.18 0.2
v 28.9083263 2.3040548 0.0000000 0.16 0.18 0.2
v 28.7938701 3.4515276 0.0000000 0.16 0.18 0.2
v 28.6338849 4.5935427 0.0000000 0.16 0.18 0.2
v 28.4286236 5.7282945 0.0000000 0.16 0.18 0.2
v 28.1784109 6.8539887 0.0000000 0.16 0.18 0.2
v 27.8836422 7.9688454 0.0000000 0.16 0.18 0.2
v 27.5447838 9.0711016 0.0000000 0.16 0.18 0.2
v 27.1623714 10.1590146 0.0000000 0.16 0.18 0.2
v 26.7370098 11.2308641 0.0000000 0.16 0.18 0.2
v 26.2693714 12.2849552 0.0000000 0.16 0.18 0.2
v 25.7601958 13.3196214 0.0000000 0.16 0.18 0.2
v 25.2102880 14.3332265 0.0000000 0.16 0.18 0.2
v 24.6205175 15.3241678 0.0000000 0.16 0.18 0.2
v 23.9918169 16.2908784 0.0000000 0.16 0.18 0.2
v 23.3251804 17.2318298 0.0000000 0.16 0.18 0.2
v 22.6216619 18.1455342 0.0000000 0.16 0.18 0.2
v 21.8823740 19.0305467 0.0000000 0.16 0.18 0.2
v 21.1084855 19.8854681 0.0000000 0.16 0.18 0.2
v 20.3012202 20.7089464 0.0000000 0.16 0.18 0.2
v 19.4618544 21.4996796 0.0000000 0.16 0.18 0.2
v 18.5917155 22.2564174 0.0000000 0.16 0.18 0.2
v 17.6921792 22.9779632 0.0000000 0.16 0.18 0.2
v 16.7646680 23.6631762 0.0000000 0.16 0.18 0.2
v 15.8106484 24.3109728 0.0000000 0.16 0.18 0.2
v 14.8316289 24.9203287 0.0000000 0.16 0.18 0.2
v 13.8291575 25.4902805 0.0000000 0.16 0.18 0.2
v 12.8048194 26.0199270 0.0000000 0.16 0.18 0.2
v 11.7602343 26.5084305 0.0000000 0.16 0.18 0.2
v 10.6970538 26.9550188 0.0000000 0.16 0.18 0.2
v 9.6169591 27.3589857 0.0000000 0.16 0.18 0.2
v 8.5216580 27.7196924 0.0000000 0.16 0.18 0.2
v 7.4128823 28.0365685 0.0000000 0.16 0.18 0.2
v 6.2923854 28.3091131 0.0000000 0.16 0.18 0.2
v 5.1619390 28.5368952 0.0000000 0.16 0.18 0.2
v 4.0233304 28.7195545 0.0000000 0.16 0.18 0.2
v 2.8783602 28.8568024 0.0000000 0.16 0.18 0.2
v 1.7288386 28.9484217 0.0000000 0.16 0.18 0.2
v 0.5765834 28.9942676 0.0000000 0.16 0.18 0.2
v -0.5765834 28.9942676 0.0000000 0.16 0.18 0.2
v -1.7288386 28.9484217 0.0000000 0.16 0.18 0.2
v -2.8783602 28.8568024 0.0000000 0.16 0.18 0.2
v -4.0233304 28.7195545 0.0000000 0.16 0.18 0.2
v -5.1619390 28.5368952 0.0000000 0.16 0.18 0.2
v -6.2923854 28.3091131 0.0000000 0.16 0.18 0.2
v -7.4128823 28.0365685 0.0000000 0.16 0.18 0.2
v -8.5216580 27.7196924 0.0000000 0.16 0.18 0.2
v -9.6169591 27.3589857 0.0000000 0.16 0.18 0.2
v -10.6970538 26.9550188 0.0000000 0.16 0.18 0.2
v -11.7602343 26.5084305 0.0000000 0.16 0.18 0.2
v -12.8048194 26.0199270 0.0000000 0.16 0.18 0.2
v -13.8291575 25.4902805 0.0000000 0.16 0.18 0.2
v -14.8316289 24.9203287 0.0000000 0.16 0.18 0.2
v -15.8106484 24.3109728 0.0000000 0.16 0.18 0.2
v -16.7646680 23.6631762 0.0000000 0.16 0.18 0.2
v -17.6921792 22.9779632 0.0000000 0.16 0.18 0.2
v -18.5917155 22.2564174 0.0000000 0.16 0.18 0.2
v -19.4618544 21.4996796 0.0000000 0.16 0.18 0.2
v -20.3012202 20.7089464 0.0000000 0.16 0.18 0.2
v -21.1084855 19.8854681 0.0000000 0.16 0.18 0.2
v -21.8823740 19.0305467 0.0000000 0.16 0.18 0.2
v -22.6216619 18.1455342 0.0000000 0.16 0.18 0.2
v -23.3251804 17.2318298 0.0000000 0.16 0.18 0.2
v -23.9918169 16.2908784 0.0000000 0.16 0.18 0.2
v -24.6205175 15.3241678 0.0000000 0.16 0.18 0.2
v -25.2102880 14.3332265 0.0000000 0.16 0.18 0.2
v -25.7601958 13.3196214 0.0000000 0.16 0.18 0.2
v -26.2693714 12.2849552 0.0000000 0.16 0.18 0.2
v -26.7370098 11.2308641 0.0000000 0.16 0.18 0.2
v -27.1623714 10.1590146 0.0000000 0.16 0.18 0.2
v -27.5447838 9.0711016 0.0000000 0.16 0.18 0.2
v -27.8836422 7.9688454 0.0000000 0.16 0.18 0.2
v -28.1784109 6.8539887 0.0000000 0.16 0.18 0.2
v -28.4286236 5.7282945 0.0000000 0.16 0.18 0.2
v -28.6338849 4.5935427 0.0000000 0.16 0.18 0.2
v -28.7938701 3.4515276 0.0000000 0.16 0.18 0.2
v -28.9083263 2.3040548 0.0000000 0.16 0.18 0.2
v -28.9770725 1.1529389 0.0000000 0.16 0.18 0.2
v -29.0000000 -0.0000000 0.0000000 0.16 0.18 0.2
v -28.9770725 -1.1529389 0.0000000 0.16 0.18 0.2
v -28.9083263 -2.3040548 0.0000000 0.16 0.18 0.2
v -28.7938701 -3.4515276 0.0000000 0.16 0.18 0.2
v -28.6338849 -4.5935427 0.0000000 0.16 0.18 0.2
v -28.4286236 -5.7282945 0.0000000 0.16 0.18 0.2
v -28.1784109 -6.8539887 0.0000000 0.16 0.18 0.2
v -27.8836422 -7.9688454 0.0000000 0.16 0.18 0.2
v -27.5447838 -9.0711016 0.0000000 0.16 0.18 0.2
v -27.1623714 -10.1590146 0.0000000 0.16 0.18 0.2
v -26.7370098 -11.2308641 0.0000000 0.16 0.18 0.2
v -26.2693714 -12.2849552 0.0000000 0.16 0.18 0.2
v -25.7601958 -13.3196214 0.0000000 0.16 0.18 0.2
v -25.2102880 -14.3332265 0.0000000 0.16 0.18 0.2
v -24.6205175 -15.3241678 0.0000000 0.16 0.18 0.2
v -23.9918169 -16.2908784 0.0000000 0.16 0.18 0.2
v -23.3251804 -17.2318298 0.0000000 0.16 0.18 0.2
v -22.6216619 -18.1455342 0.0000000 0.16 0.18 0.2
v -21.8823740 -19.0305467 0.0000000 0.16 0.18 0.2
v -21.1084855 -19.8854681 0.0000000 0.16 0.18 0.2
v -20.3012202 -20.7089464 0.0000000 0.16 0.18 0.2
v -19.4618544 -21.4996796 0.0000000 0.16 0.18 0.2
v -18.5917155 -22.2564174 0.0000000 0.16 0.18 0.2
v -17.6921792 -22.9779632 0.0000000 0.16 0.18 0.2
v -16.7646680 -23.6631762 0.0000000 0.16 0.18 0.2
v -15.8106484 -24.3109728 0.0000000 0.16 0.18 0.2
v -14.8316289 -24.9203287 0.0000000 0.16 0.18 0.2
v -13.8291575 -25.4902805 0.0000000 0.16 0.18 0.2
v -12.8048194 -26.0199270 0.0000000 0.16 0.18 0.2
v -11.7602343 -26.5084305 0.0000000 0.16 0.18 0.2
v -10.6970538 -26.9550188 0.0000000 0.16 0.18 0.2
v -9.6169591 -27.3589857 0.0000000 0.16 0.18 0.2
v -8.5216580 -27.7196924 0.0000000 0.16 0.18 0.2
v -7.4128823 -28.0365685 0.0000000 0.16 0.18 0.2
v -6.2923854 -28.3091131 0.0000000 0.16 0.18 0.2
v -5.1619390 -28.5368952 0.0000000 0.16 0.18 0.2
v -4.0233304 -28.7195545 0.0000000 0.16 0.18 0.2
v -2.8783602 -28.8568024 0.0000000 0.16 0.18 0.2
v -1.7288386 -28.9484217 0.0000000 0.16 0.18 0.2
v -0.5765834 -28.9942676 0.0000000 0.16 0.18 0.2
v 0.5765834 -28.9942676 0.0000000 0.16 0.18 0.2
v 1.7288386 -28.9484217 0.0000000 0.16 0.18 0.2
v 2.8783602 -28.8568024 0.0000000 0.16 0.18 0.2
v 4.0233304 -28.7195545 0.0000000 0.16 0.18 0.2
v 5.1619390 -28.5368952 0.0000000 0.16 0.18 0.2
v 6.2923854 -28.3091131 0.0000000 0.16 0.18 0.2
v 7.4128823 -28.0365685 0.0000000 0.16 0.18 0.2
v 8.5216580 -27.7196924 0.0000000 0.16 0.18 0.2
v 9.6169591 -27.3589857 0.0000000 0.16 0.18 0.2
v 10.6970538 -26.9550188 0.0000000 0.16 0.18 0.2
v 11.7602343 -26.5084305 0.0000000 0.16 0.18 0.2
v 12.8048194 -26.0199270 0.0000000 0.16 0.18 0.2
v 13.8291575 -25.4902805 0.0000000 0.16 0.18 0.2
v 14.8316289 -24.9203287 0.0000000 0.16 0.18 0.2
v 15.8106484 -24.3109728 0.0000000 0.16 0.18 0.2
v 16.7646680 -23.6631762 0.0000000 0.16 0.18 0.2
v 17.6921792 -22.9779632 0.0000000 0.16 0.18 0.2
v 18.5917155 -22.2564174 0.0000000 0.16 0.18 0.2
v 19.4618544 -21.4996796 0.0000000 0.16 0.18 0.2
v 20.3012202 -20.7089464 0.0000000 0.16 0.18 0.2
v 21.1084855 -19.8854681 0.0000000 0.16 0.18 0.2
v 21.8823740 -19.0305467 0.0000000 0.16 0.18 0.2
v 22.6216619 -18.1455342 0.0000000 0.16 0.18 0.2
v 23.3251804 -17.2318298 0.0000000 0.16 0.18 0.2
v 23.9918169 -16.2908784 0.0000000 0.16 0.18 0.2
v 24.6205175 -15.3241678 0.0000000 0.16 0.18 0.2
v 25.2102880 -14.3332265 0.0000000 0.16 0.18 0.2
v 25.7601958 -13.3196214 0.0000000 0.16 0.18 0.2
v 26.2693714 -12.2849552 0.0000000 0.16 0.18 0.2
v 26.7370098 -11.2308641 0.0000000 0.16 0.18 0.2
v 27.1623714 -10.1590146 0.0000000 0.16 0.18 0.2
v 27.5447838 -9.0711016 0.0000000 0.16 0.18 0.2
v 27.8836422 -7.9688454 0.0000000 0.16 0.18 0.2
v 28.1784109 -6.8539887 0.0000000 0.16 0.18 0.2
v 28.4286236 -5.7282945 0.0000000 0.16 0.18 0.2
v 28.6338849 -4.5935427 0.0000000 0.16 0.18 0.2
v 28.7938701 -3.4515276 0.0000000 0.16 0.18 0.2
v 28.9083263 -2.3040548 0.0000000 0.16 0.18 0.2
v 28.9770725 -1.1529389 0.0000000 0.16 0.18 0.2
v 29.0000000 0.0000000 0.2000000 0.16 0.18 0.2
v 28.9770725 1.1529389 0.2000000 0.16 0.18 0.2
v 28.9083263 2.3040548 0.2000000 0.16 0.18 0.2
v 28.7938701 3.4515276 0.2000000 0.16 0.18 0.2
v 28.6338849 4.5935427 0.2000000 0.16 0.18 0.2
v 28.4286236 5.7282945 0.2000000 0.16 0.18 0.2
v 28.1784109 6.8539887 0.2000000 0.16 0.18 0.2
v 27.8836422 7.9688454 0.2000000 0.16 0.18 0.2
v 27.5447838 9.0711016 0.2000000 0.16 0.18 0.2
v 27.1623714 10.1590146 0.2000000 0.16 0.18 0.2
v 26.7370098 11.2308641 0.2000000 0.16 0.18 0.2
v 26.2693714 12.2849552 0.2000000 0.16 0.18 0.2
v 25.7601958 13.3196214 0.2000000 0.16 0.18 0.2
v 25.2102880 14.3332265 0.2000000 0.16 0.18 0.2
v 24.6205175 15.3241678 0.2000000 0.16 0.18 0.2
v 23.9918169 16.2908784 0.2000000 0.16 0.18 0.2
v 23.3251804 17.2318298 0.2000000 0.16 0.18 0.2
v 22.6216619 18.1455342 0.2000000 0.16 0.18 0.2
v 21.8823740 19.0305467 0.2000000 0.16 0.18 0.2
v 21.1084855 19.8854681 0.2000000 0.16 0.18 0.2
v 20.3012202 20.7089464 0.2000000 0.16 0.18 0.2
v 19.4618544 21.4996796 0.2000000 0.16 0.18 0.2
v 18.5917155 22.2564174 0.2000000 0.16 0.18 0.2
v 17.6921792 22.9779632 0.2000000 0.16 0.18 0.2
v 16.7646680 23.6631762 0.2000000 0.16 0.18 0.2
v 15.8106484 24.3109728 0.2000000 0.16 0.18 0.2
v 14.8316289 24.9203287 0.2000000 0.16 0.18 0.2
v 13.8291575 25.4902805 0.2000000 0.16 0.18 0.2
v 12.8048194 26.0199270 0.2000000 0.16 0.18 0.2
v 11.7602343 26.5084305 0.2000000 0.16 0.18 0.2
v 10.6970538 26.9550188 0.2000000 0.16 0.18 0.2
v 9.6169591 27.3589857 0.2000000 0.16 0.18 0.2
v 8.5216580 27.7196924 0.2000000 0.16 0.18 0.2
v 7.4128823 28.0365685 0.2000000 0.16 0.18 0.2
v 6.2923854 28.3091131 0.2000000 0.16 0.18 0.2
v 5.1619390 28.5368952 0.2000000 0.16 0.18 0.2
v 4.0233304 28.7195545 0.2000000 0.16 0.18 0.2
v 2.8783602 28.8568024 0.2000000 0.16 0.18 0.2
v 1.7288386 28.9484217 0.2000000 0.16 0.18 0.2
v 0.5765834 28.9942676 0.2000000 0.16 0.18 0.2
v -0.5765834 28.9942676 0.2000000 0.16 0.18 0.2
v -1.7288386 28.9484217 0.2000000 0.16 0.18 0.2
v -2.8783602 28.8568024 0.2000000 0.16 0.18 0.2
v -4.0233304 28.7195545 0.2000000 0.16 0.18 0.2
v -5.1619390 28.5368952 0.2000000 0.16 0.18 0.2
v -6.2923854 28.3091131 0.2000000 0.16 0.18 0.2
v -7.4128823 28.0365685 0.2000000 0.16 0.18 0.2
v -8.5216580 27.7196924 0.2000000 0.16 0.18 0.2
v -9.6169591 27.3589857 0.2000000 0.16 0.18 0.2
v -10.6970538 26.9550188 0.2000000 0.16 0.18 0.2
v -11.7602343 26.5084305 0.2000000 0.16 0.18 0.2
v -12.8048194 26.0199270 0.2000000 0.16 0.18 0.2
v -13.8291575 25.4902805 0.2000000 0.16 0.18 0.2
v -14.8316289 24.9203287 0.2000000 0.16 0.18 0.2
v -15.8106484 24.3109728 0.2000000 0.16 0.18 0.2
v -16.7646680 23.6631762 0.2000000 0.16 0.18 0.2
v -17.6921792 22.9779632 0.2000000 0.16 0.18 0.2
v -18.5917155 22.2564174 0.2000000 0.16 0.18 0.2
v -19.4618544 21.4996796 0.2000000 0.16 0.18 0.2
v -20.3012202 20.7089464 0.2000000 0.16 0.18 0.2
v -21.1084855 19.8854681 0.2000000 0.16 0.18 0.2
v -21.8823740 19.0305467 0.2000000 0.16 0.18 0.2
v -22.6216619 18.1455342 0.2000000 0.16 0.18 0.2
v -23.3251804 17.2318298 0.2000000 0.16 0.18 0.2
v -23.9918169 16.2908784 0.2000000 0.16 0.18 0.2
v -24.6205175 15.3241678 0.2000000 0.16 0.18 0.2
v -25.2102880 14.3332265 0.2000000 0.16 0.18 0.2
v -25.7601958 13.3196214 0.2000000 0.16 0.18 0.2
v -26.2693714 12.2849552 0.2000000 0.16 0.18 0.2
v -26.7370098 11.2308641 0.2000000 0.16 0.18 0.2
v -27.1623714 10.1590146 0.2000000 0.16 0.18 0.2
v -27.5447838 9.0711016 0.2000000 0.16 0.18 0.2
v -27.8836422 7.9688454 0.2000000 0.16 0.18 0.2
v -28.1784109 6.8539887 0.2000000 0.16 0.18 0.2
v -28.4286236 5.7282945 0.2000000 0.16 0.18 0.2
v -28.6338849 4.5935427 0.2000000 0.16 0.18 0.2
v -28.7938701 3.4515276 0.2000000 0.16 0.18 0.2
v -28.9083263 2.3040548 0.2000000 0.16 0.18 0.2
v -28.9770725 1.1529389 0.2000000 0.16 0.18 0.2
v -29.0000000 -0.0000000 0.2000000 0.16 0.18 0.2
v -28.9770725 -1.1529389 0.2000000 0.16 0.18 0.2
v -28.9083263 -2.3040548 0.2000000 0.16 0.18 0.2
v -28.7938701 -3.4515276 0.2000000 0.16 0.18 0.2
v -28.6338849 -4.5935427 0.2000000 0.16 0.18 0.2
v -28.4286236 -5.7282945 0.2000000 0.16 0.18 0.2
v -28.1784109 -6.8539887 0.2000000 0.16 0.18 0.2
v -27.8836422 -7.9688454 0.2000000 0.16 0.18 0.2
v -27.5447838 -9.0711016 0.2000000 0.16 0.18 0.2
v -27.1623714 -10.1590146 0.2000000 0.16 0.18 0.2
v -26.7370098 -11.2308641 0.2000000 0.16 0.18 0.2
v -26.2693714 -12.2849552 0.2000000 0.16 0.18 0.2
v -25.7601958 -13.3196214 0.2000000 0.16 0.18 0.2
v -25.2102880 -14.3332265 0.2000000 0.16 0.18 0.2
v -24.6205175 -15.3241678 0.2000000 0.16 0.18 0.2
v -23.9918169 -16.2908784 0.2000000 0.16 0.18 0.2
v -23.3251804 -17.2318298 0.2000000 0.16 0.18 0.2
v -22.6216619 -18.1455342 0.2000000 0.16 0.18 0.2
v -21.8823740 -19.0305467 0.2000000 0.16 0.18 0.2
v -21.1084855 -19.8854681 0.2000000 0.16 0.18 0.2
v -20.3012202 -20.7089464 0.2000000 0.16 0.18 0.2
v -19.4618544 -21.4996796 0.2000000 0.16 0.18 0.2
v -18.5917155 -22.2564174 0.2000000 0.16 0.18 0.2
v -17.6921792 -22.9779632 0.2000000 0.16 0.18 0.2
v -16.7646680 -23.6631762 0.2000000 0.16 0.18 0.2
v -15.8106484 -24.3109728 0.2000000 0.16 0.18 0.2
v -14.8316289 -24.9203287 0.2000000 0.16 0.18 0.2
v -13.8291575 -25.4902805 0.2000000 0.16 0.18 0.2
v -12.8048194 -26.0199270 0.2000000 0.16 0.18 0.2
v -11.7602343 -26.5084305 0.2000000 0.16 0.18 0.2
v -10.6970538 -26.9550188 0.2000000 0.16 0.18 0.2
v -9.6169591 -27.3589857 0.2000000 0.16 0.18 0.2
v -8.5216580 -27.7196924 0.2000000 0.16 0.18 0.2
v -7.4128823 -28.0365685 0.2000000 0.16 0.18 0.2
v -6.2923854 -28.3091131 0.2000000 0.16 0.18 0.2
v -5.1619390 -28.5368952 0.2000000 0.16 0.18 0.2
v -4.0233304 -28.7195545 0.2000000 0.16 0.18 0.2
v -2.8783602 -28.8568024 0.2000000 0.16 0.18 0.2
v -1.7288386 -28.9484217 0.2000000 0.16 0.18 0.2
v -0.5765834 -28.9942676 0.2000000 0.16 0.18 0.2
v 0.5765834 -28.9942676 0.2000000 0.16 0.18 0.2
v 1.7288386 -28.9484217 0.2000000 0.16 0.18 0.2
v 2.8783602 -28.8568024 0.2000000 0.16 0.18 0.2
v 4.0233304 -28.7195545 0.2000000 0.16 0.18 0.2
v 5.1619390 -28.5368952 0.2000000 0.16 0.18 0.2
v 6.2923854 -28.3091131 0.2000000 0.16 0.18 0.2
v 7.4128823 -28.0365685 0.2000000 0.16 0.18 0.2
v 8.5216580 -27.7196924 0.2000000 0.16 0.18 0.2
v 9.6169591 -27.3589857 0.2000000 0.16 0.18 0.2
v 10.6970538 -26.9550188 0.2000000 0.16 0.18 0.2
v 11.7602343 -26.5084305 0.2000000 0.16 0.18 0.2
v 12.8048194 -26.0199270 0.2000000 0.16 0.18 0.2
v 13.8291575 -25.4902805 0.2000000 0.16 0.18 0.2
v 14.8316289 -24.9203287 0.2000000 0.16 0.18 0.2
v 15.8106484 -24.3109728 0.2000000 0.16 0.18 0.2
v 16.7646680 -23.6631762 0.2000000 0.16 0.18 0.2
v 17.6921792 -22.9779632 0.2000000 0.16 0.18 0.2
v 18.5917155 -22.2564174 0.2000000 0.16 0.18 0.2
v 19.4618544 -21.4996796 0.2000000 0.16 0.18 0.2
v 20.3012202 -20.7089464 0.2000000 0.16 0.18 0.2
v 21.1084855 -19.8854681 0.2000000 0.16 0.18 0.2
v 21.8823740 -19.0305467 0.2000000 0.16 0.18 0.2
v 22.6216619 -18.1455342 0.2000000 0.16 0.18 0.2
v 23.3251804 -17.2318298 0.2000000 0.16 0.18 0.2
v 23.9918169 -16.2908784 0.2000000 0.16 0.18 0.2
v 24.6205175 -15.3241678 0.2000000 0.16 0.18 0.2
v 25.2102880 -14.3332265 0.2000000 0.16 0.18 0.2
v 25.7601958 -13.3196214 0.2000000 0.16 0.18 0.2
v 26.2693714 -12.2849552 0.2000000 0.16 0.18 0.2
v 26.7370098 -11.2308641 0.2000000 0.16 0.18 0.2
v 27.1623714 -10.1590146 0.2000000 0.16 0.18 0.2
v 27.5447838 -9.0711016 0.2000000 0.16 0.18 0.2
v 27.8836422 -7.9688454 0.2000000 0.16 0.18 0.2
v 28.1784109 -6.8539887 0.2000000 0.16 0.18 0.2
v 28.4286236 -5.7282945 0.2000000 0.16 0.18 0.2
v 28.6338849 -4.5935427 0.2000000 0.16 0.18 0.2
v 28.7938701 -3.4515276 0.2000000 0.16 0.18 0.2
v 28.9083263 -2.3040548 0.2000000 0.16 0.18 0.2
v 28.9770725 -1.1529389 0.2000000 0.16 0.18 0.2
usemtl Phone_Pad
s off
f 162 2 1
f 162 3 2
f 163 4 3
f 163 3 162
f 164 5 4
f 164 4 163
f 165 6 5
f 165 5 164
f 166 7 6
f 166 6 165
f 167 8 7
f 167 7 166
f 168 9 8
f 168 8 167
f 169 10 9
f 169 9 168
f 170 11 10
f 170 10 169
f 171 12 11
f 171 11 170
f 172 13 12
f 172 12 171
f 173 14 13
f 173 15 14
f 173 13 172
f 174 15 173
f 175 16 15
f 175 15 174
f 176 17 16
f 176 16 175
f 177 18 17
f 177 17 176
f 178 19 18
f 178 18 177
f 179 20 19
f 179 19 178
f 180 21 20
f 180 20 179
f 181 22 21
f 181 21 180
f 182 23 22
f 182 22 181
f 183 23 182
f 183 24 23
f 183 25 24
f 184 25 183
f 184 26 25
f 185 26 184
f 186 26 185
f 186 27 26
f 187 27 186
f 187 28 27
f 188 29 28
f 188 28 187
f 189 30 29
f 189 29 188
f 190 31 30
f 190 30 189
f 191 32 31
f 191 33 32
f 191 31 190
f 192 33 191
f 193 34 33
f 193 33 192
f 194 35 34
f 194 36 35
f 194 34 193
f 195 36 194
f 196 37 36
f 196 36 195
f 197 38 37
f 197 37 196
f 198 39 38
f 198 38 197
f 199 40 39
f 199 41 40
f 199 39 198
f 200 41 199
f 201 42 41
f 201 41 200
f 202 43 42
f 202 44 43
f 202 42 201
f 203 44 202
f 204 45 44
f 204 46 45
f 204 44 203
f 205 47 46
f 205 46 204
f 206 47 205
f 207 47 206
f 207 48 47
f 208 48 207
f 208 49 48
f 208 50 49
f 209 50 208
f 210 50 209
f 210 51 50
f 211 51 210
f 211 52 51
f 212 52 211
f 212 53 52
f 212 54 53
f 213 54 212
f 214 54 213
f 214 55 54
f 215 55 214
f 215 56 55
f 216 56 215
f 216 57 56
f 217 57 216
f 217 58 57
f 218 58 217
f 218 59 58
f 218 60 59
f 219 60 218
f 220 60 219
f 220 61 60
f 220 62 61
f 221 62 220
f 221 63 62
f 222 63 221
f 223 64 63
f 223 63 222
f 224 65 64
f 224 64 223
f 225 66 65
f 225 65 224
f 226 67 66
f 226 66 225
f 227 68 67
f 227 67 226
f 228 69 68
f 228 68 227
f 229 70 69
f 229 69 228
f 230 71 70
f 230 70 229
f 231 72 71
f 231 71 230
f 232 72 231
f 232 73 72
f 233 73 232
f 233 74 73
f 234 74 233
f 234 75 74
f 235 75 234
f 235 76 75
f 235 77 76
f 236 77 235
f 237 77 236
f 237 78 77
f 238 78 237
f 238 79 78
f 239 79 238
f 239 80 79
f 240 80 239
f 240 81 80
f 240 82 81
f 241 82 240
f 241 83 82
f 242 83 241
f 243 83 242
f 243 84 83
f 244 84 243
f 244 85 84
f 245 85 244
f 245 86 85
f 246 86 245
f 246 87 86
f 247 87 246
f 247 88 87
f 248 88 247
f 248 89 88
f 249 89 248
f 249 90 89
f 250 90 249
f 250 91 90
f 251 91 250
f 251 92 91
f 252 92 251
f 252 93 92
f 253 93 252
f 253 94 93
f 254 94 253
f 254 95 94
f 255 96 95
f 255 95 254
f 256 97 96
f 256 96 255
f 256 98 97
f 257 98 256
f 258 98 257
f 258 99 98
f 259 99 258
f 259 100 99
f 260 100 259
f 260 101 100
f 261 102 101
f 261 103 102
f 261 101 260
f 262 103 261
f 263 104 103
f 263 103 262
f 264 105 104
f 264 104 263
f 265 106 105
f 265 105 264
f 266 107 106
f 266 106 265
f 267 108 107
f 267 107 266
f 268 109 108
f 268 108 267
f 269 110 109
f 269 109 268
f 270 111 110
f 270 112 111
f 270 110 269
f 271 112 270
f 272 113 112
f 272 112 271
f 273 114 113
f 273 113 272
f 274 115 114
f 274 114 273
f 275 116 115
f 275 117 116
f 275 115 274
f 276 117 275
f 277 118 117
f 277 119 118
f 277 117 276
f 278 119 277
f 279 120 119
f 279 121 120
f 279 119 278
f 280 121 279
f 281 122 121
f 281 123 122
f 281 121 280
f 282 123 281
f 283 123 282
f 283 124 123
f 284 124 283
f 284 125 124
f 284 126 125
f 285 126 284
f 285 127 126
f 286 127 285
f 287 127 286
f 287 128 127
f 287 129 128
f 288 129 287
f 288 130 129
f 289 130 288
f 290 131 130
f 290 132 131
f 290 130 289
f 291 132 290
f 292 133 132
f 292 132 291
f 293 134 133
f 293 135 134
f 293 133 292
f 294 135 293
f 295 136 135
f 295 137 136
f 295 135 294
f 296 137 295
f 297 138 137
f 297 137 296
f 298 139 138
f 298 140 139
f 298 138 297
f 299 140 298
f 300 141 140
f 300 140 299
f 301 142 141
f 301 143 142
f 301 141 300
f 302 143 301
f 303 144 143
f 303 145 144
f 303 143 302
f 304 145 303
f 305 146 145
f 305 147 146
f 305 145 304
f 306 147 305
f 307 148 147
f 307 149 148
f 307 147 306
f 308 149 307
f 309 149 308
f 309 150 149
f 310 150 309
f 310 151 150
f 310 152 151
f 311 152 310
f 311 153 152
f 312 153 311
f 313 153 312
f 313 154 153
f 313 155 154
f 314 155 313
f 315 155 314
f 315 156 155
f 316 156 315
f 316 157 156
f 316 158 157
f 317 158 316
f 317 159 158
f 318 159 317
f 161 159 318
f 161 160 159
f 419 418 417
f 415 417 416
f 422 421 420
f 423 420 419
f 423 419 417
f 423 422 420
f 412 417 415
f 412 414 413
f 412 415 414
f 409 411 410
f 409 412 411
f 406 408 407
f 406 409 408
f 431 428 427
f 431 429 428
f 431 430 429
f 404 406 405
f 432 431 427
f 432 426 425
f 432 427 426
f 433 424 423
f 433 425 424
f 433 432 425
f 401 403 402
f 401 404 403
f 435 434 433
f 435 433 423
f 399 404 401
f 399 401 400
f 437 436 435
f 437 435 423
f 396 406 404
f 396 404 399
f 396 398 397
f 396 399 398
f 440 438 437
f 440 439 438
f 441 440 437
f 394 396 395
f 443 442 441
f 443 441 437
f 392 396 394
f 392 394 393
f 391 396 392
f 390 396 391
f 446 437 423
f 446 444 443
f 446 445 444
f 446 443 437
f 446 423 417
f 387 389 388
f 449 447 446
f 449 448 447
f 449 446 417
f 386 390 389
f 386 389 387
f 385 396 390
f 385 390 386
f 451 450 449
f 383 385 384
f 382 385 383
f 454 452 451
f 454 453 452
f 454 451 449
f 379 385 382
f 379 381 380
f 379 382 381
f 379 396 385
f 457 454 449
f 457 455 454
f 457 456 455
f 457 449 417
f 457 417 412
f 458 457 412
f 377 379 378
f 377 396 379
f 460 458 412
f 460 459 458
f 374 376 375
f 464 461 460
f 464 462 461
f 464 463 462
f 464 460 412
f 466 465 464
f 369 371 370
f 368 371 369
f 368 372 371
f 368 373 372
f 468 409 406
f 468 406 396
f 468 464 412
f 468 467 466
f 468 466 464
f 468 412 409
f 367 374 373
f 367 373 368
f 469 468 396
f 365 367 366
f 472 396 377
f 472 376 374
f 472 469 396
f 472 470 469
f 472 471 470
f 472 377 376
f 363 365 364
f 363 367 365
f 363 374 367
f 361 363 362
f 360 363 361
f 358 360 359
f 320 319 476
f 357 363 360
f 357 360 358
f 321 476 475
f 321 320 476
f 322 475 474
f 322 321 475
f 355 357 356
f 323 322 474
f 323 474 473
f 354 357 355
f 326 324 323
f 326 325 324
f 326 323 473
f 326 473 472
f 351 357 354
f 351 353 352
f 351 354 353
f 350 363 357
f 350 357 351
f 350 374 363
f 330 328 327
f 330 329 328
f 331 327 326
f 331 326 472
f 331 472 374
f 331 330 327
f 346 348 347
f 346 349 348
f 344 346 345
f 334 333 332
f 343 374 350
f 343 350 349
f 343 349 346
f 343 346 344
f 342 374 343
f 336 332 331
f 336 335 334
f 336 334 332
f 339 337 336
f 339 338 337
f 339 341 340
f 339 342 341
f 339 331 374
f 339 336 331
f 339 374 342
f 577 575 576
f 573 574 575
f 580 578 579
f 581 577 578
f 581 575 577
f 581 578 580
f 570 573 575
f 570 571 572
f 570 572 573
f 567 568 569
f 567 569 570
f 564 565 566
f 564 566 567
f 589 585 586
f 589 586 587
f 589 587 588
f 562 563 564
f 590 585 589
f 590 583 584
f 590 584 585
f 591 581 582
f 591 582 583
f 591 583 590
f 559 560 561
f 559 561 562
f 593 591 592
f 593 581 591
f 557 559 562
f 557 558 559
f 595 593 594
f 595 581 593
f 554 562 564
f 554 557 562
f 554 555 556
f 554 556 557
f 598 595 596
f 598 596 597
f 599 595 598
f 552 553 554
f 601 599 600
f 601 595 599
f 550 552 554
f 550 551 552
f 549 550 554
f 548 549 554
f 604 581 595
f 604 601 602
f 604 602 603
f 604 595 601
f 604 575 581
f 545 546 547
f 607 604 605
f 607 605 606
f 607 575 604
f 544 547 548
f 544 545 547
f 543 548 554
f 543 544 548
f 609 607 608
f 541 542 543
f 540 541 543
f 612 609 610
f 612 610 611
f 612 607 609
f 537 540 543
f 537 538 539
f 537 539 540
f 537 543 554
f 615 607 612
f 615 612 613
f 615 613 614
f 615 575 607
f 615 570 575
f 616 570 615
f 535 536 537
f 535 537 554
f 618 570 616
f 618 616 617
f 532 533 534
f 622 618 619
f 622 619 620
f 622 620 621
f 622 570 618
f 624 622 623
f 527 528 529
f 526 527 529
f 526 529 530
f 526 530 531
f 626 564 567
f 626 554 564
f 626 570 622
f 626 624 625
f 626 622 624
f 626 567 570
f 525 531 532
f 525 526 531
f 627 554 626
f 523 524 525
f 630 535 554
f 630 532 534
f 630 554 627
f 630 627 628
f 630 628 629
f 630 534 535
f 521 522 523
f 521 523 525
f 521 525 532
f 519 520 521
f 518 519 521
f 516 517 518
f 478 634 477
f 515 518 521
f 515 516 518
f 479 633 634
f 479 634 478
f 480 632 633
f 480 633 479
f 513 514 515
f 481 632 480
f 481 631 632
f 512 513 515
f 484 481 482
f 484 482 483
f 484 631 481
f 484 630 631
f 509 512 515
f 509 510 511
f 509 511 512
f 508 515 521
f 508 509 515
f 508 521 532
f 488 485 486
f 488 486 487
f 489 484 485
f 489 630 484
f 489 532 630
f 489 485 488
f 504 505 506
f 504 506 507
f 502 503 504
f 492 490 491
f 501 508 532
f 501 507 508
f 501 504 507
f 501 502 504
f 500 501 532
f 494 489 490
f 494 492 493
f 494 490 492
f 497 494 495
f 497 495 496
f 497 498 499
f 497 499 500
f 497 532 489
f 497 489 494
f 497 500 532
