v 0.046006 -0.054524 0.0
v 0.050022 -0.055087 0.0
v -0.057685 -0.75 0.0
newmtl 1
Ka 0.25098039215686274 0.25098039215686274 0.25098039215686274
Kd 0.25098039215686274 0.25098039215686274 0.25098039215686274
Ks 0.12549019607843137 0.12549019607843137 0.12549019607843137
d 0.0
endmtl
v 1.426795 -0.65 0.0
v 1.406815 -0.698236 0.0
v 0.9 -0.65 0.0
v 1.4 -0.75 0.0
v 0.052757 -0.055134 0.0
v 0.9 -0.054524 0.0
v -0.057685 0.75 0.0
v -0.047929 -0.042939 0.0
v -0.057685 -0.054524 0.0
v -0.047929 -0.053914 0.0
v 0.005729 -0.053914 0.0
v -0.04549 0.03511 0.0
v -0.007685 0.03511 0.0
v -0.007685 0.002183 0.0
v 0.025241 -0.048731 0.0
v 0.025241 -0.037756 0.0
v 0.005729 0.046086 0.0
v 0.035901 -0.053108 0.0
v 1.4 0.75 0.0
v 0.9 0.65 0.0
v 1.406815 0.698236 0.0
v 1.426795 0.65 0.0
v -0.007685 -0.008792 0.0
v -0.007685 -0.042939 0.0
v -0.043051 -0.008792 0.0
v -0.043051 0.002183 0.0
v 0.159388 -0.053914 0.0
v 0.058637 -0.054524 0.0
v 0.108168 -0.053914 0.0
v 0.06508 -0.053856 0.0
v 0.074773 -0.05052 0.0
v -0.04549 0.046086 0.0
v 0.058507 0.035224 0.0
v 0.065992 0.032523 0.0
v 0.027034 -0.038749 0.0
v 0.072913 0.027892 0.0
v 0.078952 0.021225 0.0
v 0.086217 -0.004981 0.0
v 0.085204 -0.015807 0.0
v 0.082488 -0.024408 0.0
v 0.060236 -0.043112 0.0
v 0.050908 -0.044158 0.0
v 0.067522 -0.04043 0.0
v 0.073659 -0.036293 0.0
v 0.078352 -0.031342 0.0
v 0.037634 -0.042685 0.0
v 0.094354 0.019747 0.0
v 0.088493 0.029096 0.0
v 0.145973 0.046086 0.0
v 0.083074 0.013504 0.0
v 0.08574 0.002799 0.0
v 0.079465 0.037779 0.0
v 0.159388 0.046086 0.0
v 0.082816 -0.045383 0.0
v 0.090328 -0.037476 0.0
v 0.108168 -0.042939 0.0
v 0.095655 -0.027967 0.0
v 0.145973 -0.042939 0.0
v 0.098665 -0.017382 0.0
v 0.099632 -0.005801 0.0
v 0.098193 0.008416 0.0
v 0.069966 0.043247 0.0
v 0.058818 0.046485 0.0
v 0.048774 0.047305 0.0
v 0.036803 0.046479 0.0
v 0.025241 0.043342 0.0
v 0.025241 0.029927 0.0
v 0.036505 0.03475 0.0
v 0.04866 0.03633 0.0
v -0.24549 -0.053914 0.0
v -0.230856 -0.053914 0.0
v -0.155246 -0.053914 0.0
v -0.142936 -0.026507 0.0
v -0.137201 -0.035451 0.0
v -0.9 0.65 0.0
v -1.426795 0.65 0.0
v -1.412061 0.681596 0.0
v -1.403039 0.71527 0.0
v -1.4 0.75 0.0
v -0.12897 -0.043332 0.0
v -0.118529 -0.0494 0.0
v -0.107006 -0.052834 0.0
v -0.193051 0.046086 0.0
v -0.206466 0.046086 0.0
v -0.9 -0.054524 0.0
v -0.094633 -0.053914 0.0
v -0.067442 -0.053914 0.0
v -0.067442 0.046086 0.0
v -0.095662 0.046086 0.0
v -0.132798 0.033047 0.0
v -0.139869 0.025206 0.0
v -0.144517 0.016605 0.0
v -0.169881 -0.053914 0.0
v -0.179427 -0.025866 0.0
v -0.220738 -0.025866 0.0
v -0.110109 0.044541 0.0
v -0.121809 0.040433 0.0
v -0.132693 0.033139 0.0
v -0.147203 0.006753 0.0
v -0.147929 -0.002657 0.0
v -0.146526 -0.01604 0.0
v -1.406815 -0.698236 0.0
v -1.426795 -0.65 0.0
v -1.1 -0.65 0.0
v -0.9 -0.45 0.0
v -1.4 -0.75 0.0
v 1.5 -0.576795 0.0
v 1.5 0.576795 0.0
v 1.548236 0.556815 0.0
v 1.6 0.55 0.0
v 1.6 -0.55 0.0
v 1.548236 -0.556815 0.0
v 1.6 -0.675 0.2
v 1.6 -0.675 0.6
v 1.583311 -0.67688 0.2
v 1.583311 -0.67688 0.6
v 1.567459 -0.682427 0.2
v 1.567459 -0.682427 0.6
v 1.553238 -0.691363 0.2
v 1.553238 -0.691363 0.6
v 1.541363 -0.703238 0.2
v 1.541363 -0.703238 0.6
v 1.532427 -0.717459 0.2
v 1.532427 -0.717459 0.6
v 1.52688 -0.733311 0.2
v 1.52688 -0.733311 0.6
v 1.525 -0.75 0.2
v 1.525 -0.75 0.6
v 1.5 0.576795 -0.01
v 1.5 -0.576795 -0.01
newmtl 2
Ka 1.0 1.0 0.0
Kd 1.0 1.0 0.0
Ks 0.5019607843137255 0.5019607843137255 0.0
d 0.0
endmtl
v 0.9 -0.65 -0.01
v 1.426795 -0.65 -0.01
v 1.525 0.75 0.2
v 1.525 0.75 0.6
v 1.52688 0.733311 0.2
v 1.52688 0.733311 0.6
v 1.532427 0.717459 0.2
v 1.532427 0.717459 0.6
v 1.541363 0.703238 0.2
v 1.541363 0.703238 0.6
v 1.553238 0.691363 0.2
v 1.553238 0.691363 0.6
v 1.567459 0.682427 0.2
v 1.567459 0.682427 0.6
v 1.583311 0.67688 0.2
v 1.583311 0.67688 0.6
v 1.6 0.675 0.2
v 1.6 0.675 0.6
v -1.6 -0.55 0.0
v -1.6 0.55 0.0
v -1.548236 -0.556815 0.0
v -1.548236 0.556815 0.0
v -1.5 -0.576795 0.0
v -1.5 0.576795 0.0
v -1.6 0.675 0.2
v -1.6 0.675 0.6
v -1.580589 0.677556 0.2
v -1.580589 0.677556 0.6
v -1.5625 0.685048 0.2
v -1.5625 0.685048 0.6
v -1.546967 0.696967 0.2
v -1.546967 0.696967 0.6
v -1.535048 0.7125 0.2
v -1.535048 0.7125 0.6
v -1.527555 0.730589 0.2
v -1.527555 0.730589 0.6
v -1.525 0.75 0.2
v -1.525 0.75 0.6
v -1.5 -0.576795 -0.01
v -1.5 0.576795 -0.01
v -0.9 0.65 -0.01
v -1.426795 0.65 -0.01
v -1.525 -0.75 0.2
v -1.525 -0.75 0.6
v -1.527555 -0.730589 0.2
v -1.527555 -0.730589 0.6
v -1.535048 -0.7125 0.2
v -1.535048 -0.7125 0.6
v -1.546967 -0.696967 0.2
v -1.546967 -0.696967 0.6
v -1.5625 -0.685048 0.2
v -1.5625 -0.685048 0.6
v -1.580589 -0.677556 0.2
v -1.580589 -0.677556 0.6
v -1.6 -0.675 0.2
v -1.6 -0.675 0.6
v 1.6 0.55 -0.01
v 1.6 0.685 -0.01
v 1.6 0.685 0.2
v 1.6 -0.685 0.2
v 1.6 -0.55 -0.01
v 1.6 -0.685 -0.01
v -1.4 0.75 -0.01
v -1.535 0.75 -0.01
v 1.535 0.75 -0.01
v 1.4 0.75 -0.01
v 1.535 0.75 0.2
v -1.535 0.75 0.2
v -1.6 -0.55 -0.01
v -1.6 -0.685 -0.01
v -1.6 -0.685 0.2
v -1.6 0.685 0.2
v -1.6 0.55 -0.01
v -1.6 0.685 -0.01
v 1.4 -0.75 -0.01
v 1.535 -0.75 -0.01
v -1.535 -0.75 0.2
v -1.535 -0.75 -0.01
v -1.4 -0.75 -0.01
v 1.535 -0.75 0.2
v -1.565738 0.587829 0.6
v 1.47376 0.703165 0.6
v 1.505993 0.682911 0.6
v 1.437829 0.715738 0.6
v -1.553165 0.62376 0.6
v -1.532911 0.655993 0.6
v -1.505993 0.682911 0.6
v -1.47376 0.703165 0.6
v -1.437829 0.715738 0.6
v -1.4 0.72 0.6
v 1.4 0.72 0.6
v 1.532911 0.655993 0.6
v -1.565738 -0.587829 0.6
v -1.57 -0.55 0.6
v -1.57 0.55 0.6
v -1.4 -0.72 0.6
v -1.437829 -0.715738 0.6
v -1.47376 -0.703165 0.6
v -1.505993 -0.682911 0.6
v -1.532911 -0.655993 0.6
v -1.553165 -0.62376 0.6
v 1.553165 -0.62376 0.6
v 1.532911 -0.655993 0.6
v 1.565738 -0.587829 0.6
v 1.47376 -0.703165 0.6
v 1.437829 -0.715738 0.6
v 1.553165 0.62376 0.6
v 1.565738 0.587829 0.6
v 1.57 0.55 0.6
v 1.57 -0.55 0.6
v 1.505993 -0.682911 0.6
v 1.4 -0.72 0.6
v -1.4 -0.7 0.73
v -1.4 -0.7 0.62
v 1.4 -0.7 0.73
v 1.4 -0.7 0.62
v 1.55 -0.55 0.73
v 1.55 -0.55 0.62
v 1.55 0.55 0.73
v 1.55 0.55 0.62
v 1.4 0.7 0.73
v 1.4 0.7 0.62
v -1.4 0.7 0.73
v -1.4 0.7 0.62
v -1.55 0.55 0.73
v -1.55 0.55 0.62
v -1.55 -0.55 0.73
v -1.55 -0.55 0.62
v 1.45 -0.636603 0.75
v 1.481054 -0.651638 0.75
v 1.470711 -0.620711 0.75
v 1.501638 -0.631054 0.75
v 1.486603 -0.6 0.75
v 1.517126 -0.606405 0.75
v 1.496593 -0.575882 0.75
v 1.526741 -0.578928 0.75
v 1.5 -0.55 0.75
v 1.53 -0.55 0.75
v 1.5 0.55 0.75
v 1.53 0.55 0.75
v 1.496593 0.575882 0.75
v 1.526741 0.578928 0.75
v 1.486603 0.6 0.75
v 1.517126 0.606405 0.75
v 1.501638 0.631054 0.75
v 1.470711 0.620711 0.75
v 1.481054 0.651638 0.75
v 1.45 0.636603 0.75
v 1.456405 0.667126 0.75
v 1.425882 0.646593 0.75
v 1.428928 0.676741 0.75
v 1.4 0.65 0.75
v 1.4 0.68 0.75
v -1.4 0.65 0.75
v -1.4 0.68 0.75
v -1.425882 0.646593 0.75
v -1.428928 0.676741 0.75
v -1.45 0.636603 0.75
v -1.486603 -0.6 0.75
v -1.501638 -0.631054 0.75
v -1.470711 -0.620711 0.75
v -1.481054 -0.651638 0.75
v -1.45 -0.636603 0.75
v -1.456405 -0.667126 0.75
v -1.425882 -0.646593 0.75
v -1.428928 -0.676741 0.75
v -1.4 -0.65 0.75
v -1.4 -0.68 0.75
v 1.4 -0.65 0.75
v 1.4 -0.68 0.75
v 1.425882 -0.646593 0.75
v 1.428928 -0.676741 0.75
v 1.456405 -0.667126 0.75
v -1.456405 0.667126 0.75
v -1.481054 0.651638 0.75
v -1.470711 0.620711 0.75
v -1.501638 0.631054 0.75
v -1.486603 0.6 0.75
v -1.517126 0.606405 0.75
v -1.496593 0.575882 0.75
v -1.526741 0.578928 0.75
v -1.5 0.55 0.75
v -1.53 0.55 0.75
v -1.5 -0.55 0.75
v -1.53 -0.55 0.75
v -1.496593 -0.575882 0.75
v -1.526741 -0.578928 0.75
v -1.517126 -0.606405 0.75
v -1.433378 0.696239 0.73
v -1.433378 0.696239 0.62
v -1.43865 0.694395 0.73
v -1.43865 0.694395 0.62
v -1.465083 0.685145 0.73
v -1.465083 0.685145 0.62
v -1.474554 0.679194 0.73
v -1.474554 0.679194 0.62
v -1.493523 0.667275 0.73
v -1.493523 0.667275 0.62
v -1.505399 0.655399 0.73
v -1.505399 0.655399 0.62
v -1.517275 0.643523 0.73
v -1.517275 0.643523 0.62
v -1.529194 0.624554 0.73
v -1.529194 0.624554 0.62
v -1.535145 0.615083 0.73
v -1.535145 0.615083 0.62
v -1.544394 0.58865 0.73
v -1.544394 0.58865 0.62
v -1.546239 0.583378 0.73
v -1.546239 0.583378 0.62
v 1.546239 0.583378 0.73
v 1.546239 0.583378 0.62
v 1.544394 0.58865 0.73
v 1.544394 0.58865 0.62
v 1.535145 0.615083 0.73
v 1.535145 0.615083 0.62
v 1.529194 0.624554 0.73
v 1.529194 0.624554 0.62
v 1.517275 0.643523 0.73
v 1.517275 0.643523 0.62
v 1.505399 0.655399 0.73
v 1.505399 0.655399 0.62
v 1.493523 0.667275 0.73
v 1.493523 0.667275 0.62
v 1.474554 0.679194 0.73
v 1.474554 0.679194 0.62
v 1.465083 0.685145 0.73
v 1.465083 0.685145 0.62
v 1.43865 0.694395 0.73
v 1.43865 0.694395 0.62
v 1.433378 0.696239 0.73
v 1.433378 0.696239 0.62
v 1.433378 -0.696239 0.73
v 1.433378 -0.696239 0.62
v 1.43865 -0.694395 0.73
v 1.43865 -0.694395 0.62
v 1.465083 -0.685145 0.73
v 1.465083 -0.685145 0.62
v 1.474554 -0.679194 0.73
v 1.474554 -0.679194 0.62
v 1.493523 -0.667275 0.73
v 1.493523 -0.667275 0.62
v 1.505399 -0.655399 0.73
v 1.505399 -0.655399 0.62
v 1.517275 -0.643523 0.73
v 1.517275 -0.643523 0.62
v 1.529194 -0.624554 0.73
v 1.529194 -0.624554 0.62
v 1.535145 -0.615083 0.73
v 1.535145 -0.615083 0.62
v 1.544394 -0.58865 0.73
v 1.544394 -0.58865 0.62
v 1.546239 -0.583378 0.73
v 1.546239 -0.583378 0.62
v -1.546239 -0.583378 0.73
v -1.546239 -0.583378 0.62
v -1.544394 -0.58865 0.73
v -1.544394 -0.58865 0.62
v -1.535145 -0.615083 0.73
v -1.535145 -0.615083 0.62
v -1.529194 -0.624554 0.73
v -1.529194 -0.624554 0.62
v -1.517275 -0.643523 0.73
v -1.517275 -0.643523 0.62
v -1.505399 -0.655399 0.73
v -1.505399 -0.655399 0.62
v -1.493523 -0.667275 0.73
v -1.493523 -0.667275 0.62
v -1.474554 -0.679194 0.73
v -1.474554 -0.679194 0.62
v -1.465083 -0.685145 0.73
v -1.465083 -0.685145 0.62
v -1.43865 -0.694395 0.73
v -1.43865 -0.694395 0.62
v -1.433378 -0.696239 0.73
v -1.433378 -0.696239 0.62
v 1.5 0.55 0.88
newmtl 3
Ka 1.0 1.0 1.0
Kd 1.0 1.0 1.0
Ks 0.5019607843137255 0.5019607843137255 0.5019607843137255
d 0.0
endmtl
v 1.496593 0.575882 0.88
v 1.486603 0.6 0.88
v 1.470711 0.620711 0.88
v 1.45 0.636603 0.88
v 1.425882 0.646593 0.88
v 1.4 0.65 0.88
v -1.4 0.65 0.88
v -1.425882 0.646593 0.88
v -1.45 0.636603 0.88
v -1.470711 0.620711 0.88
v -1.486603 0.6 0.88
v -1.496593 0.575882 0.88
v -1.5 0.55 0.88
v -1.5 -0.55 0.88
v -1.496593 -0.575882 0.88
v -1.486603 -0.6 0.88
v -1.470711 -0.620711 0.88
v -1.45 -0.636603 0.88
v -1.425882 -0.646593 0.88
v -1.4 -0.65 0.88
v 1.4 -0.65 0.88
v 1.425882 -0.646593 0.88
v 1.45 -0.636603 0.88
v 1.470711 -0.620711 0.88
v 1.486603 -0.6 0.88
v 1.496593 -0.575882 0.88
v 1.5 -0.55 0.88
v 1.48 -0.55 0.9
v 1.48 0.55 0.9
v -1.48 0.55 0.9
v 1.469282 0.59 0.9
v 1.456569 0.606569 0.9
v 1.44 0.619282 0.9
v 1.4 0.63 0.9
v -1.4 0.63 0.9
v -1.477274 0.570706 0.9
v -1.44 0.619282 0.9
v -1.456569 0.606569 0.9
v -1.469282 0.59 0.9
v -1.469282 -0.59 0.9
v -1.456569 -0.606569 0.9
v -1.44 -0.619282 0.9
v -1.48 -0.55 0.9
v -1.4 -0.63 0.9
v 1.4 -0.63 0.9
v 1.477274 0.570706 0.9
v 1.420706 0.627274 0.9
v -1.477274 -0.570706 0.9
v -1.420706 -0.627274 0.9
v -1.420706 0.627274 0.9
v 1.456569 -0.606569 0.9
v 1.44 -0.619282 0.9
v 1.420706 -0.627274 0.9
v 1.469282 -0.59 0.9
v 1.477274 -0.570706 0.9
v -1.485176 0.55 0.899319
v -1.482274 0.572045 0.899319
v -1.49 0.55 0.897321
v -1.486933 0.573294 0.897321
v -1.494142 0.55 0.894142
v -1.490934 0.574366 0.894142
v -1.497321 0.55 0.89
v -1.494004 0.575188 0.89
v -1.499318 0.55 0.885176
v -1.495934 0.575706 0.885176
v -1.473765 0.592588 0.899319
v -1.477942 0.595 0.897321
v -1.481529 0.597071 0.894142
v -1.484282 0.59866 0.89
v -1.486012 0.599659 0.885176
v -1.460229 0.610229 0.899319
v -1.46364 0.61364 0.897321
v -1.466569 0.616569 0.894142
v -1.468816 0.618816 0.89
v -1.470229 0.620229 0.885176
v -1.442588 0.623765 0.899319
v -1.445 0.627942 0.897321
v -1.447071 0.63153 0.894142
v -1.44866 0.634282 0.89
v -1.449659 0.636012 0.885176
v -1.422045 0.632274 0.899319
v -1.423294 0.636933 0.897321
v -1.424366 0.640934 0.894142
v -1.425188 0.644004 0.89
v -1.425706 0.645934 0.885176
v -1.4 0.635176 0.899319
v -1.4 0.64 0.897321
v -1.4 0.644142 0.894142
v -1.4 0.647321 0.89
v -1.4 0.649319 0.885176
v -1.485176 -0.55 0.899319
v -1.49 -0.55 0.897321
v -1.494142 -0.55 0.894142
v -1.497321 -0.55 0.89
v -1.499318 -0.55 0.885176
v 1.4 0.635176 0.899319
v 1.4 0.64 0.897321
v 1.4 0.644142 0.894142
v 1.4 0.647321 0.89
v 1.4 0.649319 0.885176
v -1.4 -0.635176 0.899319
v -1.422045 -0.632274 0.899319
v -1.4 -0.64 0.897321
v -1.423294 -0.636933 0.897321
v -1.4 -0.644142 0.894142
v -1.424366 -0.640934 0.894142
v -1.4 -0.647321 0.89
v -1.425188 -0.644004 0.89
v -1.4 -0.649319 0.885176
v -1.425706 -0.645934 0.885176
v -1.442588 -0.623765 0.899319
v -1.445 -0.627942 0.897321
v -1.447071 -0.63153 0.894142
v -1.44866 -0.634282 0.89
v -1.449659 -0.636012 0.885176
v -1.460229 -0.610229 0.899319
v -1.46364 -0.61364 0.897321
v -1.466569 -0.616569 0.894142
v -1.468816 -0.618816 0.89
v -1.470229 -0.620229 0.885176
v -1.473765 -0.592588 0.899319
v -1.477942 -0.595 0.897321
v -1.481529 -0.597071 0.894142
v -1.484282 -0.59866 0.89
v -1.486012 -0.599659 0.885176
v -1.482274 -0.572045 0.899319
v -1.486933 -0.573294 0.897321
v -1.490934 -0.574366 0.894142
v -1.494004 -0.575188 0.89
v -1.495934 -0.575706 0.885176
v 1.422045 0.632274 0.899319
v 1.423294 0.636933 0.897321
v 1.424366 0.640934 0.894142
v 1.425188 0.644004 0.89
v 1.425706 0.645934 0.885176
v 1.442588 0.623765 0.899319
v 1.445 0.627942 0.897321
v 1.447071 0.63153 0.894142
v 1.44866 0.634282 0.89
v 1.449659 0.636012 0.885176
v 1.460229 0.610229 0.899319
v 1.46364 0.61364 0.897321
v 1.466569 0.616569 0.894142
v 1.468816 0.618816 0.89
v 1.470229 0.620229 0.885176
v 1.473765 0.592588 0.899319
v 1.477942 0.595 0.897321
v 1.481529 0.597071 0.894142
v 1.484282 0.59866 0.89
v 1.486012 0.599659 0.885176
v 1.482274 0.572045 0.899319
v 1.486933 0.573294 0.897321
v 1.490934 0.574366 0.894142
v 1.494004 0.575188 0.89
v 1.495934 0.575706 0.885176
v 1.485176 0.55 0.899319
v 1.49 0.55 0.897321
v 1.494142 0.55 0.894142
v 1.497321 0.55 0.89
v 1.499318 0.55 0.885176
v 1.4 -0.635176 0.899319
v 1.4 -0.64 0.897321
v 1.4 -0.644142 0.894142
v 1.4 -0.647321 0.89
v 1.4 -0.649319 0.885176
v 1.485176 -0.55 0.899319
v 1.49 -0.55 0.897321
v 1.494142 -0.55 0.894142
v 1.497321 -0.55 0.89
v 1.499318 -0.55 0.885176
v 1.482274 -0.572045 0.899319
v 1.486933 -0.573294 0.897321
v 1.490934 -0.574366 0.894142
v 1.494004 -0.575188 0.89
v 1.495934 -0.575706 0.885176
v 1.473765 -0.592588 0.899319
v 1.477942 -0.595 0.897321
v 1.481529 -0.597071 0.894142
v 1.484282 -0.59866 0.89
v 1.486012 -0.599659 0.885176
v 1.460229 -0.610229 0.899319
v 1.46364 -0.61364 0.897321
v 1.466569 -0.616569 0.894142
v 1.468816 -0.618816 0.89
v 1.470229 -0.620229 0.885176
v 1.442588 -0.623765 0.899319
v 1.445 -0.627942 0.897321
v 1.447071 -0.63153 0.894142
v 1.44866 -0.634282 0.89
v 1.449659 -0.636012 0.885176
v 1.422045 -0.632274 0.899319
v 1.423294 -0.636933 0.897321
v 1.424366 -0.640934 0.894142
v 1.425188 -0.644004 0.89
v 1.425706 -0.645934 0.885176
v 1.534531 0.614787 0.735176
v 1.516742 0.643099 0.735176
v 1.43008 0.681787 0.749319
v 1.458651 0.67179 0.749319
v 1.431153 0.68649 0.747321
v 1.460744 0.676136 0.747321
v 1.432075 0.690528 0.744142
v 1.462541 0.679868 0.744142
v 1.432782 0.693627 0.74
v 1.46392 0.682731 0.74
v 1.433226 0.695575 0.735176
v 1.464787 0.684531 0.735176
v 1.4 0.685176 0.749319
v 1.4 0.69 0.747321
v 1.4 0.694142 0.744142
v 1.4 0.697321 0.74
v 1.4 0.699319 0.735176
v 1.493099 0.666742 0.735176
v 1.491853 0.66518 0.74
v 1.489871 0.662695 0.744142
v 1.487289 0.659456 0.747321
v 1.484281 0.655685 0.749319
v 1.505685 0.634281 0.749319
v 1.509456 0.637289 0.747321
v 1.512695 0.639871 0.744142
v 1.51518 0.641853 0.74
v 1.532731 0.61392 0.74
v 1.529868 0.612541 0.744142
v 1.526136 0.610744 0.747321
v 1.52179 0.608651 0.749319
v 1.545575 0.583227 0.735176
v 1.543627 0.582782 0.74
v 1.540528 0.582075 0.744142
v 1.53649 0.581153 0.747321
v 1.531787 0.58008 0.749319
v 1.535176 0.55 0.749319
v 1.54 0.55 0.747321
v 1.544142 0.55 0.744142
v 1.54732 0.55 0.74
v 1.549319 0.55 0.735176
v -1.4 0.68445 0.749499
v -1.4 0.685153 0.749253
v -1.4 0.688678 0.748019
v -1.4 0.689941 0.747226
v -1.4 0.69247 0.745637
v -1.4 0.694053 0.744053
v -1.4 0.695637 0.74247
v -1.4 0.697226 0.739941
v -1.4 0.698019 0.738678
v -1.4 0.699253 0.735153
v -1.4 0.699499 0.73445
v 1.53445 -0.55 0.749499
v 1.535153 -0.55 0.749253
v 1.538678 -0.55 0.748019
v 1.53994 -0.55 0.747226
v 1.54247 -0.55 0.745637
v 1.544053 -0.55 0.744053
v 1.545637 -0.55 0.74247
v 1.547226 -0.55 0.739941
v 1.548019 -0.55 0.738678
v 1.549253 -0.55 0.735153
v 1.549499 -0.55 0.73445
v -1.464865 0.684694 0.73445
v -1.493211 0.666883 0.73445
v -1.429918 0.681079 0.749499
v -1.53445 0.55 0.749499
v -1.531079 0.579918 0.749499
v -1.535153 0.55 0.749253
v -1.535201 0.580859 0.748019
v -1.430859 0.685201 0.748019
v -1.538898 0.581703 0.745637
v -1.53994 0.55 0.747226
v -1.538678 0.55 0.748019
v -1.431702 0.688898 0.745637
v -1.541985 0.582407 0.74247
v -1.544053 0.55 0.744053
v -1.54247 0.55 0.745637
v -1.432407 0.691985 0.74247
v -1.544308 0.582937 0.738678
v -1.547226 0.55 0.739941
v -1.545637 0.55 0.74247
v -1.432938 0.694308 0.738678
v -1.54575 0.583267 0.73445
v -1.549253 0.55 0.735153
v -1.548019 0.55 0.738678
v -1.521136 0.608336 0.749499
v -1.524944 0.61017 0.748019
v -1.528361 0.611815 0.745637
v -1.531214 0.613189 0.74247
v -1.533361 0.614223 0.738678
v -1.534693 0.614865 0.73445
v -1.549499 0.55 0.73445
v -1.516883 0.643211 0.73445
v -1.515726 0.642289 0.738678
v -1.513863 0.640803 0.74247
v -1.511387 0.638828 0.745637
v -1.508422 0.636464 0.748019
v -1.505118 0.633828 0.749499
v -1.492289 0.665726 0.738678
v -1.490803 0.663863 0.74247
v -1.488828 0.661387 0.745637
v -1.486464 0.658423 0.748019
v -1.483828 0.655118 0.749499
v -1.464223 0.683361 0.738678
v -1.463189 0.681214 0.74247
v -1.461815 0.678361 0.745637
v -1.46017 0.674944 0.748019
v -1.458336 0.671136 0.749499
v -1.433267 0.69575 0.73445
v 1.464865 -0.684694 0.73445
v 1.493211 -0.666883 0.73445
v 1.429918 -0.681079 0.749499
v 1.531079 -0.579918 0.749499
v 1.535201 -0.580859 0.748019
v 1.4 -0.68445 0.749499
v 1.4 -0.685153 0.749253
v 1.430859 -0.685201 0.748019
v 1.538898 -0.581703 0.745637
v 1.4 -0.688678 0.748019
v 1.4 -0.689941 0.747226
v 1.431702 -0.688898 0.745637
v 1.541985 -0.582407 0.74247
v 1.4 -0.69247 0.745637
v 1.4 -0.694053 0.744053
v 1.432407 -0.691985 0.74247
v 1.544308 -0.582937 0.738678
v 1.4 -0.695637 0.74247
v 1.4 -0.697226 0.739941
v 1.432938 -0.694308 0.738678
v 1.54575 -0.583267 0.73445
v 1.521136 -0.608336 0.749499
v 1.524944 -0.61017 0.748019
v 1.528361 -0.611815 0.745637
v 1.531214 -0.613189 0.74247
v 1.533361 -0.614223 0.738678
v 1.534693 -0.614865 0.73445
v 1.516883 -0.643211 0.73445
v 1.515726 -0.642289 0.738678
v 1.513863 -0.640803 0.74247
v 1.511387 -0.638828 0.745637
v 1.508422 -0.636464 0.748019
v 1.505118 -0.633828 0.749499
v 1.483828 -0.655118 0.749499
v 1.486464 -0.658423 0.748019
v 1.488828 -0.661387 0.745637
v 1.490803 -0.663863 0.74247
v 1.492289 -0.665726 0.738678
v 1.464223 -0.683361 0.738678
v 1.463189 -0.681214 0.74247
v 1.461815 -0.678361 0.745637
v 1.46017 -0.674944 0.748019
v 1.458336 -0.671136 0.749499
v 1.433267 -0.69575 0.73445
v 1.4 -0.698019 0.738678
v 1.4 -0.699253 0.735153
v 1.4 -0.699499 0.73445
v -1.535176 -0.55 0.749319
v -1.54 -0.55 0.747321
v -1.544142 -0.55 0.744142
v -1.54732 -0.55 0.74
v -1.549319 -0.55 0.735176
v -1.4 -0.685176 0.749319
v -1.4 -0.69 0.747321
v -1.4 -0.694142 0.744142
v -1.4 -0.697321 0.74
v -1.4 -0.699319 0.735176
v -1.534531 -0.614787 0.735176
v -1.516742 -0.643099 0.735176
v -1.43008 -0.681787 0.749319
v -1.458651 -0.67179 0.749319
v -1.431153 -0.68649 0.747321
v -1.460744 -0.676136 0.747321
v -1.432075 -0.690528 0.744142
v -1.462541 -0.679868 0.744142
v -1.432782 -0.693627 0.74
v -1.46392 -0.682731 0.74
v -1.433226 -0.695575 0.735176
v -1.464787 -0.684531 0.735176
v -1.493099 -0.666742 0.735176
v -1.491853 -0.66518 0.74
v -1.489871 -0.662695 0.744142
v -1.487289 -0.659456 0.747321
v -1.484281 -0.655685 0.749319
v -1.505685 -0.634281 0.749319
v -1.509456 -0.637289 0.747321
v -1.512695 -0.639871 0.744142
v -1.51518 -0.641853 0.74
v -1.532731 -0.61392 0.74
v -1.529868 -0.612541 0.744142
v -1.526136 -0.610744 0.747321
v -1.52179 -0.608651 0.749319
v -1.545575 -0.583227 0.735176
v -1.543627 -0.582782 0.74
v -1.540528 -0.582075 0.744142
v -1.53649 -0.581153 0.747321
v -1.531787 -0.58008 0.749319
v 1.43353 0.696904 0.614824
v 1.4 0.700681 0.614824
v 1.465378 0.685759 0.614824
v 1.493948 0.667808 0.614824
v 1.517807 0.643948 0.614824
v 1.535759 0.615378 0.614824
v 1.546904 0.58353 0.614824
v 1.550682 0.55 0.614824
v 1.552679 0.55 0.61
v 1.548851 0.583974 0.61
v 1.537559 0.616245 0.61
v 1.51937 0.645194 0.61
v 1.495194 0.66937 0.61
v 1.466245 0.687559 0.61
v 1.433974 0.698851 0.61
v 1.4 0.70268 0.61
v 1.555858 0.55 0.605858
v 1.55195 0.584682 0.605858
v 1.540423 0.617624 0.605858
v 1.521855 0.647176 0.605858
v 1.497176 0.671855 0.605858
v 1.467624 0.690423 0.605858
v 1.434682 0.70195 0.605858
v 1.4 0.705858 0.605858
v 1.56 0.55 0.602679
v 1.555988 0.585603 0.602679
v 1.544155 0.619421 0.602679
v 1.525093 0.649758 0.602679
v 1.499758 0.675093 0.602679
v 1.469421 0.694155 0.602679
v 1.435603 0.705988 0.602679
v 1.4 0.71 0.602679
v 1.564824 0.55 0.600681
v 1.560691 0.586677 0.600681
v 1.548501 0.621514 0.600681
v 1.528864 0.652766 0.600681
v 1.502766 0.678864 0.600681
v 1.471514 0.698501 0.600681
v 1.436677 0.710691 0.600681
v 1.4 0.714824 0.600681
v 1.564824 -0.55 0.600681
v 1.56 -0.55 0.602679
v 1.555858 -0.55 0.605858
v 1.552679 -0.55 0.61
v 1.550682 -0.55 0.614824
v -1.4 0.714824 0.600681
v -1.4 0.71 0.602679
v -1.4 0.705858 0.605858
v -1.4 0.70268 0.61
v -1.4 0.700681 0.614824
v 1.546904 -0.58353 0.614824
v 1.535759 -0.615378 0.614824
v 1.517807 -0.643948 0.614824
v 1.493948 -0.667808 0.614824
v 1.465378 -0.685759 0.614824
v 1.43353 -0.696904 0.614824
v 1.4 -0.700681 0.614824
v 1.4 -0.70268 0.61
v 1.433974 -0.698851 0.61
v 1.466245 -0.687559 0.61
v 1.495194 -0.66937 0.61
v 1.51937 -0.645194 0.61
v 1.537559 -0.616245 0.61
v 1.548851 -0.583974 0.61
v 1.4 -0.705858 0.605858
v 1.434682 -0.70195 0.605858
v 1.467624 -0.690423 0.605858
v 1.497176 -0.671855 0.605858
v 1.521855 -0.647176 0.605858
v 1.540423 -0.617624 0.605858
v 1.55195 -0.584682 0.605858
v 1.4 -0.71 0.602679
v 1.435603 -0.705988 0.602679
v 1.469421 -0.694155 0.602679
v 1.499758 -0.675093 0.602679
v 1.525093 -0.649758 0.602679
v 1.544155 -0.619421 0.602679
v 1.555988 -0.585603 0.602679
v 1.4 -0.714824 0.600681
v 1.436677 -0.710691 0.600681
v 1.471514 -0.698501 0.600681
v 1.502766 -0.678864 0.600681
v 1.528864 -0.652766 0.600681
v 1.548501 -0.621514 0.600681
v 1.560691 -0.586677 0.600681
v -1.546904 0.58353 0.614824
v -1.550682 0.55 0.614824
v -1.535759 0.615378 0.614824
v -1.517807 0.643948 0.614824
v -1.493948 0.667808 0.614824
v -1.465378 0.685759 0.614824
v -1.43353 0.696904 0.614824
v -1.433974 0.698851 0.61
v -1.466245 0.687559 0.61
v -1.495194 0.66937 0.61
v -1.51937 0.645194 0.61
v -1.537559 0.616245 0.61
v -1.548851 0.583974 0.61
v -1.552679 0.55 0.61
v -1.434682 0.70195 0.605858
v -1.467624 0.690423 0.605858
v -1.497176 0.671855 0.605858
v -1.521855 0.647176 0.605858
v -1.540423 0.617624 0.605858
v -1.55195 0.584682 0.605858
v -1.555858 0.55 0.605858
v -1.435603 0.705988 0.602679
v -1.469421 0.694155 0.602679
v -1.499758 0.675093 0.602679
v -1.525093 0.649758 0.602679
v -1.544155 0.619421 0.602679
v -1.555988 0.585603 0.602679
v -1.56 0.55 0.602679
v -1.436677 0.710691 0.600681
v -1.471514 0.698501 0.600681
v -1.502766 0.678864 0.600681
v -1.528864 0.652766 0.600681
v -1.548501 0.621514 0.600681
v -1.560691 0.586677 0.600681
v -1.564824 0.55 0.600681
v -1.4 -0.714824 0.600681
v -1.4 -0.71 0.602679
v -1.4 -0.705858 0.605858
v -1.4 -0.70268 0.61
v -1.4 -0.700681 0.614824
v -1.564824 -0.55 0.600681
v -1.56 -0.55 0.602679
v -1.555858 -0.55 0.605858
v -1.552679 -0.55 0.61
v -1.550682 -0.55 0.614824
v -1.43353 -0.696904 0.614824
v -1.465378 -0.685759 0.614824
v -1.493948 -0.667808 0.614824
v -1.517807 -0.643948 0.614824
v -1.535759 -0.615378 0.614824
v -1.546904 -0.58353 0.614824
v -1.548851 -0.583974 0.61
v -1.537559 -0.616245 0.61
v -1.51937 -0.645194 0.61
v -1.495194 -0.66937 0.61
v -1.466245 -0.687559 0.61
v -1.433974 -0.698851 0.61
v -1.55195 -0.584682 0.605858
v -1.540423 -0.617624 0.605858
v -1.521855 -0.647176 0.605858
v -1.497176 -0.671855 0.605858
v -1.467624 -0.690423 0.605858
v -1.434682 -0.70195 0.605858
v -1.555988 -0.585603 0.602679
v -1.544155 -0.619421 0.602679
v -1.525093 -0.649758 0.602679
v -1.499758 -0.675093 0.602679
v -1.469421 -0.694155 0.602679
v -1.435603 -0.705988 0.602679
v -1.560691 -0.586677 0.600681
v -1.548501 -0.621514 0.600681
v -1.528864 -0.652766 0.600681
v -1.502766 -0.678864 0.600681
v -1.471514 -0.698501 0.600681
v -1.436677 -0.710691 0.600681
v -0.9 -0.45 -0.01
v -1.1 -0.65 -0.01
v -1.426795 -0.65 -0.01
v -1.537215 0.733177 -0.01
v -1.583177 0.687215 -0.01
v -1.5675 0.693708 -0.01
v -1.583177 -0.687215 -0.01
v -1.548236 -0.556815 -0.01
v -1.554038 0.704038 -0.01
v -1.543708 0.7175 -0.01
v -1.412061 0.681596 -0.01
v -1.403039 0.71527 -0.01
v -1.406815 -0.698236 -0.01
v -1.537215 -0.733177 -0.01
v -1.543708 -0.7175 -0.01
v -1.554038 -0.704038 -0.01
v -1.5675 -0.693708 -0.01
v -1.548236 0.556815 -0.01
v 0.9 0.65 -0.01
v 1.426795 0.65 -0.01
v 1.583177 0.687215 -0.01
v 1.548236 0.556815 -0.01
v 1.548236 -0.556815 -0.01
v 1.583177 -0.687215 -0.01
v 1.406815 0.698236 -0.01
v 1.537215 0.733177 -0.01
v 1.543708 0.7175 -0.01
v 1.554038 0.704038 -0.01
v 1.5675 0.693708 -0.01
v 1.537215 -0.733177 -0.01
v 1.406815 -0.698236 -0.01
v 1.543708 -0.7175 -0.01
v 1.554038 -0.704038 -0.01
v 1.5675 -0.693708 -0.01
v -1.537215 -0.733177 0.2
v -1.543708 -0.7175 0.2
v -1.554038 -0.704038 0.2
v -1.5675 -0.693708 0.2
v -1.583177 -0.687215 0.2
v -1.583177 0.687215 0.2
v -1.5675 0.693708 0.2
v -1.554038 0.704038 0.2
v -1.543708 0.7175 0.2
v -1.537215 0.733177 0.2
v 1.537215 0.733177 0.2
v 1.543708 0.7175 0.2
v 1.554038 0.704038 0.2
v 1.583177 0.687215 0.2
v 1.5675 0.693708 0.2
v 1.583177 -0.687215 0.2
v 1.5675 -0.693708 0.2
v 1.554038 -0.704038 0.2
v 1.537215 -0.733177 0.2
v 1.543708 -0.7175 0.2
v -0.206466 0.046086 0.001
v -0.24549 -0.053914 0.001
newmtl 4
Ka 0.0 0.0 0.0
Kd 0.0 0.0 0.0
Ks 0.0 0.0 0.0
d 0.0
endmtl
v -0.230856 -0.053914 0.001
v -0.220738 -0.025866 0.001
v -0.179427 -0.025866 0.001
v -0.169881 -0.053914 0.001
v -0.155246 -0.053914 0.001
v -0.193051 0.046086 0.001
v -0.1828 -0.01489 0.001
v -0.216241 -0.01489 0.001
v -0.19772 0.026878 0.001
v -0.198682 0.030347 0.001
v -0.19932 0.033891 0.001
v -0.199644 0.033891 0.001
v -0.200297 0.030357 0.001
v -0.201188 0.026878 0.001
v -0.1828 -0.01489 0.0
v -0.216241 -0.01489 0.0
v -0.19772 0.026878 0.0
v -0.198682 0.030347 -0.0
v -0.19932 0.033891 0.0
v -0.199644 0.033891 0.0
v -0.200297 0.030357 0.0
v -0.201188 0.026878 0.0
v -0.094633 -0.053914 0.001
v -0.067442 -0.053914 0.001
v -0.067442 0.046086 0.001
v -0.095662 0.046086 0.001
v -0.147929 -0.002657 0.001
v -0.147203 0.006753 0.001
v -0.144517 0.016605 0.001
v -0.139869 0.025206 0.001
v -0.132798 0.033047 0.001
v -0.132693 0.033139 0.001
v -0.121809 0.040433 0.001
v -0.110109 0.044541 0.001
v -0.107006 -0.052834 0.001
v -0.118529 -0.0494 0.001
v -0.12897 -0.043332 0.001
v -0.137201 -0.035451 0.001
v -0.142936 -0.026507 0.001
v -0.146526 -0.01604 0.001
v -0.127857 0.021087 0.001
v -0.122999 0.026244 0.001
v -0.115695 0.030963 0.001
v -0.107441 0.033852 0.001
v -0.095605 0.03511 0.001
v -0.080856 0.03511 0.001
v -0.080856 -0.042939 0.001
v -0.095052 -0.042939 0.001
v -0.105602 -0.041957 0.001
v -0.114017 -0.03933 0.001
v -0.120837 -0.03528 0.001
v -0.126446 -0.02974 0.001
v -0.130664 -0.022846 0.001
v -0.133597 -0.013446 0.001
v -0.134515 -0.002943 0.001
v -0.133665 0.00701 0.001
v -0.131331 0.014919 0.001
v -0.095605 0.03511 0.0
v -0.080856 0.03511 0.0
v -0.107441 0.033852 0.0
v -0.115695 0.030963 0.0
v -0.122999 0.026244 0.0
v -0.127857 0.021087 0.0
v -0.131331 0.014919 0.0
v -0.133665 0.00701 0.0
v -0.134515 -0.002943 0.0
v -0.133597 -0.013446 0.0
v -0.130664 -0.022846 0.0
v -0.126446 -0.02974 0.0
v -0.120837 -0.03528 0.0
v -0.114017 -0.03933 0.0
v -0.105602 -0.041957 0.0
v -0.095052 -0.042939 0.0
v -0.080856 -0.042939 0.0
v -0.047929 -0.042939 0.001
v -0.047929 -0.053914 0.001
v 0.005729 -0.053914 0.001
v 0.005729 0.046086 0.001
v -0.04549 0.046086 0.001
v -0.04549 0.03511 0.001
v -0.007685 0.03511 0.001
v -0.007685 0.002183 0.001
v -0.043051 0.002183 0.001
v -0.043051 -0.008792 0.001
v -0.007685 -0.008792 0.001
v -0.007685 -0.042939 0.001
v 0.025241 -0.037756 0.001
v 0.025241 -0.048731 0.001
v 0.035901 -0.053108 0.001
v 0.052757 -0.055134 0.001
v 0.050022 -0.055087 0.001
v 0.06508 -0.053856 0.001
v 0.074773 -0.05052 0.001
v 0.082816 -0.045383 0.001
v 0.090328 -0.037476 0.001
v 0.095655 -0.027967 0.001
v 0.098665 -0.017382 0.001
v 0.099632 -0.005801 0.001
v 0.048774 0.047305 0.001
v 0.058818 0.046485 0.001
v 0.069966 0.043247 0.001
v 0.079465 0.037779 0.001
v 0.088493 0.029096 0.001
v 0.094354 0.019747 0.001
v 0.098193 0.008416 0.001
v 0.025241 0.043342 0.001
v 0.036803 0.046479 0.001
v 0.025241 0.029927 0.001
v 0.04866 0.03633 0.001
v 0.036505 0.03475 0.001
v 0.086217 -0.004981 0.001
v 0.08574 0.002799 0.001
v 0.083074 0.013504 0.001
v 0.078952 0.021225 0.001
v 0.072913 0.027892 0.001
v 0.065992 0.032523 0.001
v 0.058507 0.035224 0.001
v 0.050908 -0.044158 0.001
v 0.060236 -0.043112 0.001
v 0.067522 -0.04043 0.001
v 0.073659 -0.036293 0.001
v 0.078352 -0.031342 0.001
v 0.082488 -0.024408 0.001
v 0.085204 -0.015807 0.001
v 0.027034 -0.038749 0.001
v 0.037634 -0.042685 0.001
v 0.108168 -0.042939 0.001
v 0.108168 -0.053914 0.001
v 0.159388 -0.053914 0.001
v 0.159388 0.046086 0.001
v 0.145973 0.046086 0.001
v 0.145973 -0.042939 0.001
usemtl 1
f 1// 2// 3//
f 4// 5// 6//
f 6// 5// 7//
f 6// 7// 3//
f 3// 2// 6//
f 6// 2// 8//
f 6// 8// 9//
f 10// 11// 12//
f 12// 11// 13//
f 12// 13// 14//
f 15// 16// 17//
f 18// 14// 19//
f 19// 14// 20//
f 3// 12// 1//
f 1// 12// 14//
f 1// 14// 21//
f 21// 14// 18//
f 10// 22// 23//
f 23// 22// 24//
f 23// 24// 25//
f 26// 27// 28//
f 28// 27// 11//
f 28// 11// 29//
f 30// 31// 32//
f 32// 31// 33//
f 32// 33// 34//
f 17// 29// 15//
f 15// 29// 11//
f 15// 11// 35//
f 35// 11// 10//
f 35// 10// 20//
f 36// 37// 38//
f 38// 37// 39//
f 38// 39// 40//
f 41// 42// 38//
f 38// 42// 43//
f 44// 45// 46//
f 46// 45// 47//
f 43// 48// 38//
f 38// 48// 47//
f 38// 47// 49//
f 49// 47// 45//
f 50// 51// 52//
f 40// 53// 38//
f 38// 53// 54//
f 38// 54// 41//
f 51// 55// 52//
f 52// 55// 10//
f 52// 10// 56//
f 56// 10// 23//
f 56// 23// 30//
f 30// 23// 9//
f 30// 9// 31//
f 31// 9// 8//
f 34// 57// 32//
f 32// 57// 58//
f 32// 58// 59//
f 59// 58// 60//
f 59// 60// 61//
f 60// 62// 61//
f 61// 62// 63//
f 61// 63// 52//
f 52// 63// 64//
f 52// 64// 50//
f 55// 65// 10//
f 10// 65// 66//
f 10// 66// 67//
f 67// 68// 10//
f 10// 68// 69//
f 10// 69// 20//
f 20// 69// 70//
f 20// 70// 19//
f 19// 70// 71//
f 19// 71// 38//
f 38// 71// 72//
f 38// 72// 36//
f 73// 74// 12//
f 75// 76// 77//
f 78// 79// 80//
f 80// 81// 78//
f 78// 81// 82//
f 78// 82// 10//
f 77// 83// 75//
f 75// 83// 84//
f 75// 84// 85//
f 10// 86// 78//
f 78// 86// 87//
f 78// 87// 88//
f 89// 90// 12//
f 12// 90// 91//
f 12// 91// 10//
f 10// 91// 92//
f 93// 94// 86//
f 86// 94// 95//
f 85// 89// 75//
f 75// 89// 12//
f 75// 12// 96//
f 96// 12// 74//
f 96// 74// 97//
f 97// 74// 98//
f 92// 99// 10//
f 10// 99// 100//
f 10// 100// 86//
f 86// 100// 101//
f 86// 101// 93//
f 95// 102// 86//
f 86// 102// 103//
f 86// 103// 75//
f 75// 103// 104//
f 75// 104// 76//
f 105// 106// 107//
f 87// 73// 88//
f 88// 73// 12//
f 88// 12// 108//
f 108// 12// 3//
f 108// 3// 107//
f 107// 3// 109//
f 107// 109// 105//
f 110// 111// 112//
f 113// 114// 112//
f 112// 114// 115//
f 112// 115// 110//
f 116// 117// 118//
f 118// 117// 119//
f 118// 119// 120//
f 120// 119// 121//
f 120// 121// 122//
f 122// 121// 123//
f 122// 123// 124//
f 124// 123// 125//
f 124// 125// 126//
f 126// 125// 127//
f 126// 127// 128//
f 128// 127// 129//
f 128// 129// 130//
f 130// 129// 131//
usemtl 2
f 132// 111// 133//
f 133// 111// 110//
f 6// 134// 4//
f 4// 134// 135//
usemtl 1
f 136// 137// 138//
f 138// 137// 139//
f 138// 139// 140//
f 140// 139// 141//
f 140// 141// 142//
f 142// 141// 143//
f 142// 143// 144//
f 144// 143// 145//
f 144// 145// 146//
f 146// 145// 147//
f 146// 147// 148//
f 148// 147// 149//
f 148// 149// 150//
f 150// 149// 151//
f 152// 153// 154//
f 154// 153// 155//
f 154// 155// 156//
f 156// 155// 157//
f 158// 159// 160//
f 160// 159// 161//
f 160// 161// 162//
f 162// 161// 163//
f 162// 163// 164//
f 164// 163// 165//
f 164// 165// 166//
f 166// 165// 167//
f 166// 167// 168//
f 168// 167// 169//
f 168// 169// 170//
f 170// 169// 171//
usemtl 2
f 172// 156// 173//
f 173// 156// 157//
f 78// 174// 79//
f 79// 174// 175//
usemtl 1
f 176// 177// 178//
f 178// 177// 179//
f 178// 179// 180//
f 180// 179// 181//
f 180// 181// 182//
f 182// 181// 183//
f 182// 183// 184//
f 184// 183// 185//
f 184// 185// 186//
f 186// 185// 187//
f 186// 187// 188//
f 188// 187// 189//
f 190// 191// 113//
f 113// 191// 192//
f 151// 117// 150//
f 150// 117// 116//
f 192// 150// 113//
f 113// 150// 116//
f 113// 116// 114//
f 114// 116// 193//
f 114// 193// 194//
f 194// 193// 195//
f 82// 196// 197//
f 198// 199// 200//
f 200// 199// 22//
f 197// 201// 82//
f 82// 201// 170//
f 82// 170// 10//
f 170// 171// 10//
f 10// 171// 137//
f 10// 137// 22//
f 22// 137// 136//
f 22// 136// 200//
f 202// 203// 152//
f 152// 203// 204//
f 188// 189// 158//
f 158// 189// 159//
f 204// 188// 152//
f 152// 188// 158//
f 152// 158// 153//
f 153// 158// 205//
f 153// 205// 206//
f 206// 205// 207//
f 7// 208// 209//
f 176// 109// 177//
f 177// 109// 3//
f 176// 210// 109//
f 109// 210// 211//
f 109// 211// 212//
f 209// 213// 7//
f 7// 213// 130//
f 7// 130// 3//
f 3// 130// 131//
f 3// 131// 177//
f 214// 161// 159//
f 141// 215// 216//
f 215// 141// 217//
f 217// 141// 139//
f 217// 139// 137//
f 218// 219// 167//
f 167// 219// 220//
f 167// 220// 169//
f 161// 214// 163//
f 220// 221// 169//
f 169// 221// 222//
f 169// 222// 171//
f 171// 222// 223//
f 171// 223// 137//
f 137// 223// 224//
f 137// 224// 217//
f 218// 167// 214//
f 214// 167// 165//
f 214// 165// 163//
f 149// 147// 225//
f 225// 147// 145//
f 225// 145// 216//
f 216// 145// 143//
f 216// 143// 141//
f 187// 226// 189//
f 189// 226// 227//
f 189// 227// 159//
f 159// 227// 228//
f 159// 228// 214//
f 179// 229// 181//
f 181// 229// 230//
f 181// 230// 183//
f 230// 231// 183//
f 183// 231// 232//
f 183// 232// 185//
f 185// 232// 233//
f 185// 233// 187//
f 187// 233// 234//
f 187// 234// 226//
f 121// 235// 236//
f 235// 121// 237//
f 237// 121// 119//
f 237// 119// 117//
f 131// 238// 239//
f 225// 240// 149//
f 149// 240// 241//
f 149// 241// 151//
f 151// 241// 242//
f 151// 242// 117//
f 117// 242// 243//
f 117// 243// 237//
f 131// 129// 238//
f 238// 129// 127//
f 238// 127// 244//
f 244// 127// 125//
f 244// 125// 236//
f 236// 125// 123//
f 236// 123// 121//
f 239// 245// 131//
f 131// 245// 229//
f 131// 229// 177//
f 177// 229// 179//
usemtl 2
f 246// 247// 248//
f 248// 247// 249//
f 250// 251// 252//
f 252// 251// 253//
f 254// 255// 256//
f 256// 255// 257//
f 258// 259// 260//
f 260// 259// 261//
f 262// 263// 264//
f 264// 263// 265//
f 264// 265// 266//
f 266// 265// 267//
f 266// 267// 268//
f 268// 267// 269//
f 268// 269// 270//
f 270// 269// 271//
f 270// 271// 272//
f 272// 271// 273//
f 272// 273// 274//
f 274// 273// 275//
f 274// 275// 276//
f 275// 277// 276//
f 276// 277// 278//
f 276// 278// 279//
f 279// 278// 280//
f 279// 280// 281//
f 281// 280// 282//
f 281// 282// 283//
f 283// 282// 284//
f 283// 284// 285//
f 285// 284// 286//
f 285// 286// 287//
f 287// 286// 288//
f 287// 288// 289//
f 289// 288// 290//
f 289// 290// 291//
f 292// 293// 294//
f 294// 293// 295//
f 294// 295// 296//
f 296// 295// 297//
f 296// 297// 298//
f 298// 297// 299//
f 298// 299// 300//
f 300// 299// 301//
f 300// 301// 302//
f 302// 301// 303//
f 302// 303// 304//
f 304// 303// 305//
f 304// 305// 262//
f 262// 305// 306//
f 262// 306// 263//
f 290// 307// 291//
f 291// 307// 308//
f 291// 308// 309//
f 309// 308// 310//
f 309// 310// 311//
f 311// 310// 312//
f 311// 312// 313//
f 313// 312// 314//
f 313// 314// 315//
f 315// 314// 316//
f 315// 316// 317//
f 317// 316// 318//
f 317// 318// 319//
f 319// 318// 320//
f 319// 320// 292//
f 292// 320// 321//
f 292// 321// 293//
f 256// 257// 322//
f 322// 257// 323//
f 322// 323// 324//
f 324// 323// 325//
f 324// 325// 326//
f 326// 325// 327//
f 326// 327// 328//
f 328// 327// 329//
f 328// 329// 330//
f 330// 329// 331//
f 330// 331// 332//
f 332// 331// 333//
f 332// 333// 334//
f 334// 333// 335//
f 334// 335// 336//
f 336// 335// 337//
f 336// 337// 338//
f 338// 337// 339//
f 338// 339// 340//
f 340// 339// 341//
f 340// 341// 342//
f 342// 341// 343//
f 342// 343// 258//
f 258// 343// 259//
f 252// 253// 344//
f 344// 253// 345//
f 344// 345// 346//
f 346// 345// 347//
f 346// 347// 348//
f 348// 347// 349//
f 348// 349// 350//
f 350// 349// 351//
f 350// 351// 352//
f 352// 351// 353//
f 352// 353// 354//
f 354// 353// 355//
f 354// 355// 356//
f 356// 355// 357//
f 356// 357// 358//
f 358// 357// 359//
f 358// 359// 360//
f 360// 359// 361//
f 360// 361// 362//
f 362// 361// 363//
f 362// 363// 364//
f 364// 363// 365//
f 364// 365// 254//
f 254// 365// 255//
f 248// 249// 366//
f 366// 249// 367//
f 366// 367// 368//
f 368// 367// 369//
f 368// 369// 370//
f 370// 369// 371//
f 370// 371// 372//
f 372// 371// 373//
f 372// 373// 374//
f 374// 373// 375//
f 374// 375// 376//
f 376// 375// 377//
f 376// 377// 378//
f 378// 377// 379//
f 378// 379// 380//
f 380// 379// 381//
f 380// 381// 382//
f 382// 381// 383//
f 382// 383// 384//
f 384// 383// 385//
f 384// 385// 386//
f 386// 385// 387//
f 386// 387// 250//
f 250// 387// 251//
f 260// 261// 388//
f 388// 261// 389//
f 388// 389// 390//
f 390// 389// 391//
f 390// 391// 392//
f 392// 391// 393//
f 392// 393// 394//
f 394// 393// 395//
f 394// 395// 396//
f 396// 395// 397//
f 396// 397// 398//
f 398// 397// 399//
f 398// 399// 400//
f 400// 399// 401//
f 400// 401// 402//
f 402// 401// 403//
f 402// 403// 404//
f 404// 403// 405//
f 404// 405// 406//
f 406// 405// 407//
f 406// 407// 408//
f 408// 407// 409//
f 408// 409// 246//
f 246// 409// 247//
usemtl 3
f 410// 272// 274//
f 410// 274// 411//
f 411// 274// 276//
f 411// 276// 412//
f 412// 276// 279//
f 412// 279// 413//
f 413// 279// 281//
f 413// 281// 414//
f 414// 281// 283//
f 414// 283// 415//
f 415// 283// 285//
f 415// 285// 416//
f 416// 285// 417//
f 417// 285// 287//
f 417// 287// 289//
f 417// 289// 418//
f 418// 289// 291//
f 418// 291// 419//
f 419// 291// 309//
f 419// 309// 420//
f 420// 309// 311//
f 420// 311// 421//
f 421// 311// 313//
f 421// 313// 422//
f 422// 313// 315//
f 422// 315// 423//
f 423// 315// 424//
f 424// 315// 317//
f 424// 317// 319//
f 424// 319// 425//
f 425// 319// 292//
f 425// 292// 426//
f 426// 292// 294//
f 426// 294// 427//
f 427// 294// 296//
f 427// 296// 428//
f 428// 296// 298//
f 428// 298// 429//
f 429// 298// 300//
f 429// 300// 430//
f 430// 300// 431//
f 431// 300// 302//
f 431// 302// 304//
f 431// 304// 432//
f 432// 304// 262//
f 432// 262// 433//
f 433// 262// 264//
f 433// 264// 434//
f 434// 264// 266//
f 434// 266// 435//
f 435// 266// 268//
f 435// 268// 436//
f 436// 268// 270//
f 436// 270// 437//
f 437// 270// 410//
f 410// 270// 272//
f 438// 439// 440//
f 441// 442// 443//
f 439// 444// 440//
f 440// 444// 445//
f 440// 445// 446//
f 447// 448// 449//
f 450// 451// 452//
f 440// 453// 438//
f 438// 453// 454//
f 438// 454// 455//
f 439// 456// 444//
f 444// 456// 441//
f 444// 441// 457//
f 457// 441// 443//
f 453// 458// 454//
f 454// 458// 450//
f 454// 450// 459//
f 459// 450// 452//
f 446// 445// 449//
f 449// 445// 460//
f 449// 460// 447//
f 461// 455// 462//
f 462// 455// 463//
f 461// 464// 455//
f 455// 464// 465//
f 455// 465// 438//
f 440// 446// 466//
f 466// 446// 467//
f 466// 467// 468//
f 468// 467// 469//
f 468// 469// 470//
f 470// 469// 471//
f 470// 471// 472//
f 472// 471// 473//
f 472// 473// 474//
f 474// 473// 475//
f 474// 475// 423//
f 423// 475// 422//
f 446// 449// 467//
f 467// 449// 476//
f 467// 476// 469//
f 469// 476// 477//
f 469// 477// 471//
f 471// 477// 478//
f 471// 478// 473//
f 473// 478// 479//
f 473// 479// 475//
f 475// 479// 480//
f 475// 480// 422//
f 422// 480// 421//
f 449// 448// 476//
f 476// 448// 481//
f 476// 481// 477//
f 477// 481// 482//
f 477// 482// 478//
f 478// 482// 483//
f 478// 483// 479//
f 479// 483// 484//
f 479// 484// 480//
f 480// 484// 485//
f 480// 485// 421//
f 421// 485// 420//
f 448// 447// 481//
f 481// 447// 486//
f 481// 486// 482//
f 482// 486// 487//
f 482// 487// 483//
f 483// 487// 488//
f 483// 488// 484//
f 484// 488// 489//
f 484// 489// 485//
f 485// 489// 490//
f 485// 490// 420//
f 420// 490// 419//
f 447// 460// 486//
f 486// 460// 491//
f 486// 491// 487//
f 487// 491// 492//
f 487// 492// 488//
f 488// 492// 493//
f 488// 493// 489//
f 489// 493// 494//
f 489// 494// 490//
f 490// 494// 495//
f 490// 495// 419//
f 419// 495// 418//
f 460// 445// 491//
f 491// 445// 496//
f 491// 496// 492//
f 492// 496// 497//
f 492// 497// 493//
f 493// 497// 498//
f 493// 498// 494//
f 494// 498// 499//
f 494// 499// 495//
f 495// 499// 500//
f 495// 500// 418//
f 418// 500// 417//
f 453// 440// 466//
f 453// 466// 501//
f 501// 466// 468//
f 501// 468// 502//
f 502// 468// 470//
f 502// 470// 503//
f 503// 470// 472//
f 503// 472// 504//
f 504// 472// 474//
f 504// 474// 505//
f 505// 474// 423//
f 505// 423// 424//
f 445// 444// 506//
f 445// 506// 496//
f 496// 506// 507//
f 496// 507// 497//
f 497// 507// 508//
f 497// 508// 498//
f 498// 508// 509//
f 498// 509// 499//
f 499// 509// 510//
f 499// 510// 500//
f 500// 510// 416//
f 500// 416// 417//
f 454// 459// 511//
f 511// 459// 512//
f 511// 512// 513//
f 513// 512// 514//
f 513// 514// 515//
f 515// 514// 516//
f 515// 516// 517//
f 517// 516// 518//
f 517// 518// 519//
f 519// 518// 520//
f 519// 520// 430//
f 430// 520// 429//
f 459// 452// 512//
f 512// 452// 521//
f 512// 521// 514//
f 514// 521// 522//
f 514// 522// 516//
f 516// 522// 523//
f 516// 523// 518//
f 518// 523// 524//
f 518// 524// 520//
f 520// 524// 525//
f 520// 525// 429//
f 429// 525// 428//
f 452// 451// 521//
f 521// 451// 526//
f 521// 526// 522//
f 522// 526// 527//
f 522// 527// 523//
f 523// 527// 528//
f 523// 528// 524//
f 524// 528// 529//
f 524// 529// 525//
f 525// 529// 530//
f 525// 530// 428//
f 428// 530// 427//
f 451// 450// 526//
f 526// 450// 531//
f 526// 531// 527//
f 527// 531// 532//
f 527// 532// 528//
f 528// 532// 533//
f 528// 533// 529//
f 529// 533// 534//
f 529// 534// 530//
f 530// 534// 535//
f 530// 535// 427//
f 427// 535// 426//
f 450// 458// 531//
f 531// 458// 536//
f 531// 536// 532//
f 532// 536// 537//
f 532// 537// 533//
f 533// 537// 538//
f 533// 538// 534//
f 534// 538// 539//
f 534// 539// 535//
f 535// 539// 540//
f 535// 540// 426//
f 426// 540// 425//
f 458// 453// 536//
f 536// 453// 501//
f 536// 501// 537//
f 537// 501// 502//
f 537// 502// 538//
f 538// 502// 503//
f 538// 503// 539//
f 539// 503// 504//
f 539// 504// 540//
f 540// 504// 505//
f 540// 505// 425//
f 425// 505// 424//
f 444// 457// 506//
f 506// 457// 541//
f 506// 541// 507//
f 507// 541// 542//
f 507// 542// 508//
f 508// 542// 543//
f 508// 543// 509//
f 509// 543// 544//
f 509// 544// 510//
f 510// 544// 545//
f 510// 545// 416//
f 416// 545// 415//
f 457// 443// 541//
f 541// 443// 546//
f 541// 546// 542//
f 542// 546// 547//
f 542// 547// 543//
f 543// 547// 548//
f 543// 548// 544//
f 544// 548// 549//
f 544// 549// 545//
f 545// 549// 550//
f 545// 550// 415//
f 415// 550// 414//
f 443// 442// 546//
f 546// 442// 551//
f 546// 551// 547//
f 547// 551// 552//
f 547// 552// 548//
f 548// 552// 553//
f 548// 553// 549//
f 549// 553// 554//
f 549// 554// 550//
f 550// 554// 555//
f 550// 555// 414//
f 414// 555// 413//
f 442// 441// 551//
f 551// 441// 556//
f 551// 556// 552//
f 552// 556// 557//
f 552// 557// 553//
f 553// 557// 558//
f 553// 558// 554//
f 554// 558// 559//
f 554// 559// 555//
f 555// 559// 560//
f 555// 560// 413//
f 413// 560// 412//
f 441// 456// 556//
f 556// 456// 561//
f 556// 561// 557//
f 557// 561// 562//
f 557// 562// 558//
f 558// 562// 563//
f 558// 563// 559//
f 559// 563// 564//
f 559// 564// 560//
f 560// 564// 565//
f 560// 565// 412//
f 412// 565// 411//
f 456// 439// 561//
f 561// 439// 566//
f 561// 566// 562//
f 562// 566// 567//
f 562// 567// 563//
f 563// 567// 568//
f 563// 568// 564//
f 564// 568// 569//
f 564// 569// 565//
f 565// 569// 570//
f 565// 570// 411//
f 411// 570// 410//
f 455// 454// 511//
f 455// 511// 571//
f 571// 511// 513//
f 571// 513// 572//
f 572// 513// 515//
f 572// 515// 573//
f 573// 515// 517//
f 573// 517// 574//
f 574// 517// 519//
f 574// 519// 575//
f 575// 519// 430//
f 575// 430// 431//
f 439// 438// 576//
f 439// 576// 566//
f 566// 576// 577//
f 566// 577// 567//
f 567// 577// 578//
f 567// 578// 568//
f 568// 578// 579//
f 568// 579// 569//
f 569// 579// 580//
f 569// 580// 570//
f 570// 580// 437//
f 570// 437// 410//
f 438// 465// 576//
f 576// 465// 581//
f 576// 581// 577//
f 577// 581// 582//
f 577// 582// 578//
f 578// 582// 583//
f 578// 583// 579//
f 579// 583// 584//
f 579// 584// 580//
f 580// 584// 585//
f 580// 585// 437//
f 437// 585// 436//
f 465// 464// 581//
f 581// 464// 586//
f 581// 586// 582//
f 582// 586// 587//
f 582// 587// 583//
f 583// 587// 588//
f 583// 588// 584//
f 584// 588// 589//
f 584// 589// 585//
f 585// 589// 590//
f 585// 590// 436//
f 436// 590// 435//
f 464// 461// 586//
f 586// 461// 591//
f 586// 591// 587//
f 587// 591// 592//
f 587// 592// 588//
f 588// 592// 593//
f 588// 593// 589//
f 589// 593// 594//
f 589// 594// 590//
f 590// 594// 595//
f 590// 595// 435//
f 435// 595// 434//
f 461// 462// 591//
f 591// 462// 596//
f 591// 596// 592//
f 592// 596// 597//
f 592// 597// 593//
f 593// 597// 598//
f 593// 598// 594//
f 594// 598// 599//
f 594// 599// 595//
f 595// 599// 600//
f 595// 600// 434//
f 434// 600// 433//
f 462// 463// 596//
f 596// 463// 601//
f 596// 601// 597//
f 597// 601// 602//
f 597// 602// 598//
f 598// 602// 603//
f 598// 603// 599//
f 599// 603// 604//
f 599// 604// 600//
f 600// 604// 605//
f 600// 605// 433//
f 433// 605// 432//
f 463// 455// 601//
f 601// 455// 571//
f 601// 571// 602//
f 602// 571// 572//
f 602// 572// 603//
f 603// 572// 573//
f 603// 573// 604//
f 604// 573// 574//
f 604// 574// 605//
f 605// 574// 575//
f 605// 575// 432//
f 432// 575// 431//
usemtl 2
f 346// 348// 606//
f 350// 352// 607//
f 284// 282// 608//
f 608// 282// 609//
f 608// 609// 610//
f 610// 609// 611//
f 610// 611// 612//
f 612// 611// 613//
f 612// 613// 614//
f 614// 613// 615//
f 614// 615// 616//
f 616// 615// 617//
f 286// 284// 618//
f 618// 284// 608//
f 618// 608// 619//
f 619// 608// 610//
f 619// 610// 620//
f 620// 610// 612//
f 620// 612// 621//
f 621// 612// 614//
f 621// 614// 622//
f 622// 614// 616//
f 622// 616// 254//
f 254// 616// 364//
f 354// 356// 623//
f 623// 356// 617//
f 623// 617// 624//
f 624// 617// 615//
f 624// 615// 625//
f 625// 615// 613//
f 625// 613// 626//
f 626// 613// 611//
f 626// 611// 627//
f 627// 611// 609//
f 627// 609// 280//
f 280// 609// 282//
f 356// 358// 617//
f 617// 358// 360//
f 617// 360// 616//
f 616// 360// 362//
f 616// 362// 364//
f 280// 278// 627//
f 627// 278// 628//
f 627// 628// 626//
f 626// 628// 629//
f 626// 629// 625//
f 625// 629// 630//
f 625// 630// 624//
f 624// 630// 631//
f 624// 631// 623//
f 623// 631// 607//
f 623// 607// 354//
f 354// 607// 352//
f 348// 350// 606//
f 606// 350// 607//
f 606// 607// 632//
f 632// 607// 631//
f 632// 631// 633//
f 633// 631// 630//
f 633// 630// 634//
f 634// 630// 629//
f 634// 629// 635//
f 635// 629// 628//
f 635// 628// 277//
f 277// 628// 278//
f 344// 346// 636//
f 636// 346// 606//
f 636// 606// 637//
f 637// 606// 632//
f 637// 632// 638//
f 638// 632// 633//
f 638// 633// 639//
f 639// 633// 634//
f 639// 634// 640//
f 640// 634// 635//
f 640// 635// 275//
f 275// 635// 277//
f 275// 273// 640//
f 640// 273// 641//
f 640// 641// 639//
f 639// 641// 642//
f 639// 642// 638//
f 638// 642// 643//
f 638// 643// 637//
f 637// 643// 644//
f 637// 644// 636//
f 636// 644// 645//
f 636// 645// 344//
f 344// 645// 252//
f 646// 288// 286//
f 646// 286// 647//
f 647// 286// 618//
f 647// 618// 648//
f 648// 618// 649//
f 649// 618// 619//
f 649// 619// 650//
f 650// 619// 651//
f 651// 619// 620//
f 651// 620// 652//
f 652// 620// 621//
f 652// 621// 653//
f 653// 621// 654//
f 654// 621// 622//
f 654// 622// 655//
f 655// 622// 656//
f 656// 622// 254//
f 656// 254// 256//
f 271// 657// 273//
f 273// 657// 641//
f 657// 658// 641//
f 641// 658// 659//
f 641// 659// 642//
f 659// 660// 642//
f 642// 660// 661//
f 642// 661// 643//
f 643// 661// 662//
f 643// 662// 644//
f 662// 663// 644//
f 644// 663// 664//
f 644// 664// 645//
f 664// 665// 645//
f 645// 665// 666//
f 645// 666// 252//
f 252// 666// 667//
f 252// 667// 250//
f 324// 326// 668//
f 328// 330// 669//
f 670// 290// 288//
f 316// 314// 671//
f 671// 314// 672//
f 671// 672// 673//
f 673// 672// 674//
f 288// 646// 670//
f 670// 646// 647//
f 670// 647// 675//
f 676// 677// 674//
f 674// 677// 678//
f 674// 678// 673//
f 647// 648// 675//
f 675// 648// 649//
f 675// 649// 679//
f 680// 681// 676//
f 676// 681// 682//
f 676// 682// 677//
f 649// 650// 679//
f 679// 650// 651//
f 679// 651// 683//
f 684// 685// 680//
f 680// 685// 686//
f 680// 686// 681//
f 651// 652// 683//
f 683// 652// 653//
f 683// 653// 687//
f 688// 689// 684//
f 684// 689// 690//
f 684// 690// 685//
f 314// 312// 672//
f 672// 312// 691//
f 672// 691// 674//
f 674// 691// 692//
f 674// 692// 676//
f 676// 692// 693//
f 676// 693// 680//
f 680// 693// 694//
f 680// 694// 684//
f 684// 694// 695//
f 684// 695// 688//
f 688// 695// 696//
f 342// 258// 688//
f 688// 258// 697//
f 688// 697// 689//
f 332// 334// 698//
f 698// 334// 696//
f 698// 696// 699//
f 699// 696// 695//
f 699// 695// 700//
f 700// 695// 694//
f 700// 694// 701//
f 701// 694// 693//
f 701// 693// 702//
f 702// 693// 692//
f 702// 692// 703//
f 703// 692// 691//
f 703// 691// 310//
f 310// 691// 312//
f 334// 336// 696//
f 696// 336// 338//
f 696// 338// 688//
f 688// 338// 340//
f 688// 340// 342//
f 330// 332// 669//
f 669// 332// 698//
f 669// 698// 704//
f 704// 698// 699//
f 704// 699// 705//
f 705// 699// 700//
f 705// 700// 706//
f 706// 700// 701//
f 706// 701// 707//
f 707// 701// 702//
f 707// 702// 708//
f 708// 702// 703//
f 708// 703// 308//
f 308// 703// 310//
f 326// 328// 668//
f 668// 328// 669//
f 668// 669// 709//
f 709// 669// 704//
f 709// 704// 710//
f 710// 704// 705//
f 710// 705// 711//
f 711// 705// 706//
f 711// 706// 712//
f 712// 706// 707//
f 712// 707// 713//
f 713// 707// 708//
f 713// 708// 307//
f 307// 708// 308//
f 322// 324// 714//
f 714// 324// 668//
f 714// 668// 687//
f 687// 668// 709//
f 687// 709// 683//
f 683// 709// 710//
f 683// 710// 679//
f 679// 710// 711//
f 679// 711// 675//
f 675// 711// 712//
f 675// 712// 670//
f 670// 712// 713//
f 670// 713// 290//
f 290// 713// 307//
f 653// 654// 687//
f 687// 654// 655//
f 687// 655// 714//
f 714// 655// 656//
f 714// 656// 322//
f 322// 656// 256//
f 368// 370// 715//
f 372// 374// 716//
f 717// 305// 303//
f 271// 269// 657//
f 657// 269// 718//
f 657// 718// 658//
f 658// 718// 719//
f 303// 720// 717//
f 717// 720// 721//
f 717// 721// 722//
f 723// 660// 719//
f 719// 660// 659//
f 719// 659// 658//
f 721// 724// 722//
f 722// 724// 725//
f 722// 725// 726//
f 727// 662// 723//
f 723// 662// 661//
f 723// 661// 660//
f 725// 728// 726//
f 726// 728// 729//
f 726// 729// 730//
f 731// 664// 727//
f 727// 664// 663//
f 727// 663// 662//
f 729// 732// 730//
f 730// 732// 733//
f 730// 733// 734//
f 735// 666// 731//
f 731// 666// 665//
f 731// 665// 664//
f 269// 267// 718//
f 718// 267// 736//
f 718// 736// 719//
f 719// 736// 737//
f 719// 737// 723//
f 723// 737// 738//
f 723// 738// 727//
f 727// 738// 739//
f 727// 739// 731//
f 731// 739// 740//
f 731// 740// 735//
f 735// 740// 741//
f 386// 250// 735//
f 735// 250// 667//
f 735// 667// 666//
f 376// 378// 742//
f 742// 378// 741//
f 742// 741// 743//
f 743// 741// 740//
f 743// 740// 744//
f 744// 740// 739//
f 744// 739// 745//
f 745// 739// 738//
f 745// 738// 746//
f 746// 738// 737//
f 746// 737// 747//
f 747// 737// 736//
f 747// 736// 265//
f 265// 736// 267//
f 378// 380// 741//
f 741// 380// 382//
f 741// 382// 735//
f 735// 382// 384//
f 735// 384// 386//
f 265// 263// 747//
f 747// 263// 748//
f 747// 748// 746//
f 746// 748// 749//
f 746// 749// 745//
f 745// 749// 750//
f 745// 750// 744//
f 744// 750// 751//
f 744// 751// 743//
f 743// 751// 752//
f 743// 752// 742//
f 742// 752// 716//
f 742// 716// 376//
f 376// 716// 374//
f 370// 372// 715//
f 715// 372// 716//
f 715// 716// 753//
f 753// 716// 752//
f 753// 752// 754//
f 754// 752// 751//
f 754// 751// 755//
f 755// 751// 750//
f 755// 750// 756//
f 756// 750// 749//
f 756// 749// 757//
f 757// 749// 748//
f 757// 748// 306//
f 306// 748// 263//
f 366// 368// 758//
f 758// 368// 715//
f 758// 715// 734//
f 734// 715// 753//
f 734// 753// 730//
f 730// 753// 754//
f 730// 754// 726//
f 726// 754// 755//
f 726// 755// 722//
f 722// 755// 756//
f 722// 756// 717//
f 717// 756// 757//
f 717// 757// 305//
f 305// 757// 306//
f 733// 759// 734//
f 734// 759// 760//
f 734// 760// 758//
f 758// 760// 761//
f 758// 761// 366//
f 366// 761// 248//
f 316// 671// 318//
f 318// 671// 762//
f 671// 673// 762//
f 762// 673// 678//
f 762// 678// 763//
f 678// 677// 763//
f 763// 677// 682//
f 763// 682// 764//
f 764// 682// 681//
f 764// 681// 765//
f 681// 686// 765//
f 765// 686// 685//
f 765// 685// 766//
f 685// 690// 766//
f 766// 690// 689//
f 766// 689// 260//
f 260// 689// 697//
f 260// 697// 258//
f 720// 303// 301//
f 720// 301// 721//
f 721// 301// 767//
f 721// 767// 724//
f 724// 767// 725//
f 725// 767// 768//
f 725// 768// 728//
f 728// 768// 729//
f 729// 768// 769//
f 729// 769// 732//
f 732// 769// 770//
f 732// 770// 733//
f 733// 770// 759//
f 759// 770// 771//
f 759// 771// 760//
f 760// 771// 761//
f 761// 771// 246//
f 761// 246// 248//
f 390// 392// 772//
f 394// 396// 773//
f 299// 297// 774//
f 774// 297// 775//
f 774// 775// 776//
f 776// 775// 777//
f 776// 777// 778//
f 778// 777// 779//
f 778// 779// 780//
f 780// 779// 781//
f 780// 781// 782//
f 782// 781// 783//
f 301// 299// 767//
f 767// 299// 774//
f 767// 774// 768//
f 768// 774// 776//
f 768// 776// 769//
f 769// 776// 778//
f 769// 778// 770//
f 770// 778// 780//
f 770// 780// 771//
f 771// 780// 782//
f 771// 782// 246//
f 246// 782// 408//
f 398// 400// 784//
f 784// 400// 783//
f 784// 783// 785//
f 785// 783// 781//
f 785// 781// 786//
f 786// 781// 779//
f 786// 779// 787//
f 787// 779// 777//
f 787// 777// 788//
f 788// 777// 775//
f 788// 775// 295//
f 295// 775// 297//
f 400// 402// 783//
f 783// 402// 404//
f 783// 404// 782//
f 782// 404// 406//
f 782// 406// 408//
f 295// 293// 788//
f 788// 293// 789//
f 788// 789// 787//
f 787// 789// 790//
f 787// 790// 786//
f 786// 790// 791//
f 786// 791// 785//
f 785// 791// 792//
f 785// 792// 784//
f 784// 792// 773//
f 784// 773// 398//
f 398// 773// 396//
f 392// 394// 772//
f 772// 394// 773//
f 772// 773// 793//
f 793// 773// 792//
f 793// 792// 794//
f 794// 792// 791//
f 794// 791// 795//
f 795// 791// 790//
f 795// 790// 796//
f 796// 790// 789//
f 796// 789// 321//
f 321// 789// 293//
f 388// 390// 797//
f 797// 390// 772//
f 797// 772// 798//
f 798// 772// 793//
f 798// 793// 799//
f 799// 793// 794//
f 799// 794// 800//
f 800// 794// 795//
f 800// 795// 801//
f 801// 795// 796//
f 801// 796// 320//
f 320// 796// 321//
f 320// 318// 801//
f 801// 318// 762//
f 801// 762// 800//
f 800// 762// 763//
f 800// 763// 799//
f 799// 763// 764//
f 799// 764// 798//
f 798// 764// 765//
f 798// 765// 797//
f 797// 765// 766//
f 797// 766// 388//
f 388// 766// 260//
f 802// 803// 255//
f 255// 365// 802//
f 802// 365// 363//
f 802// 363// 804//
f 363// 361// 804//
f 804// 361// 359//
f 804// 359// 805//
f 359// 357// 805//
f 805// 357// 355//
f 805// 355// 806//
f 806// 355// 353//
f 806// 353// 807//
f 353// 351// 807//
f 807// 351// 349//
f 807// 349// 808//
f 253// 809// 345//
f 345// 809// 808//
f 345// 808// 347//
f 347// 808// 349//
f 809// 810// 808//
f 808// 810// 811//
f 808// 811// 807//
f 807// 811// 812//
f 807// 812// 806//
f 806// 812// 813//
f 806// 813// 805//
f 805// 813// 814//
f 805// 814// 804//
f 804// 814// 815//
f 804// 815// 802//
f 802// 815// 816//
f 802// 816// 803//
f 803// 816// 817//
f 810// 818// 811//
f 811// 818// 819//
f 811// 819// 812//
f 812// 819// 820//
f 812// 820// 813//
f 813// 820// 821//
f 813// 821// 814//
f 814// 821// 822//
f 814// 822// 815//
f 815// 822// 823//
f 815// 823// 816//
f 816// 823// 824//
f 816// 824// 817//
f 817// 824// 825//
f 818// 826// 819//
f 819// 826// 827//
f 819// 827// 820//
f 820// 827// 828//
f 820// 828// 821//
f 821// 828// 829//
f 821// 829// 822//
f 822// 829// 830//
f 822// 830// 823//
f 823// 830// 831//
f 823// 831// 824//
f 824// 831// 832//
f 824// 832// 825//
f 825// 832// 833//
f 826// 834// 827//
f 827// 834// 835//
f 827// 835// 828//
f 828// 835// 836//
f 828// 836// 829//
f 829// 836// 837//
f 829// 837// 830//
f 830// 837// 838//
f 830// 838// 831//
f 831// 838// 839//
f 831// 839// 832//
f 832// 839// 840//
f 832// 840// 833//
f 833// 840// 841//
f 834// 242// 835//
f 835// 242// 241//
f 835// 241// 836//
f 836// 241// 240//
f 836// 240// 837//
f 837// 240// 225//
f 837// 225// 838//
f 838// 225// 216//
f 838// 216// 839//
f 839// 216// 215//
f 839// 215// 840//
f 840// 215// 217//
f 840// 217// 841//
f 841// 217// 224//
f 243// 242// 842//
f 842// 242// 834//
f 842// 834// 843//
f 843// 834// 826//
f 843// 826// 844//
f 844// 826// 818//
f 844// 818// 845//
f 845// 818// 810//
f 845// 810// 846//
f 846// 810// 809//
f 846// 809// 251//
f 251// 809// 253//
f 224// 223// 841//
f 841// 223// 847//
f 841// 847// 833//
f 833// 847// 848//
f 833// 848// 825//
f 825// 848// 849//
f 825// 849// 817//
f 817// 849// 850//
f 817// 850// 803//
f 803// 850// 851//
f 803// 851// 255//
f 255// 851// 257//
f 852// 846// 251//
f 251// 387// 852//
f 852// 387// 385//
f 852// 385// 853//
f 385// 383// 853//
f 853// 383// 381//
f 853// 381// 854//
f 381// 379// 854//
f 854// 379// 377//
f 854// 377// 855//
f 855// 377// 375//
f 855// 375// 856//
f 375// 373// 856//
f 856// 373// 371//
f 856// 371// 857//
f 249// 858// 367//
f 367// 858// 857//
f 367// 857// 369//
f 369// 857// 371//
f 858// 859// 857//
f 857// 859// 860//
f 857// 860// 856//
f 856// 860// 861//
f 856// 861// 855//
f 855// 861// 862//
f 855// 862// 854//
f 854// 862// 863//
f 854// 863// 853//
f 853// 863// 864//
f 853// 864// 852//
f 852// 864// 865//
f 852// 865// 846//
f 846// 865// 845//
f 859// 866// 860//
f 860// 866// 867//
f 860// 867// 861//
f 861// 867// 868//
f 861// 868// 862//
f 862// 868// 869//
f 862// 869// 863//
f 863// 869// 870//
f 863// 870// 864//
f 864// 870// 871//
f 864// 871// 865//
f 865// 871// 872//
f 865// 872// 845//
f 845// 872// 844//
f 866// 873// 867//
f 867// 873// 874//
f 867// 874// 868//
f 868// 874// 875//
f 868// 875// 869//
f 869// 875// 876//
f 869// 876// 870//
f 870// 876// 877//
f 870// 877// 871//
f 871// 877// 878//
f 871// 878// 872//
f 872// 878// 879//
f 872// 879// 844//
f 844// 879// 843//
f 873// 880// 874//
f 874// 880// 881//
f 874// 881// 875//
f 875// 881// 882//
f 875// 882// 876//
f 876// 882// 883//
f 876// 883// 877//
f 877// 883// 884//
f 877// 884// 878//
f 878// 884// 885//
f 878// 885// 879//
f 879// 885// 886//
f 879// 886// 843//
f 843// 886// 842//
f 880// 245// 881//
f 881// 245// 239//
f 881// 239// 882//
f 882// 239// 238//
f 882// 238// 883//
f 883// 238// 244//
f 883// 244// 884//
f 884// 244// 236//
f 884// 236// 885//
f 885// 236// 235//
f 885// 235// 886//
f 886// 235// 237//
f 886// 237// 842//
f 842// 237// 243//
f 887// 888// 259//
f 259// 343// 887//
f 887// 343// 341//
f 887// 341// 889//
f 341// 339// 889//
f 889// 339// 337//
f 889// 337// 890//
f 337// 335// 890//
f 890// 335// 333//
f 890// 333// 891//
f 891// 333// 331//
f 891// 331// 892//
f 331// 329// 892//
f 892// 329// 327//
f 892// 327// 893//
f 257// 851// 323//
f 323// 851// 893//
f 323// 893// 325//
f 325// 893// 327//
f 851// 850// 893//
f 893// 850// 894//
f 893// 894// 892//
f 892// 894// 895//
f 892// 895// 891//
f 891// 895// 896//
f 891// 896// 890//
f 890// 896// 897//
f 890// 897// 889//
f 889// 897// 898//
f 889// 898// 887//
f 887// 898// 899//
f 887// 899// 888//
f 888// 899// 900//
f 850// 849// 894//
f 894// 849// 901//
f 894// 901// 895//
f 895// 901// 902//
f 895// 902// 896//
f 896// 902// 903//
f 896// 903// 897//
f 897// 903// 904//
f 897// 904// 898//
f 898// 904// 905//
f 898// 905// 899//
f 899// 905// 906//
f 899// 906// 900//
f 900// 906// 907//
f 849// 848// 901//
f 901// 848// 908//
f 901// 908// 902//
f 902// 908// 909//
f 902// 909// 903//
f 903// 909// 910//
f 903// 910// 904//
f 904// 910// 911//
f 904// 911// 905//
f 905// 911// 912//
f 905// 912// 906//
f 906// 912// 913//
f 906// 913// 907//
f 907// 913// 914//
f 848// 847// 908//
f 908// 847// 915//
f 908// 915// 909//
f 909// 915// 916//
f 909// 916// 910//
f 910// 916// 917//
f 910// 917// 911//
f 911// 917// 918//
f 911// 918// 912//
f 912// 918// 919//
f 912// 919// 913//
f 913// 919// 920//
f 913// 920// 914//
f 914// 920// 921//
f 847// 223// 915//
f 915// 223// 222//
f 915// 222// 916//
f 916// 222// 221//
f 916// 221// 917//
f 917// 221// 220//
f 917// 220// 918//
f 918// 220// 219//
f 918// 219// 919//
f 919// 219// 218//
f 919// 218// 920//
f 920// 218// 214//
f 920// 214// 921//
f 921// 214// 228//
f 229// 245// 922//
f 922// 245// 880//
f 922// 880// 923//
f 923// 880// 873//
f 923// 873// 924//
f 924// 873// 866//
f 924// 866// 925//
f 925// 866// 859//
f 925// 859// 926//
f 926// 859// 858//
f 926// 858// 247//
f 247// 858// 249//
f 228// 227// 921//
f 921// 227// 927//
f 921// 927// 914//
f 914// 927// 928//
f 914// 928// 907//
f 907// 928// 929//
f 907// 929// 900//
f 900// 929// 930//
f 900// 930// 888//
f 888// 930// 931//
f 888// 931// 259//
f 259// 931// 261//
f 932// 926// 247//
f 247// 409// 932//
f 932// 409// 407//
f 932// 407// 933//
f 407// 405// 933//
f 933// 405// 403//
f 933// 403// 934//
f 403// 401// 934//
f 934// 401// 399//
f 934// 399// 935//
f 935// 399// 397//
f 935// 397// 936//
f 397// 395// 936//
f 936// 395// 393//
f 936// 393// 937//
f 261// 931// 389//
f 389// 931// 937//
f 389// 937// 391//
f 391// 937// 393//
f 931// 930// 937//
f 937// 930// 938//
f 937// 938// 936//
f 936// 938// 939//
f 936// 939// 935//
f 935// 939// 940//
f 935// 940// 934//
f 934// 940// 941//
f 934// 941// 933//
f 933// 941// 942//
f 933// 942// 932//
f 932// 942// 943//
f 932// 943// 926//
f 926// 943// 925//
f 930// 929// 938//
f 938// 929// 944//
f 938// 944// 939//
f 939// 944// 945//
f 939// 945// 940//
f 940// 945// 946//
f 940// 946// 941//
f 941// 946// 947//
f 941// 947// 942//
f 942// 947// 948//
f 942// 948// 943//
f 943// 948// 949//
f 943// 949// 925//
f 925// 949// 924//
f 929// 928// 944//
f 944// 928// 950//
f 944// 950// 945//
f 945// 950// 951//
f 945// 951// 946//
f 946// 951// 952//
f 946// 952// 947//
f 947// 952// 953//
f 947// 953// 948//
f 948// 953// 954//
f 948// 954// 949//
f 949// 954// 955//
f 949// 955// 924//
f 924// 955// 923//
f 928// 927// 950//
f 950// 927// 956//
f 950// 956// 951//
f 951// 956// 957//
f 951// 957// 952//
f 952// 957// 958//
f 952// 958// 953//
f 953// 958// 959//
f 953// 959// 954//
f 954// 959// 960//
f 954// 960// 955//
f 955// 960// 961//
f 955// 961// 923//
f 923// 961// 922//
f 927// 227// 956//
f 956// 227// 226//
f 956// 226// 957//
f 957// 226// 234//
f 957// 234// 958//
f 958// 234// 233//
f 958// 233// 959//
f 959// 233// 232//
f 959// 232// 960//
f 960// 232// 231//
f 960// 231// 961//
f 961// 231// 230//
f 961// 230// 922//
f 922// 230// 229//
f 108// 962// 88//
f 88// 962// 174//
f 88// 174// 78//
f 963// 962// 107//
f 107// 962// 108//
f 964// 963// 106//
f 106// 963// 107//
f 965// 197// 196//
f 207// 966// 206//
f 206// 966// 967//
f 206// 967// 175//
f 203// 202// 968//
f 968// 202// 969//
f 967// 970// 175//
f 175// 970// 971//
f 175// 971// 972//
f 972// 971// 965//
f 972// 965// 973//
f 973// 965// 196//
f 962// 963// 174//
f 174// 963// 964//
f 174// 964// 175//
f 212// 211// 974//
f 974// 211// 975//
f 974// 975// 964//
f 975// 976// 964//
f 964// 976// 977//
f 964// 977// 969//
f 969// 977// 978//
f 969// 978// 968//
f 969// 172// 964//
f 964// 172// 173//
f 964// 173// 175//
f 175// 173// 979//
f 175// 979// 206//
f 23// 980// 9//
f 9// 980// 134//
f 9// 134// 6//
f 981// 980// 25//
f 25// 980// 23//
f 982// 191// 190//
f 981// 190// 983//
f 194// 195// 984//
f 984// 195// 985//
f 135// 134// 981//
f 981// 134// 980//
f 199// 198// 986//
f 986// 198// 987//
f 986// 987// 981//
f 987// 988// 981//
f 981// 988// 989//
f 981// 989// 190//
f 190// 989// 990//
f 190// 990// 982//
f 209// 208// 991//
f 991// 208// 992//
f 991// 992// 993//
f 993// 992// 135//
f 993// 135// 994//
f 994// 135// 995//
f 985// 995// 984//
f 984// 995// 135//
f 984// 135// 133//
f 133// 135// 981//
f 133// 981// 132//
f 132// 981// 983//
f 210// 176// 996//
f 996// 176// 178//
f 996// 178// 997//
f 997// 178// 180//
f 997// 180// 998//
f 998// 180// 182//
f 998// 182// 999//
f 999// 182// 184//
f 999// 184// 1000//
f 1000// 184// 186//
f 1000// 186// 204//
f 204// 186// 188//
f 109// 212// 974//
f 109// 974// 105//
f 105// 974// 964//
f 105// 964// 106//
f 156// 172// 969//
f 156// 969// 154//
f 154// 969// 202//
f 154// 202// 152//
f 204// 203// 1000//
f 1000// 203// 968//
f 1000// 968// 999//
f 999// 968// 978//
f 999// 978// 998//
f 998// 978// 977//
f 998// 977// 997//
f 997// 977// 976//
f 997// 976// 996//
f 996// 976// 975//
f 996// 975// 210//
f 210// 975// 211//
f 205// 158// 1001//
f 1001// 158// 160//
f 1001// 160// 1002//
f 1002// 160// 162//
f 1002// 162// 1003//
f 1003// 162// 164//
f 1003// 164// 1004//
f 1004// 164// 166//
f 1004// 166// 1005//
f 1005// 166// 168//
f 1005// 168// 201//
f 201// 168// 170//
f 153// 206// 979//
f 153// 979// 155//
f 155// 979// 173//
f 155// 173// 157//
f 79// 175// 972//
f 79// 972// 80//
f 80// 972// 973//
f 80// 973// 81//
f 81// 973// 196//
f 81// 196// 82//
f 201// 197// 1005//
f 1005// 197// 965//
f 1005// 965// 1004//
f 1004// 965// 971//
f 1004// 971// 1003//
f 1003// 971// 970//
f 1003// 970// 1002//
f 1002// 970// 967//
f 1002// 967// 1001//
f 1001// 967// 966//
f 1001// 966// 205//
f 205// 966// 207//
f 200// 136// 1006//
f 1006// 136// 138//
f 1006// 138// 1007//
f 1007// 138// 140//
f 1007// 140// 1008//
f 150// 192// 148//
f 148// 192// 1009//
f 148// 1009// 146//
f 146// 1009// 1010//
f 146// 1010// 144//
f 144// 1010// 1008//
f 144// 1008// 142//
f 142// 1008// 140//
f 111// 132// 983//
f 111// 983// 112//
f 112// 983// 190//
f 112// 190// 113//
f 22// 199// 986//
f 22// 986// 24//
f 24// 986// 981//
f 24// 981// 25//
f 192// 191// 1009//
f 1009// 191// 982//
f 1009// 982// 1010//
f 1010// 982// 990//
f 1010// 990// 1008//
f 1008// 990// 989//
f 1008// 989// 1007//
f 1007// 989// 988//
f 1007// 988// 1006//
f 1006// 988// 987//
f 1006// 987// 200//
f 200// 987// 198//
f 193// 116// 1011//
f 1011// 116// 118//
f 1011// 118// 1012//
f 1012// 118// 120//
f 1012// 120// 1013//
f 130// 213// 128//
f 128// 213// 1014//
f 128// 1014// 126//
f 126// 1014// 1015//
f 126// 1015// 124//
f 124// 1015// 1013//
f 124// 1013// 122//
f 122// 1013// 120//
f 114// 194// 984//
f 114// 984// 115//
f 115// 984// 133//
f 115// 133// 110//
f 4// 135// 992//
f 4// 992// 5//
f 5// 992// 208//
f 5// 208// 7//
f 213// 209// 1014//
f 1014// 209// 991//
f 1014// 991// 1015//
f 1015// 991// 993//
f 1015// 993// 1013//
f 1013// 993// 994//
f 1013// 994// 1012//
f 1012// 994// 995//
f 1012// 995// 1011//
f 1011// 995// 985//
f 1011// 985// 193//
f 193// 985// 195//
usemtl 4
f 1016// 1017// 87//
f 87// 1017// 73//
f 1017// 1018// 73//
f 73// 1018// 74//
f 1018// 1019// 74//
f 74// 1019// 98//
f 1019// 1020// 98//
f 98// 1020// 97//
f 1020// 1021// 97//
f 97// 1021// 96//
f 1021// 1022// 96//
f 96// 1022// 75//
f 1022// 1023// 75//
f 75// 1023// 86//
f 1023// 1016// 86//
f 86// 1016// 87//
f 1024// 1020// 1025//
f 1025// 1020// 1019//
f 1026// 1023// 1024//
f 1024// 1023// 1022//
f 1024// 1022// 1020//
f 1020// 1022// 1021//
f 1026// 1027// 1023//
f 1023// 1027// 1028//
f 1023// 1028// 1016//
f 1016// 1028// 1029//
f 1016// 1029// 1030//
f 1030// 1031// 1016//
f 1016// 1031// 1025//
f 1016// 1025// 1017//
f 1017// 1025// 1019//
f 1017// 1019// 1018//
f 1024// 1025// 1032//
f 1032// 1025// 1033//
f 1026// 1024// 1034//
f 1034// 1024// 1032//
f 1026// 1034// 1035//
f 1026// 1035// 1027//
f 1027// 1035// 1036//
f 1027// 1036// 1028//
f 1029// 1028// 1037//
f 1037// 1028// 1036//
f 1029// 1037// 1038//
f 1029// 1038// 1030//
f 1030// 1038// 1039//
f 1030// 1039// 1031//
f 1025// 1031// 1033//
f 1033// 1031// 1039//
f 1040// 1041// 89//
f 89// 1041// 90//
f 1041// 1042// 90//
f 90// 1042// 91//
f 1042// 1043// 91//
f 91// 1043// 92//
f 1044// 103// 102//
f 1044// 102// 1045//
f 1045// 102// 95//
f 1045// 95// 1046//
f 1046// 95// 94//
f 1046// 94// 1047//
f 1047// 94// 93//
f 1047// 93// 1048//
f 1048// 93// 101//
f 1048// 101// 1049//
f 1049// 101// 100//
f 1049// 100// 1050//
f 1050// 100// 99//
f 1050// 99// 1051//
f 1051// 99// 92//
f 1051// 92// 1043//
f 1040// 89// 85//
f 1040// 85// 1052//
f 1052// 85// 84//
f 1052// 84// 1053//
f 1053// 84// 83//
f 1053// 83// 1054//
f 1054// 83// 77//
f 1054// 77// 1055//
f 1055// 77// 76//
f 1055// 76// 1056//
f 1056// 76// 104//
f 1056// 104// 1057//
f 1057// 104// 103//
f 1057// 103// 1044//
f 1046// 1047// 1058//
f 1058// 1047// 1048//
f 1058// 1048// 1059//
f 1059// 1048// 1049//
f 1059// 1049// 1060//
f 1060// 1049// 1050//
f 1060// 1050// 1061//
f 1061// 1050// 1051//
f 1061// 1051// 1062//
f 1062// 1051// 1043//
f 1062// 1043// 1063//
f 1063// 1043// 1042//
f 1063// 1042// 1064//
f 1064// 1042// 1041//
f 1064// 1041// 1065//
f 1065// 1041// 1040//
f 1065// 1040// 1066//
f 1066// 1040// 1052//
f 1066// 1052// 1067//
f 1067// 1052// 1053//
f 1067// 1053// 1068//
f 1068// 1053// 1054//
f 1068// 1054// 1069//
f 1069// 1054// 1055//
f 1069// 1055// 1070//
f 1070// 1055// 1056//
f 1070// 1056// 1071//
f 1071// 1056// 1057//
f 1071// 1057// 1072//
f 1072// 1057// 1044//
f 1072// 1044// 1073//
f 1073// 1044// 1045//
f 1073// 1045// 1074//
f 1074// 1045// 1046//
f 1074// 1046// 1058//
f 1062// 1063// 1075//
f 1075// 1063// 1076//
f 1062// 1075// 1077//
f 1062// 1077// 1061//
f 1061// 1077// 1078//
f 1061// 1078// 1060//
f 1060// 1078// 1079//
f 1060// 1079// 1059//
f 1059// 1079// 1080//
f 1059// 1080// 1058//
f 1058// 1080// 1081//
f 1058// 1081// 1074//
f 1074// 1081// 1082//
f 1074// 1082// 1073//
f 1073// 1082// 1083//
f 1073// 1083// 1072//
f 1072// 1083// 1084//
f 1072// 1084// 1071//
f 1071// 1084// 1085//
f 1071// 1085// 1070//
f 1070// 1085// 1086//
f 1070// 1086// 1069//
f 1069// 1086// 1087//
f 1069// 1087// 1068//
f 1068// 1087// 1088//
f 1068// 1088// 1067//
f 1067// 1088// 1089//
f 1067// 1089// 1066//
f 1066// 1089// 1090//
f 1066// 1090// 1065//
f 1064// 1065// 1091//
f 1091// 1065// 1090//
f 1063// 1064// 1076//
f 1076// 1064// 1091//
f 1092// 1093// 11//
f 11// 1093// 13//
f 1093// 1094// 13//
f 13// 1094// 14//
f 1094// 1095// 14//
f 14// 1095// 20//
f 1095// 1096// 20//
f 20// 1096// 35//
f 1096// 1097// 35//
f 35// 1097// 15//
f 1097// 1098// 15//
f 15// 1098// 16//
f 1098// 1099// 16//
f 16// 1099// 17//
f 1099// 1100// 17//
f 17// 1100// 29//
f 1100// 1101// 29//
f 29// 1101// 28//
f 1101// 1102// 28//
f 28// 1102// 26//
f 1102// 1103// 26//
f 26// 1103// 27//
f 1103// 1092// 27//
f 27// 1092// 11//
f 1094// 1093// 1092//
f 1092// 1103// 1094//
f 1094// 1103// 1102//
f 1094// 1102// 1095//
f 1097// 1096// 1098//
f 1098// 1096// 1095//
f 1098// 1095// 1099//
f 1099// 1095// 1102//
f 1099// 1102// 1100//
f 1100// 1102// 1101//
f 1104// 1105// 19//
f 19// 1105// 18//
f 18// 1105// 1106//
f 1107// 8// 2//
f 1107// 2// 1108//
f 1108// 2// 1//
f 1108// 1// 1106//
f 1106// 1// 21//
f 1106// 21// 18//
f 8// 1107// 31//
f 31// 1107// 1109//
f 31// 1109// 33//
f 33// 1109// 1110//
f 33// 1110// 34//
f 34// 1110// 1111//
f 34// 1111// 57//
f 57// 1111// 1112//
f 57// 1112// 58//
f 58// 1112// 1113//
f 58// 1113// 60//
f 60// 1113// 1114//
f 60// 1114// 62//
f 62// 1114// 1115//
f 62// 1115// 63//
f 1116// 67// 66//
f 1116// 66// 1117//
f 1117// 66// 65//
f 1117// 65// 1118//
f 1118// 65// 55//
f 1118// 55// 1119//
f 1119// 55// 51//
f 1119// 51// 1120//
f 1120// 51// 50//
f 1120// 50// 1121//
f 1121// 50// 64//
f 1121// 64// 1122//
f 1122// 64// 63//
f 1122// 63// 1115//
f 1123// 69// 68//
f 1123// 68// 1124//
f 1124// 68// 67//
f 1124// 67// 1116//
f 1123// 1125// 69//
f 69// 1125// 70//
f 1126// 72// 71//
f 1126// 71// 1127//
f 1127// 71// 70//
f 1127// 70// 1125//
f 1128// 41// 54//
f 1128// 54// 1129//
f 1129// 54// 53//
f 1129// 53// 1130//
f 1130// 53// 40//
f 1130// 40// 1131//
f 1131// 40// 39//
f 1131// 39// 1132//
f 1132// 39// 37//
f 1132// 37// 1133//
f 1133// 37// 36//
f 1133// 36// 1134//
f 1134// 36// 72//
f 1134// 72// 1126//
f 1135// 45// 44//
f 1135// 44// 1136//
f 1136// 44// 46//
f 1136// 46// 1137//
f 1137// 46// 47//
f 1137// 47// 1138//
f 1138// 47// 48//
f 1138// 48// 1139//
f 1139// 48// 43//
f 1139// 43// 1140//
f 1140// 43// 42//
f 1140// 42// 1141//
f 1141// 42// 41//
f 1141// 41// 1128//
f 1104// 19// 38//
f 1104// 38// 1142//
f 1142// 38// 49//
f 1142// 49// 1143//
f 1143// 49// 45//
f 1143// 45// 1135//
f 1136// 1107// 1135//
f 1135// 1107// 1108//
f 1135// 1108// 1143//
f 1143// 1108// 1106//
f 1143// 1106// 1142//
f 1142// 1106// 1105//
f 1142// 1105// 1104//
f 1125// 1123// 1127//
f 1127// 1123// 1124//
f 1127// 1124// 1126//
f 1126// 1124// 1116//
f 1126// 1116// 1134//
f 1134// 1116// 1117//
f 1134// 1117// 1133//
f 1133// 1117// 1118//
f 1133// 1118// 1132//
f 1132// 1118// 1119//
f 1132// 1119// 1131//
f 1131// 1119// 1120//
f 1131// 1120// 1130//
f 1130// 1120// 1121//
f 1130// 1121// 1129//
f 1129// 1121// 1122//
f 1129// 1122// 1128//
f 1128// 1122// 1115//
f 1128// 1115// 1141//
f 1141// 1115// 1114//
f 1141// 1114// 1140//
f 1140// 1114// 1113//
f 1140// 1113// 1139//
f 1139// 1113// 1112//
f 1139// 1112// 1138//
f 1138// 1112// 1111//
f 1138// 1111// 1137//
f 1137// 1111// 1110//
f 1137// 1110// 1136//
f 1136// 1110// 1109//
f 1136// 1109// 1107//
f 1144// 1145// 59//
f 59// 1145// 32//
f 1145// 1146// 32//
f 32// 1146// 30//
f 1146// 1147// 30//
f 30// 1147// 56//
f 1147// 1148// 56//
f 56// 1148// 52//
f 1148// 1149// 52//
f 52// 1149// 61//
f 1149// 1144// 61//
f 61// 1144// 59//
f 1148// 1147// 1149//
f 1149// 1147// 1146//
f 1149// 1146// 1144//
f 1144// 1146// 1145//
usemtl 1
f 1032// 1033// 1034//
f 1034// 1033// 1039//
f 1034// 1039// 1035//
f 1035// 1039// 1038//
f 1035// 1038// 1036//
f 1036// 1038// 1037//
f 1076// 1091// 1075//
f 1075// 1091// 1090//
f 1075// 1090// 1089//
f 1083// 1082// 1075//
f 1075// 1082// 1081//
f 1075// 1081// 1077//
f 1089// 1088// 1075//
f 1075// 1088// 1087//
f 1075// 1087// 1086//
f 1086// 1085// 1075//
f 1075// 1085// 1084//
f 1075// 1084// 1083//
f 1080// 1079// 1081//
f 1081// 1079// 1078//
f 1081// 1078// 1077//
